<?xml version="1.0" standalone="no"?>
<!DOCTYPE svg PUBLIC "-//W3C//DTD SVG 1.1//EN" "http://www.w3.org/Graphics/SVG/1.1/DTD/svg11.dtd" >
<svg xmlns="http://www.w3.org/2000/svg" width="100%" height="100%">
<metadata>
Created by FontXChange 20110222 at Tue Apr  7 14:13:50 2015
 By Creative4
Sign Painter House Casual (C) 1993-1999 House Industries/Brand Design Co. Inc.
</metadata>
<defs>
<font id="SignPainter-HouseCasual" horiz-adv-x="235" >
  <font-face 
    font-family="SignPainter"
    font-weight="500"
    font-stretch="normal"
    units-per-em="1000"
    panose-1="2 0 6 3 0 0 0 0 0 0"
    ascent="800"
    descent="-200"
    x-height="250"
    cap-height="712"
    bbox="-78.2014 -395.159 838.151 842.117"
    underline-thickness="20"
    underline-position="-133"
    stemh="29"
    stemv="44"
    unicode-range="U+0020-20AC"
  />
    <missing-glyph />
    <glyph glyph-name="space" unicode=" " horiz-adv-x="225" 
 />
    <glyph glyph-name="exclam" unicode="!" horiz-adv-x="154" 
d="M62 147c-6 140 7 395 27 515c3 20 13 34 30 40c5 2 5 -1 5 -5c-18 -152 -26 -424 -17 -597c0 -6 -3 -9 -9 -7c-16 4 -34 14 -36 54zM117 13c-1 -24 -13 -35 -32 -31c-17 4 -30 24 -24 49c5 19 17 31 29 28c16 -4 28 -26 27 -46z" />
    <glyph glyph-name="quotedbl" unicode="&#x22;" horiz-adv-x="158" 
d="M51 450c-1 -16 -7 -29 -17 -35c-5 -3 -7 0 -8 6c-3 26 -8 113 -5 165c2 26 18 42 34 47c8 3 11 0 10 -8c-6 -56 -12 -131 -14 -175zM101 442c-5 -15 -12 -27 -24 -31c-5 -2 -7 0 -7 6c1 27 14 114 27 164c7 26 25 39 41 42c7 1 11 -4 9 -11c-16 -54 -37 -126 -46 -170z
" />
    <glyph glyph-name="numbersign" unicode="#" horiz-adv-x="394" 
d="M105 369c-22 -4 -43 -9 -63 -16c-7 -2 -10 0 -8 7c5 20 13 39 35 45c11 3 25 6 39 8c6 69 13 134 23 188c3 16 13 35 32 41c7 2 8 -2 7 -6c-9 -65 -16 -140 -20 -217c33 4 68 6 102 6c3 73 7 142 16 199c3 18 12 38 30 46c6 3 6 -2 6 -7c-7 -71 -11 -154 -11 -239
c27 -1 54 -4 77 -9c4 -1 5 -4 3 -7c-9 -13 -20 -22 -40 -21c-13 1 -26 1 -41 1c0 -58 2 -118 4 -174c23 0 46 -1 66 -3c4 0 5 -3 2 -8c-7 -13 -18 -22 -38 -22c-9 0 -19 -1 -29 -1c3 -66 7 -128 12 -180c1 -7 -2 -9 -9 -8c-18 3 -40 13 -43 55c-3 38 -5 82 -6 129
c-34 -3 -70 -9 -106 -16c1 -54 3 -104 6 -148c0 -6 -1 -9 -10 -7c-17 4 -39 14 -41 53c-1 28 -2 59 -2 91c-24 -6 -47 -13 -69 -22c-6 -2 -10 -1 -8 8c4 20 11 40 32 47c14 5 29 9 45 12c1 56 3 116 7 175zM250 387c-33 -1 -67 -5 -102 -10c-2 -59 -3 -118 -3 -174
c34 5 70 9 105 10c-1 57 -1 116 0 174z" />
    <glyph glyph-name="dollar" unicode="$" horiz-adv-x="358" 
d="M195 612c99 -9 129 -88 127 -142c-2 -53 -29 -91 -61 -95c-7 -1 -12 1 -5 11c13 19 19 46 21 77c3 59 -26 119 -83 126c-5 -83 -8 -187 -8 -291c15 -9 29 -18 44 -27c79 -47 86 -76 73 -120c-10 -33 -54 -72 -111 -81c2 -40 6 -77 10 -108c1 -6 -2 -9 -9 -7
c-15 4 -36 14 -41 54c-2 18 -4 38 -5 60c-15 2 -32 6 -48 12c-40 16 -52 52 -51 69c1 12 6 11 11 6c21 -18 49 -33 86 -39c-2 48 -2 103 -2 159c-66 43 -122 100 -123 178c-1 83 62 148 141 157c4 27 7 51 10 69c3 15 9 32 28 40c5 2 7 -1 6 -6c-4 -26 -7 -61 -10 -102z
M189 117c52 4 88 29 89 54c1 24 -27 46 -75 71c-6 3 -11 6 -17 9c0 -46 2 -91 3 -134zM159 587c-55 -13 -93 -72 -91 -133c2 -49 34 -91 77 -126c2 94 7 187 14 259z" />
    <glyph glyph-name="percent" unicode="%" horiz-adv-x="493" 
d="M422 586c-101 -161 -252 -440 -308 -598c-2 -7 -5 -6 -11 -1c-14 12 -29 31 -14 70c41 108 151 309 241 454c-29 -18 -65 -28 -103 -26c3 -120 -57 -179 -124 -157c-49 16 -96 76 -79 182c11 69 48 124 81 141c9 5 23 5 36 -13c35 4 74 -37 84 -116c1 -4 1 -8 1 -11
c56 -4 131 46 183 140c5 9 10 6 13 0c10 -20 14 -42 0 -65zM326 -8c-49 16 -99 73 -81 176c11 66 49 119 83 135c9 4 22 4 35 -9c39 3 83 -41 92 -116c17 -140 -53 -210 -129 -186zM184 499c-33 23 -57 67 -54 119c-28 -27 -52 -76 -58 -133c-9 -87 28 -134 45 -137
c34 -7 69 58 67 151zM411 168c-3 50 -20 105 -57 105c-27 -23 -54 -71 -60 -129c-9 -84 27 -128 49 -132c35 -6 74 60 68 156z" />
    <glyph glyph-name="ampersand" unicode="&#x26;" horiz-adv-x="498" 
d="M177 347c91 97 182 178 179 242c-1 27 -16 47 -52 47c-65 0 -164 -71 -165 -173c0 -31 15 -71 38 -116zM169 269c-63 -72 -103 -133 -103 -199c0 -69 51 -90 87 -91c58 -1 117 43 163 111c-51 52 -105 116 -147 179zM338 126c25 44 44 94 56 148c2 9 7 12 12 6
c21 -23 22 -59 3 -116c-9 -27 -21 -52 -36 -77c36 -39 71 -73 101 -98c4 -3 6 -6 -1 -8c-20 -6 -36 3 -49 13c-20 15 -46 36 -73 61c-47 -61 -111 -107 -175 -108c-86 -1 -153 55 -155 137c-2 76 57 153 122 226c-33 57 -55 112 -53 155c5 121 125 201 216 199
c68 -1 92 -40 93 -80c2 -75 -108 -180 -198 -278c37 -59 87 -123 137 -180z" />
    <glyph glyph-name="quotesingle" unicode="'" horiz-adv-x="109" 
d="M50 443c-3 -17 -11 -29 -23 -32c-4 -1 -7 0 -7 6c0 27 9 113 19 165c5 26 24 40 40 42c7 1 11 -3 9 -10c-13 -54 -30 -128 -38 -171z" />
    <glyph glyph-name="parenleft" unicode="(" horiz-adv-x="140" 
d="M72 -31c-89 181 -68 490 24 679c7 14 16 29 37 33c7 1 8 -2 6 -7c-75 -173 -120 -541 -2 -737c3 -4 0 -8 -7 -9c-18 0 -40 5 -58 41z" />
    <glyph glyph-name="parenright" unicode=")" horiz-adv-x="164" 
d="M68 -31c-17 -36 -41 -41 -59 -41c-7 1 -9 4 -6 9c117 196 72 564 -3 737c-2 5 0 8 5 7c23 -4 31 -19 38 -33c92 -189 112 -498 25 -679z" />
    <glyph glyph-name="asterisk" unicode="*" horiz-adv-x="375" 
d="M189 409c0 -49 2 -95 6 -131c1 -8 -2 -12 -11 -7c-10 5 -15 21 -19 50c-3 20 -5 53 -7 92c-40 -30 -78 -63 -107 -90c-6 -6 -10 -5 -12 2c-6 20 9 41 29 60s45 39 71 57c-34 24 -67 51 -92 76c-19 19 -25 37 -20 56c2 9 6 10 12 3c34 -35 75 -72 118 -105
c0 58 3 119 11 160c5 26 15 47 35 52c8 2 12 0 10 -9c-13 -60 -20 -131 -23 -201c39 23 75 40 97 49c27 10 39 15 48 9c7 -5 6 -9 0 -12c-39 -17 -88 -46 -137 -79c47 -33 93 -62 130 -80c7 -4 7 -8 -1 -13c-10 -6 -26 4 -53 14c-20 8 -51 25 -85 47z" />
    <glyph glyph-name="plus" unicode="+" horiz-adv-x="272" 
d="M156 182c-2 -20 -2 -39 -2 -53c0 -19 -5 -35 -22 -47c-5 -3 -8 -3 -9 3c-4 22 -6 57 -6 94c-27 -2 -54 -6 -82 -11c-9 -1 -11 1 -9 8c5 18 18 33 42 37c14 2 31 4 49 5c1 22 2 43 4 60c3 22 20 36 37 41c9 3 11 0 10 -8c-5 -26 -8 -59 -10 -92c30 0 61 -1 85 -4
c6 -1 7 -5 4 -9c-12 -18 -27 -22 -47 -22c-15 0 -30 -1 -44 -2z" />
    <glyph glyph-name="comma" unicode="," horiz-adv-x="148" 
d="M74 -10c-11 5 -19 15 -19 32c0 22 10 34 20 35c18 2 33 -18 33 -42c0 -35 -28 -63 -49 -59c-5 1 -6 4 -1 9c6 6 13 15 16 25z" />
    <glyph glyph-name="hyphen" unicode="-" horiz-adv-x="282" 
d="M190 183c-53 1 -106 -3 -162 -13c-7 -1 -9 1 -7 10c4 17 18 32 41 35c47 6 121 4 172 -3c6 -1 6 -4 4 -9c-13 -16 -27 -20 -48 -20z" />
    <glyph glyph-name="period" unicode="." horiz-adv-x="150" 
d="M110 21c0 -21 -13 -34 -30 -32c-16 2 -29 20 -24 44c4 17 18 31 29 28c15 -1 25 -21 25 -40z" />
    <glyph glyph-name="slash" unicode="/" horiz-adv-x="374" 
d="M409 727c7 0 5 -5 3 -8c-87 -142 -295 -596 -354 -812c-2 -7 -6 -9 -12 -4c-15 12 -29 32 -16 77c52 183 250 598 334 717c10 15 20 31 45 30z" />
    <glyph glyph-name="zero" unicode="0" horiz-adv-x="502" 
d="M19 249c0 210 98 431 238 425c134 -6 232 -206 210 -451c-19 -217 -135 -279 -218 -282c-115 -4 -230 104 -230 308zM257 647c-106 -5 -184 -208 -190 -390c-5 -165 61 -286 172 -288c97 -2 175 114 184 273c13 235 -70 410 -166 405z" />
    <glyph glyph-name="one" unicode="1" horiz-adv-x="152" 
d="M60 526c-9 7 -18 14 -23 20s-7 8 -4 22c6 27 22 75 35 100c4 8 7 9 15 3c6 -4 11 -9 16 -15c6 -7 9 -11 7 -27c-19 -184 -26 -511 -3 -684c1 -8 -1 -9 -8 -8c-16 3 -38 19 -43 56c-16 125 -7 363 8 533z" />
    <glyph glyph-name="two" unicode="2" horiz-adv-x="396" 
d="M58 -18c92 24 208 33 281 31c7 0 8 -4 6 -8c-9 -16 -22 -23 -41 -24c-80 -6 -175 -25 -244 -44c-14 -4 -20 0 -27 9s-15 19 -20 27s-8 13 1 22c96 90 211 239 269 367c45 99 70 247 5 275c-83 36 -211 -111 -247 -259c-2 -10 -6 -9 -10 -5c-20 18 -24 53 -5 107
c38 110 166 240 277 180c95 -51 85 -190 19 -327c-58 -120 -166 -258 -264 -351z" />
    <glyph glyph-name="three" unicode="3" horiz-adv-x="458" 
d="M275 342c79 -1 155 -58 157 -146c4 -143 -106 -261 -244 -257c-92 3 -147 43 -171 89c-18 35 -12 69 -7 77s8 8 12 -1c37 -90 102 -138 166 -138c113 0 201 134 203 236c1 74 -41 100 -93 101c-32 1 -64 -9 -98 -22c-26 -10 -41 1 -51 12c-6 7 -3 11 4 15
c113 57 185 172 185 251c0 50 -27 80 -70 81c-75 1 -166 -109 -206 -228c-3 -9 -8 -7 -12 -3c-20 22 -21 61 4 111c43 87 122 154 201 153c77 -1 129 -68 127 -143c-2 -65 -38 -137 -107 -188z" />
    <glyph glyph-name="four" unicode="4" horiz-adv-x="401" 
d="M62 214c70 8 153 10 222 8c3 147 14 310 29 407c-75 -96 -198 -283 -251 -415zM330 220c20 -1 37 -3 52 -5c7 -1 7 -5 5 -9c-8 -15 -22 -22 -41 -21c-5 0 -10 0 -16 1c1 -92 5 -178 13 -241c1 -6 -2 -7 -9 -6c-18 3 -41 14 -45 54c-5 49 -7 118 -6 193
c-67 -2 -151 -8 -226 -18c-11 -1 -16 -3 -24 4c-6 5 -15 13 -21 22c-5 7 -7 12 -3 23c50 131 205 359 294 457c6 7 13 7 18 2c7 -3 18 -13 24 -19c5 -5 6 -7 5 -17c-12 -108 -20 -270 -20 -420z" />
    <glyph glyph-name="five" unicode="5" horiz-adv-x="382" 
d="M70 324c27 25 60 42 96 48c90 14 168 -53 182 -151c21 -147 -61 -266 -158 -278c-53 -7 -104 6 -138 44c-35 39 -40 81 -27 105c2 4 7 7 10 -1c30 -78 92 -133 151 -123c80 13 129 130 113 253c-10 78 -50 128 -103 125c-44 -2 -85 -42 -110 -69c-9 -9 -15 -9 -27 -3
s-17 10 -26 19c-8 8 -8 11 -8 23c3 117 16 266 28 333c2 9 6 13 14 14c73 13 178 15 270 7c5 0 6 -3 4 -7c-9 -15 -21 -20 -39 -20c-73 -1 -146 -5 -217 -17c-8 -80 -13 -188 -15 -302z" />
    <glyph glyph-name="six" unicode="6" horiz-adv-x="422" 
d="M206 -33c73 -2 135 73 138 214c2 97 -51 187 -121 190c-73 3 -146 -68 -148 -190c-2 -123 59 -212 131 -214zM71 324c34 47 88 76 150 76c77 0 172 -71 172 -216s-78 -245 -184 -243c-127 2 -199 127 -191 336c8 221 92 399 217 399c106 0 149 -100 155 -153
c6 -50 -7 -88 -32 -102c-6 -3 -12 -1 -11 7c10 99 -38 222 -111 221c-70 -1 -147 -145 -165 -325z" />
    <glyph glyph-name="seven" unicode="7" horiz-adv-x="350" 
d="M301 625c-80 7 -171 4 -253 -2c-18 -1 -32 6 -41 20c-3 4 -1 8 4 8c83 16 207 23 293 16c13 -1 20 -3 26 -11c4 -6 7 -14 10 -22c1 -4 1 -11 -3 -18c-93 -168 -193 -439 -237 -674c-1 -6 -6 -6 -12 -2c-15 9 -27 27 -21 67c29 187 148 477 234 618z" />
    <glyph glyph-name="eight" unicode="8" horiz-adv-x="460" 
d="M431 171c0 -132 -126 -231 -244 -232c-86 -1 -171 56 -170 155c1 100 71 163 173 249c-78 39 -148 79 -148 160c0 94 110 177 212 172c87 -4 142 -61 137 -132c-4 -63 -44 -122 -122 -191c84 -42 162 -88 162 -181zM354 559c0 48 -27 81 -79 84c-91 6 -189 -70 -189 -140
c0 -55 61 -90 141 -130c76 66 127 123 127 186zM47 85c1 -58 56 -100 117 -104c131 -9 235 100 236 191c1 63 -76 103 -166 149c-99 -84 -188 -162 -187 -236z" />
    <glyph glyph-name="nine" unicode="9" horiz-adv-x="424" 
d="M332 430c-2 120 -54 219 -130 215c-66 -3 -143 -108 -138 -250c3 -82 45 -167 125 -166c78 1 145 80 143 201zM346 297c-30 -60 -85 -95 -153 -96c-76 -1 -176 60 -179 205c-3 144 87 267 187 268c126 1 193 -144 191 -348c-2 -222 -75 -389 -201 -389
c-57 0 -105 29 -129 71c-29 45 -27 85 -11 106c5 6 9 7 11 -2c23 -93 78 -150 140 -146c71 5 137 156 144 331z" />
    <glyph glyph-name="colon" unicode=":" horiz-adv-x="147" 
d="M45 230c-2 19 12 39 26 40c11 3 24 -9 29 -28c6 -24 -9 -42 -24 -44c-18 -2 -29 11 -31 32zM101 21c0 -21 -13 -34 -30 -32c-16 2 -29 20 -23 44c5 19 17 31 28 28c14 -1 25 -21 25 -40z" />
    <glyph glyph-name="semicolon" unicode=";" horiz-adv-x="146" 
d="M45 231c0 18 12 37 26 38c10 1 23 -12 28 -31c6 -23 -8 -40 -25 -41c-16 -1 -29 12 -29 34zM65 -9c-11 4 -19 15 -19 33c0 21 11 33 20 34c18 2 35 -18 34 -41c-1 -36 -29 -64 -51 -59c-3 1 -4 3 -1 7c6 7 14 16 17 26z" />
    <glyph glyph-name="less" unicode="&#x3c;" horiz-adv-x="249" 
d="M25 210c35 25 104 61 148 78c21 8 40 0 52 -13c5 -6 5 -10 -2 -11c-50 -16 -124 -48 -161 -67l-4 3c45 -11 98 -29 132 -47c20 -10 28 -28 27 -47c0 -8 -4 -9 -9 -6c-51 27 -100 50 -150 66c-19 6 -30 13 -37 33c-2 5 -1 8 4 11z" />
    <glyph glyph-name="equal" unicode="=" horiz-adv-x="286" 
d="M193 147c-53 -3 -106 -11 -162 -23c-7 -1 -10 0 -8 8c5 18 16 33 39 38c47 10 123 12 172 7c6 -1 8 -3 5 -8c-9 -16 -26 -21 -46 -22zM194 220c-53 1 -106 -3 -164 -10c-7 -1 -10 2 -7 10c6 16 20 32 43 34c48 5 121 1 172 -7c6 0 7 -4 4 -8c-13 -17 -29 -19 -48 -19z
" />
    <glyph glyph-name="greater" unicode="&#x3e;" horiz-adv-x="243" 
d="M218 210c5 -3 6 -6 4 -11c-7 -20 -17 -25 -37 -32c-50 -17 -99 -40 -149 -68c-8 -4 -10 -1 -10 6c-1 19 6 36 27 47c34 18 87 37 132 48l-5 -3c-36 19 -105 48 -154 64c-7 2 -8 5 -3 11c12 13 31 20 52 13c45 -16 108 -50 143 -75z" />
    <glyph glyph-name="question" unicode="?" horiz-adv-x="369" 
d="M166 93c-13 5 -25 24 -28 53c-19 161 163 203 166 377c1 78 -34 140 -100 143c-93 4 -155 -117 -142 -248c1 -9 -2 -10 -9 -6c-25 13 -35 51 -32 99c4 70 61 184 179 178c102 -5 153 -87 148 -183c-9 -185 -212 -218 -172 -406c1 -7 -3 -10 -10 -7zM195 13
c-2 -24 -13 -35 -32 -31c-18 4 -31 24 -25 49c5 20 19 31 29 28c15 -4 30 -26 28 -46z" />
    <glyph glyph-name="at" unicode="@" horiz-adv-x="583" 
d="M315 514c-38 6 -109 -94 -124 -210c-14 -109 27 -161 58 -165c56 -8 101 85 109 193c7 95 -13 177 -43 182zM372 205c-22 -72 -71 -101 -121 -93c-65 10 -126 77 -109 198c17 124 102 246 181 233c35 -6 59 -32 65 -79c13 4 20 2 19 -10c-12 -145 2 -279 36 -288
c25 -7 59 81 58 180c-1 124 -68 272 -192 271c-123 -1 -227 -151 -227 -322c0 -176 100 -262 190 -264c74 -2 128 50 154 88c4 6 6 6 10 -1c7 -14 0 -40 -8 -55c-27 -48 -86 -70 -139 -70c-141 0 -258 127 -259 304c-1 197 126 349 279 348c167 -1 245 -166 244 -311
c-1 -129 -58 -210 -112 -196c-29 8 -55 29 -69 67z" />
    <glyph glyph-name="A" unicode="A" horiz-adv-x="539" 
d="M410 172c-65 -2 -151 -8 -230 -19c-45 -81 -95 -147 -147 -188c-31 -24 -55 -26 -73 -19c-6 2 -6 7 -1 10c66 38 124 106 175 189c-36 -6 -70 -14 -97 -23c-9 -3 -10 0 -9 7c4 20 16 41 39 48c25 7 58 13 95 18c84 158 143 358 174 514c2 10 7 14 17 10
c29 -11 35 -29 36 -52c4 -150 23 -316 55 -462c17 -1 32 -2 44 -4c7 0 7 -2 4 -7c-9 -16 -21 -22 -41 -22c20 -84 44 -160 71 -222c2 -5 1 -8 -6 -8c-18 -1 -34 6 -51 43c-20 44 -39 110 -55 187zM205 200c66 6 138 8 198 7c-29 150 -49 334 -46 478
c-24 -161 -79 -340 -152 -485z" />
    <glyph glyph-name="B" unicode="B" horiz-adv-x="651" 
d="M239 5c-8 9 -14 22 -15 41c-14 169 -9 413 19 539c3 16 10 32 29 39c7 2 7 -1 6 -6c-24 -147 -31 -424 -5 -624c28 -8 59 -11 93 -12c81 -1 182 37 190 124c6 68 -47 118 -115 139c-42 -10 -87 -12 -132 -4c-25 4 -32 16 -16 33c15 16 51 20 78 19c22 -1 43 -4 62 -9
c78 19 169 69 165 164c-5 122 -147 201 -289 205c-138 4 -232 -48 -254 -108c-25 -68 28 -132 129 -151c8 -1 9 -7 2 -11c-13 -7 -35 -10 -69 -3c-77 16 -126 86 -86 183c28 68 120 145 288 136c188 -10 312 -121 309 -255c-2 -85 -59 -150 -138 -183c62 -35 97 -95 92 -156
c-9 -91 -85 -164 -218 -165c-97 -1 -153 35 -182 60c-15 13 -27 34 -27 44c0 8 3 9 10 4c23 -18 47 -32 74 -43z" />
    <glyph glyph-name="C" unicode="C" horiz-adv-x="480" 
d="M438 205c6 -7 8 -21 7 -43c-6 -136 -87 -201 -178 -206c-117 -6 -246 91 -247 298c-1 250 143 438 260 440c129 2 157 -146 153 -214c-3 -56 -27 -92 -54 -100c-8 -2 -10 -2 -8 8c29 117 -6 281 -89 278c-75 -3 -206 -165 -210 -395c-3 -170 66 -288 176 -286
c84 2 159 75 182 218c1 5 4 7 8 2z" />
    <glyph glyph-name="D" unicode="D" horiz-adv-x="690" 
d="M280 -5c27 -7 56 -10 88 -10c176 1 258 118 251 288c-10 257 -182 384 -358 377c-106 -4 -183 -45 -204 -105c-24 -68 28 -132 128 -151c8 -1 10 -7 3 -11c-13 -7 -36 -10 -69 -3c-78 16 -126 87 -87 184c26 64 107 130 233 135c235 9 393 -180 390 -425
c-2 -184 -91 -331 -283 -334c-96 -2 -160 35 -187 60c-16 13 -28 34 -28 44c0 8 1 9 9 4c25 -17 51 -32 79 -42c-8 9 -13 21 -15 40c-14 169 -8 413 19 539c3 16 11 32 29 39c8 3 7 -1 6 -6c-23 -147 -30 -423 -4 -623z" />
    <glyph glyph-name="E" unicode="E" horiz-adv-x="355" 
d="M63 630c-15 -3 -30 -7 -45 -10c-8 -2 -10 2 -8 9c4 21 17 42 39 46c98 16 233 17 330 7c6 -1 8 -4 5 -8c-9 -16 -22 -21 -42 -21c-82 0 -166 -4 -246 -17c-8 -96 -14 -236 -13 -371c63 8 136 11 208 6c5 0 6 -2 4 -6c-9 -16 -22 -20 -38 -21c-58 -3 -117 -9 -174 -18
c1 -91 5 -179 12 -248c85 21 180 30 251 31c6 0 8 -2 5 -8c-7 -15 -20 -23 -39 -25c-71 -8 -139 -22 -200 -41c-12 -4 -17 -5 -31 1c-7 3 -14 7 -20 11c-7 4 -10 8 -11 20c-7 61 -10 152 -9 251c-12 -2 -23 -4 -34 -7c-7 -2 -11 0 -9 7c4 18 11 34 35 39c3 1 5 1 8 1
c3 138 10 283 22 372z" />
    <glyph glyph-name="F" unicode="F" horiz-adv-x="331" 
d="M108 688c103 11 243 8 319 -3c8 -1 8 -3 5 -8c-8 -15 -22 -22 -41 -21c-81 2 -187 1 -288 -14c-6 -75 -11 -176 -13 -282c63 9 134 12 196 5c5 -1 4 -3 2 -7c-8 -15 -21 -20 -38 -20c-53 -1 -106 -6 -161 -17c-1 -141 2 -285 14 -378c1 -7 -1 -9 -8 -7
c-17 4 -34 14 -39 55c-9 75 -11 198 -8 322c-12 -3 -25 -6 -38 -10c-7 -2 -11 0 -9 8c3 18 16 35 37 40c4 1 8 2 11 2c4 109 11 214 20 283c-21 -3 -42 -8 -62 -13c-9 -2 -11 1 -9 8c5 21 15 41 39 46c12 3 26 5 40 7c4 15 10 31 29 39c5 2 7 -1 6 -6c-1 -9 -3 -18 -4 -29z
" />
    <glyph glyph-name="G" unicode="G" horiz-adv-x="544" 
d="M441 263c-77 -1 -169 -12 -245 -37c-6 -2 -10 -1 -8 7c4 20 12 38 34 45c78 23 212 30 301 13c4 -1 5 -2 2 -7c-7 -13 -20 -22 -39 -21h-6c-9 -112 -12 -227 -1 -314c1 -6 -2 -9 -11 -6c-17 6 -37 18 -39 53c-2 30 0 63 3 98c-31 -106 -98 -145 -162 -147
c-116 -3 -249 101 -247 307c3 251 155 436 272 437c128 1 154 -149 150 -216c-3 -55 -29 -91 -57 -99c-7 -2 -10 -1 -8 8c32 117 -1 281 -84 279c-79 -2 -214 -155 -221 -392c-5 -171 64 -290 181 -291c85 -1 173 95 185 283z" />
    <glyph glyph-name="H" unicode="H" horiz-adv-x="464" 
d="M398 239c1 -117 7 -229 18 -307c1 -6 -3 -7 -10 -6c-16 3 -38 14 -43 55c-8 62 -11 156 -11 257c-68 -2 -155 -9 -234 -22c3 -96 8 -187 18 -257c1 -6 -1 -8 -8 -7c-18 3 -41 14 -46 54c-7 53 -10 124 -10 201c-31 -6 -60 -13 -83 -22c-9 -3 -12 0 -10 9
c4 20 16 43 37 49c16 5 35 9 56 12c1 146 12 301 28 376c3 16 9 32 29 41c6 3 7 -2 7 -5c-13 -85 -20 -247 -18 -405c74 10 163 13 235 11c3 163 14 336 29 412c3 16 9 34 29 42c5 2 7 -1 6 -6c-12 -87 -20 -271 -20 -450c15 0 28 -1 40 -3c7 -1 8 -4 5 -8
c-10 -16 -23 -21 -42 -21h-2z" />
    <glyph glyph-name="I" unicode="I" horiz-adv-x="365" 
d="M193 637c-63 -5 -125 -15 -182 -30c-10 -3 -12 1 -10 8c5 19 17 40 37 45c40 10 100 15 162 18c4 13 10 27 28 34c5 2 7 -1 6 -6c-1 -8 -2 -18 -4 -28c75 1 149 -2 195 -9c6 -1 6 -3 3 -8c-8 -14 -22 -19 -40 -18c-49 2 -105 1 -162 -3c-15 -173 -23 -497 -2 -674
c69 2 136 -1 177 -8c6 -1 6 -4 4 -8c-9 -15 -22 -19 -39 -19c-105 2 -280 -10 -383 -43c-8 -2 -10 1 -8 8c5 20 18 42 38 48c43 12 108 19 174 21c-5 6 -10 15 -11 26c-18 150 -5 496 17 646z" />
    <glyph glyph-name="J" unicode="J" horiz-adv-x="379" 
d="M328 683c-12 -94 -9 -282 4 -460c9 -124 21 -212 -58 -270c-72 -53 -203 -38 -266 106c-11 26 -9 46 -4 58c2 6 7 7 10 -1c45 -121 165 -194 241 -145c55 35 41 116 34 234c-10 164 -12 357 4 443c3 15 8 32 28 41c5 2 8 -1 7 -6z" />
    <glyph glyph-name="K" unicode="K" horiz-adv-x="374" 
d="M35 228c0 160 11 338 28 414c3 15 7 31 27 39c5 2 7 -1 6 -6c-12 -81 -20 -251 -18 -416c130 122 286 321 343 428c2 4 5 6 8 0c10 -19 1 -36 -5 -50c-38 -92 -199 -314 -338 -436c87 -91 208 -188 276 -228c3 -2 3 -6 0 -8c-20 -11 -36 -3 -49 3
c-55 25 -146 92 -232 175c3 -76 8 -145 16 -197c1 -6 -2 -7 -9 -6c-18 3 -38 13 -43 52c-7 49 -10 119 -10 196c-15 14 -16 25 0 40z" />
    <glyph glyph-name="L" unicode="L" horiz-adv-x="563" 
d="M385 303l9 3c94 34 115 147 113 230c-1 58 -22 134 -63 111c-77 -43 -67 -227 -59 -344zM316 38c-45 32 -94 60 -149 63c-49 3 -106 -9 -120 -46c-8 -20 10 -41 34 -54c64 -34 179 -39 232 32zM343 297c-4 58 -8 116 -8 163c0 89 28 182 100 216c67 31 117 -18 117 -137
c0 -114 -51 -214 -144 -253c-7 -3 -14 -5 -21 -8c1 -17 2 -32 2 -44c2 -66 -4 -128 -28 -178c75 -53 141 -111 214 -98c6 1 10 -2 6 -10c-6 -11 -19 -24 -47 -25c-67 -3 -129 49 -195 98l-4 -6c-81 -96 -215 -88 -276 -52c-49 29 -64 68 -33 115c28 42 96 63 154 59
c57 -4 107 -31 154 -62c10 30 13 66 13 108c0 28 -1 57 -3 86c-92 -10 -193 35 -231 182c-5 17 -2 33 1 41c5 6 7 6 9 -1c42 -139 139 -195 220 -194z" />
    <glyph glyph-name="M" unicode="M" horiz-adv-x="602" 
d="M585 -59c-16 0 -29 6 -41 25c-67 106 -48 464 -52 633c0 17 -8 25 -15 9c-51 -121 -122 -385 -138 -634c-1 -12 0 -13 -13 -12c-18 1 -37 14 -37 52c-2 209 -22 473 -42 559c-5 22 -13 15 -17 8c-60 -105 -144 -399 -132 -635c0 -6 -4 -11 -11 -9c-15 4 -40 15 -45 54
c-20 156 -8 529 18 650c3 15 10 30 31 39c5 2 7 -2 6 -6c-18 -106 -30 -373 -22 -571c17 229 98 448 146 526c19 31 30 28 42 21c21 -16 26 -51 34 -91c18 -91 32 -297 30 -441c26 216 93 440 135 538c15 35 32 39 51 20c36 -32 26 -88 26 -147c-1 -124 -18 -504 53 -580
c4 -4 -1 -8 -7 -8z" />
    <glyph glyph-name="N" unicode="N" horiz-adv-x="415" 
d="M335 -3c-27 168 -15 542 8 653c3 13 9 28 29 36c5 2 6 -2 6 -5c-22 -152 -25 -541 4 -725c1 -7 1 -10 -7 -13c-15 -6 -34 -9 -52 12c-102 121 -208 389 -251 587c-10 -172 -6 -452 20 -595c1 -6 -1 -7 -8 -6c-17 2 -34 12 -40 48c-24 149 -19 514 4 627c3 13 6 29 29 39
c8 4 12 0 13 -7c42 -219 140 -494 245 -651z" />
    <glyph glyph-name="O" unicode="O" horiz-adv-x="527" 
d="M490 222c-20 -221 -140 -285 -224 -288c-113 -4 -241 106 -239 314c1 124 39 224 89 296c19 66 72 139 163 136c130 -4 233 -209 211 -458zM269 654c-90 -9 -145 -184 -83 -295c5 -9 2 -12 -5 -11c-31 4 -66 40 -73 110c-20 -58 -35 -129 -36 -202
c-3 -169 66 -294 182 -294c104 0 185 116 195 279c14 239 -85 422 -180 413z" />
    <glyph glyph-name="P" unicode="P" horiz-adv-x="653" 
d="M264 241c209 -6 343 82 338 194c-5 122 -146 201 -289 205c-139 4 -233 -48 -255 -108c-25 -68 29 -132 129 -151c9 -2 9 -6 3 -10c-13 -8 -35 -11 -68 -4c-78 16 -128 86 -88 183c28 68 121 145 288 136c189 -10 311 -122 309 -255c-2 -137 -136 -226 -345 -226
c-8 0 -15 2 -22 6c2 -97 8 -193 19 -266c1 -6 -2 -7 -9 -6c-18 3 -39 11 -44 50c-20 157 -9 462 17 582c3 14 9 32 29 39c6 2 7 -1 6 -5c-12 -80 -19 -222 -18 -364z" />
    <glyph glyph-name="Q" unicode="Q" horiz-adv-x="529" 
d="M557 -64c-1 -13 -9 -25 -21 -36c-18 -16 -52 -32 -90 -32c-55 0 -96 34 -133 75c-18 -6 -34 -9 -51 -9c-55 -1 -113 24 -159 74c-21 -10 -41 -26 -57 -43c-6 -6 -8 -5 -9 0c-1 10 2 23 12 39c6 9 17 20 33 31c-36 52 -59 123 -58 213c1 125 39 224 89 296
c18 66 71 139 162 136c130 -4 234 -209 213 -458c-13 -158 -80 -236 -148 -268c42 -38 80 -44 108 -44c33 0 73 11 101 30c6 4 8 1 8 -4zM110 54c20 12 43 19 66 19c69 0 96 -42 141 -94c70 38 122 135 129 262c13 239 -86 422 -180 413c-91 -9 -145 -184 -83 -295
c5 -9 1 -12 -6 -11c-30 4 -66 40 -73 110c-20 -58 -34 -129 -35 -202c-1 -80 13 -150 41 -202zM291 -32c-36 40 -65 61 -114 61c-14 0 -29 -3 -44 -8c30 -38 70 -59 118 -59c14 0 27 1 40 6z" />
    <glyph glyph-name="R" unicode="R" horiz-adv-x="662" 
d="M265 167c3 -82 8 -160 18 -222c1 -6 -2 -7 -9 -6c-18 3 -39 9 -44 48c-20 157 -9 464 17 583c3 15 9 33 29 40c6 2 7 -1 6 -5c-12 -80 -19 -221 -18 -363c208 -8 343 81 338 193c-5 122 -146 201 -289 205c-139 4 -233 -48 -255 -108c-25 -68 30 -132 129 -151
c9 -2 10 -6 3 -10c-14 -8 -35 -11 -68 -4c-78 16 -128 86 -88 183c28 68 120 145 288 136c189 -10 313 -122 310 -255c-3 -135 -137 -224 -339 -227c85 -85 194 -173 257 -211c3 -2 5 -6 0 -8c-20 -10 -34 -4 -48 3c-56 27 -148 94 -237 179z" />
    <glyph glyph-name="S" unicode="S" horiz-adv-x="472" 
d="M454 511c0 -70 -34 -130 -78 -136c-4 -1 -17 -1 -8 10c24 27 37 75 38 114c2 83 -56 167 -149 165c-114 -2 -193 -104 -191 -200c2 -112 143 -194 245 -259c118 -75 118 -133 88 -190c-32 -61 -115 -85 -189 -81c-137 7 -158 86 -155 120c2 22 13 32 16 16
c13 -65 80 -90 147 -96c54 -5 134 2 155 51c26 61 -22 101 -92 147c-104 69 -261 147 -261 292c0 128 114 226 241 225c154 -1 193 -108 193 -178z" />
    <glyph glyph-name="T" unicode="T" horiz-adv-x="419" 
d="M228 641c-76 -4 -152 -13 -207 -27c-9 -2 -11 1 -10 8c3 16 15 37 36 42c105 24 341 23 440 7c8 -1 9 -2 5 -7c-12 -15 -23 -20 -43 -19c-49 2 -119 2 -190 -2c-16 -180 -20 -517 5 -693c1 -5 -1 -9 -8 -7c-18 4 -37 15 -42 56c-20 153 -9 493 14 642z" />
    <glyph glyph-name="U" unicode="U" horiz-adv-x="457" 
d="M365 151c-18 -241 -128 -239 -208 -200c-73 36 -132 117 -134 262c-2 157 43 361 83 438c10 19 22 27 32 28c7 1 9 -3 6 -9c-44 -106 -79 -308 -75 -439c4 -148 37 -229 104 -260c62 -29 152 16 174 207c17 148 15 316 34 426c4 23 13 43 32 50c8 3 10 0 9 -7
c-10 -72 -22 -242 -20 -375c2 -117 8 -231 24 -315c1 -6 -1 -10 -9 -7c-15 5 -35 17 -40 52c-6 42 -9 95 -12 149z" />
    <glyph glyph-name="V" unicode="V" horiz-adv-x="403" 
d="M214 43c21 209 113 549 241 631c13 8 23 13 34 10c6 -2 7 -5 3 -8c-161 -130 -242 -545 -248 -728c0 -12 -6 -13 -17 -11c-23 5 -44 13 -47 48c-14 171 -93 505 -174 650c-2 3 -3 7 4 7c16 -1 22 -11 30 -23c70 -106 154 -377 174 -576z" />
    <glyph glyph-name="W" unicode="W" horiz-adv-x="663" 
d="M331 113c-2 -203 -125 -196 -181 -168c-66 33 -110 138 -112 267c-3 161 37 362 70 440c8 18 20 26 28 27c5 1 7 -2 4 -11c-32 -108 -59 -308 -56 -439c3 -139 27 -232 80 -263c50 -29 117 19 135 210c14 149 2 241 13 318c4 26 14 37 28 42c7 3 11 3 10 -10
c-9 -121 -4 -222 6 -327c18 -183 86 -222 139 -203c56 20 84 114 86 246c2 125 -20 302 -58 422c-2 7 -1 10 4 9c8 -2 19 -9 26 -27c36 -91 73 -276 68 -419c-4 -123 -40 -228 -119 -254c-51 -16 -138 2 -171 140z" />
    <glyph glyph-name="X" unicode="X" horiz-adv-x="385" 
d="M121 286c-49 110 -88 228 -108 324c-3 15 -6 34 8 51c4 5 7 2 8 -3c25 -100 66 -214 117 -322c62 123 133 234 187 298c25 30 45 30 62 26c7 -2 10 -5 6 -10c-89 -110 -168 -236 -232 -363c63 -125 137 -239 208 -309c4 -4 4 -7 -5 -10c-17 -5 -36 0 -66 29
c-58 56 -114 143 -162 240c-49 -104 -87 -206 -111 -297c-1 -5 -4 -7 -9 -2c-15 15 -13 34 -10 48c19 94 60 199 107 300z" />
    <glyph glyph-name="Y" unicode="Y" horiz-adv-x="436" 
d="M352 104c-19 -117 -69 -159 -119 -161c-128 -5 -203 161 -199 349c2 116 29 238 70 322c9 19 21 23 31 24c7 1 7 -2 4 -9c-30 -72 -60 -203 -63 -328c-6 -221 72 -328 133 -328c53 0 116 63 130 212c13 142 13 304 40 422c8 33 15 44 33 52c8 4 14 1 11 -11
c-20 -69 -37 -240 -37 -372c0 -119 12 -246 26 -368c14 -120 0 -221 -85 -276c-78 -51 -202 -37 -265 101c-12 25 -11 45 -5 57c2 5 6 6 9 -1c49 -120 168 -184 243 -137c67 42 75 139 63 250c-6 62 -16 135 -20 202z" />
    <glyph glyph-name="Z" unicode="Z" horiz-adv-x="355" 
d="M41 -34c95 15 226 14 303 5c7 -1 7 -4 4 -8c-9 -16 -26 -20 -45 -20c-77 1 -177 -5 -247 -21c-13 -3 -18 -1 -27 6c-5 4 -16 13 -21 22c-3 5 -6 9 -1 27c57 208 214 494 345 660c-88 4 -210 -5 -292 -15c-17 -2 -33 5 -42 18c-3 5 -1 8 5 9c81 19 239 35 325 31
c14 -1 16 -1 22 -8c9 -11 17 -23 23 -36s5 -18 -3 -28c-152 -193 -284 -444 -349 -642z" />
    <glyph glyph-name="bracketleft" unicode="[" horiz-adv-x="191" 
d="M85 639c-14 -169 -19 -491 4 -670c33 10 66 17 93 21c7 1 10 -2 8 -8c-5 -16 -17 -26 -34 -31c-19 -6 -37 -13 -55 -19c-9 -3 -16 -3 -23 1s-15 8 -21 12s-10 12 -12 26c-26 163 -14 515 7 684c2 15 6 22 25 24c26 3 78 8 105 7c7 0 7 -4 6 -8c-6 -17 -19 -25 -38 -28
c-21 -3 -43 -7 -65 -11z" />
    <glyph glyph-name="backslash" unicode="\" horiz-adv-x="361" 
d="M13 734c5 6 7 2 8 -2c42 -162 223 -627 338 -819c4 -6 2 -10 -6 -11c-19 -3 -43 0 -66 40c-96 165 -257 596 -285 740c-3 17 -7 35 11 52z" />
    <glyph glyph-name="bracketright" unicode="]" horiz-adv-x="159" 
d="M95 654c-23 -1 -56 -4 -80 -7c-8 -1 -12 0 -9 8c6 15 19 27 39 31c19 4 47 7 70 7c11 0 15 -5 14 -16c-14 -161 -16 -485 4 -676c2 -18 0 -21 -6 -28s-11 -12 -16 -16c-7 -5 -11 -8 -26 -9c-22 -2 -55 -6 -77 -9c-7 -1 -10 1 -8 8c4 15 17 28 37 33c10 3 32 6 52 8
c-18 158 -13 510 6 666z" />
    <glyph glyph-name="asciicircum" unicode="^" horiz-adv-x="247" 
d="M113 638c-33 -70 -65 -147 -83 -214c-2 -9 -6 -11 -13 -4c-15 14 -21 34 -15 58c13 51 52 134 95 205c5 8 10 8 14 5c7 -4 18 -11 24 -17c5 -5 7 -7 10 -15c27 -74 59 -150 99 -205c5 -7 4 -11 -6 -12c-20 -1 -36 7 -50 26c-23 31 -51 101 -75 173z" />
    <glyph glyph-name="underscore" unicode="_" horiz-adv-x="576" 
d="M544 -172h-574c-6 0 -6 3 -3 8c8 14 26 26 50 26h574c6 0 5 -4 3 -8c-8 -16 -27 -26 -50 -26z" />
    <glyph glyph-name="grave" unicode="`" horiz-adv-x="227" 
d="M146 753c-28 15 -74 38 -116 52c-7 3 -8 6 -2 12c13 13 34 20 54 10c37 -18 86 -47 116 -69c6 -5 3 -9 -1 -10c-19 -9 -34 -4 -51 5z" />
    <glyph glyph-name="a" unicode="a" 
d="M144 184c2 45 -9 72 -24 76c-20 5 -62 -55 -74 -129c-13 -80 7 -114 25 -118c25 -5 68 59 73 171zM162 244c5 11 15 17 23 19c5 1 7 -1 6 -6c-26 -107 -17 -228 6 -233c13 -3 43 33 51 92c0 3 0 6 5 1c6 -6 8 -19 8 -31c0 -66 -30 -103 -70 -88c-25 9 -39 31 -46 65
c-12 -54 -39 -88 -89 -69c-38 14 -69 65 -45 163c26 105 83 146 124 121c12 -7 21 -20 27 -34z" />
    <glyph glyph-name="b" unicode="b" horiz-adv-x="226" 
d="M104 263c-17 -2 -36 -25 -44 -75c-18 -110 14 -177 44 -181c23 -3 53 32 53 115c0 88 -31 143 -53 141zM60 2c2 -12 3 -24 5 -35c1 -6 -3 -8 -10 -6c-15 5 -32 17 -35 53c-16 164 -10 408 19 532c3 14 11 31 29 38c6 2 7 -1 6 -6c-14 -82 -25 -212 -26 -341
c11 24 24 39 45 49c45 22 100 -31 106 -144c6 -104 -44 -150 -85 -157c-23 -4 -42 2 -54 17z" />
    <glyph glyph-name="c" unicode="c" horiz-adv-x="188" 
d="M203 114c4 -9 2 -21 -1 -36c-13 -60 -57 -107 -120 -90c-47 13 -85 59 -76 159c11 117 69 168 110 142c23 -14 40 -38 40 -67c0 -38 -21 -59 -37 -60c-6 0 -7 0 -6 4c18 50 10 103 -7 105c-21 3 -57 -67 -60 -147c-2 -58 11 -99 33 -110c44 -22 99 43 116 98c2 6 6 7 8 2
z" />
    <glyph glyph-name="d" unicode="d" horiz-adv-x="256" 
d="M149 191c-1 49 -18 76 -29 78c-22 5 -59 -59 -70 -137c-12 -82 12 -121 31 -123c26 -3 71 75 68 182zM156 264c6 90 18 203 43 293c3 12 12 16 22 19c5 2 7 0 6 -5c-27 -138 -34 -309 -33 -389c1 -94 7 -162 27 -170c15 -6 41 34 51 101c1 6 4 4 6 1c7 -10 9 -31 7 -50
c-7 -56 -31 -90 -66 -78c-36 12 -53 44 -61 90c-10 -62 -41 -102 -94 -85c-40 13 -74 63 -53 166c23 113 83 160 122 132c9 -6 17 -15 23 -25z" />
    <glyph glyph-name="e" unicode="e" horiz-adv-x="179" 
d="M44 102c76 16 89 153 64 160c-19 5 -56 -50 -63 -126c-1 -12 -2 -24 -1 -34zM45 85c4 -37 17 -61 31 -66c37 -13 96 23 118 94c2 6 6 6 7 1c2 -8 2 -16 0 -29c-14 -73 -72 -111 -133 -87c-32 13 -79 66 -62 161c19 108 75 150 114 122c32 -23 40 -59 30 -102
c-14 -59 -64 -91 -105 -94z" />
    <glyph glyph-name="f" unicode="f" horiz-adv-x="170" 
d="M46 95c0 -128 11 -258 44 -278c26 -16 39 120 13 219c-20 10 -40 29 -57 59zM128 61c26 -5 47 10 56 55c1 7 7 5 9 1c3 -7 5 -20 2 -37c-5 -32 -27 -51 -55 -52c19 -65 24 -140 4 -206c-10 -33 -32 -51 -69 -26c-69 47 -73 190 -69 308c4 120 27 298 58 394
c9 27 20 37 31 39c7 1 7 1 5 -7c-27 -100 -46 -251 -52 -356c7 -3 15 -9 24 -19c21 -23 41 -56 56 -94z" />
    <glyph glyph-name="g" unicode="g" horiz-adv-x="222" 
d="M157 181c2 48 -9 78 -24 82c-21 6 -63 -52 -80 -130c-18 -81 5 -119 22 -124c27 -4 77 64 82 172zM170 250c0 2 1 5 1 7c2 13 12 25 23 29c5 2 7 -2 7 -5c-16 -117 -9 -269 0 -380c6 -80 -16 -124 -46 -149c-57 -48 -120 -9 -139 62c-9 33 -6 55 0 68c3 7 10 7 12 -2
c27 -102 83 -127 112 -107c23 16 28 58 21 127c-5 54 -7 108 -7 160c-15 -55 -47 -89 -94 -69c-40 17 -74 70 -44 171c33 112 91 151 129 119c10 -8 19 -19 25 -31z" />
    <glyph glyph-name="h" unicode="h" horiz-adv-x="230" 
d="M54 90c13 63 41 139 59 172c10 18 22 22 39 9c15 -12 20 -31 20 -56c-1 -73 0 -178 27 -186c16 -5 38 34 44 84c0 4 2 5 4 3c4 -4 8 -12 8 -24c2 -72 -27 -97 -60 -86c-26 9 -51 22 -59 77c-8 54 -6 107 -6 146c-1 7 -3 11 -7 3c-17 -38 -53 -139 -60 -243
c-1 -8 -4 -10 -10 -8c-15 5 -32 15 -35 51c-10 136 1 382 27 495c3 15 9 32 27 38c9 3 7 -1 6 -6c-19 -106 -29 -318 -24 -469z" />
    <glyph glyph-name="i" unicode="i" horiz-adv-x="111" 
d="M24 295c2 15 13 31 26 33c9 1 20 -6 22 -21c2 -19 -11 -34 -25 -36c-15 -2 -25 7 -23 24zM132 114c2 -4 5 -10 5 -22c1 -70 -35 -119 -77 -104c-41 15 -54 56 -55 119c-1 48 7 97 16 124c5 16 17 24 26 26c5 1 8 0 7 -4c-24 -118 -10 -234 11 -241c18 -6 50 36 61 101
c1 4 4 5 6 1z" />
    <glyph glyph-name="j" unicode="j" horiz-adv-x="88" 
d="M18 299c1 15 12 31 26 33c9 2 22 -5 24 -22c2 -19 -11 -33 -25 -35c-17 -2 -26 7 -25 24zM-73 -136c3 5 8 4 10 -1c22 -68 59 -79 75 -64c17 13 14 46 8 117c-10 121 -21 242 -2 312c5 19 15 30 27 34c5 2 8 -1 7 -5c-16 -100 -4 -219 9 -334c10 -92 -4 -124 -41 -151
c-34 -25 -80 -17 -95 44c-5 21 -4 39 2 48z" />
    <glyph glyph-name="k" unicode="k" horiz-adv-x="245" 
d="M52 180c11 63 35 100 51 117c18 19 49 31 79 -3c45 -51 29 -152 -57 -195c7 -49 26 -85 45 -91c27 -9 70 29 88 106c1 5 5 5 7 2c3 -5 5 -13 4 -26c-3 -73 -43 -118 -101 -107c-43 8 -78 52 -86 117c-1 6 1 12 8 17c78 40 96 133 74 160c-32 39 -127 -101 -96 -298
c1 -6 -2 -8 -9 -7c-15 6 -33 16 -37 53c-17 163 -5 377 22 501c3 16 11 32 28 39c6 1 7 -2 6 -6c-14 -95 -27 -241 -26 -379z" />
    <glyph glyph-name="l" unicode="l" horiz-adv-x="154" 
d="M50 194c67 105 66 330 48 339c-15 8 -40 -116 -46 -239c-2 -37 -2 -70 -2 -100zM51 166c5 -94 23 -144 44 -151c26 -9 62 35 80 99c1 4 5 4 6 2c5 -10 3 -23 2 -36c-4 -40 -30 -109 -90 -92c-58 16 -92 106 -84 288c7 152 48 356 107 282s16 -319 -65 -392z" />
    <glyph glyph-name="m" unicode="m" horiz-adv-x="331" 
d="M361 91c0 -78 -31 -98 -54 -97c-20 1 -36 8 -54 34c-35 51 -20 147 -19 216c0 14 -6 11 -9 3c-20 -49 -42 -118 -46 -234c0 -7 -2 -9 -9 -8c-18 2 -34 8 -37 41c-5 59 -5 135 -10 176c-2 18 -8 13 -13 3c-25 -53 -51 -129 -57 -229c0 -8 -2 -10 -9 -8
c-17 4 -30 12 -32 27c-8 69 -2 201 10 266c2 13 9 27 26 34c9 4 9 0 8 -5c-8 -50 -12 -129 -12 -213c13 68 39 132 62 168c12 18 24 24 38 9c19 -18 19 -42 21 -60c3 -23 3 -54 3 -85c10 60 34 125 52 157c11 20 21 26 37 10c20 -20 20 -46 19 -71c-3 -70 -13 -192 20 -204
c23 -8 46 44 51 95c1 6 4 6 6 2c6 -5 8 -15 8 -27z" />
    <glyph glyph-name="n" unicode="n" horiz-adv-x="218" 
d="M46 84c13 63 40 140 59 174c11 19 21 23 39 10c16 -12 20 -32 20 -57c-1 -73 0 -178 27 -185c18 -5 41 38 43 87c0 4 3 6 5 3c3 -4 7 -11 8 -23c3 -72 -27 -101 -60 -91c-27 8 -51 23 -59 77s-6 107 -6 146c-1 7 -3 11 -7 3c-17 -38 -52 -129 -62 -236
c-1 -9 -3 -10 -9 -9c-18 4 -31 11 -33 32c-6 64 -3 194 10 260c4 19 12 27 26 31c7 2 9 0 8 -6c-8 -53 -12 -149 -9 -216z" />
    <glyph glyph-name="o" unicode="o" horiz-adv-x="203" 
d="M173 153c10 -116 -40 -177 -98 -157c-44 15 -79 63 -68 156c7 55 36 111 64 126c6 3 17 4 27 -8c26 5 59 -29 71 -92c5 4 10 7 14 11c5 5 7 3 7 -1c0 -10 -6 -24 -17 -35zM100 251c-19 2 -6 -74 36 -80c-5 43 -19 78 -36 80zM138 140c-43 -1 -67 36 -70 72
c-10 -21 -17 -49 -20 -81c-7 -76 23 -114 37 -117c27 -6 55 49 53 126z" />
    <glyph glyph-name="p" unicode="p" horiz-adv-x="228" 
d="M49 98c-3 -46 9 -72 27 -78c23 -8 67 21 84 112c13 70 -6 123 -20 126c-27 6 -84 -57 -91 -160zM41 18c0 -100 3 -203 12 -288c1 -6 -1 -8 -8 -6c-16 5 -34 19 -37 51c-14 155 -2 396 17 507c3 15 10 31 27 38c9 4 7 0 6 -5c-5 -36 -9 -80 -12 -128c19 72 61 121 114 90
c39 -23 55 -89 36 -172c-23 -99 -88 -137 -137 -105c-7 5 -13 11 -18 18z" />
    <glyph glyph-name="q" unicode="q" horiz-adv-x="222" 
d="M156 183c2 47 -9 74 -25 79c-20 6 -63 -56 -79 -131c-17 -80 5 -119 22 -122c27 -5 78 69 82 174zM170 253c3 14 11 29 26 35c6 2 8 -1 7 -6c-21 -144 -28 -350 -10 -531c1 -6 -3 -10 -10 -7c-14 6 -33 20 -35 52c-6 80 -6 167 -1 249c-16 -45 -44 -71 -89 -53
c-39 16 -70 66 -43 166c30 110 91 149 131 122c10 -7 18 -16 24 -27z" />
    <glyph glyph-name="r" unicode="r" horiz-adv-x="211" 
d="M51 236c32 -2 68 23 88 50c4 6 10 5 15 0c15 -16 19 -30 12 -46c-34 -74 -53 -215 -15 -232c17 -8 50 20 71 99c1 9 4 7 8 2c3 -3 3 -17 1 -31c-10 -79 -45 -111 -82 -98c-59 20 -80 112 -36 238c-18 -9 -37 -12 -55 -12h-8c-3 -71 -17 -167 -9 -231c1 -6 -2 -8 -9 -6
c-14 5 -28 20 -29 52c-2 59 17 126 21 192c-17 9 -30 26 -29 57c2 47 26 65 38 58c13 -7 18 -44 18 -92z" />
    <glyph glyph-name="s" unicode="s" horiz-adv-x="191" 
d="M31 88c30 -63 82 -84 98 -66c15 17 -6 62 -23 101c-15 34 -33 83 -24 121c-25 -40 -38 -102 -51 -156zM16 55c-2 -5 -5 -8 -8 -11c-5 -4 -5 -5 -7 1c-3 10 2 21 6 35c-1 7 -3 14 -5 21c-3 13 -5 35 5 46c3 3 5 4 6 -1c1 -7 3 -14 4 -20c10 52 30 139 72 178
c16 15 32 8 42 -3c5 -5 2 -10 -2 -13c-30 -27 -4 -103 17 -151c32 -74 21 -111 0 -131c-38 -35 -96 -28 -130 49z" />
    <glyph glyph-name="t" unicode="t" horiz-adv-x="126" 
d="M25 352c-24 -2 -49 -5 -74 -10c-7 -1 -8 3 -6 7c2 12 13 24 30 26s35 3 54 4c7 35 14 65 20 86c4 12 13 21 22 24c5 2 6 0 5 -6c-5 -25 -10 -61 -15 -102c53 1 109 -1 161 -9c4 -1 4 -3 2 -6c-6 -8 -16 -14 -29 -13c-44 3 -89 4 -137 2c-6 -56 -10 -115 -11 -166
c-2 -92 5 -162 27 -171c18 -8 50 23 63 89c0 5 4 5 5 2c4 -4 6 -12 6 -25c-2 -53 -24 -104 -75 -92c-58 14 -68 78 -65 190c2 54 8 116 17 170z" />
    <glyph glyph-name="u" unicode="u" horiz-adv-x="221" 
d="M134 50c-10 -32 -24 -49 -41 -59c-20 -12 -46 -10 -62 10c-35 44 -33 165 -9 256c5 18 15 31 28 33c7 1 8 1 7 -6c-13 -65 -21 -191 -2 -242c8 -23 19 -25 27 -25c14 0 31 30 39 101c6 57 11 109 14 125c4 25 14 31 31 35c8 2 8 -2 7 -7c-14 -109 -19 -250 17 -250
c14 0 34 39 41 91c0 7 3 7 6 2c2 -3 7 -17 7 -31c-1 -75 -33 -100 -69 -87c-20 7 -33 29 -41 54z" />
    <glyph glyph-name="v" unicode="v" horiz-adv-x="205" 
d="M154 177c-18 20 -28 52 -25 77c4 34 17 41 29 22c22 -35 26 -103 20 -154c-12 -103 -57 -141 -84 -141c-26 0 -53 18 -71 76c-21 67 -18 160 -3 206c6 18 14 26 22 31c6 4 8 1 7 -6c-27 -159 22 -273 55 -271c32 2 52 84 50 160z" />
    <glyph glyph-name="w" unicode="w" horiz-adv-x="333" 
d="M147 48c-13 -36 -37 -58 -64 -59c-26 -1 -52 18 -67 71c-18 63 -5 151 11 193c6 16 16 22 23 25c4 2 9 0 7 -7c-35 -141 3 -258 34 -253c41 6 43 104 43 209c0 21 13 37 33 44c9 3 10 -1 9 -7c-15 -134 7 -261 49 -257c48 4 62 153 27 276c-2 8 3 8 7 7
c8 -3 16 -12 21 -27c44 -124 29 -250 -48 -278c-39 -14 -72 11 -85 63z" />
    <glyph glyph-name="x" unicode="x" horiz-adv-x="221" 
d="M95 92c17 -43 40 -74 57 -77c34 -7 72 39 86 97c0 5 2 5 5 1c2 -3 5 -13 4 -23c-5 -77 -44 -107 -95 -98c-34 6 -60 22 -80 55c-15 -32 -28 -67 -39 -104c-2 -6 -7 -7 -10 -2c-3 6 -7 19 -1 42c9 33 21 65 35 97c-24 63 -31 148 -28 188c1 16 6 29 17 36c5 3 7 2 7 -3
c3 -58 13 -119 29 -170c33 61 73 114 108 149c4 4 9 3 10 -4c3 -16 0 -35 -20 -59c-29 -35 -58 -77 -85 -125z" />
    <glyph glyph-name="y" unicode="y" horiz-adv-x="205" 
d="M125 39c-10 -25 -22 -39 -35 -48c-20 -14 -44 -10 -59 10c-34 46 -31 163 -9 257c4 16 13 30 26 32c7 1 8 1 7 -6c-13 -65 -22 -190 -1 -242c8 -20 18 -30 28 -28c16 3 31 33 38 104c5 53 8 99 14 124c6 23 15 33 30 36c8 2 8 -1 8 -5c-15 -120 -11 -259 0 -366
c8 -79 -18 -124 -50 -149c-56 -44 -107 -1 -121 64c-7 33 -3 52 2 62c3 6 9 7 11 -2c22 -92 69 -123 98 -103c22 15 26 57 20 128c-4 44 -6 89 -7 132z" />
    <glyph glyph-name="z" unicode="z" horiz-adv-x="212" 
d="M140 64c-18 -28 -42 -51 -68 -66c-20 -12 -32 -15 -38 -2c-5 11 -2 31 15 52c15 19 36 33 57 38c42 59 51 126 33 151c-27 37 -92 -18 -115 -100c-1 -5 -4 -7 -8 -1c-6 10 -8 29 -3 53c16 81 96 131 146 61c32 -45 23 -111 -7 -166c7 -3 14 -8 20 -14
c48 -48 33 -200 -47 -286c-30 -32 -64 -39 -90 -14c-39 38 -41 129 50 193c11 8 24 10 33 9c4 0 6 -3 2 -7c-75 -68 -91 -160 -73 -177s65 24 95 103c30 78 36 156 -2 173z" />
    <glyph glyph-name="braceleft" unicode="{" horiz-adv-x="155" 
d="M34 308c46 -12 49 -67 52 -127c4 -82 9 -160 24 -201c9 -25 21 -41 34 -53c7 -6 5 -13 -3 -12c-24 4 -49 16 -66 47c-30 55 -28 157 -29 226c-1 51 0 85 -28 99c-10 5 -15 9 -18 24c-1 5 -1 10 7 11c38 12 38 59 40 110c3 70 3 166 31 222c17 34 39 51 66 53
c8 1 11 -6 4 -12c-13 -12 -24 -30 -33 -54c-18 -47 -24 -120 -27 -202c-2 -60 -10 -115 -54 -131z" />
    <glyph glyph-name="bar" unicode="|" horiz-adv-x="127" 
d="M90 741c5 2 7 -1 6 -7c-20 -181 -30 -609 -1 -827c1 -7 -3 -8 -10 -7c-18 3 -41 17 -46 62c-20 193 -7 590 19 734c3 18 11 36 32 45z" />
    <glyph glyph-name="braceright" unicode="}" horiz-adv-x="154" 
d="M121 318c-47 14 -55 70 -57 131c-3 80 -9 155 -26 201c-9 25 -21 43 -34 55c-7 6 -5 11 4 11c27 -1 49 -18 66 -52c29 -57 29 -153 32 -222c2 -51 1 -99 38 -110c9 -3 11 -6 9 -13c-4 -13 -10 -19 -19 -23c-28 -13 -25 -47 -27 -98c-3 -70 1 -172 -30 -227
c-17 -30 -42 -43 -66 -46c-8 -1 -10 5 -3 11c13 12 25 29 34 54c15 40 21 119 23 200c2 61 6 117 56 128z" />
    <glyph glyph-name="asciitilde" unicode="~" horiz-adv-x="231" 
d="M211 713c-7 -18 -19 -31 -41 -33c-38 -4 -90 47 -129 27c-6 -3 -9 -4 -7 5c4 16 20 33 41 35c39 3 93 -46 130 -28c4 1 7 -2 6 -6z" />
    <glyph glyph-name="uni0080" horiz-adv-x="539" 
d="M405 173c-63 -1 -145 -7 -221 -18c-43 -81 -93 -148 -145 -189c-32 -25 -63 -26 -79 -19c-8 4 -7 7 -1 11c65 38 122 105 173 188c-36 -6 -69 -14 -97 -23c-9 -3 -11 0 -9 7c5 20 18 42 39 48c26 7 58 13 95 18c84 158 143 358 175 514c2 11 6 15 18 10
c27 -11 33 -29 34 -52c4 -150 25 -316 57 -461c16 -1 30 -2 43 -4c7 -1 8 -5 5 -8c-10 -13 -23 -21 -41 -22c20 -83 43 -160 70 -221c2 -5 0 -9 -7 -9c-17 -1 -36 4 -53 43c-20 45 -39 110 -56 187zM208 201c63 6 132 8 190 7c-27 140 -46 309 -45 448
c-27 -153 -79 -319 -145 -455zM382 787c5 19 18 29 27 27c16 -3 27 -29 22 -46c-5 -18 -16 -23 -28 -20c-15 2 -27 18 -21 39zM290 789c5 18 20 30 27 28c14 -4 26 -31 22 -46c-5 -18 -16 -24 -28 -21c-15 3 -27 17 -21 39z" />
    <glyph glyph-name="uni0081" horiz-adv-x="539" 
d="M381 798c0 11 -6 26 -17 28c-13 2 -23 -11 -25 -30c-2 -18 10 -29 19 -29c12 0 23 11 23 31zM369 841c21 -5 40 -23 39 -46c-1 -33 -24 -46 -54 -43c-22 2 -47 21 -42 52c4 24 29 43 57 37zM406 173c-64 -1 -145 -7 -222 -18c-43 -81 -93 -148 -144 -189
c-31 -25 -63 -26 -81 -19c-6 2 -6 8 -1 11c65 37 123 105 173 188c-35 -6 -68 -14 -95 -23c-13 -4 -10 0 -9 7c4 20 16 42 39 48c25 7 58 13 94 18c85 159 144 358 175 514c2 11 8 14 17 10c29 -11 35 -29 36 -52c4 -150 24 -316 56 -461c16 -1 31 -2 43 -4c7 -1 8 -4 5 -8
c-10 -13 -22 -21 -41 -22c20 -83 43 -160 70 -221c2 -5 1 -9 -6 -9c-18 -1 -38 6 -54 43c-20 45 -39 110 -55 187zM208 201c63 6 132 8 190 7c-28 140 -47 308 -46 447c-26 -152 -78 -318 -144 -454z" />
    <glyph glyph-name="uni0082" horiz-adv-x="480" 
d="M222 -41c-103 18 -201 114 -202 295c-1 250 143 438 260 440c129 2 157 -146 153 -214c-3 -56 -27 -92 -54 -100c-8 -2 -10 -2 -8 8c29 117 -6 281 -89 278c-75 -3 -206 -165 -210 -395c-3 -170 66 -288 176 -286c84 2 159 75 182 218c1 5 4 7 8 2c6 -7 8 -21 7 -43
c-6 -136 -87 -201 -178 -206h-6c-1 -6 -1 -12 -1 -18c18 1 35 -4 43 -18c12 -21 5 -49 -17 -58c-20 -8 -44 -2 -54 8c-3 3 -3 6 3 7c31 4 47 19 41 31c-4 8 -27 6 -46 -2c-6 -3 -8 -2 -8 4c-1 17 0 35 0 49z" />
    <glyph glyph-name="uni0083" horiz-adv-x="355" 
d="M62 633c-14 -2 -29 -6 -43 -9c-9 -2 -11 -1 -9 8c4 21 16 41 39 45c99 18 233 18 330 9c7 -1 8 -5 5 -10c-9 -14 -23 -20 -42 -20c-82 0 -167 -5 -247 -17c-8 -97 -14 -236 -13 -372c63 9 135 12 208 8c6 0 6 -3 4 -7c-8 -15 -20 -20 -37 -21c-59 -3 -118 -8 -175 -18
c1 -91 5 -179 13 -248c84 21 179 30 251 31c7 0 8 -3 6 -7c-7 -17 -20 -24 -40 -26c-71 -7 -138 -21 -200 -40c-14 -4 -17 -6 -30 0c-8 4 -16 7 -22 11c-7 4 -9 8 -10 19c-7 61 -10 153 -9 253c-11 -3 -23 -5 -34 -8c-9 -2 -10 0 -9 7c3 19 12 35 35 39c3 1 5 1 8 1
c3 138 10 283 21 372zM179 727c-16 -8 -31 -13 -49 -4c-5 3 -6 6 -1 10c30 22 80 51 117 66c20 8 42 1 55 -12c5 -5 5 -9 -4 -12c-41 -13 -88 -33 -118 -48z" />
    <glyph glyph-name="uni0084" horiz-adv-x="415" 
d="M335 -3c-27 168 -15 542 8 653c3 13 9 28 29 36c5 2 6 -2 6 -5c-22 -152 -25 -541 4 -725c1 -7 1 -10 -7 -13c-15 -6 -34 -9 -52 12c-102 121 -208 389 -251 587c-10 -172 -6 -452 20 -595c1 -6 -1 -7 -8 -6c-17 2 -34 12 -40 48c-24 149 -19 514 4 627c3 13 6 29 29 39
c8 4 12 0 13 -7c42 -219 140 -494 245 -651zM303 715c-7 -18 -19 -31 -41 -33c-38 -4 -90 47 -129 27c-6 -3 -9 -4 -7 5c4 16 20 33 41 35c39 3 93 -46 130 -28c4 1 7 -2 6 -6z" />
    <glyph glyph-name="uni0085" unicode="&#x85;" horiz-adv-x="527" 
d="M300 746c4 15 16 28 26 26c15 -3 26 -27 21 -46s-15 -22 -27 -20c-16 3 -26 17 -20 40zM198 743c6 19 19 30 27 28c15 -4 26 -31 22 -46c-5 -18 -19 -25 -28 -22c-15 4 -26 18 -21 40zM108 456c-21 -58 -34 -128 -36 -201c-4 -170 66 -294 182 -295
c104 -1 184 117 194 278c15 240 -85 423 -179 415c-90 -8 -145 -185 -84 -297c4 -8 3 -11 -4 -10c-30 3 -66 40 -73 110zM114 541c19 66 73 138 164 136c130 -3 234 -209 212 -458c-19 -220 -141 -282 -225 -286c-113 -5 -240 106 -238 312c1 124 38 223 87 296z" />
    <glyph glyph-name="uni0086" horiz-adv-x="457" 
d="M311 722c5 18 18 29 27 27c14 -3 27 -28 21 -46c-6 -19 -16 -23 -28 -20c-14 3 -26 18 -20 39zM211 721c5 18 16 29 27 27c14 -2 26 -27 21 -46s-15 -23 -27 -20c-16 4 -27 18 -21 39zM366 147c-19 -238 -129 -236 -209 -197c-74 36 -133 117 -134 262
c-1 157 44 361 84 438c10 19 22 26 32 28c8 2 8 -3 5 -10c-43 -106 -78 -307 -74 -438c4 -149 37 -229 104 -259c62 -28 152 15 173 206c16 149 16 316 35 426c4 24 13 44 31 51c9 3 12 0 10 -9c-12 -70 -22 -240 -20 -375c2 -115 8 -230 23 -315c1 -6 -1 -8 -8 -6
c-15 5 -35 18 -40 52c-6 41 -9 93 -12 146z" />
    <glyph glyph-name="uni0087" 
d="M122 316c-11 -5 -24 -8 -39 0c-5 1 -5 5 -1 8c17 11 44 28 63 36c18 8 35 6 46 -6c5 -5 5 -9 -2 -11c-24 -8 -50 -20 -67 -27zM144 184c2 45 -9 72 -24 76c-20 5 -62 -55 -74 -129c-13 -80 7 -114 25 -118c25 -5 68 59 73 171zM162 244c5 11 15 17 23 19c5 1 7 -1 6 -6
c-26 -107 -17 -228 6 -233c12 -3 43 33 51 92c0 3 0 6 5 1c6 -6 8 -19 8 -31c0 -66 -30 -103 -70 -88c-25 9 -39 31 -46 65c-12 -54 -39 -88 -89 -69c-38 14 -69 65 -45 163c26 105 83 146 124 121c12 -7 21 -20 27 -34z" />
    <glyph glyph-name="uni0088" 
d="M127 313c-17 8 -44 20 -66 28c-7 1 -6 4 -2 9c11 12 31 17 46 8c18 -10 46 -25 62 -36c5 -3 4 -7 0 -9c-15 -9 -28 -5 -40 0zM144 184c2 45 -9 72 -24 76c-20 5 -62 -55 -74 -129c-13 -80 7 -114 25 -118c25 -5 68 59 73 171zM162 244c5 11 15 17 23 19c5 1 7 -1 6 -6
c-26 -107 -17 -228 6 -233c12 -3 43 33 51 92c0 3 0 6 5 1c6 -6 8 -19 8 -31c0 -66 -30 -103 -70 -88c-25 9 -39 31 -46 65c-12 -54 -39 -88 -89 -69c-38 14 -69 65 -45 163c26 105 83 146 124 121c12 -7 21 -20 27 -34z" />
    <glyph glyph-name="uni0089" 
d="M144 184c2 45 -9 72 -24 76c-20 5 -62 -55 -74 -129c-13 -80 7 -114 25 -118c25 -5 68 59 73 171zM162 244c5 11 15 17 23 19c5 1 7 -1 6 -6c-26 -107 -17 -228 6 -233c12 -3 43 33 51 92c0 3 0 6 5 1c6 -6 8 -19 8 -31c0 -66 -30 -103 -70 -88c-25 9 -39 31 -46 65
c-12 -54 -39 -88 -89 -69c-38 14 -69 65 -45 163c26 105 83 146 124 121c12 -7 21 -20 27 -34zM114 328c-10 -7 -20 -13 -28 -18c-11 -7 -25 -11 -40 -6c-5 2 -6 5 -2 9c14 13 41 34 60 46c10 7 13 6 20 1c16 -12 45 -33 59 -46c4 -4 3 -9 -1 -10c-17 -4 -31 4 -40 8
s-18 9 -28 16z" />
    <glyph glyph-name="uni008A" 
d="M130 337c3 15 12 23 21 22c12 -1 20 -24 16 -37c-4 -14 -12 -18 -22 -16c-10 3 -18 14 -15 31zM62 339c3 14 13 22 21 20c12 -3 19 -23 15 -37c-3 -11 -12 -17 -21 -15c-11 2 -19 14 -15 32zM144 184c2 45 -9 72 -24 76c-20 5 -62 -55 -74 -129c-13 -80 7 -114 25 -118
c25 -5 68 59 73 171zM162 244c5 11 15 17 23 19c5 1 7 -1 6 -6c-26 -107 -17 -228 6 -233c12 -3 43 33 51 92c0 3 0 6 5 1c6 -6 8 -19 8 -31c0 -66 -30 -103 -70 -88c-25 9 -39 31 -46 65c-12 -54 -39 -88 -89 -69c-38 14 -69 65 -45 163c26 105 83 146 124 121
c12 -7 21 -20 27 -34z" />
    <glyph glyph-name="uni008B" 
d="M98 355c26 1 57 -32 89 -16c4 2 7 -1 5 -6c-7 -17 -20 -25 -39 -26c-28 -1 -56 27 -89 17c-6 -2 -9 1 -6 6c8 15 22 24 40 25zM144 184c2 45 -9 72 -24 76c-20 5 -62 -55 -74 -129c-13 -80 7 -114 25 -118c25 -5 68 59 73 171zM162 244c5 11 15 17 23 19c5 1 7 -1 6 -6
c-26 -107 -17 -228 6 -233c12 -3 43 33 51 92c0 3 0 6 5 1c6 -6 8 -19 8 -31c0 -66 -30 -103 -70 -88c-25 9 -39 31 -46 65c-12 -54 -39 -88 -89 -69c-38 14 -69 65 -45 163c26 105 83 146 124 121c12 -7 21 -20 27 -34z" />
    <glyph glyph-name="uni008C" 
d="M122 376c17 -4 33 -18 31 -37c-2 -25 -19 -36 -44 -33c-17 2 -36 16 -32 40c3 20 22 35 45 30zM131 341c0 9 -4 21 -14 22c-9 1 -18 -9 -19 -22c-1 -15 7 -22 16 -22s17 7 17 22zM144 184c2 45 -9 72 -24 76c-20 5 -62 -55 -74 -129c-13 -80 7 -114 25 -118
c25 -5 68 59 73 171zM162 244c5 11 15 17 23 19c5 1 7 -1 6 -6c-26 -107 -17 -228 6 -233c12 -3 43 33 51 92c0 3 0 6 5 1c6 -6 8 -19 8 -31c0 -66 -30 -103 -70 -88c-25 9 -39 31 -46 65c-12 -54 -39 -88 -89 -69c-38 14 -69 65 -45 163c26 105 83 146 124 121
c12 -7 21 -20 27 -34z" />
    <glyph glyph-name="uni008D" horiz-adv-x="188" 
d="M77 -11c-43 14 -80 60 -71 158c11 117 69 168 110 142c23 -14 40 -38 40 -67c0 -38 -21 -59 -37 -60c-6 0 -7 0 -6 4c18 50 10 103 -7 105c-21 3 -57 -67 -60 -147c-2 -58 11 -99 33 -110c44 -22 99 43 116 98c2 6 6 7 8 2c4 -9 2 -21 -1 -36c-11 -52 -46 -95 -97 -93
c0 -4 -1 -8 -1 -12c11 0 23 -3 27 -11c7 -14 -1 -32 -16 -36c-13 -4 -26 -2 -31 4c-4 3 -4 5 1 6c17 3 26 10 24 17c-1 5 -13 7 -27 2c-3 -1 -5 1 -5 5c-1 11 0 22 0 29z" />
    <glyph glyph-name="uni008E" horiz-adv-x="179" 
d="M93 315c-12 -5 -25 -9 -40 -1c-4 2 -3 6 0 8c17 11 44 28 63 37c17 8 34 6 46 -5c4 -6 4 -9 -3 -11c-22 -8 -48 -21 -66 -28zM44 102c76 16 89 153 64 160c-19 5 -56 -50 -63 -126c-1 -12 -2 -24 -1 -34zM45 85c4 -37 17 -61 31 -66c37 -13 96 23 118 94c2 6 6 6 7 1
c2 -8 2 -16 0 -29c-14 -73 -72 -111 -133 -87c-32 13 -79 66 -62 161c19 108 75 150 114 122c32 -23 40 -59 30 -102c-14 -59 -64 -91 -105 -94z" />
    <glyph glyph-name="uni008F" horiz-adv-x="179" 
d="M109 313c-18 7 -44 21 -67 29c-6 2 -5 7 -1 11c12 12 29 13 46 3s45 -26 62 -37c3 -2 2 -7 -2 -9c-15 -7 -28 -3 -38 3zM44 102c76 16 89 153 64 160c-19 5 -56 -50 -63 -126c-1 -12 -2 -24 -1 -34zM45 85c4 -37 17 -61 31 -66c37 -13 96 23 118 94c2 6 6 6 7 1
c2 -8 2 -16 0 -29c-14 -73 -72 -111 -133 -87c-32 13 -79 66 -62 161c19 108 75 150 114 122c32 -23 40 -59 30 -102c-14 -59 -64 -91 -105 -94z" />
    <glyph glyph-name="uni0090" horiz-adv-x="179" 
d="M99 329c-10 -6 -18 -11 -28 -17s-24 -12 -40 -6c-5 2 -6 5 -2 8c15 13 42 34 61 47c7 5 13 4 19 0c17 -12 46 -33 60 -46c4 -3 3 -7 -1 -8c-17 -6 -31 1 -41 6s-17 10 -28 16zM44 102c76 16 89 153 64 160c-19 5 -56 -50 -63 -126c-1 -12 -2 -24 -1 -34zM45 85
c4 -37 17 -61 31 -66c37 -13 96 23 118 94c2 6 6 6 7 1c2 -8 2 -16 0 -29c-14 -73 -72 -111 -133 -87c-32 13 -79 66 -62 161c19 108 75 150 114 122c32 -23 40 -59 30 -102c-14 -59 -64 -91 -105 -94z" />
    <glyph glyph-name="uni0091" horiz-adv-x="179" 
d="M113 340c2 14 13 22 22 21c11 -1 19 -22 15 -37c-3 -11 -12 -17 -21 -15c-11 3 -19 13 -16 31zM46 341c4 14 12 21 20 20c12 -1 19 -21 16 -37c-2 -13 -13 -19 -22 -15c-10 4 -19 15 -14 32zM44 102c76 16 89 153 64 160c-19 5 -56 -50 -63 -126c-1 -12 -2 -24 -1 -34z
M45 85c4 -37 17 -61 31 -66c37 -13 96 23 118 94c2 6 6 6 7 1c2 -8 2 -16 0 -29c-14 -73 -72 -111 -133 -87c-32 13 -79 66 -62 161c19 108 75 150 114 122c32 -23 40 -59 30 -102c-14 -59 -64 -91 -105 -94z" />
    <glyph glyph-name="uni0092" horiz-adv-x="111" 
d="M47 281c-12 -7 -24 -11 -41 -5c-4 1 -6 5 -1 9c16 13 37 29 55 40c16 10 33 9 46 0c6 -4 3 -8 -2 -11c-21 -11 -41 -24 -57 -33zM132 114c2 -4 5 -10 5 -22c1 -70 -35 -119 -77 -104c-41 15 -54 56 -55 119c-1 48 7 97 16 124c5 16 17 24 26 26c5 1 8 0 7 -4
c-24 -118 -10 -234 11 -241c18 -6 50 36 61 101c1 4 4 5 6 1z" />
    <glyph glyph-name="uni0093" horiz-adv-x="111" 
d="M132 114c2 -4 5 -10 5 -22c1 -70 -35 -119 -77 -104c-41 15 -54 56 -55 119c-1 48 7 97 16 124c5 16 17 24 26 26c5 1 8 0 7 -4c-24 -118 -10 -234 11 -241c18 -6 50 36 61 101c1 4 4 5 6 1zM34 283c-16 10 -36 23 -59 33c-6 3 -1 11 -1 11c16 0 30 10 46 0
c19 -11 39 -27 54 -40c5 -4 4 -6 -1 -8c-15 -6 -29 -2 -39 4z" />
    <glyph glyph-name="uni0094" horiz-adv-x="111" 
d="M132 114c2 -4 5 -10 5 -22c1 -70 -35 -119 -77 -104c-41 15 -54 56 -55 119c-1 48 7 97 16 124c5 16 17 24 26 26c5 1 8 0 7 -4c-24 -118 -10 -234 11 -241c18 -6 50 36 61 101c1 4 4 5 6 1zM46 299c-10 -6 -16 -9 -25 -14c-10 -6 -23 -13 -40 -7c-4 1 -5 4 -1 8
c13 13 39 33 57 45c7 4 13 4 19 0c16 -12 42 -31 56 -44c4 -4 4 -6 -1 -8c-14 -6 -28 2 -39 6c-9 4 -17 8 -26 14z" />
    <glyph glyph-name="uni0095" horiz-adv-x="111" 
d="M132 114c2 -4 5 -10 5 -22c1 -70 -35 -119 -77 -104c-41 15 -54 56 -55 119c-1 48 7 97 16 124c5 16 17 24 26 26c5 1 8 0 7 -4c-24 -118 -10 -234 11 -241c18 -6 50 36 61 101c1 4 4 5 6 1zM59 309c4 14 12 23 20 22c12 -2 20 -23 16 -37c-4 -13 -11 -18 -21 -16
c-12 3 -20 14 -15 31zM2 311c3 15 12 22 21 20c11 -3 19 -23 16 -37s-12 -17 -21 -15c-12 2 -19 14 -16 32z" />
    <glyph glyph-name="uni0096" horiz-adv-x="218" 
d="M46 84c13 63 40 140 59 174c11 19 21 23 39 10c16 -12 20 -32 20 -57c-1 -73 0 -178 27 -185c18 -5 41 38 43 87c0 4 3 6 5 3c3 -4 7 -11 8 -23c3 -72 -27 -101 -60 -91c-27 8 -51 23 -59 77s-6 107 -6 146c-1 7 -3 11 -7 3c-17 -38 -52 -129 -62 -236
c-1 -9 -3 -10 -9 -9c-18 4 -31 11 -33 32c-6 64 -3 194 10 260c4 19 12 27 26 31c7 2 9 0 8 -6c-8 -53 -12 -149 -9 -216zM77 367c25 0 55 -35 86 -20c5 2 8 0 6 -5c-7 -19 -21 -31 -39 -32c-27 -1 -54 33 -87 24c-5 -2 -9 -1 -6 6c8 15 22 27 40 27z" />
    <glyph glyph-name="uni0097" horiz-adv-x="203" 
d="M85 308c-12 -5 -25 -8 -40 0c-5 1 -5 5 0 8c16 11 42 28 61 36s36 6 47 -6c5 -5 5 -8 -2 -10c-24 -8 -50 -21 -66 -28zM173 153c10 -116 -40 -177 -98 -157c-44 15 -79 63 -68 156c6 54 36 111 64 126c6 3 17 4 27 -8c26 5 59 -29 71 -92c5 4 10 7 14 11c5 5 7 3 7 -1
c0 -10 -6 -24 -17 -35zM100 251c-19 2 -6 -74 36 -80c-5 43 -19 78 -36 80zM138 140c-43 -1 -67 36 -70 72c-10 -21 -17 -49 -20 -81c-7 -76 23 -114 37 -117c27 -6 55 49 53 126z" />
    <glyph glyph-name="uni0098" horiz-adv-x="203" 
d="M101 305c-18 8 -43 21 -65 30c-6 3 -8 5 -2 11c11 11 29 12 46 3c18 -9 44 -27 61 -38c5 -3 4 -7 -1 -9c-16 -7 -29 -1 -39 3zM173 153c10 -116 -40 -177 -98 -157c-44 15 -79 63 -68 156c6 54 36 111 64 126c6 3 17 4 27 -8c26 5 59 -29 71 -92c5 4 10 7 14 11
c5 5 7 3 7 -1c0 -10 -6 -24 -17 -35zM100 251c-19 2 -6 -74 36 -80c-5 43 -19 78 -36 80zM138 140c-43 -1 -67 36 -70 72c-10 -21 -17 -49 -20 -81c-7 -76 23 -114 37 -117c27 -6 55 49 53 126z" />
    <glyph glyph-name="uni0099" horiz-adv-x="203" 
d="M173 153c10 -116 -40 -177 -98 -157c-44 15 -79 63 -68 156c6 54 36 111 64 126c6 3 17 4 27 -8c26 5 59 -29 71 -92c5 4 10 7 14 11c5 5 7 3 7 -1c0 -10 -6 -24 -17 -35zM100 251c-19 2 -6 -74 36 -80c-5 43 -19 78 -36 80zM138 140c-43 -1 -67 36 -70 72
c-10 -21 -17 -49 -20 -81c-7 -76 23 -114 37 -117c27 -6 55 49 53 126zM97 322c-9 -6 -15 -10 -24 -15c-11 -7 -24 -12 -40 -7c-5 1 -6 6 -2 9c14 12 40 32 56 44c8 6 13 5 20 1c17 -12 43 -32 57 -45c3 -3 3 -6 -1 -8c-14 -6 -30 1 -39 6s-17 9 -27 15z" />
    <glyph glyph-name="uni009A" horiz-adv-x="203" 
d="M107 331c3 15 13 22 22 21c11 -1 19 -23 15 -37c-4 -13 -12 -17 -21 -15c-11 2 -19 14 -16 31zM41 332c3 14 12 22 22 20s17 -23 15 -37c-2 -13 -13 -16 -21 -15c-12 2 -20 14 -16 32zM173 153c10 -116 -40 -177 -98 -157c-44 15 -79 63 -68 156c6 54 36 111 64 126
c6 3 17 4 27 -8c26 5 59 -29 71 -92c5 4 10 7 14 11c5 5 7 3 7 -1c0 -10 -6 -24 -17 -35zM100 251c-19 2 -6 -74 36 -80c-5 43 -19 78 -36 80zM138 140c-43 -1 -67 36 -70 72c-10 -21 -17 -49 -20 -81c-7 -76 23 -114 37 -117c27 -6 55 49 53 126z" />
    <glyph glyph-name="uni009B" horiz-adv-x="203" 
d="M75 349c26 -1 55 -35 89 -21c5 2 6 -2 4 -6c-8 -16 -21 -25 -39 -24c-29 1 -56 30 -89 22c-6 -1 -9 1 -5 7c8 13 22 23 40 22zM173 153c10 -116 -40 -177 -98 -157c-44 15 -79 63 -68 156c6 54 36 111 64 126c6 3 17 4 27 -8c26 5 59 -29 71 -92c5 4 10 7 14 11
c5 5 7 3 7 -1c0 -10 -6 -24 -17 -35zM100 251c-19 2 -6 -74 36 -80c-5 43 -19 78 -36 80zM138 140c-43 -1 -67 36 -70 72c-10 -21 -17 -49 -20 -81c-7 -76 23 -114 37 -117c27 -6 55 49 53 126z" />
    <glyph glyph-name="uni009C" horiz-adv-x="221" 
d="M116 301c-12 -5 -24 -10 -40 -2c-4 2 -5 6 0 9c16 11 42 28 60 38c17 10 35 8 46 -4c5 -5 5 -7 -1 -10c-22 -9 -48 -23 -65 -31zM134 50c-10 -32 -24 -49 -41 -59c-20 -12 -46 -10 -62 10c-35 44 -33 165 -9 256c5 18 15 31 28 33c7 1 8 1 7 -6c-13 -65 -21 -191 -2 -242
c8 -23 19 -25 27 -25c14 0 31 30 39 101c6 57 11 109 14 125c4 25 14 31 31 35c8 2 8 -2 7 -7c-14 -109 -19 -250 17 -250c14 0 34 39 41 91c0 7 3 7 6 2c2 -3 7 -17 7 -31c-1 -75 -33 -100 -69 -87c-20 7 -33 29 -41 54z" />
    <glyph glyph-name="uni009D" horiz-adv-x="221" 
d="M109 301c-17 9 -42 23 -64 33c-6 3 -7 6 -1 11c11 10 29 11 46 2c19 -10 45 -28 60 -40c4 -3 3 -9 -1 -10c-17 -6 -28 -2 -40 4zM134 50c-10 -32 -24 -49 -41 -59c-20 -12 -46 -10 -62 10c-35 44 -33 165 -9 256c5 18 15 31 28 33c7 1 8 1 7 -6c-13 -65 -21 -191 -2 -242
c8 -23 19 -25 27 -25c14 0 31 30 39 101c6 57 11 109 14 125c4 25 14 31 31 35c8 2 8 -2 7 -7c-14 -109 -19 -250 17 -250c14 0 34 39 41 91c0 7 3 7 6 2c2 -3 7 -17 7 -31c-1 -75 -33 -100 -69 -87c-20 7 -33 29 -41 54z" />
    <glyph glyph-name="uni009E" horiz-adv-x="221" 
d="M107 335c-10 -6 -17 -10 -25 -15c-10 -6 -23 -12 -40 -6c-5 2 -6 5 -2 8c14 13 40 32 56 44c9 7 13 5 20 1c17 -12 43 -32 57 -44c4 -4 4 -7 -1 -9c-14 -6 -30 1 -39 6s-17 10 -26 15zM134 50c-10 -32 -24 -49 -41 -59c-20 -12 -46 -10 -62 10c-35 44 -33 165 -9 256
c5 18 15 31 28 33c7 1 8 1 7 -6c-13 -65 -21 -191 -2 -242c8 -23 19 -25 27 -25c14 0 31 30 39 101c6 57 11 109 14 125c4 25 14 31 31 35c8 2 8 -2 7 -7c-14 -109 -19 -250 17 -250c14 0 34 39 41 91c0 7 3 7 6 2c2 -3 7 -17 7 -31c-1 -75 -33 -100 -69 -87
c-20 7 -33 29 -41 54z" />
    <glyph glyph-name="uni009F" horiz-adv-x="221" 
d="M129 336c3 14 12 24 21 22c11 -2 20 -23 16 -37c-3 -11 -13 -16 -21 -15c-12 2 -20 13 -16 30zM66 336c4 13 12 21 20 20c12 -1 19 -21 16 -35s-13 -16 -21 -15c-12 2 -20 14 -15 30zM134 50c-10 -32 -24 -49 -41 -59c-20 -12 -46 -10 -62 10c-35 44 -33 165 -9 256
c5 18 15 31 28 33c7 1 8 1 7 -6c-13 -65 -21 -191 -2 -242c8 -23 19 -25 27 -25c14 0 31 30 39 101c6 57 11 109 14 125c4 25 14 31 31 35c8 2 8 -2 7 -7c-14 -109 -19 -250 17 -250c14 0 34 39 41 91c0 7 3 7 6 2c2 -3 7 -17 7 -31c-1 -75 -33 -100 -69 -87
c-20 7 -33 29 -41 54z" />
    <glyph glyph-name="uni00A0" unicode="&#xa0;" horiz-adv-x="292" 
d="M165 623c39 0 78 -3 108 -7c5 -1 6 -4 4 -7c-10 -15 -24 -20 -40 -20c-24 0 -49 0 -74 -2c-4 -91 -5 -183 -1 -252c0 -8 -5 -8 -9 -6c-17 8 -23 21 -25 42c-5 45 -9 133 -8 213c-34 -2 -66 -7 -96 -13c-7 -1 -10 1 -8 8c5 18 18 35 40 38c17 2 40 4 65 5c1 25 2 48 5 68
c3 24 19 43 40 51c9 3 10 1 9 -8c-4 -35 -7 -72 -10 -110z" />
    <glyph glyph-name="exclamdown" unicode="&#xa1;" horiz-adv-x="276" 
d="M169 667c53 -16 86 -73 87 -148c2 -102 -58 -151 -128 -136c-49 10 -99 64 -86 161c10 74 63 142 127 123zM217 552c-3 34 -30 90 -57 95c-35 6 -77 -52 -81 -122c-4 -80 34 -121 64 -123c42 -3 83 55 74 150z" />
    <glyph glyph-name="cent" unicode="&#xa2;" horiz-adv-x="369" 
d="M210 32c2 -34 5 -65 8 -92c1 -8 -3 -10 -9 -8c-15 5 -34 19 -38 54c-2 15 -3 32 -4 50c-76 17 -150 86 -152 215c-2 163 79 292 166 316c3 30 6 55 10 73c3 14 8 32 27 39c5 2 6 -1 5 -6c-4 -26 -7 -60 -10 -101c98 -1 130 -102 124 -157c-5 -44 -22 -70 -44 -76
c-6 -2 -9 -1 -7 7c26 96 -8 205 -74 203c-8 -140 -11 -338 -3 -490c58 9 98 69 107 168c1 7 4 10 10 4c7 -7 11 -25 11 -44c2 -109 -55 -151 -127 -155zM165 61c-7 137 0 342 13 478c-57 -32 -118 -135 -119 -275c-1 -108 42 -186 106 -203z" />
    <glyph glyph-name="sterling" unicode="&#xa3;" horiz-adv-x="360" 
d="M128 200c-33 -6 -68 -13 -102 -22c-8 -2 -12 0 -11 8c3 18 16 37 37 41c17 3 43 7 72 10c-19 48 -84 77 -85 150c-1 76 60 189 152 190c101 1 132 -102 125 -157c-6 -44 -22 -70 -43 -76c-6 -2 -11 0 -9 6c28 96 -11 204 -73 203c-41 -2 -104 -85 -104 -171
c0 -75 46 -98 67 -142c38 4 78 6 106 7c6 0 6 -3 4 -8c-8 -16 -22 -24 -41 -26c-17 -2 -37 -4 -58 -7c4 -33 -8 -80 -39 -120c60 11 139 16 187 15c7 0 8 -3 6 -9c-6 -16 -21 -23 -40 -25c-53 -5 -123 -17 -180 -32c-13 -3 -17 1 -23 8c-5 6 -11 13 -16 20c-3 5 -5 11 2 19
c24 27 60 73 66 118z" />
    <glyph glyph-name="Euro" unicode="&#x20ac;" horiz-adv-x="654" 
d="M145 183c2 45 -10 71 -24 75c-20 5 -62 -54 -74 -128c-13 -80 6 -118 22 -121c29 -5 71 62 76 174zM145 60c-12 -55 -39 -91 -90 -69c-36 16 -69 66 -44 165c26 105 84 146 123 121c14 -9 23 -21 29 -35c5 12 14 18 23 20c5 1 7 -1 6 -6c-26 -109 -18 -227 6 -234
c22 -6 56 62 64 193c-18 8 -32 25 -31 58c2 47 25 63 36 57c14 -7 18 -44 18 -92c32 -2 69 23 90 49c5 6 9 6 14 1c14 -15 19 -31 12 -46c-34 -73 -53 -218 -16 -235c30 -14 76 69 83 200c-17 9 -30 26 -28 56c3 47 25 64 36 58c13 -7 18 -44 18 -92c32 -2 68 24 87 51
c5 7 10 6 15 0c15 -15 20 -31 14 -45c-33 -75 -52 -211 -16 -229c17 -9 50 21 71 100c2 8 6 4 8 1c3 -6 4 -16 2 -30c-11 -81 -45 -111 -83 -98c-58 20 -76 107 -35 233c-18 -9 -37 -13 -56 -13h-7c-5 -123 -41 -246 -111 -219c-59 23 -78 114 -35 241
c-18 -9 -37 -12 -56 -12h-7c-3 -115 -26 -237 -93 -213c-26 9 -41 32 -47 64z" />
    <glyph glyph-name="yen" unicode="&#xa5;" horiz-adv-x="172" 
d="M46 174c6 28 24 44 40 43c25 -1 45 -37 39 -68c-6 -29 -23 -37 -42 -35c-24 3 -44 26 -37 60z" />
    <glyph glyph-name="Scaron" unicode="&#x160;" horiz-adv-x="418" 
d="M215 237c-126 13 -200 87 -200 171c0 103 74 219 245 230c51 3 97 -4 120 -15c14 -8 20 -15 22 -22c2 -6 1 -9 -6 -7c-13 3 -29 5 -46 6c-12 -192 -11 -485 11 -640c1 -6 -1 -8 -8 -6c-18 4 -42 14 -47 54c-16 135 -10 422 7 594c-11 0 -22 0 -32 -1
c-19 -163 -29 -463 -8 -632c1 -6 -1 -8 -8 -6c-18 4 -41 15 -45 54c-6 57 -7 136 -5 220z" />
    <glyph glyph-name="section" unicode="&#xa7;" horiz-adv-x="253" 
d="M143 253c41 7 82 -28 83 -118c1 -86 -41 -119 -69 -131c-57 -24 -92 39 -83 91c2 11 7 12 10 3c14 -44 42 -74 66 -68c15 4 38 41 35 110c-4 81 -28 100 -60 88c-16 -6 -29 -1 -38 10c-6 7 -6 11 1 15c38 21 73 60 85 130c12 72 -2 123 -22 131c-27 10 -76 -42 -91 -170
c-13 -111 -11 -242 11 -365c1 -6 -3 -8 -10 -6c-15 5 -31 17 -36 52c-11 83 -14 224 -2 325c19 159 81 216 137 185c44 -24 70 -79 50 -173c-11 -51 -39 -89 -67 -109z" />
    <glyph glyph-name="scaron" unicode="&#x161;" horiz-adv-x="590" 
d="M314 41c-140 -12 -264 103 -278 279c-15 194 101 357 253 368c168 12 256 -145 265 -298c11 -181 -79 -335 -240 -349zM506 404c-9 120 -86 267 -216 256c-124 -10 -217 -167 -205 -340c13 -184 119 -255 210 -248c138 10 225 142 211 332zM231 258c3 -44 6 -83 11 -112
c1 -7 0 -10 -9 -7c-17 5 -33 17 -35 40c-8 85 -2 231 5 296c2 16 7 31 24 42c4 3 10 2 9 -4c-5 -53 -7 -127 -6 -197c120 -7 203 56 203 110c0 76 -82 110 -147 109c-50 -1 -92 -13 -127 -31c-4 -2 -7 0 -6 6c1 9 8 19 19 30c20 19 73 38 113 38c104 0 174 -70 175 -153
c1 -79 -76 -144 -197 -142c51 -46 99 -83 134 -102c4 -2 5 -6 0 -8c-20 -10 -33 -4 -48 3c-29 14 -73 42 -118 82z" />
    <glyph glyph-name="copyright" unicode="&#xa9;" horiz-adv-x="590" 
d="M313 42c-139 -12 -263 103 -277 279c-15 194 101 356 255 367c168 12 255 -144 263 -297c10 -181 -79 -335 -241 -349zM505 405c-10 119 -81 269 -214 256c-124 -12 -219 -167 -207 -340c13 -184 119 -255 210 -248c138 10 227 142 211 332zM412 327c7 -8 10 -25 9 -42
c-5 -62 -42 -121 -104 -132c-64 -11 -145 30 -157 152c-14 146 65 272 139 281c63 8 100 -65 101 -109c1 -33 -11 -54 -27 -61c-3 -1 -6 1 -6 7c2 48 -23 145 -68 138c-36 -6 -101 -103 -97 -241c3 -99 52 -145 91 -144c53 1 93 73 107 148c1 8 8 7 12 3z" />
    <glyph glyph-name="ordfeminine" unicode="&#xaa;" horiz-adv-x="582" 
d="M156 650c-44 -4 -88 -10 -131 -20c-8 -2 -11 2 -8 11c5 17 18 40 39 43c50 7 135 9 215 7c1 9 2 18 3 26c1 9 6 15 15 11c16 -6 30 -13 33 -28c1 -4 2 -8 2 -12c28 -2 53 -4 75 -7c6 -1 7 -3 4 -7c-9 -14 -22 -21 -42 -20c-10 1 -20 1 -30 1c18 -85 43 -187 69 -269
c13 76 49 206 88 314c2 7 7 9 14 5c10 -6 20 -13 26 -20c8 -7 10 -17 9 -27c-7 -107 -9 -266 5 -379c1 -8 -2 -11 -11 -7c-20 8 -36 24 -39 50c-9 79 -4 212 9 308c-32 -106 -64 -234 -72 -322c-1 -7 -5 -9 -12 -8c-19 2 -37 11 -49 44c-21 56 -49 169 -67 274
c-3 -127 -2 -283 10 -377c1 -9 -2 -11 -11 -8c-20 7 -36 25 -39 51c-9 75 -5 247 6 371c-26 0 -52 -1 -78 -3c-8 -107 -12 -257 0 -372c1 -9 -1 -10 -10 -7c-21 8 -37 25 -38 51c-8 83 0 227 15 326z" />
    <glyph glyph-name="guillemotleft" unicode="&#xab;" horiz-adv-x="229" 
d="M78 727c-16 -8 -31 -13 -49 -4c-5 3 -6 6 -1 10c30 22 80 51 117 66c20 8 42 1 55 -12c5 -5 5 -9 -4 -12c-41 -13 -88 -33 -118 -48z" />
    <glyph glyph-name="logicalnot" unicode="&#xac;" horiz-adv-x="197" 
d="M126 749c3 20 15 31 24 29c15 -3 28 -26 26 -45s-13 -23 -25 -21c-15 2 -28 15 -25 37zM20 746c3 20 13 30 24 28c14 -2 28 -26 26 -45s-13 -23 -25 -21c-15 2 -28 15 -25 38z" />
    <glyph glyph-name="uni00AD" unicode="&#xad;" horiz-adv-x="599" 
d="M43 104c76 13 89 150 64 157c-19 5 -55 -50 -62 -126c-1 -11 -2 -21 -2 -31zM438 199c-5 -123 -40 -246 -110 -219c-59 23 -79 113 -35 240c-18 -9 -38 -12 -56 -12h-9c-8 -145 -59 -244 -152 -217c-46 13 -87 69 -70 168c18 106 74 149 113 121c33 -23 42 -59 31 -102
c-16 -62 -60 -91 -106 -94c3 -38 15 -64 38 -71c31 -9 77 19 101 90c12 34 17 69 22 111c-17 9 -31 26 -30 57c2 48 26 64 37 58c13 -7 18 -45 17 -92c32 -3 69 23 90 49c4 5 11 6 15 1c14 -16 18 -31 11 -46c-34 -73 -52 -216 -15 -234c30 -13 76 69 83 199
c-17 9 -30 26 -29 57c2 47 26 64 37 58c13 -7 18 -44 18 -92c32 -2 67 24 87 51c5 6 10 6 15 0c14 -15 19 -31 13 -45c-32 -75 -52 -211 -14 -229c15 -7 48 21 70 100c2 8 6 6 8 1c2 -6 3 -16 1 -30c-9 -81 -43 -111 -82 -98c-58 20 -76 106 -36 233c-18 -9 -37 -13 -55 -13
h-8z" />
    <glyph glyph-name="registered" unicode="&#xae;" horiz-adv-x="693" 
d="M360 211c-72 -10 -147 -22 -218 -37c-33 -79 -61 -155 -82 -221c-2 -6 -6 -7 -11 -3c-14 11 -29 30 -17 69c13 41 32 90 54 142c-20 -6 -40 -11 -59 -16c-10 -3 -13 1 -11 10c4 20 17 41 39 47c15 4 34 8 54 12c70 157 164 333 241 439c12 16 18 18 33 20
c97 14 226 15 306 5c7 -1 8 -3 6 -7c-9 -15 -22 -22 -42 -22c-75 0 -167 -5 -254 -20c-5 -99 -4 -240 2 -376c81 7 157 11 215 10c4 0 6 -2 3 -7c-9 -18 -22 -23 -40 -24c-53 -3 -114 -9 -176 -16c4 -88 11 -171 20 -237c89 23 193 32 265 30c7 0 8 -3 6 -7
c-8 -16 -21 -22 -39 -24c-77 -7 -149 -23 -213 -42c-12 -4 -18 -6 -30 0c-8 4 -16 8 -22 12c-8 5 -10 7 -12 20c-9 58 -15 147 -18 243zM163 224c61 10 129 18 196 25c-4 135 -1 278 7 369c-71 -117 -143 -258 -203 -394z" />
    <glyph glyph-name="macron" unicode="&#xaf;" horiz-adv-x="517" 
d="M479 222c-20 -221 -141 -285 -224 -288c-46 -2 -95 16 -135 51c-7 -17 -13 -33 -18 -49c-2 -6 -4 -5 -10 -1c-14 10 -27 31 -13 70c1 4 3 10 6 15c-42 53 -70 130 -69 228c1 124 39 224 88 296c20 66 73 138 162 136c49 -1 94 -31 129 -79c7 10 12 19 20 27
c11 12 25 25 46 22c7 -1 6 -4 4 -7c-14 -20 -31 -46 -50 -74c50 -84 76 -210 64 -347zM100 58c63 151 190 384 273 511c-33 56 -75 88 -115 85c-91 -7 -145 -184 -84 -295c5 -9 2 -12 -5 -11c-30 4 -65 40 -72 110c-21 -58 -34 -129 -36 -202c-2 -78 12 -146 39 -198z
M393 531c-89 -148 -199 -361 -262 -518c29 -32 67 -51 112 -51c103 -1 185 116 195 279c7 114 -13 216 -45 290z" />
    <glyph glyph-name="degree" unicode="&#xb0;" horiz-adv-x="532" 
d="M26 291c3 17 13 25 22 28c17 5 24 0 21 -19c-3 -17 -11 -25 -23 -30c-11 -2 -24 1 -20 21zM370 199c-4 -123 -39 -246 -109 -219c-59 23 -79 115 -34 241c-19 -9 -38 -12 -57 -12h-8c-5 -149 -43 -243 -102 -222c-38 14 -55 54 -55 120c0 48 7 97 16 124
c5 16 15 23 26 26c5 1 7 0 6 -6c-25 -116 -10 -228 11 -238c22 -10 64 53 75 202c-18 8 -32 25 -31 58c2 47 25 64 37 57c13 -7 18 -45 18 -92c32 -2 68 23 89 50c5 6 10 4 14 0c15 -15 19 -31 12 -46c-34 -73 -53 -217 -15 -235c31 -15 76 68 83 199c-18 9 -31 26 -30 57
c2 47 26 64 37 58c14 -7 17 -44 17 -92c33 -2 68 24 88 51c4 6 10 6 15 0c14 -15 19 -31 13 -45c-32 -75 -52 -211 -14 -229c15 -7 49 21 69 100c2 9 7 4 9 1c3 -6 4 -16 2 -30c-11 -81 -45 -111 -83 -98c-57 20 -75 106 -36 232c-18 -9 -37 -12 -54 -12h-9z" />
    <glyph glyph-name="plusminus" unicode="&#xb1;" horiz-adv-x="598" 
d="M618 77c-10 -81 -45 -111 -82 -98c-58 20 -78 109 -36 236c-18 -10 -36 -13 -55 -13c-3 0 -5 0 -9 1c-4 -124 -40 -249 -109 -223c-58 22 -78 112 -35 239c-15 -7 -29 -10 -43 -10c-5 0 -11 0 -16 1c-10 -31 -29 -57 -57 -67c6 -117 -40 -169 -103 -152
c-40 11 -80 67 -65 161c10 62 40 111 69 126c5 3 16 4 27 -9c27 5 61 -32 69 -97c17 7 32 22 40 45c-15 10 -28 26 -26 56c3 47 25 62 37 57c14 -6 20 -50 15 -90c32 -5 58 20 79 48c5 6 10 5 15 0c14 -15 18 -31 11 -46c-39 -85 -53 -218 -15 -235c30 -13 77 72 83 203
c-18 8 -31 26 -29 55c3 49 25 65 37 58c13 -7 18 -43 18 -91c31 -2 68 23 89 49c5 6 10 4 14 0c15 -14 18 -31 12 -45c-34 -74 -52 -212 -15 -230c16 -8 49 21 71 100c2 8 6 6 8 1c2 -6 3 -16 1 -30zM103 249c-8 -4 -8 -22 -3 -39c7 -22 20 -37 39 -40c-5 53 -25 84 -36 79z
M141 138c-43 4 -68 37 -69 76c-11 -22 -20 -51 -25 -84c-11 -77 19 -118 37 -121c30 -5 57 49 57 129z" />
    <glyph glyph-name="uni00B2" unicode="&#xb2;" horiz-adv-x="637" 
d="M476 199c-4 -123 -40 -243 -111 -219c-58 20 -78 112 -34 239c-19 -10 -38 -14 -56 -14h-9c-3 -86 -16 -234 -89 -209c-20 7 -36 27 -44 54c-11 -34 -26 -51 -40 -61c-18 -13 -47 -8 -63 12c-34 43 -32 165 -9 255c5 18 15 31 28 33c7 1 8 1 7 -6
c-12 -65 -20 -187 -4 -237c9 -29 23 -33 30 -31c14 4 31 31 38 103c5 55 12 107 14 124c3 26 15 32 32 35c6 1 8 -2 7 -7c-16 -113 -19 -239 10 -249c27 -9 56 97 61 191c-18 8 -32 26 -31 57c2 48 25 65 36 59c14 -7 18 -45 18 -92c33 -3 69 23 90 48c5 6 10 7 14 2
c14 -16 18 -32 12 -46c-33 -75 -52 -215 -14 -233c28 -13 74 69 81 200c-17 9 -30 26 -28 56c3 47 25 63 36 58c15 -7 18 -44 18 -92c32 -2 68 24 87 51c5 7 11 6 16 0c14 -15 19 -31 13 -45c-32 -75 -52 -211 -14 -229c15 -7 48 21 69 100c2 8 6 4 8 1c4 -6 5 -16 3 -30
c-11 -81 -46 -111 -84 -98c-57 20 -75 106 -35 233c-18 -9 -37 -13 -55 -13h-8z" />
    <glyph glyph-name="uni00B3" unicode="&#xb3;" horiz-adv-x="446" 
d="M145 184c2 45 -10 72 -24 76c-20 5 -61 -55 -74 -129c-14 -80 7 -117 22 -120c29 -6 71 61 76 173zM145 62c-12 -55 -39 -92 -90 -70c-36 16 -68 67 -44 165c26 105 83 146 123 121c13 -7 23 -20 29 -34c5 11 14 17 23 19c5 1 7 -1 6 -6c-26 -107 -18 -226 6 -233
c21 -6 55 58 64 189c-18 8 -32 26 -31 57c2 49 25 65 36 59c14 -8 17 -45 18 -92c32 -2 69 23 89 49c4 5 11 4 15 0c14 -15 18 -31 12 -45c-34 -75 -52 -216 -16 -233c16 -8 50 20 71 101c2 8 7 6 9 1c2 -6 3 -18 1 -31c-11 -80 -45 -111 -83 -98c-58 20 -78 112 -35 238
c-19 -9 -37 -13 -56 -13h-7c-3 -113 -27 -233 -93 -208c-25 10 -40 32 -47 64z" />
    <glyph glyph-name="Zcaron" unicode="&#x17d;" horiz-adv-x="395" 
d="M234 237c33 -2 70 23 90 49c4 5 10 6 15 0c14 -15 18 -31 12 -45c-34 -75 -53 -216 -15 -233c15 -7 48 20 69 101c2 8 6 4 8 1c4 -6 5 -18 3 -31c-11 -80 -46 -111 -84 -98c-57 20 -78 112 -34 239c-19 -10 -37 -14 -56 -14h-9c-8 -144 -62 -243 -154 -215
c-38 12 -83 57 -73 156c12 116 69 166 111 140c27 -16 38 -39 39 -68c1 -40 -21 -59 -36 -61c-6 -1 -7 0 -5 6c16 50 8 103 -8 104c-22 3 -56 -64 -61 -144c-4 -60 14 -103 38 -111c32 -11 79 20 104 90c12 34 16 69 21 111c-17 8 -30 26 -29 56c2 49 25 65 36 59
c15 -8 19 -45 18 -92z" />
    <glyph glyph-name="uni00B5" unicode="&#xb5;" horiz-adv-x="393" 
d="M45 104c76 14 88 151 65 158c-19 6 -56 -50 -63 -126c-1 -12 -2 -22 -2 -32zM231 237c33 -3 69 23 90 49c4 5 10 6 15 0c14 -15 18 -31 12 -45c-34 -75 -52 -216 -15 -233c15 -7 49 20 70 101c2 8 5 5 9 1s3 -18 1 -31c-11 -80 -45 -111 -83 -98c-58 20 -78 112 -35 238
c-19 -9 -37 -13 -56 -13c-3 0 -6 0 -9 1c-8 -144 -59 -241 -151 -215c-46 13 -88 67 -71 167c18 108 75 150 113 122c32 -24 41 -59 31 -102c-15 -63 -59 -91 -106 -94c3 -38 16 -64 39 -71c28 -9 77 19 100 89c11 33 19 69 23 110c-18 9 -32 26 -30 57c1 49 25 65 37 59
c13 -8 17 -45 16 -92z" />
    <glyph glyph-name="paragraph" unicode="&#xb6;" horiz-adv-x="366" 
d="M99 46c-18 6 -37 20 -54 48c1 -127 10 -258 42 -277c30 -15 41 130 12 229zM118 81c46 -11 59 60 61 133c-17 9 -30 26 -28 56c1 49 25 65 37 59c13 -8 17 -45 17 -92c32 -2 69 23 89 49c4 5 10 6 15 0c14 -15 18 -31 12 -45c-34 -75 -52 -216 -15 -233
c15 -7 49 20 70 101c2 8 5 5 9 1s3 -18 1 -31c-11 -80 -45 -111 -83 -98c-58 20 -78 112 -35 238c-19 -9 -37 -13 -56 -13h-8c-2 -78 -13 -134 -47 -155c-6 -4 -14 -7 -24 -8c23 -68 32 -150 10 -221c-11 -35 -33 -51 -70 -26c-68 47 -70 190 -68 308c2 120 26 298 56 394
c8 27 22 37 32 39c6 1 8 1 6 -7c-27 -100 -46 -251 -52 -357c7 -2 15 -8 24 -18c17 -19 33 -44 47 -74z" />
    <glyph glyph-name="periodcentered" unicode="&#xb7;" horiz-adv-x="440" 
d="M157 181c2 48 -9 78 -24 82c-21 6 -63 -52 -80 -130c-18 -81 5 -119 22 -124c27 -4 77 64 82 172zM170 250c0 2 1 5 1 7c2 13 12 25 23 29c5 2 7 -2 7 -5c-16 -117 -9 -269 0 -380c6 -80 -16 -124 -46 -149c-57 -48 -120 -9 -139 62c-9 33 -6 55 0 68c3 7 10 7 12 -2
c27 -102 83 -127 112 -107c23 16 28 58 21 127c-5 54 -7 108 -7 160c-15 -55 -47 -89 -94 -69c-40 17 -74 70 -44 171c33 112 91 151 129 119c10 -8 19 -19 25 -31zM280 236c32 -2 68 23 88 50c4 6 10 5 15 0c15 -16 19 -30 12 -46c-34 -74 -53 -215 -15 -232
c17 -8 50 20 71 99c1 9 4 7 8 2c3 -3 3 -17 1 -31c-10 -79 -43 -116 -80 -103c-59 20 -82 112 -38 238c-18 -9 -37 -7 -55 -7h-8c-3 -71 -17 -167 -9 -231c1 -6 -2 -8 -9 -6c-14 5 -28 20 -29 52c-2 59 17 126 21 192c-17 9 -30 26 -29 57c2 47 26 65 38 58
c13 -7 18 -44 18 -92z" />
    <glyph glyph-name="zcaron" unicode="&#x17e;" horiz-adv-x="324" 
d="M26 291c4 17 13 26 23 29c16 4 23 -1 21 -19c-2 -17 -12 -25 -24 -30c-8 -3 -22 0 -20 20zM163 237c32 -2 69 23 90 49c4 5 10 4 14 0c14 -15 18 -31 12 -45c-33 -75 -52 -216 -14 -233c15 -7 48 20 69 101c2 8 6 4 8 1c3 -6 4 -18 2 -31c-10 -80 -45 -111 -83 -98
c-58 20 -78 112 -34 239c-19 -10 -37 -14 -56 -14h-8c-5 -147 -43 -240 -101 -218c-41 16 -57 54 -57 119c0 49 7 98 16 125c5 16 16 23 26 25c5 1 7 1 6 -4c-24 -117 -8 -231 11 -239c23 -9 65 51 76 199c-18 8 -32 26 -31 57c2 49 25 66 36 59c14 -8 18 -45 18 -92z" />
    <glyph glyph-name="uni00B9" unicode="&#xb9;" horiz-adv-x="301" 
d="M18 299c1 15 12 31 26 33c9 2 22 -5 24 -22c2 -19 -11 -33 -25 -35c-17 -2 -26 7 -25 24zM-73 -136c3 5 8 4 10 -1c22 -68 59 -79 75 -64c17 13 14 46 8 117c-10 121 -21 242 -2 312c5 19 15 30 27 34c5 2 8 -1 7 -5c-16 -100 -4 -219 9 -334c10 -92 -4 -124 -41 -151
c-34 -25 -80 -17 -95 44c-5 21 -4 39 2 48zM141 236c32 -2 68 23 88 50c4 6 10 5 15 0c15 -16 19 -30 12 -46c-34 -74 -53 -215 -15 -232c17 -8 50 20 71 99c1 9 4 7 8 2c3 -3 3 -17 1 -31c-10 -79 -45 -111 -82 -98c-59 20 -80 112 -36 238c-18 -9 -37 -12 -55 -12h-8
c-3 -71 -17 -167 -9 -231c1 -6 -2 -8 -9 -6c-14 5 -28 20 -29 52c-2 59 17 126 21 192c-17 9 -30 26 -29 57c2 47 26 65 38 58c13 -7 18 -44 18 -92z" />
    <glyph glyph-name="ordmasculine" unicode="&#xba;" horiz-adv-x="457" 
d="M297 237c32 -2 69 23 88 49c4 6 11 6 16 0c14 -15 17 -31 11 -45c-34 -75 -53 -216 -15 -233c15 -7 50 20 71 101c2 7 5 5 8 1c4 -5 3 -18 1 -31c-10 -80 -44 -111 -82 -98c-59 20 -80 112 -36 238c-18 -9 -37 -13 -55 -13h-8c-6 -146 -47 -242 -127 -223
c-42 10 -79 52 -87 117c-1 6 1 12 8 17c78 40 96 134 75 160c-32 39 -128 -101 -97 -298c1 -6 -1 -8 -8 -7c-16 6 -34 16 -38 53c-17 163 -5 377 22 501c3 16 11 32 29 39c6 1 7 -2 6 -6c-15 -95 -28 -240 -26 -378c11 62 34 99 50 116c18 19 49 30 79 -3
c46 -51 30 -152 -57 -195c7 -49 26 -85 46 -91c45 -14 96 84 101 205c-18 9 -33 26 -31 57c3 49 26 65 38 59c13 -8 18 -45 18 -92z" />
    <glyph glyph-name="guillemotright" unicode="&#xbb;" horiz-adv-x="389" 
d="M409 79c-11 -80 -45 -111 -83 -98c-57 20 -77 111 -35 236c-14 -7 -28 -9 -42 -9c-6 0 -11 0 -17 1c-9 -31 -29 -56 -57 -65c6 -117 -40 -169 -102 -152c-40 11 -80 67 -66 161c9 62 41 111 69 127c4 3 17 3 27 -10c28 5 62 -33 70 -97c17 6 31 19 40 43
c-15 9 -28 26 -26 54c3 49 25 64 37 59c14 -6 20 -51 15 -92c32 -3 58 20 78 49c4 6 9 6 15 0c15 -15 18 -31 12 -45c-36 -84 -52 -216 -15 -233c15 -7 49 20 71 101c2 7 4 5 8 1s3 -18 1 -31zM102 250c-8 -3 -9 -22 -3 -39c8 -23 21 -36 40 -40c-5 53 -25 84 -37 79z
M140 139c-42 4 -67 37 -68 76c-11 -23 -22 -51 -26 -84c-10 -77 21 -117 37 -120c31 -6 57 48 57 128z" />
    <glyph glyph-name="OE" unicode="&#x152;" horiz-adv-x="418" 
d="M258 229c32 -2 67 24 87 51c5 6 10 6 15 0c14 -15 19 -31 13 -45c-32 -75 -52 -211 -14 -229c15 -7 49 21 70 100c2 8 6 6 8 1c2 -6 3 -16 1 -30c-9 -81 -43 -111 -82 -98c-58 20 -75 106 -36 233c-18 -9 -36 -13 -54 -13h-9c-5 -123 -40 -246 -110 -219
c-59 23 -78 114 -35 240c-19 -9 -38 -12 -56 -12h-8c-3 -74 -17 -177 -9 -240c1 -6 -2 -9 -9 -6c-13 5 -27 20 -28 52c-2 59 16 134 20 202c-16 8 -29 25 -27 55c3 48 24 65 36 58c13 -7 18 -45 18 -91c32 -2 69 23 88 49c5 7 12 4 16 0c14 -14 17 -31 11 -45
c-34 -74 -53 -218 -15 -234c30 -14 76 68 83 199c-17 9 -30 26 -29 56c2 47 26 64 37 58c13 -7 18 -44 18 -92z" />
    <glyph glyph-name="oe" unicode="&#x153;" horiz-adv-x="395" 
d="M31 88c30 -63 82 -84 98 -66c15 17 -6 62 -23 101c-15 34 -33 83 -24 121c-25 -40 -38 -102 -51 -156zM16 55c-2 -5 -5 -8 -8 -11c-5 -4 -5 -5 -7 1c-3 10 2 21 6 35c-1 7 -3 14 -5 21c-3 13 -5 35 5 46c3 3 5 4 6 -1c1 -7 3 -14 4 -20c10 52 30 139 72 178
c16 15 32 8 42 -3c5 -5 2 -10 -2 -13c-30 -27 -4 -103 17 -151c32 -74 21 -111 0 -131c-38 -35 -96 -28 -130 49zM235 236c32 -2 68 23 88 50c4 6 10 5 15 0c15 -16 19 -30 12 -46c-34 -74 -53 -215 -15 -232c17 -8 50 20 71 99c1 9 4 7 8 2c3 -3 3 -17 1 -31
c-10 -79 -45 -111 -82 -98c-59 20 -80 112 -36 238c-18 -9 -37 -12 -55 -12h-8c-3 -71 -17 -167 -9 -231c1 -6 -2 -8 -9 -6c-14 5 -28 20 -29 52c-2 59 17 126 21 192c-17 9 -30 26 -29 57c2 47 26 65 38 58c13 -7 18 -44 18 -92z" />
    <glyph glyph-name="Ydieresis" unicode="&#x178;" horiz-adv-x="317" 
d="M183 102c76 16 88 153 64 160c-19 6 -56 -50 -63 -126c-1 -12 -2 -24 -1 -34zM148 184c3 45 -9 73 -19 76c-20 5 -65 -56 -80 -129c-16 -79 3 -115 20 -118c26 -5 71 59 79 171zM148 64c-14 -55 -43 -90 -93 -70c-37 15 -71 66 -42 164c30 102 90 145 129 120
c15 -8 24 -23 28 -40c26 47 61 62 89 43c33 -22 40 -59 30 -102c-14 -58 -61 -90 -105 -94c3 -37 15 -61 29 -66c36 -13 98 23 119 94c2 6 6 6 7 1c2 -8 2 -16 0 -29c-13 -73 -73 -111 -135 -87c-22 8 -47 29 -56 66z" />
    <glyph glyph-name="questiondown" unicode="&#xbf;" horiz-adv-x="203" 
d="M73 -4c-4 1 -6 3 -9 4c-3 -6 -4 -12 -6 -18s-5 -5 -8 -3c-11 7 -17 20 -13 35c0 1 2 3 1 4c-25 24 -40 68 -31 134c8 57 40 111 69 126c7 4 17 4 28 -8c13 1 26 -3 39 -15c5 8 9 16 14 23c2 3 4 3 7 -1c5 -8 6 -20 0 -32c-2 -4 -5 -7 -6 -11c10 -17 17 -39 20 -66
c14 -127 -41 -193 -105 -172zM51 58c19 54 47 117 77 171c-8 15 -18 25 -31 22c-27 -28 -47 -75 -52 -118c-3 -30 0 -56 6 -75zM143 157c-1 13 -2 26 -5 39c-25 -53 -47 -110 -67 -172c5 -6 11 -9 15 -10c30 -6 62 57 57 143z" />
    <glyph glyph-name="Agrave" unicode="&#xc0;" horiz-adv-x="386" 
d="M208 569c13 -5 25 -24 28 -53c19 -161 -163 -203 -166 -377c-1 -78 34 -140 100 -143c93 -4 155 117 142 248c-1 9 2 10 9 6c25 -13 35 -51 32 -99c-4 -70 -61 -184 -179 -178c-102 5 -153 87 -148 183c9 185 212 218 172 406c-1 7 3 10 10 7zM179 649c2 24 13 35 32 31
c18 -4 31 -24 25 -49c-5 -20 -20 -31 -29 -28c-15 4 -30 26 -28 46z" />
    <glyph glyph-name="Aacute" unicode="&#xc1;" horiz-adv-x="142" 
d="M103 531c6 -140 -7 -395 -27 -515c-3 -20 -13 -34 -30 -40c-5 -2 -5 1 -5 5c18 152 26 424 17 597c0 6 3 9 9 7c16 -4 34 -14 36 -54zM48 665c1 24 13 35 32 31c17 -4 30 -24 24 -49c-5 -19 -17 -31 -29 -28c-16 4 -28 26 -27 46z" />
    <glyph glyph-name="Acircumflex" unicode="&#xc2;" horiz-adv-x="334" 
d="M23 341c-23 -2 -47 -5 -72 -9c-7 0 -8 2 -6 7c3 10 13 24 30 26s35 3 53 4c6 31 12 57 18 76c4 11 13 21 22 23c5 1 6 0 5 -5c-4 -23 -9 -56 -13 -92c54 1 111 -2 163 -9c3 0 4 -2 1 -6c-6 -7 -14 -11 -28 -11c-45 1 -91 2 -139 -1c-4 -51 -8 -107 -9 -153
c-2 -92 6 -169 30 -174c28 -10 66 84 73 195c-19 9 -33 27 -32 58c2 49 25 66 36 59c14 -8 18 -45 18 -92c33 -3 69 23 90 49c4 5 10 4 14 0c14 -15 19 -31 13 -45c-34 -75 -53 -216 -15 -233c15 -7 48 20 69 101c2 8 7 6 9 1c2 -6 4 -18 2 -31c-11 -80 -46 -111 -84 -98
c-58 20 -78 112 -34 238c-19 -9 -38 -13 -56 -13h-8c-5 -129 -35 -236 -98 -218c-52 15 -72 82 -67 195c2 53 8 110 15 158z" />
    <glyph glyph-name="Atilde" unicode="&#xc3;" horiz-adv-x="429" 
d="M270 237c31 -2 68 23 87 49c4 6 11 6 16 0c14 -15 17 -31 11 -45c-34 -75 -51 -216 -15 -233c16 -8 50 20 71 101c2 7 6 4 8 1c3 -6 3 -18 1 -31c-10 -80 -44 -111 -82 -98c-59 20 -78 112 -35 238c-19 -9 -38 -13 -56 -13h-8c-4 -86 -16 -233 -89 -210
c-21 7 -37 28 -45 55c-11 -33 -27 -51 -41 -60c-18 -12 -46 -9 -61 10c-36 44 -33 165 -10 256c5 18 16 31 29 33c7 1 8 1 5 -6c-11 -66 -18 -187 -2 -237c9 -29 22 -31 30 -30c14 2 30 30 37 101c6 57 11 109 14 124c4 26 15 32 31 36c8 2 8 -2 7 -7
c-14 -113 -17 -239 12 -249c26 -9 56 99 59 191c-17 9 -30 27 -29 57c2 49 24 65 36 59c13 -8 20 -45 19 -92z" />
    <glyph glyph-name="Adieresis" unicode="&#xc4;" horiz-adv-x="416" 
d="M125 39c-10 -25 -22 -39 -35 -48c-20 -14 -44 -10 -59 10c-34 46 -31 163 -9 257c4 16 13 30 26 32c7 1 8 1 7 -6c-13 -65 -22 -190 -1 -242c8 -20 18 -30 28 -28c16 3 31 33 38 104c5 53 8 99 14 124c6 23 15 33 30 36c8 2 8 -1 8 -5c-15 -120 -11 -259 0 -366
c8 -79 -18 -124 -50 -149c-56 -44 -107 -1 -121 64c-7 33 -3 52 2 62c3 6 9 7 11 -2c22 -92 69 -123 98 -103c22 15 26 57 20 128c-4 44 -6 89 -7 132zM256 236c32 -2 68 23 88 50c4 6 10 5 15 0c15 -16 19 -30 12 -46c-34 -74 -53 -215 -15 -232c17 -8 50 20 71 99
c1 9 4 7 8 2c3 -3 3 -17 1 -31c-10 -79 -45 -111 -82 -98c-59 20 -80 112 -36 238c-18 -9 -37 -12 -55 -12h-8c-3 -71 -17 -167 -9 -231c1 -6 -2 -8 -9 -6c-14 5 -28 20 -29 52c-2 59 17 126 21 192c-17 9 -30 26 -29 57c2 47 26 65 38 58c13 -7 18 -44 18 -92z" />
    <glyph glyph-name="Aring" unicode="&#xc5;" horiz-adv-x="230" 
d="M44 192c66 109 65 335 46 345c-13 8 -36 -111 -42 -198c-3 -45 -5 -96 -4 -147zM44 149c2 -80 7 -158 16 -216c1 -6 0 -9 -8 -6c-15 5 -33 16 -37 52c-10 87 -15 233 -6 368c6 84 38 290 98 216c57 -70 24 -291 -46 -384c31 -21 82 3 105 57c5 13 16 20 25 24
c5 2 7 -2 7 -5c-15 -100 -4 -220 10 -334c11 -92 -5 -124 -42 -151c-34 -25 -80 -18 -95 44c-5 21 -4 39 3 48c3 3 7 6 9 -1c22 -69 59 -77 75 -64c17 14 14 46 8 117c-8 99 -17 200 -9 272c-33 -50 -83 -54 -113 -37zM164 296c1 16 12 32 26 33c9 3 22 -5 24 -21
c2 -19 -11 -33 -25 -35c-17 -3 -26 7 -25 23z" />
    <glyph glyph-name="AE" unicode="&#xc6;" horiz-adv-x="398" 
d="M219 98c-3 -46 9 -72 27 -78c23 -8 67 21 84 112c13 70 -6 123 -20 126c-27 6 -84 -57 -91 -160zM46 95c0 -128 11 -258 44 -278c26 -16 39 120 13 219c-20 10 -40 29 -57 59zM174 40c-9 -7 -21 -12 -34 -12c19 -65 24 -140 4 -206c-10 -33 -32 -51 -69 -26
c-69 47 -73 190 -69 308c4 120 27 298 58 394c9 27 20 37 31 39c7 1 7 1 5 -7c-27 -100 -46 -251 -52 -356c7 -3 15 -9 24 -19c21 -23 41 -56 56 -94c20 -4 37 4 48 29c5 77 11 146 19 192c3 15 10 31 27 38c9 4 7 0 6 -5c-5 -36 -9 -80 -12 -128c19 72 61 121 114 90
c39 -23 55 -89 36 -172c-23 -99 -88 -137 -137 -105c-7 5 -13 11 -18 18c0 -100 3 -203 12 -288c1 -6 -1 -8 -8 -6c-16 5 -34 19 -37 51c-7 76 -7 173 -4 265z" />
    <glyph glyph-name="Ccedilla" unicode="&#xc7;" horiz-adv-x="290" 
d="M225 298c2 15 13 31 27 33c9 2 20 -5 22 -22c2 -19 -9 -33 -25 -35c-15 -2 -26 7 -24 24zM268 -78c11 -92 -3 -124 -40 -151c-35 -25 -81 -17 -97 44c-6 21 -3 39 4 48c4 5 6 5 8 -1c23 -68 59 -78 77 -64c16 12 14 46 8 117c-9 101 -18 201 -11 273
c-10 -18 -26 -33 -44 -42c8 -113 -42 -169 -99 -151c-42 13 -78 64 -67 156c7 61 36 111 63 126c7 4 18 5 27 -7c27 5 61 -31 72 -95c26 9 45 33 59 62c5 13 15 20 25 24c3 1 7 -1 6 -5c-16 -100 -5 -219 9 -334zM99 250c-18 2 -5 -73 37 -79c-5 42 -19 77 -37 79zM138 139
c-42 2 -68 36 -70 72c-10 -21 -16 -49 -20 -80c-9 -77 21 -115 37 -118c27 -5 55 49 53 126z" />
    <glyph glyph-name="Egrave" unicode="&#xc8;" horiz-adv-x="538" 
d="M568 91c0 -77 -31 -98 -53 -96c-20 2 -38 9 -56 33c-33 52 -20 149 -21 219c0 7 -2 8 -5 1c-20 -49 -42 -118 -46 -234c0 -7 -2 -9 -9 -8c-18 2 -36 8 -39 40c-6 60 -6 136 -11 176c-2 15 -7 12 -10 5c-25 -55 -51 -131 -56 -231c0 -7 -3 -9 -11 -7c-16 4 -32 12 -34 28
c-6 43 -4 114 0 175c-9 -19 -23 -36 -45 -45c10 -113 -40 -171 -98 -151c-42 14 -79 63 -67 156c8 60 36 111 64 126c6 3 16 4 27 -8c27 5 60 -30 71 -93c34 15 52 59 58 105c2 9 9 26 28 34c6 3 8 -1 7 -6c-7 -49 -12 -129 -12 -213c14 69 39 133 63 168c12 21 24 26 39 10
c16 -17 19 -41 21 -61c2 -22 1 -54 1 -85c11 61 34 125 52 157c11 20 23 25 38 10c19 -19 23 -45 21 -69c-5 -71 -14 -193 19 -205c21 -8 46 43 50 95c0 5 3 6 7 2s7 -16 7 -28zM100 251c-18 2 -7 -73 36 -79c-5 42 -19 77 -36 79zM138 140c-42 0 -67 35 -71 72
c-9 -21 -17 -49 -20 -81c-7 -76 24 -114 38 -117c27 -6 54 49 53 126z" />
    <glyph glyph-name="Eacute" unicode="&#xc9;" horiz-adv-x="341" 
d="M243 24c-1 18 12 37 26 40c12 3 25 -10 30 -29c6 -23 -9 -41 -25 -42c-17 -1 -30 9 -31 31zM146 26c0 18 13 35 28 37c11 1 25 -12 30 -30c6 -22 -9 -37 -26 -38c-19 -1 -32 11 -32 31zM110 21c0 -21 -13 -34 -31 -32c-15 2 -28 20 -23 44c5 20 17 31 28 28
c15 -1 26 -21 26 -40z" />
    <glyph glyph-name="Ecircumflex" unicode="&#xca;" horiz-adv-x="225" 
 />
    <glyph glyph-name="Edieresis" unicode="&#xcb;" horiz-adv-x="539" 
d="M406 173c-64 -1 -146 -7 -222 -18c-44 -81 -94 -148 -145 -189c-31 -25 -62 -26 -79 -19c-9 4 -7 8 -1 11c65 37 122 105 172 188c-35 -6 -68 -14 -95 -23c-10 -3 -12 0 -10 7c5 20 18 42 39 48c26 7 58 13 94 18c85 159 144 358 176 514c2 11 7 14 17 10
c28 -11 34 -29 35 -52c4 -150 25 -316 57 -461c16 -1 31 -2 44 -4c7 -1 6 -5 4 -8c-9 -14 -22 -22 -41 -22c20 -83 44 -160 71 -221c2 -5 0 -9 -7 -9c-18 -1 -37 6 -53 43c-20 45 -40 110 -56 187zM208 201c64 6 132 8 190 7c-27 140 -46 308 -45 447
c-26 -152 -78 -318 -145 -454zM346 753c-28 15 -74 38 -116 52c-7 3 -8 6 -2 12c13 13 34 20 54 10c37 -18 86 -47 116 -69c6 -5 3 -9 -1 -10c-19 -9 -34 -4 -51 5z" />
    <glyph glyph-name="Igrave" unicode="&#xcc;" horiz-adv-x="539" 
d="M405 173c-64 -1 -146 -7 -222 -19c-43 -81 -93 -147 -145 -188c-31 -24 -62 -26 -79 -19c-6 2 -6 8 -1 11c65 38 123 105 174 188c-36 -6 -70 -14 -97 -23c-10 -3 -9 0 -8 7c3 20 16 42 39 48c25 7 58 13 94 18c84 158 143 358 175 514c2 11 8 14 17 10
c29 -11 35 -29 36 -52c4 -150 24 -316 56 -461c16 -1 31 -2 43 -4c7 -1 8 -5 5 -8c-10 -13 -23 -21 -41 -22c20 -83 43 -160 70 -221c2 -5 0 -9 -7 -9c-17 -1 -37 7 -53 43c-20 45 -39 110 -56 187zM207 201c64 6 133 8 191 7c-28 140 -47 309 -46 448
c-26 -153 -78 -319 -145 -455zM446 761c-10 -18 -21 -27 -42 -26c-36 1 -87 56 -128 41c-6 -2 -11 -2 -7 6c7 16 24 31 46 30c39 -1 87 -58 125 -45c4 1 8 -3 6 -6z" />
    <glyph glyph-name="Iacute" unicode="&#xcd;" horiz-adv-x="527" 
d="M370 727c-8 -18 -18 -29 -39 -30c-37 -1 -92 49 -132 31c-5 -2 -8 -1 -6 6c5 16 21 33 42 34c39 1 91 -51 129 -35c5 2 8 -1 6 -6zM107 458c-21 -59 -35 -129 -36 -203c-3 -170 66 -294 182 -295c104 -1 187 117 196 278c13 240 -86 423 -179 415
c-91 -8 -146 -185 -84 -297c4 -8 1 -11 -6 -10c-30 3 -66 41 -73 112zM114 541c19 66 72 138 164 136c130 -3 234 -209 212 -458c-19 -220 -140 -282 -225 -286c-113 -5 -241 106 -238 312c2 124 39 224 87 296z" />
    <glyph glyph-name="Icircumflex" unicode="&#xce;" horiz-adv-x="835" 
d="M837 670c-10 -15 -24 -21 -43 -21c-79 5 -185 4 -288 -13c-8 -98 -13 -241 -13 -379c66 10 145 16 217 13c5 0 6 -3 4 -7c-8 -15 -20 -21 -37 -22c-60 -5 -122 -12 -183 -23c2 -88 5 -172 12 -239c92 23 208 33 281 30c7 0 7 -2 5 -7c-7 -16 -20 -23 -39 -24
c-79 -6 -159 -23 -230 -42c-13 -3 -17 -6 -31 0c-7 3 -15 9 -20 12c-7 5 -9 7 -12 20c-2 28 -5 64 -7 104c-47 -101 -126 -136 -188 -138c-113 -4 -240 106 -238 314c1 124 39 224 89 296c18 66 72 138 162 136c77 -2 144 -76 183 -186c4 52 7 100 12 137
c-14 -3 -29 -6 -44 -9c-9 -2 -10 0 -8 8c4 20 16 41 39 45c99 19 275 19 372 3c7 -1 7 -5 5 -8zM446 208c-9 -3 -18 -5 -27 -7c-8 -2 -9 0 -8 8c2 18 10 34 33 39c2 0 3 1 6 1c10 235 -88 413 -180 405c-91 -8 -145 -184 -84 -295c5 -9 2 -12 -5 -11c-30 4 -65 40 -72 110
c-22 -58 -35 -129 -37 -202c-4 -169 66 -294 182 -294c96 0 174 101 192 246z" />
    <glyph glyph-name="Idieresis" unicode="&#xcf;" horiz-adv-x="312" 
d="M336 85c-14 -73 -72 -111 -134 -87c-15 6 -32 19 -44 40c-19 -38 -52 -52 -84 -42c-42 13 -79 63 -68 156c7 57 36 110 64 126c6 4 17 4 27 -9c24 4 46 -15 61 -51c24 63 67 85 96 63c32 -24 41 -59 31 -102c-14 -59 -63 -83 -107 -80c2 -45 17 -74 33 -80
c36 -13 95 23 118 94c2 6 6 6 7 1c2 -8 2 -16 0 -29zM178 136c-1 -7 0 -13 -2 -19c79 5 90 138 66 145c-18 5 -56 -50 -64 -126zM136 104c-43 9 -72 38 -81 72c-5 -14 -7 -29 -8 -45c-7 -77 25 -114 37 -117c24 -5 46 32 52 90zM88 247c-18 -20 -2 -105 49 -125
c0 11 0 23 -1 35c-2 45 -20 104 -43 93c-3 0 -4 -1 -5 -3z" />
    <glyph glyph-name="Eth" unicode="&#xd0;" horiz-adv-x="344" 
d="M300 209c-10 -16 -24 -20 -40 -20c-81 -1 -153 -6 -231 -21c-7 -1 -10 1 -8 8c5 19 18 35 40 38c64 8 155 10 236 2c5 0 5 -4 3 -7z" />
    <glyph glyph-name="Ntilde" unicode="&#xd1;" horiz-adv-x="401" 
d="M357 205c-9 -15 -21 -19 -39 -19c-88 0 -201 -2 -289 -17c-7 -3 -10 0 -8 8c5 16 14 33 37 35c75 12 207 11 297 0c5 -1 5 -3 2 -7z" />
    <glyph glyph-name="Ograve" unicode="&#xd2;" horiz-adv-x="199" 
d="M177 456c5 -15 6 -30 -2 -42c-3 -4 -6 -5 -10 1c-19 32 -49 110 -58 158c-5 24 4 44 18 53c6 4 11 3 12 -4c10 -62 25 -121 40 -166zM129 438c7 -13 13 -29 6 -42c-2 -5 -5 -5 -9 -1c-25 28 -69 98 -87 145c-9 24 -4 44 8 56c4 4 10 3 12 -4c21 -58 47 -113 70 -154z" />
    <glyph glyph-name="Oacute" unicode="&#xd3;" horiz-adv-x="200" 
d="M33 455c16 44 31 103 44 163c1 7 6 8 12 4c13 -9 22 -29 17 -53c-10 -48 -44 -125 -64 -157c-2 -3 -6 -4 -9 0c-8 12 -5 28 0 43zM80 435c23 40 50 94 74 152c3 6 7 7 12 2c12 -11 17 -31 7 -55c-19 -46 -66 -116 -91 -143c-5 -5 -8 -2 -9 1c-6 13 -2 28 7 43z" />
    <glyph glyph-name="Ocircumflex" unicode="&#xd4;" horiz-adv-x="128" 
d="M105 458c5 -15 7 -30 -1 -42c-2 -3 -5 -5 -9 1c-19 32 -50 110 -59 158c-4 25 4 44 18 53c6 4 11 3 12 -4c11 -62 25 -121 39 -166z" />
    <glyph glyph-name="Otilde" unicode="&#xd5;" horiz-adv-x="138" 
d="M35 425c17 43 37 101 53 161c2 7 5 8 11 4c13 -10 22 -30 15 -55c-13 -47 -50 -123 -72 -153c-3 -4 -7 -4 -10 1c-7 12 -3 27 3 42z" />
    <glyph glyph-name="Odieresis" unicode="&#xd6;" horiz-adv-x="421" 
d="M390 2c-27 8 -50 23 -59 77s-5 107 -6 146c0 7 -3 11 -6 3c-17 -38 -53 -129 -61 -236c-1 -9 -4 -11 -11 -9c-16 4 -31 11 -33 32c-3 42 -2 114 1 176c-9 -19 -23 -35 -43 -44c8 -113 -42 -171 -99 -151c-44 15 -79 63 -66 156c8 60 35 111 62 126c6 3 17 4 27 -8
c27 5 62 -30 72 -93c32 14 50 53 57 98c3 19 12 27 27 31c6 2 7 0 7 -6c-8 -52 -12 -149 -9 -216c13 63 40 140 59 174c12 22 21 23 39 10c16 -12 21 -32 20 -57c-2 -73 0 -178 28 -185c15 -4 39 38 42 87c0 4 2 5 5 3c4 -3 6 -11 7 -23c5 -72 -27 -101 -60 -91zM99 251
c-19 2 -6 -73 36 -79c-5 42 -19 77 -36 79zM138 140c-43 0 -69 35 -71 72c-10 -21 -19 -49 -22 -81c-7 -76 25 -114 39 -117c28 -6 55 49 54 126z" />
    <glyph glyph-name="multiply" unicode="&#xd7;" horiz-adv-x="353" 
d="M382 81c-5 -40 -31 -109 -91 -92c-45 13 -72 64 -82 163c-11 -6 -24 -9 -36 -12c6 -108 -42 -162 -99 -144c-42 13 -79 63 -67 156c8 60 36 111 63 126c6 3 17 4 28 -8c28 6 63 -33 73 -101c13 1 25 6 35 12c-1 28 -1 60 0 96c6 151 45 355 105 282
c29 -36 37 -112 24 -190c-14 -81 -45 -147 -86 -187c4 -104 21 -160 44 -167c28 -9 63 36 81 101c1 3 4 4 6 0c4 -9 4 -22 2 -35zM249 219c26 38 45 95 52 154c10 81 5 152 -6 160c-13 10 -39 -115 -45 -239c-1 -26 -1 -51 -1 -75zM100 251c-19 2 -11 -67 37 -80
c-5 41 -19 78 -37 80zM138 139h-1c-43 5 -68 37 -70 72c-8 -21 -17 -48 -20 -80c-7 -76 24 -113 39 -117c26 -6 53 47 52 125z" />
    <glyph glyph-name="Oslash" unicode="&#xd8;" horiz-adv-x="205" 
d="M125 39c-10 -25 -22 -39 -35 -48c-20 -14 -44 -10 -59 10c-34 46 -31 163 -9 257c4 16 13 30 26 32c7 1 8 1 7 -6c-13 -65 -22 -190 -1 -242c8 -20 18 -30 28 -28c16 3 31 33 38 104c5 53 8 99 14 124c6 23 15 33 30 36c8 2 8 -1 8 -5c-15 -120 -11 -259 0 -366
c8 -79 -18 -124 -50 -149c-56 -44 -107 -1 -121 64c-7 33 -3 52 2 62c3 6 9 7 11 -2c22 -92 69 -123 98 -103c22 15 26 57 20 128c-4 44 -6 89 -7 132zM127 334c3 15 10 23 18 22c11 -2 23 -20 21 -35s-11 -19 -21 -17c-11 2 -21 13 -18 30zM59 332c2 15 12 21 19 20
c12 -1 23 -18 20 -33c-3 -13 -9 -16 -19 -15c-11 1 -22 12 -20 28z" />
    <glyph glyph-name="Ugrave" unicode="&#xd9;" horiz-adv-x="436" 
d="M352 104c-19 -117 -69 -159 -119 -161c-128 -5 -203 161 -199 349c2 116 29 238 70 322c9 19 21 23 31 24c7 1 7 -2 4 -9c-30 -72 -60 -203 -63 -328c-6 -221 72 -328 133 -328c53 0 116 63 130 212c13 142 13 304 40 422c8 33 15 44 33 52c8 4 14 1 11 -11
c-20 -69 -37 -240 -37 -372c0 -119 12 -246 26 -368c14 -120 0 -221 -85 -276c-78 -51 -202 -37 -265 101c-12 25 -11 45 -5 57c2 5 6 6 9 -1c49 -120 168 -184 243 -137c67 42 75 139 63 250c-6 62 -16 135 -20 202zM294 715c3 20 15 31 24 29c15 -3 28 -26 26 -45
s-13 -23 -25 -21c-15 2 -28 15 -25 37zM188 712c3 20 13 30 24 28c14 -2 28 -26 26 -45s-13 -23 -25 -21c-15 2 -28 15 -25 38z" />
    <glyph glyph-name="Uacute" unicode="&#xda;" horiz-adv-x="321" 
d="M234 295c1 14 13 31 26 33c9 1 19 -6 22 -22c3 -19 -10 -33 -25 -36s-24 7 -23 25zM342 113c2 -3 5 -10 5 -22c1 -70 -35 -119 -77 -104c-41 15 -54 54 -55 119c0 26 2 54 6 78c-13 -18 -30 -32 -47 -39c8 -113 -42 -170 -100 -151c-41 13 -79 64 -67 156
c8 60 37 111 64 126c6 3 16 5 27 -7c27 5 61 -32 72 -96c26 9 47 31 60 59c7 15 18 23 27 25c5 1 8 0 7 -4c-24 -117 -10 -235 11 -242c19 -6 50 36 61 101c1 4 4 4 6 1zM100 249c-18 1 -7 -72 37 -79c-6 41 -19 78 -37 79zM138 138c-2 0 -5 0 -7 1c-34 4 -60 34 -64 71
c-8 -21 -17 -50 -20 -80c-7 -77 22 -115 39 -118c27 -5 53 48 52 126z" />
    <glyph glyph-name="Ucircumflex" unicode="&#xdb;" horiz-adv-x="400" 
d="M90 318c-28 -2 -56 -5 -82 -10c-8 -1 -10 1 -8 8c4 18 14 35 37 37c18 2 37 3 58 4c19 108 81 196 155 201s102 -62 102 -106c0 -34 -13 -60 -32 -67c-5 -2 -7 0 -6 6c6 53 -5 151 -64 146c-39 -3 -96 -71 -114 -179c54 1 114 -2 169 -9c4 -1 6 -3 3 -7
c-9 -15 -22 -19 -39 -19c-45 1 -92 0 -138 -2c-1 -11 -1 -22 -1 -33c0 -12 1 -23 1 -34c44 2 91 3 126 1c5 0 6 -3 4 -7c-8 -16 -19 -20 -37 -21c-25 -1 -56 -3 -88 -7c13 -63 44 -95 71 -104c72 -25 132 36 154 142c1 6 2 8 7 3c6 -6 8 -16 6 -33
c-12 -122 -84 -163 -171 -136c-35 11 -86 46 -106 124c-32 -4 -63 -8 -86 -14c-9 -2 -12 0 -10 8c4 17 16 31 38 35c14 2 32 4 52 6c-2 15 -3 32 -2 50c0 6 1 11 1 17z" />
    <glyph glyph-name="Udieresis" unicode="&#xdc;" horiz-adv-x="408" 
d="M378 153c10 -116 -41 -177 -98 -157c-44 15 -79 63 -68 156c2 13 5 26 9 38c-13 -17 -31 -32 -49 -40c10 -116 -40 -174 -98 -154c-42 14 -79 63 -67 156c8 60 35 111 64 126c6 3 16 4 27 -8c27 5 60 -30 71 -93c28 11 54 39 81 77c7 10 15 20 25 24c6 3 18 4 28 -8
c26 5 59 -29 71 -92c5 4 10 7 14 11c5 5 7 3 7 -1c0 -10 -6 -24 -17 -35zM306 251c-19 2 -8 -74 35 -80c-5 43 -19 78 -35 80zM100 250c-10 1 -10 -18 -6 -33c6 -26 20 -41 42 -45c-5 42 -19 77 -36 78zM343 140c-42 -1 -67 36 -71 72c-9 -21 -17 -49 -20 -81
c-7 -76 24 -114 38 -117c27 -6 54 49 53 126zM138 140c-41 -1 -68 32 -71 72c-9 -21 -17 -49 -20 -81c-7 -76 24 -114 38 -117c27 -6 54 49 53 126z" />
    <glyph glyph-name="Yacute" unicode="&#xdd;" horiz-adv-x="427" 
d="M449 83c-3 -75 -35 -100 -70 -87c-21 8 -33 30 -40 55c-11 -32 -27 -49 -43 -60c-18 -13 -46 -9 -61 10c-26 33 -31 110 -22 184c-10 -16 -23 -29 -39 -38c8 -113 -42 -171 -99 -151c-44 15 -79 63 -68 156c7 59 37 111 64 126c6 3 17 4 27 -8c27 5 60 -30 72 -93
c26 12 45 42 56 80c5 18 15 31 28 33c7 1 8 1 7 -6c-12 -65 -21 -191 -2 -242c10 -26 20 -25 27 -25c14 0 32 30 39 101c6 57 11 109 14 125c5 25 15 31 32 35c6 1 8 -2 7 -7c-14 -109 -20 -250 16 -250c13 0 33 39 40 91c1 7 4 7 8 2c3 -3 8 -17 7 -31zM101 251
c-19 2 -8 -73 36 -79c-6 42 -19 77 -36 79zM138 140c-43 0 -67 35 -69 72c-10 -21 -19 -49 -22 -81c-7 -76 25 -114 39 -117c28 -6 53 49 52 126z" />
    <glyph glyph-name="Thorn" unicode="&#xde;" horiz-adv-x="404" 
d="M377 122c-13 -103 -57 -141 -85 -141c-25 0 -52 17 -71 76c-13 40 -16 90 -14 134c-8 -18 -20 -32 -34 -41c9 -115 -40 -174 -99 -154c-42 14 -78 63 -67 156c7 59 36 111 63 126c6 3 17 4 27 -8c27 5 60 -29 72 -91c23 16 38 49 49 84c6 18 14 26 22 31c6 4 9 1 8 -6
c-28 -159 23 -275 56 -271c32 4 52 84 49 161c-17 20 -27 51 -25 76c3 34 17 41 29 22c22 -35 26 -103 20 -154zM100 251c-19 2 -8 -73 36 -79c-5 42 -19 77 -36 79zM138 140c-42 -1 -67 36 -70 72c-10 -21 -16 -49 -20 -81c-9 -76 23 -114 37 -117c27 -6 55 49 53 126z" />
    <glyph glyph-name="germandbls" unicode="&#xdf;" horiz-adv-x="530" 
d="M430 -15c-40 -15 -72 10 -86 63c-13 -36 -36 -57 -62 -59s-53 18 -69 71c-11 38 -9 83 -4 123c-10 -15 -22 -27 -37 -34c9 -115 -40 -173 -98 -153c-42 14 -79 63 -67 156c8 60 36 111 64 126c5 3 16 4 27 -8c27 5 60 -30 71 -92c25 12 43 41 56 75c6 16 15 22 24 25
c5 2 8 0 6 -7c-35 -141 3 -258 34 -253c40 6 44 104 44 209c0 21 11 37 31 44c9 3 11 -1 10 -7c-16 -134 7 -260 48 -257c49 4 63 153 29 276c-2 9 1 10 7 7c7 -3 16 -12 21 -27c42 -124 27 -250 -49 -278zM100 251c-19 2 -7 -74 35 -79c-4 42 -18 77 -35 79zM138 140
c-44 -1 -67 36 -71 72c-8 -21 -17 -49 -20 -81c-7 -76 24 -113 39 -117c26 -6 53 49 52 126z" />
    <glyph glyph-name="agrave" unicode="&#xe0;" horiz-adv-x="248" 
d="M146 347c-30 0 -60 -2 -89 -4c-4 -51 -8 -106 -9 -152c-1 -92 5 -163 27 -171c16 -7 44 17 58 69c-3 26 -4 58 -3 94c1 55 8 114 16 164zM182 372c60 0 120 -4 163 -13c4 -1 3 -3 1 -6c-5 -7 -15 -13 -28 -12c-42 4 -90 6 -139 6c-5 -52 -9 -109 -10 -156
c-1 -92 6 -163 28 -171c18 -7 50 24 63 90c1 3 3 3 5 1c4 -4 6 -13 6 -25c-2 -53 -26 -106 -76 -93c-26 7 -43 24 -52 52c-11 -36 -33 -62 -70 -52c-57 15 -66 78 -64 190c1 53 7 109 14 158c-25 -2 -50 -6 -72 -9c-6 0 -8 2 -6 7c4 10 13 24 30 26c15 2 33 3 54 5
c6 30 12 57 18 75c4 11 11 21 22 23c4 1 6 0 5 -5c-5 -23 -9 -55 -14 -92c29 1 60 2 91 2c5 29 12 54 17 72c4 13 12 21 23 23c4 1 5 0 4 -5c-4 -23 -9 -55 -13 -91z" />
    <glyph glyph-name="aacute" unicode="&#xe1;" horiz-adv-x="150" 
d="M110 159c0 -21 -13 -34 -30 -32c-16 2 -29 20 -24 44c4 17 18 31 29 28c15 -1 25 -21 25 -40z" />
    <glyph glyph-name="acircumflex" unicode="&#xe2;" horiz-adv-x="138" 
d="M35 -52c17 43 37 101 53 161c2 7 5 8 11 4c13 -10 22 -30 15 -55c-13 -47 -50 -123 -72 -153c-3 -4 -7 -4 -10 1c-7 12 -3 27 3 42z" />
    <glyph glyph-name="atilde" unicode="&#xe3;" horiz-adv-x="200" 
d="M33 -40c16 44 31 103 44 163c1 7 6 8 12 4c13 -9 22 -29 17 -53c-10 -48 -44 -125 -64 -157c-2 -3 -6 -4 -9 0c-8 12 -5 28 0 43zM80 -60c23 40 50 94 74 152c3 6 7 7 12 2c12 -11 17 -31 7 -55c-19 -46 -66 -116 -91 -143c-5 -5 -8 -2 -9 1c-6 13 -2 28 7 43z" />
    <glyph glyph-name="adieresis" unicode="&#xe4;" horiz-adv-x="431" 
d="M398 105c-21 -99 -86 -137 -135 -105c-7 5 -13 11 -18 18c-1 -101 2 -203 12 -288c1 -6 -1 -8 -8 -6c-16 5 -34 19 -37 51c-11 122 -6 298 6 421c-10 -20 -24 -39 -46 -49c8 -113 -41 -171 -99 -151c-44 15 -79 63 -66 156c8 60 35 111 62 126c6 3 17 4 27 -8
c28 5 62 -30 72 -93c35 15 53 61 61 106c3 16 10 30 27 37c8 3 7 0 6 -5c-5 -37 -9 -81 -12 -129c19 74 60 123 114 91c39 -23 54 -80 34 -172zM99 251c-19 2 -6 -73 36 -79c-4 42 -19 77 -36 79zM344 258c-27 6 -84 -57 -91 -160c-3 -46 9 -72 27 -78c23 -8 67 21 84 112
c15 78 -4 122 -20 126zM138 140c-43 0 -69 35 -71 72c-10 -21 -17 -49 -20 -81c-8 -76 24 -114 38 -117c27 -6 54 49 53 126z" />
    <glyph glyph-name="aring" unicode="&#xe5;" horiz-adv-x="539" 
d="M355 777c-14 -9 -28 -19 -41 -27c-15 -9 -32 -15 -51 -8c-4 1 -6 6 -1 10c19 17 59 49 86 67c6 4 11 5 17 0c21 -17 59 -45 84 -64c4 -3 6 -6 -1 -10c-16 -8 -37 -5 -50 3c-12 7 -28 18 -43 29zM405 173c-63 -1 -145 -7 -221 -19c-44 -81 -94 -147 -145 -188
c-30 -24 -62 -26 -79 -19c-9 4 -7 8 -2 11c65 38 124 105 174 188c-36 -6 -69 -14 -96 -23c-13 -4 -12 0 -10 7c5 20 18 42 39 48c26 7 58 13 95 18c85 158 144 358 174 514c2 11 8 14 18 10c28 -11 34 -29 35 -52c4 -150 24 -316 56 -461c17 -1 32 -2 45 -4c6 -1 6 -3 3 -8
c-8 -13 -21 -21 -40 -22c20 -83 44 -160 71 -221c2 -5 0 -9 -7 -9c-18 -1 -38 6 -54 43c-20 45 -39 110 -56 187zM208 201c64 6 132 8 190 7c-28 140 -47 308 -46 447c-26 -152 -78 -318 -144 -454z" />
    <glyph glyph-name="ae" unicode="&#xe6;" horiz-adv-x="355" 
d="M207 758c-14 -9 -29 -19 -40 -26c-16 -10 -32 -16 -51 -10c-5 2 -7 6 -1 11c20 16 60 49 86 68c7 5 9 5 16 0c22 -16 59 -45 84 -62c4 -3 5 -8 -1 -11c-15 -8 -38 -6 -50 2s-28 18 -43 28zM61 633c-15 -3 -29 -6 -43 -9c-8 -2 -12 0 -10 8c5 21 18 41 39 45
c99 18 234 18 331 9c7 -1 8 -7 6 -10c-10 -14 -24 -20 -43 -20c-83 0 -167 -5 -247 -17c-7 -97 -12 -236 -12 -371c63 8 136 11 208 7c5 -1 6 -3 4 -7c-9 -15 -21 -20 -38 -21c-59 -3 -117 -8 -174 -17c2 -92 5 -180 12 -249c85 21 179 30 251 31c7 0 8 -3 6 -7
c-7 -17 -20 -24 -39 -26c-71 -7 -140 -21 -201 -40c-14 -4 -18 -6 -31 0c-7 3 -15 8 -20 11c-8 4 -10 8 -11 19c-7 61 -10 153 -10 252c-11 -2 -22 -4 -33 -7c-7 -2 -11 0 -8 7c2 19 11 35 34 39c3 1 5 1 7 1c3 138 10 283 22 372z" />
    <glyph glyph-name="ccedilla" unicode="&#xe7;" horiz-adv-x="539" 
d="M404 173c-63 -1 -144 -7 -221 -18c-43 -81 -93 -148 -145 -189c-32 -25 -63 -26 -79 -19c-6 2 -7 7 -1 11c65 38 122 105 173 188c-36 -6 -69 -14 -97 -23c-9 -3 -9 0 -8 7c4 20 17 42 39 48c25 7 58 13 94 18c84 158 143 358 175 514c2 11 8 14 18 10
c28 -11 33 -29 34 -52c4 -150 25 -316 57 -461c16 -1 31 -2 43 -4c7 -1 8 -5 5 -8c-10 -13 -23 -21 -41 -22c20 -83 43 -160 70 -221c2 -5 0 -9 -7 -9c-16 -1 -36 5 -53 43c-20 45 -39 110 -56 187zM207 201c64 6 132 8 190 7c-27 140 -46 309 -45 448
c-27 -153 -79 -319 -145 -455zM369 754c-17 -8 -31 -13 -50 -4c-5 3 -5 6 0 10c29 22 80 51 116 66c19 8 42 1 55 -12c6 -6 5 -10 -3 -12c-41 -13 -88 -33 -118 -48z" />
    <glyph glyph-name="egrave" unicode="&#xe8;" horiz-adv-x="355" 
d="M62 633c-15 -2 -29 -6 -44 -9c-9 -2 -10 0 -9 8c3 21 16 41 39 45c99 18 232 18 330 9c7 -1 8 -5 5 -10c-8 -14 -22 -20 -41 -20c-83 0 -168 -5 -248 -17c-7 -97 -13 -237 -12 -372c63 9 135 12 208 8c6 0 5 -3 3 -7c-8 -15 -20 -20 -37 -21c-59 -3 -117 -8 -174 -18
c1 -92 5 -179 12 -248c84 21 179 30 251 31c7 0 8 -2 6 -7c-7 -17 -20 -24 -40 -26c-71 -7 -138 -21 -199 -40c-15 -5 -18 -6 -31 0c-7 3 -15 7 -21 11c-7 4 -10 8 -11 19c-7 61 -10 153 -9 252c-11 -2 -22 -4 -33 -7c-9 -2 -11 0 -10 7c4 19 12 34 36 39c2 0 5 1 7 1
c3 138 10 284 22 372zM130 758c3 18 20 29 28 27c14 -4 26 -29 21 -46c-5 -18 -15 -25 -27 -22c-16 4 -26 18 -22 41zM231 761c5 19 17 29 27 27c14 -3 26 -28 21 -47s-17 -23 -28 -20c-14 4 -26 18 -20 40z" />
    <glyph glyph-name="eacute" unicode="&#xe9;" horiz-adv-x="355" 
d="M62 633c-15 -2 -30 -6 -45 -9c-8 -2 -10 0 -8 8c4 21 17 41 39 45c98 18 232 18 330 9c8 -1 8 -6 5 -10c-9 -14 -22 -20 -42 -20c-82 0 -166 -4 -246 -17c-8 -96 -14 -236 -13 -371c63 8 136 11 208 7c5 -1 5 -3 3 -7c-8 -15 -21 -20 -37 -21c-58 -3 -117 -8 -174 -18
c1 -91 5 -179 12 -248c84 21 180 30 251 31c6 0 7 -3 5 -7c-7 -17 -20 -24 -39 -26c-71 -7 -139 -21 -200 -40c-12 -5 -17 -6 -31 0c-7 3 -14 7 -20 11c-7 4 -10 8 -11 19c-7 61 -10 153 -9 252c-12 -2 -23 -4 -34 -7c-8 -2 -10 0 -9 7c4 19 11 34 35 39c3 1 5 1 8 2
c3 137 10 283 22 371zM240 729c-28 17 -75 38 -115 53c-8 3 -7 7 -3 11c13 13 35 20 55 11c36 -17 85 -48 114 -70c5 -4 5 -7 0 -9c-19 -10 -35 -6 -51 4z" />
    <glyph glyph-name="ecircumflex" unicode="&#xea;" horiz-adv-x="365" 
d="M188 641c-62 -6 -124 -16 -180 -31c-8 -2 -11 0 -9 8c4 19 15 40 36 45c40 10 99 16 161 18c4 13 12 27 29 34c5 2 7 -1 6 -6c-1 -8 -2 -17 -3 -27c74 2 148 -2 194 -9c6 -1 7 -4 4 -9c-9 -14 -23 -17 -40 -17c-49 1 -105 1 -162 -4c-15 -174 -23 -498 -2 -674
c69 2 136 -1 177 -8c5 -1 5 -4 3 -8c-8 -14 -21 -19 -39 -19c-105 2 -280 -10 -382 -43c-8 -2 -8 2 -7 9c3 20 16 41 36 47c43 12 107 18 173 21c-6 6 -11 15 -12 26c-18 150 -5 496 17 647zM206 736c-16 -8 -32 -13 -51 -3c-4 2 -4 6 0 9c31 21 81 51 117 66
c20 8 43 1 55 -12c5 -5 4 -9 -3 -11c-41 -13 -88 -33 -118 -49z" />
    <glyph glyph-name="edieresis" unicode="&#xeb;" horiz-adv-x="365" 
d="M221 762c-14 -9 -28 -20 -40 -27c-14 -9 -32 -16 -51 -9c-5 2 -6 4 -1 9c19 18 59 51 85 70c7 3 13 5 18 0c20 -17 57 -44 83 -63c3 -2 5 -6 -1 -9c-15 -8 -35 -5 -49 2c-11 6 -29 17 -44 27zM190 641c-62 -6 -124 -16 -181 -31c-9 -2 -11 1 -9 8c5 19 16 40 37 45
c40 10 99 16 161 18c4 13 12 27 29 34c5 2 7 -1 6 -6c-1 -8 -2 -17 -3 -27c74 1 149 -2 194 -9c6 -1 6 -6 4 -9c-9 -14 -23 -17 -41 -17c-49 1 -104 1 -161 -4c-15 -173 -23 -498 -2 -674c69 2 135 -1 175 -8c7 -1 7 -5 5 -8c-10 -14 -21 -19 -39 -19
c-105 2 -280 -10 -382 -43c-9 -3 -11 2 -9 9c5 20 18 41 38 47c43 12 107 18 173 21c-6 6 -11 15 -12 26c-18 150 -5 496 17 647z" />
    <glyph glyph-name="igrave" unicode="&#xec;" horiz-adv-x="365" 
d="M190 641c-62 -6 -124 -16 -181 -31c-9 -2 -11 1 -9 8c5 19 16 40 37 45c40 10 99 16 160 18c4 14 13 27 30 34c5 2 7 -1 6 -6c-1 -8 -2 -17 -4 -27c75 2 149 -2 194 -9c7 -1 7 -5 4 -9c-8 -14 -22 -17 -40 -17c-49 1 -104 1 -161 -4c-15 -173 -23 -498 -2 -674
c69 2 135 -1 175 -8c7 -1 7 -5 5 -8c-10 -14 -21 -19 -39 -19c-105 2 -281 -10 -382 -43c-9 -3 -11 2 -9 9c5 20 18 41 38 47c43 12 107 18 173 21c-6 6 -11 15 -12 26c-18 150 -6 496 17 647zM150 763c5 18 18 30 26 28c15 -4 26 -29 21 -46s-17 -25 -27 -22
c-14 4 -26 18 -20 40zM250 767c4 17 17 29 26 27c16 -3 27 -29 22 -47c-5 -19 -16 -22 -27 -20c-16 3 -26 18 -21 40z" />
    <glyph glyph-name="iacute" unicode="&#xed;" horiz-adv-x="365" 
d="M190 641c-62 -6 -124 -16 -181 -31c-9 -2 -11 1 -9 8c5 19 16 40 37 45c40 10 99 16 161 18c4 13 12 27 29 34c5 2 7 -1 6 -6c-1 -8 -2 -17 -3 -27c74 1 149 -2 194 -9c6 -1 6 -6 4 -9c-9 -14 -23 -17 -41 -17c-49 1 -104 1 -161 -4c-15 -173 -23 -498 -2 -674
c69 2 135 -1 176 -8c6 -1 6 -4 4 -8c-8 -14 -21 -19 -39 -19c-105 2 -280 -10 -382 -43c-9 -3 -11 2 -9 9c5 20 18 41 38 47c43 12 107 18 173 21c-6 6 -11 15 -12 26c-18 150 -5 496 17 647zM234 740c-29 16 -75 38 -117 53c-7 2 -8 6 -2 11c14 13 35 19 55 10
c37 -16 85 -47 115 -69c5 -4 5 -8 0 -10c-19 -9 -33 -5 -51 5z" />
    <glyph glyph-name="icircumflex" unicode="&#xee;" horiz-adv-x="527" 
d="M252 704c-17 -9 -32 -11 -51 -2c-4 2 -5 7 0 10c30 21 80 49 117 66c19 9 41 1 54 -12c6 -6 5 -10 -2 -12c-41 -13 -89 -34 -118 -50zM107 458c-21 -59 -35 -129 -36 -203c-3 -170 67 -294 182 -295c103 -1 186 117 195 278c14 240 -85 423 -179 415
c-90 -8 -146 -185 -84 -297c4 -8 2 -11 -5 -10c-30 3 -66 41 -73 112zM114 541c19 66 72 138 164 136c130 -3 234 -209 211 -458c-20 -220 -140 -282 -224 -286c-113 -5 -241 106 -238 312c2 124 39 224 87 296z" />
    <glyph glyph-name="idieresis" unicode="&#xef;" horiz-adv-x="527" 
d="M272 735c-14 -9 -28 -19 -40 -26c-16 -10 -32 -15 -51 -8c-5 2 -6 4 -1 9c19 17 59 50 86 68c6 4 12 5 17 0c21 -18 59 -45 83 -64c3 -2 6 -8 -1 -11c-15 -7 -35 -3 -49 4c-11 6 -29 17 -44 28zM107 458c-21 -59 -35 -129 -36 -203c-3 -170 67 -294 182 -295
c103 -1 186 117 195 278c14 240 -86 423 -179 415c-90 -8 -146 -185 -84 -297c4 -8 2 -11 -6 -10c-30 3 -65 41 -72 112zM114 540c19 66 72 139 164 137c129 -3 234 -209 211 -458c-20 -220 -140 -282 -224 -286c-113 -5 -241 106 -238 312c2 124 38 223 87 295z" />
    <glyph glyph-name="eth" unicode="&#xf0;" horiz-adv-x="330" 
d="M155 178c2 49 -8 78 -23 83c-22 7 -65 -52 -81 -129c-17 -82 8 -121 23 -124c27 -6 76 63 81 170zM197 -173c23 -14 44 -12 57 -2c17 13 13 48 7 118c-9 102 -18 213 0 282c5 19 16 31 28 35c4 1 8 -2 7 -5c-17 -100 -7 -195 6 -309c10 -85 -3 -115 -34 -143
c-24 -22 -55 -25 -83 -13c-8 -17 -18 -30 -30 -40c-59 -49 -121 -8 -140 62c-9 32 -6 55 1 69c4 7 9 6 11 -3c27 -102 83 -127 112 -107c10 7 16 19 20 36c-12 11 -22 24 -30 40c-14 30 -16 53 -13 67c2 9 8 8 12 0c11 -24 23 -43 35 -57c0 13 -2 27 -3 42
c-5 55 -7 110 -7 163c-14 -58 -46 -93 -95 -73c-40 16 -71 71 -42 171c32 111 91 150 129 118c9 -8 17 -17 23 -27c0 1 1 3 1 5c2 12 12 24 25 27c5 1 7 -1 6 -5c-16 -116 -9 -267 0 -379c2 -28 1 -52 -3 -72zM260 296c1 16 13 32 27 33c10 3 23 -5 24 -21
c1 -19 -11 -33 -26 -35s-26 7 -25 23z" />
    <glyph glyph-name="ntilde" unicode="&#xf1;" horiz-adv-x="527" 
d="M304 703c-28 17 -76 38 -116 53c-7 3 -8 7 -2 12c13 12 34 19 54 10c37 -17 85 -48 115 -70c5 -4 4 -7 0 -9c-19 -9 -37 -5 -51 4zM108 456c-20 -58 -33 -128 -35 -201c-5 -170 64 -294 181 -295c103 -1 186 117 195 278c13 240 -86 423 -179 415
c-91 -8 -146 -185 -84 -297c4 -8 1 -11 -6 -10c-29 3 -65 40 -72 110zM117 545c20 65 72 134 161 132c130 -3 234 -209 212 -458c-19 -220 -140 -282 -224 -286c-113 -5 -241 106 -239 312c1 127 40 227 90 300z" />
    <glyph glyph-name="ograve" unicode="&#xf2;" horiz-adv-x="457" 
d="M271 689c-17 -9 -32 -13 -51 -3c-5 2 -5 6 0 9c31 22 80 51 117 66c20 8 42 1 54 -12c5 -6 6 -10 -2 -12c-41 -12 -89 -33 -118 -48zM366 142c-21 -233 -130 -231 -210 -192c-72 35 -132 117 -133 262c-1 157 44 361 84 438c10 19 22 26 32 28c8 2 9 -3 6 -10
c-45 -106 -78 -307 -75 -438c3 -149 36 -229 104 -259c63 -28 152 15 174 206c17 149 15 316 33 426c4 24 14 44 33 51c9 3 9 0 8 -9c-11 -70 -21 -240 -19 -375c2 -115 7 -230 24 -315c1 -6 -1 -8 -9 -6c-16 5 -35 16 -40 52c-6 40 -10 90 -12 141z" />
    <glyph glyph-name="oacute" unicode="&#xf3;" horiz-adv-x="457" 
d="M288 721c-14 -9 -29 -19 -41 -26c-15 -9 -32 -15 -51 -8c-4 1 -6 5 -1 9c20 17 60 50 86 67c7 4 12 5 18 0c20 -16 58 -44 84 -63c3 -2 6 -7 -2 -11c-15 -7 -37 -5 -50 4c-11 7 -28 17 -43 28zM366 140c-22 -231 -131 -228 -210 -190c-73 35 -130 117 -133 262
c-3 157 42 361 82 438c10 19 23 26 32 28c8 2 9 -2 6 -10c-44 -106 -77 -307 -74 -438c3 -149 36 -229 105 -259c63 -27 151 15 172 206c16 149 15 316 34 426c4 24 14 44 32 51c9 4 11 0 10 -9c-11 -70 -22 -240 -20 -375c2 -115 8 -230 23 -315c1 -6 -1 -8 -8 -6
c-15 5 -35 18 -40 52c-6 39 -9 88 -11 139z" />
    <glyph glyph-name="ocircumflex" unicode="&#xf4;" horiz-adv-x="457" 
d="M300 686c-29 16 -75 37 -116 53c-7 3 -6 6 -2 10c13 13 34 21 55 11c35 -17 85 -47 114 -70c5 -4 4 -7 -1 -9c-19 -10 -32 -5 -50 5zM366 142c-20 -233 -130 -231 -209 -192c-72 35 -132 117 -134 262c-2 157 44 361 83 438c10 19 24 26 33 28c8 2 8 -2 5 -10
c-44 -106 -75 -307 -73 -438c2 -149 35 -229 103 -259c63 -28 153 15 174 206c16 149 15 316 33 426c4 24 14 44 33 51c9 3 9 0 8 -9c-10 -70 -21 -240 -19 -375c2 -115 7 -230 24 -315c1 -6 -2 -8 -9 -6c-16 5 -33 17 -39 52c-7 40 -11 89 -13 141z" />
    <glyph glyph-name="otilde" unicode="&#xf5;" horiz-adv-x="111" 
d="M132 114c2 -4 5 -10 5 -22c1 -70 -35 -119 -77 -104c-41 15 -54 56 -55 119c-1 48 7 97 16 124c5 16 17 24 26 26c5 1 8 0 7 -4c-24 -118 -10 -234 11 -241c18 -6 50 36 61 101c1 4 4 5 6 1z" />
    <glyph glyph-name="odieresis" unicode="&#xf6;" horiz-adv-x="279" 
d="M141 654c-23 -14 -43 -27 -60 -36c-14 -8 -31 -10 -47 -3c-5 2 -5 7 -2 9c31 19 70 50 101 76c5 5 12 4 17 0c32 -27 67 -56 96 -76c3 -2 4 -7 -1 -9c-17 -7 -33 -3 -47 4c-18 9 -37 20 -57 35z" />
    <glyph glyph-name="divide" unicode="&#xf7;" horiz-adv-x="228" 
d="M203 761c-10 -18 -21 -27 -42 -26c-36 1 -87 56 -128 41c-6 -2 -11 -2 -7 6c7 16 24 31 46 30c39 -1 87 -58 125 -45c4 1 8 -3 6 -6z" />
    <glyph glyph-name="oslash" unicode="&#xf8;" horiz-adv-x="398" 
d="M327 -242c-57 -44 -109 -1 -122 64c-7 33 -3 52 3 62c4 6 7 6 9 -2c23 -92 70 -123 99 -103c22 15 26 57 19 128c-4 42 -6 85 -7 125c-9 -21 -22 -35 -34 -43c-19 -13 -42 -9 -58 12c-27 36 -32 110 -23 185c-10 -17 -24 -30 -41 -39c10 -113 -40 -171 -97 -151
c-44 15 -80 63 -68 156c8 60 36 111 64 126c6 3 16 4 27 -8c27 5 60 -30 71 -93c27 12 47 42 55 80c4 19 15 31 28 33c7 1 8 1 7 -6c-12 -65 -22 -190 0 -242c9 -20 18 -29 28 -27c15 3 29 32 36 103c5 53 10 99 15 124s16 33 30 36c8 2 7 -1 7 -5c-15 -120 -9 -259 0 -366
c7 -85 -17 -125 -48 -149zM100 251c-20 2 -7 -73 36 -79c-5 42 -19 77 -36 79zM138 140c-43 0 -68 35 -71 72c-9 -21 -17 -49 -20 -81c-7 -76 24 -114 38 -117c27 -6 54 49 53 126z" />
    <glyph glyph-name="ugrave" unicode="&#xf9;" horiz-adv-x="279" 
d="M141 654c-23 -14 -43 -27 -60 -36c-14 -8 -31 -10 -47 -3c-5 2 -5 7 -2 9c31 19 70 50 101 76c5 5 12 4 17 0c32 -27 67 -56 96 -76c3 -2 4 -7 -1 -9c-17 -7 -33 -3 -47 4c-18 9 -37 20 -57 35z" />
    <glyph glyph-name="uacute" unicode="&#xfa;" horiz-adv-x="449" 
d="M144 184c2 45 -9 72 -24 76c-20 5 -62 -55 -74 -129c-13 -80 7 -114 25 -118c25 -5 68 59 73 171zM162 244c5 11 15 17 23 19c5 1 7 -1 6 -6c-26 -107 -17 -228 6 -233c13 -3 43 33 51 92c0 3 0 6 5 1c6 -6 8 -19 8 -31c0 -66 -30 -103 -70 -88c-25 9 -39 31 -46 65
c-12 -54 -39 -88 -89 -69c-38 14 -69 65 -45 163c26 105 83 146 124 121c12 -7 21 -20 27 -34zM323 92c17 -43 40 -74 57 -77c34 -7 72 39 86 97c0 5 2 5 5 1c2 -3 5 -13 4 -23c-5 -77 -44 -107 -95 -98c-34 6 -60 22 -80 55c-15 -32 -28 -67 -39 -104c-2 -6 -7 -7 -10 -2
c-3 6 -7 19 -1 42c9 33 21 65 35 97c-24 63 -31 148 -28 188c1 16 6 29 17 36c5 3 7 2 7 -3c3 -58 13 -119 29 -170c33 61 73 114 108 149c4 4 9 3 10 -4c3 -16 0 -35 -20 -59c-29 -35 -58 -77 -85 -125z" />
    <glyph glyph-name="ucircumflex" unicode="&#xfb;" horiz-adv-x="135" 
d="M77 761c23 -4 39 -24 38 -47c-1 -33 -24 -46 -54 -44c-22 1 -46 21 -41 52c4 25 28 44 57 39zM91 716c0 13 -7 28 -19 30c-14 2 -28 -12 -29 -30c-1 -20 11 -30 22 -30c14 0 26 10 26 30z" />
    <glyph glyph-name="udieresis" unicode="&#xfc;" horiz-adv-x="392" 
d="M44 102c76 16 89 153 64 160c-19 5 -56 -50 -63 -126c-1 -12 -2 -24 -1 -34zM45 85c4 -37 17 -61 31 -66c37 -13 96 23 118 94c2 6 6 6 7 1c2 -8 2 -16 0 -29c-14 -73 -72 -111 -133 -87c-32 13 -79 66 -62 161c19 108 75 150 114 122c32 -23 40 -59 30 -102
c-14 -59 -64 -91 -105 -94zM266 92c17 -43 40 -74 57 -77c34 -7 72 39 86 97c0 5 2 5 5 1c2 -3 5 -13 4 -23c-5 -77 -44 -107 -95 -98c-34 6 -60 22 -80 55c-15 -32 -28 -67 -39 -104c-2 -6 -7 -7 -10 -2c-3 6 -7 19 -1 42c9 33 21 65 35 97c-24 63 -31 148 -28 188
c1 16 6 29 17 36c5 3 7 2 7 -3c3 -58 13 -119 29 -170c33 61 73 114 108 149c4 4 9 3 10 -4c3 -16 0 -35 -20 -59c-29 -35 -58 -77 -85 -125z" />
    <glyph glyph-name="yacute" unicode="&#xfd;" horiz-adv-x="324" 
d="M24 295c2 15 13 31 26 33c9 1 20 -6 22 -21c2 -19 -11 -34 -25 -36c-15 -2 -25 7 -23 24zM132 114c2 -4 5 -10 5 -22c1 -70 -35 -119 -77 -104c-41 15 -54 56 -55 119c-1 48 7 97 16 124c5 16 17 24 26 26c5 1 8 0 7 -4c-24 -118 -10 -234 11 -241c18 -6 50 36 61 101
c1 4 4 5 6 1zM198 92c17 -43 40 -74 57 -77c34 -7 72 39 86 97c0 5 2 5 5 1c2 -3 5 -13 4 -23c-5 -77 -44 -107 -95 -98c-34 6 -60 22 -80 55c-15 -32 -28 -67 -39 -104c-2 -6 -7 -7 -10 -2c-3 6 -7 19 -1 42c9 33 21 65 35 97c-24 63 -31 148 -28 188c1 16 6 29 17 36
c5 3 7 2 7 -3c3 -58 13 -119 29 -170c33 61 73 114 108 149c4 4 9 3 10 -4c3 -16 0 -35 -20 -59c-29 -35 -58 -77 -85 -125z" />
    <glyph glyph-name="thorn" unicode="&#xfe;" horiz-adv-x="401" 
d="M427 90c-5 -77 -46 -107 -95 -98c-33 6 -60 22 -79 56c-16 -33 -30 -68 -40 -105c-2 -6 -6 -7 -10 -2c-5 6 -8 19 -2 42c9 34 21 67 35 98c-14 37 -22 82 -26 121c-7 -21 -20 -40 -37 -51c9 -116 -41 -175 -98 -155c-44 15 -79 63 -68 156c7 59 36 111 64 126
c6 3 17 4 27 -8c26 5 59 -29 71 -91c21 15 35 46 39 89c1 16 6 29 16 36c6 4 9 2 9 -3c2 -58 13 -119 28 -170c33 61 72 114 109 149c4 4 8 3 9 -4c2 -16 1 -35 -19 -59c-29 -35 -59 -78 -86 -126c18 -43 40 -73 58 -76c34 -6 72 39 85 97c1 5 3 5 6 1c2 -3 5 -13 4 -23z
M99 251c-16 0 -7 -65 28 -76c3 -1 5 -3 9 -3c-5 42 -20 79 -37 79zM138 140c-6 0 -11 2 -17 3c-33 8 -51 39 -53 69c-10 -21 -18 -49 -21 -81c-7 -76 24 -114 38 -117c27 -6 54 49 53 126z" />
    <glyph glyph-name="ydieresis" unicode="&#xff;" horiz-adv-x="434" 
d="M134 50c-10 -32 -24 -49 -41 -59c-20 -12 -46 -10 -62 10c-35 44 -33 165 -9 256c5 18 15 31 28 33c7 1 8 1 7 -6c-13 -65 -21 -191 -2 -242c8 -23 19 -25 27 -25c14 0 31 30 39 101c6 57 11 109 14 125c4 25 14 31 31 35c8 2 8 -2 7 -7c-14 -109 -19 -250 17 -250
c14 0 34 39 41 91c0 7 3 7 6 2c2 -3 7 -17 7 -31c-1 -75 -33 -100 -69 -87c-20 7 -33 29 -41 54zM308 92c17 -43 40 -74 57 -77c34 -7 72 39 86 97c0 5 2 5 5 1c2 -3 5 -13 4 -23c-5 -77 -44 -107 -95 -98c-34 6 -60 22 -80 55c-15 -32 -28 -67 -39 -104c-2 -6 -7 -7 -10 -2
c-3 6 -7 19 -1 42c9 33 21 65 35 97c-24 63 -31 148 -28 188c1 16 6 29 17 36c5 3 7 2 7 -3c3 -58 13 -119 29 -170c33 61 73 114 108 149c4 4 9 3 10 -4c3 -16 0 -35 -20 -59c-29 -35 -58 -77 -85 -125z" />
  </font>
</defs>
</svg>
