<svg id="Layer_1" data-name="Layer 1" xmlns="http://www.w3.org/2000/svg" xmlns:xlink="http://www.w3.org/1999/xlink" viewBox="0 0 874.39 401.29"><defs><style>.cls-1{fill:url(#linear-gradient);}.cls-2{isolation:isolate;}.cls-3{fill:url(#linear-gradient-2);}.cls-4{mask:url(#mask);}.cls-5{fill:url(#linear-gradient-3);}.cls-38,.cls-40,.cls-53,.cls-54,.cls-56,.cls-6,.cls-8{fill:none;}.cls-7{clip-path:url(#clip-path);}.cls-8{stroke:#636362;stroke-width:0.5px;}.cls-9{mask:url(#mask-2);}.cls-10{clip-path:url(#clip-path-3);}.cls-11{fill:#fff;}.cls-12{clip-path:url(#clip-path-4);}.cls-13{fill:url(#linear-gradient-4);}.cls-14{mask:url(#mask-3);}.cls-15{clip-path:url(#clip-path-6);}.cls-16{fill:#f65100;}.cls-17{clip-path:url(#clip-path-7);}.cls-18{opacity:0.8;}.cls-19{clip-path:url(#clip-path-8);}.cls-20{clip-path:url(#clip-path-9);}.cls-21{fill:url(#linear-gradient-5);}.cls-22{opacity:0.25;}.cls-23{clip-path:url(#clip-path-10);}.cls-24{fill:#f85f00;}.cls-25{opacity:0.55;}.cls-26{clip-path:url(#clip-path-11);}.cls-27{opacity:0.79;}.cls-28{clip-path:url(#clip-path-12);}.cls-29{clip-path:url(#clip-path-13);}.cls-30{opacity:0.83;}.cls-31{clip-path:url(#clip-path-14);}.cls-32{opacity:0.75;}.cls-33{clip-path:url(#clip-path-15);}.cls-34{clip-path:url(#clip-path-16);}.cls-35{opacity:0.72;}.cls-36{clip-path:url(#clip-path-17);}.cls-37{fill:#636362;}.cls-38,.cls-54{stroke:#e76906;}.cls-38,.cls-40,.cls-56{stroke-width:3px;}.cls-39{fill:#e76906;}.cls-40{stroke:#a5a5a4;}.cls-41{fill:#a5a5a4;}.cls-42{fill:#f1f1f1;}.cls-43{fill:#999;}.cls-44{fill:#c2c2c2;}.cls-45{fill:#f8a978;}.cls-46{fill:#e3e3e3;}.cls-47{fill:#f95e00;}.cls-48{fill:#878787;}.cls-49{fill:#acacac;}.cls-50{fill:#e29c71;}.cls-51{fill:#d6d6d6;}.cls-52{fill:#de946c;}.cls-53,.cls-56{stroke:#fff;}.cls-53,.cls-54,.cls-56{stroke-miterlimit:10;}.cls-53{stroke-width:3.27px;}.cls-54{stroke-width:5.46px;}.cls-55{fill:#ccc;}.cls-57{filter:url(#luminosity-invert);}.cls-58{filter:url(#luminosity-noclip);}</style><linearGradient id="linear-gradient" x1="0.55" y1="559.9" x2="1.55" y2="559.9" gradientTransform="matrix(0, 357.07, 357.07, 0, -199503.46, -153.14)" gradientUnits="userSpaceOnUse"><stop offset="0" stop-color="#fff"/><stop offset="0.26" stop-color="#fff"/><stop offset="1"/></linearGradient><linearGradient id="linear-gradient-2" x1="0.99" y1="560.82" x2="1.99" y2="560.82" gradientTransform="matrix(-910.75, 0, 0, 910.75, 1604.82, -510742.15)" gradientUnits="userSpaceOnUse"><stop offset="0" stop-color="#1c1c1b"/><stop offset="0" stop-color="#1f1f1e"/><stop offset="0.07" stop-color="#4e4e4d"/><stop offset="0.14" stop-color="#777776"/><stop offset="0.22" stop-color="#9c9c9b"/><stop offset="0.3" stop-color="#bbbbba"/><stop offset="0.39" stop-color="#d4d4d4"/><stop offset="0.48" stop-color="#e7e7e7"/><stop offset="0.6" stop-color="#f5f5f5"/><stop offset="0.74" stop-color="#fdfdfd"/><stop offset="1" stop-color="#fff"/></linearGradient><mask id="mask" x="-204.15" y="-2.62" width="910.75" height="57.99" maskUnits="userSpaceOnUse"><rect x="-204.15" y="-2.62" width="910.75" height="57.99"/><g class="cls-2"><rect class="cls-3" x="-204.15" y="-2.62" width="910.75" height="57.99"/></g></mask><linearGradient id="linear-gradient-3" x1="0.99" y1="560.82" x2="1.99" y2="560.82" gradientTransform="matrix(-910.75, 0, 0, 910.75, 1604.82, -510742.15)" gradientUnits="userSpaceOnUse"><stop offset="0" stop-color="#fff"/><stop offset="0.07" stop-color="#d2d2d2"/><stop offset="0.14" stop-color="#a7a7a7"/><stop offset="0.22" stop-color="#828281"/><stop offset="0.31" stop-color="#626261"/><stop offset="0.4" stop-color="#484848"/><stop offset="0.5" stop-color="#353534"/><stop offset="0.61" stop-color="#272726"/><stop offset="0.75" stop-color="#1e1e1d"/><stop offset="1" stop-color="#1c1c1b"/></linearGradient><clipPath id="clip-path" transform="translate(49.48 2.62)"><rect class="cls-6" x="13.5" y="11.84" width="811.4" height="386.83"/></clipPath><filter id="luminosity-noclip" x="4.5" y="11.84" width="829.4" height="387.83" filterUnits="userSpaceOnUse" color-interpolation-filters="sRGB"><feFlood flood-color="#fff" result="bg"/><feBlend in="SourceGraphic" in2="bg"/></filter><mask id="mask-2" x="53.99" y="14.45" width="829.4" height="387.83" maskUnits="userSpaceOnUse"><g class="cls-58"><g transform="translate(49.48 2.62)"><rect class="cls-1" x="13.5" y="11.84" width="811.4" height="386.83"/></g></g></mask><clipPath id="clip-path-3" transform="translate(49.48 2.62)"><rect class="cls-6" x="4.5" y="34.6" width="829.4" height="365.07"/></clipPath><clipPath id="clip-path-4" transform="translate(49.48 2.62)"><rect class="cls-6" x="13.5" y="11.84" width="811.4" height="31.18"/></clipPath><linearGradient id="linear-gradient-4" x1="1" y1="560.96" x2="2" y2="560.96" gradientTransform="matrix(-3749.15, 0, 0, 3749.15, 5189.3, -2103081.14)" gradientUnits="userSpaceOnUse"><stop offset="0" stop-color="#fdc701"/><stop offset="0.02" stop-color="#fdc301"/><stop offset="0.22" stop-color="#fb9f01"/><stop offset="0.41" stop-color="#fa8300"/><stop offset="0.61" stop-color="#f96f00"/><stop offset="0.8" stop-color="#f86300"/><stop offset="1" stop-color="#f85f00"/></linearGradient><filter id="luminosity-invert" filterUnits="userSpaceOnUse" color-interpolation-filters="sRGB"><feColorMatrix values="-1 0 0 0 1 0 -1 0 0 1 0 0 -1 0 1 0 0 0 1 0"/></filter><mask id="mask-3" x="-154.67" y="0" width="912.15" height="57.99" maskUnits="userSpaceOnUse"><g class="cls-57"><g transform="translate(49.48 2.62)"><g class="cls-2"><g class="cls-2"><g class="cls-4"><rect class="cls-5" x="-204.15" y="-2.62" width="910.75" height="57.99"/></g></g></g></g></g></mask><clipPath id="clip-path-6" transform="translate(49.48 2.62)"><rect class="cls-6" x="2.83" y="-2.62" width="705.16" height="57.83"/></clipPath><clipPath id="clip-path-7" transform="translate(49.48 2.62)"><rect class="cls-6" y="-2.62" width="707.99" height="57.83"/></clipPath><clipPath id="clip-path-8" transform="translate(49.48 2.62)"><rect class="cls-6" x="223.19" y="-2.11" width="484.81" height="57.17"/></clipPath><clipPath id="clip-path-9" transform="translate(49.48 2.62)"><polygon class="cls-6" points="707.97 -2.11 223.19 29.26 296.7 55.06 707.99 -2.11 707.97 -2.11"/></clipPath><linearGradient id="linear-gradient-5" x1="0.97" y1="560.67" x2="1.97" y2="560.67" gradientTransform="matrix(-484.81, 0, 0, 484.81, 1229.63, -271785.48)" gradientUnits="userSpaceOnUse"><stop offset="0" stop-color="#fdc701"/><stop offset="0.01" stop-color="#fcb601"/><stop offset="0.04" stop-color="#fb9b01"/><stop offset="0.07" stop-color="#fa8500"/><stop offset="0.1" stop-color="#f97400"/><stop offset="0.14" stop-color="#f86800"/><stop offset="0.2" stop-color="#f86100"/><stop offset="0.36" stop-color="#f85f00"/><stop offset="1" stop-color="#f85f00"/></linearGradient><clipPath id="clip-path-10" transform="translate(49.48 2.62)"><rect class="cls-6" x="143.98" y="29.26" width="152.72" height="25.8"/></clipPath><clipPath id="clip-path-11" transform="translate(49.48 2.62)"><rect class="cls-6" x="23.72" y="34.26" width="272.99" height="20.8"/></clipPath><clipPath id="clip-path-12" transform="translate(49.48 2.62)"><rect class="cls-6" x="1.46" y="41.86" width="82.66" height="13.36"/></clipPath><clipPath id="clip-path-13" transform="translate(49.48 2.62)"><polygon class="cls-6" points="0 55.22 708 55.22 708 -2.62 0 -2.62 0 42.75 0 55.22"/></clipPath><clipPath id="clip-path-14" transform="translate(49.48 2.62)"><rect class="cls-6" x="0.8" y="-2.62" width="222.38" height="36.88"/></clipPath><clipPath id="clip-path-15" transform="translate(49.48 2.62)"><rect class="cls-6" x="1.54" y="18.8" width="142.44" height="23.06"/></clipPath><clipPath id="clip-path-16" transform="translate(49.48 2.62)"><rect class="cls-6" x="2.83" y="-2.62" width="705.16" height="57.83"/></clipPath><clipPath id="clip-path-17" transform="translate(49.48 2.62)"><rect class="cls-6" y="-2.62" width="112.93" height="21.42"/></clipPath></defs><title>bleeding</title><g class="cls-7"><line class="cls-8" x1="170.8" y1="74.62" x2="177.88" y2="74.62"/><g class="cls-7"><g class="cls-9"><g class="cls-10"><rect class="cls-11" x="62.99" y="44.22" width="811.4" height="357.07"/></g></g></g><g class="cls-12"><rect class="cls-13" x="62.99" y="14.46" width="811.4" height="31.18"/></g><g class="cls-12"><g class="cls-14"><g class="cls-15"><polygon class="cls-16" points="272.67 31.88 757.48 0.51 162.41 0 272.67 31.88"/><g class="cls-17"><g class="cls-18"><g class="cls-19"><g class="cls-20"><rect class="cls-21" x="272.67" y="0.51" width="484.8" height="57.16"/></g></g></g><g class="cls-22"><g class="cls-23"><polygon class="cls-24" points="272.67 31.88 193.47 36.88 346.16 57.68 346.18 57.68 272.67 31.88"/></g></g><g class="cls-25"><g class="cls-26"><polygon class="cls-24" points="73.2 44.47 73.2 44.48 133.59 57.68 346.19 57.68 193.46 36.88 73.2 44.47"/></g></g><g class="cls-27"><g class="cls-28"><polyline class="cls-24" points="51.23 57.75 133.6 57.68 73.21 44.48 73.17 44.48 51.23 45.86"/></g></g></g><polyline class="cls-16" points="51.22 40.19 73.2 44.48 51.23 45.86"/><g class="cls-29"><g class="cls-30"><g class="cls-31"><polygon class="cls-16" points="162.4 0 47.45 21.42 193.45 36.88 193.49 36.88 272.67 31.88 272.67 31.88 162.42 0 162.4 0"/></g></g><g class="cls-32"><g class="cls-33"><polyline class="cls-24" points="51.24 21.82 47.45 21.42 0 30.21 51.22 40.19"/><polyline class="cls-24" points="51.22 40.19 73.2 44.47 193.47 36.88 51.24 21.82"/></g></g></g><g class="cls-34"><g class="cls-35"><g class="cls-36"><polyline class="cls-24" points="51.25 20.71 162.41 0 50.98 0"/></g></g></g></g></g></g><path class="cls-11" d="M41.48,26.73c0,4.41-2.68,6.74-5.95,6.74s-5.76-2.62-5.76-6.5c0-4.07,2.53-6.73,5.95-6.73S41.48,22.93,41.48,26.73Zm-9.94.21c0,2.74,1.48,5.19,4.08,5.19s4.1-2.41,4.1-5.32c0-2.55-1.33-5.21-4.08-5.21S31.55,24.13,31.55,26.94Z" transform="translate(49.48 2.62)"/><path class="cls-11" d="M44.47,24.07l1.8,5.17A23.58,23.58,0,0,1,47,31.6h0.06c0.21-.76.48-1.52,0.78-2.36l1.79-5.17h1.75l-3.61,9.19h-1.6l-3.5-9.19h1.79Z" transform="translate(49.48 2.62)"/><path class="cls-11" d="M53.72,29a3,3,0,0,0,3.15,3.19,6,6,0,0,0,2.55-.47l0.29,1.2a7.44,7.44,0,0,1-3.06.57,4.27,4.27,0,0,1-4.52-4.64c0-2.77,1.63-5,4.31-5,3,0,3.8,2.64,3.8,4.33a6.31,6.31,0,0,1-.06.78H53.72Zm4.9-1.2c0-1.06-.44-2.72-2.32-2.72a2.77,2.77,0,0,0-2.56,2.72h4.88Z" transform="translate(49.48 2.62)"/><path class="cls-11" d="M62.31,26.94c0-1.08,0-2-.08-2.87h1.46l0.06,1.8h0.08a2.76,2.76,0,0,1,2.55-2,1.81,1.81,0,0,1,.48.06V25.5a2.54,2.54,0,0,0-.57-0.06A2.34,2.34,0,0,0,64,27.59a4.7,4.7,0,0,0-.08.78v4.9H62.31V26.94Z" transform="translate(49.48 2.62)"/><path class="cls-11" d="M73.52,33.27l-0.13-1.16H73.33a3.43,3.43,0,0,1-2.81,1.37,2.62,2.62,0,0,1-2.81-2.64c0-2.22,2-3.44,5.53-3.42V27.23a1.9,1.9,0,0,0-2.09-2.13,4.58,4.58,0,0,0-2.39.68l-0.38-1.1a5.71,5.71,0,0,1,3-.82c2.81,0,3.5,1.92,3.5,3.76v3.44a12.92,12.92,0,0,0,.15,2.2H73.52Zm-0.25-4.69c-1.82,0-3.89.29-3.89,2.07A1.48,1.48,0,0,0,71,32.24a2.29,2.29,0,0,0,2.22-1.54,1.76,1.76,0,0,0,.09-0.53v-1.6Z" transform="translate(49.48 2.62)"/><path class="cls-11" d="M77.58,19.78h1.67V33.27H77.58V19.78Z" transform="translate(49.48 2.62)"/><path class="cls-11" d="M82.07,19.78h1.67V33.27H82.07V19.78Z" transform="translate(49.48 2.62)"/><path class="cls-11" d="M90.58,26.56c0-.95,0-1.73-0.08-2.49H92L92,25.55H92.1A3.17,3.17,0,0,1,95,23.86a2.72,2.72,0,0,1,2.6,1.84h0a3.8,3.8,0,0,1,1-1.2,3.14,3.14,0,0,1,2-.65c1.22,0,3,.8,3,4v5.41h-1.63V28.06c0-1.77-.65-2.83-2-2.83a2.16,2.16,0,0,0-2,1.52,2.75,2.75,0,0,0-.13.84v5.68H96.33V27.76c0-1.46-.65-2.53-1.92-2.53a2.28,2.28,0,0,0-2.07,1.67,2.31,2.31,0,0,0-.13.82v5.55H90.58V26.56Z" transform="translate(49.48 2.62)"/><path class="cls-11" d="M111.51,33.27l-0.13-1.16h-0.06a3.43,3.43,0,0,1-2.81,1.37,2.62,2.62,0,0,1-2.81-2.64c0-2.22,2-3.44,5.53-3.42V27.23a1.9,1.9,0,0,0-2.09-2.13,4.58,4.58,0,0,0-2.39.68l-0.38-1.1a5.71,5.71,0,0,1,3-.82c2.81,0,3.5,1.92,3.5,3.76v3.44a12.92,12.92,0,0,0,.15,2.2h-1.52Zm-0.25-4.69c-1.82,0-3.89.29-3.89,2.07a1.48,1.48,0,0,0,1.58,1.6,2.29,2.29,0,0,0,2.22-1.54,1.76,1.76,0,0,0,.09-0.53v-1.6Z" transform="translate(49.48 2.62)"/><path class="cls-11" d="M113.34,35.93a2.71,2.71,0,0,0,1.82-.7c0.46-.53.63-1.25,0.63-3.46V24.07h1.67v8.34c0,1.79-.29,2.94-1.1,3.78a4.24,4.24,0,0,1-2.85,1Zm4.31-14.44a1,1,0,0,1-1,1,1,1,0,0,1-1-1,1,1,0,0,1,1.06-1A1,1,0,0,1,117.65,21.49Z" transform="translate(49.48 2.62)"/><path class="cls-11" d="M128.52,28.59a4.49,4.49,0,0,1-4.58,4.88,4.37,4.37,0,0,1-4.41-4.73c0-3.08,2-4.88,4.56-4.88S128.52,25.78,128.52,28.59Zm-7.29.1c0,2,1.16,3.53,2.79,3.53s2.79-1.5,2.79-3.57c0-1.56-.78-3.53-2.75-3.53S121.22,26.94,121.22,28.69Z" transform="translate(49.48 2.62)"/><path class="cls-11" d="M130.63,26.94c0-1.08,0-2-.08-2.87H132l0.06,1.8h0.08a2.76,2.76,0,0,1,2.55-2,1.8,1.8,0,0,1,.48.06V25.5a2.54,2.54,0,0,0-.57-0.06,2.34,2.34,0,0,0-2.24,2.15,4.7,4.7,0,0,0-.08.78v4.9h-1.65V26.94Z" transform="translate(49.48 2.62)"/><path class="cls-11" d="M140.79,33.27c0-.63.08-1.56,0.08-2.37V19.78h1.65v5.77h0a3.42,3.42,0,0,1,3.13-1.69c2.28,0,3.89,1.9,3.88,4.69,0,3.29-2.07,4.92-4.12,4.92a3.28,3.28,0,0,1-3.08-1.73h-0.06l-0.08,1.52h-1.44Zm1.73-3.69a3.12,3.12,0,0,0,.08.61,2.58,2.58,0,0,0,2.51,2c1.75,0,2.79-1.42,2.79-3.53,0-1.84-.95-3.42-2.74-3.42a2.66,2.66,0,0,0-2.55,2.05,3.29,3.29,0,0,0-.1.68v1.65Z" transform="translate(49.48 2.62)"/><path class="cls-11" d="M151.68,19.78h1.67V33.27h-1.67V19.78Z" transform="translate(49.48 2.62)"/><path class="cls-11" d="M157.1,29a3,3,0,0,0,3.15,3.19,6,6,0,0,0,2.55-.47l0.29,1.2a7.44,7.44,0,0,1-3.06.57,4.27,4.27,0,0,1-4.52-4.64c0-2.77,1.63-5,4.31-5,3,0,3.8,2.64,3.8,4.33a6.31,6.31,0,0,1-.06.78H157.1Zm4.9-1.2c0-1.06-.44-2.72-2.32-2.72a2.77,2.77,0,0,0-2.56,2.72H162Z" transform="translate(49.48 2.62)"/><path class="cls-11" d="M166.61,29a3,3,0,0,0,3.15,3.19,6,6,0,0,0,2.55-.47l0.29,1.2a7.44,7.44,0,0,1-3.06.57A4.27,4.27,0,0,1,165,28.82c0-2.77,1.63-5,4.31-5,3,0,3.8,2.64,3.8,4.33a6.31,6.31,0,0,1-.06.78h-6.46Zm4.9-1.2c0-1.06-.44-2.72-2.32-2.72a2.77,2.77,0,0,0-2.56,2.72h4.88Z" transform="translate(49.48 2.62)"/><path class="cls-11" d="M183.14,19.78V30.89c0,0.82,0,1.75.08,2.37h-1.5l-0.08-1.6h0a3.4,3.4,0,0,1-3.13,1.8c-2.22,0-3.93-1.88-3.93-4.67,0-3.06,1.88-4.94,4.12-4.94a3.07,3.07,0,0,1,2.77,1.41h0V19.78h1.67Zm-1.67,8a3,3,0,0,0-.08-0.7A2.46,2.46,0,0,0,179,25.17c-1.73,0-2.75,1.52-2.75,3.55,0,1.86.91,3.4,2.72,3.4a2.51,2.51,0,0,0,2.45-2,2.92,2.92,0,0,0,.08-0.72v-1.6Z" transform="translate(49.48 2.62)"/><path class="cls-11" d="M187.78,21.49a1,1,0,0,1-2.07,0,1,1,0,0,1,1-1A1,1,0,0,1,187.78,21.49Zm-1.86,11.78V24.07h1.67v9.19h-1.67Z" transform="translate(49.48 2.62)"/><path class="cls-11" d="M190.36,26.56c0-.95,0-1.73-0.08-2.49h1.48l0.1,1.52h0a3.38,3.38,0,0,1,3-1.73c1.27,0,3.25.76,3.25,3.91v5.49h-1.67V28c0-1.48-.55-2.72-2.13-2.72A2.38,2.38,0,0,0,192.15,27a2.41,2.41,0,0,0-.11.78v5.53h-1.67V26.56Z" transform="translate(49.48 2.62)"/><path class="cls-11" d="M208.83,24.07c0,0.67-.08,1.41-0.08,2.53v5.34c0,2.11-.42,3.4-1.31,4.2a4.87,4.87,0,0,1-3.34,1.1,5.93,5.93,0,0,1-3.06-.76l0.42-1.27a5.18,5.18,0,0,0,2.7.72c1.71,0,3-.89,3-3.21v-1h0a3.28,3.28,0,0,1-2.93,1.54c-2.28,0-3.91-1.94-3.91-4.48,0-3.12,2-4.88,4.14-4.88a3.06,3.06,0,0,1,2.87,1.6h0l0.08-1.39h1.46ZM207.1,27.7a2.38,2.38,0,0,0-.1-0.76,2.41,2.41,0,0,0-2.34-1.77c-1.6,0-2.74,1.35-2.74,3.48,0,1.8.91,3.31,2.72,3.31A2.44,2.44,0,0,0,207,30.25a2.9,2.9,0,0,0,.13-0.89V27.7Z" transform="translate(49.48 2.62)"/><path class="cls-37" d="M45.71,224.16L55,220.52v0.95L52.1,222.6v4.23L55,227.95v0.94l-9.28-3.73v-1Zm5.64-1.26-4.76,1.79,4.76,1.86V222.9Z" transform="translate(49.48 2.62)"/><path class="cls-37" d="M55.78,214.33a2.61,2.61,0,0,1,1,.51,2.24,2.24,0,0,1,.64.92,3.83,3.83,0,0,1,.22,1.38,4.16,4.16,0,0,1-.12,1,2.8,2.8,0,0,1-.36.86,2.15,2.15,0,0,1-.63.64,1.88,1.88,0,0,1-.92.29v-0.82a1.45,1.45,0,0,0,.63-0.25,1.51,1.51,0,0,0,.41-0.45,2,2,0,0,0,.23-0.59,3.06,3.06,0,0,0,.07-0.66,2,2,0,0,0-.65-1.65,3,3,0,0,0-1.87-.51H53.53v0a2.39,2.39,0,0,1,1,.84,2.24,2.24,0,0,1,.38,1.29,3.24,3.24,0,0,1-.27,1.38,2.55,2.55,0,0,1-.73.94,3,3,0,0,1-1.1.54,5.17,5.17,0,0,1-1.35.17,4.17,4.17,0,0,1-1.31-.2,3.23,3.23,0,0,1-1.08-.58,2.72,2.72,0,0,1-.73-0.95,3,3,0,0,1-.27-1.29,2.36,2.36,0,0,1,.1-0.71,2.26,2.26,0,0,1,.29-0.6,2.64,2.64,0,0,1,.44-0.49,2,2,0,0,1,.52-0.33v0H48.28v-0.82h6.16A5.12,5.12,0,0,1,55.78,214.33ZM54,216.21a2.15,2.15,0,0,0-.6-0.68,2.63,2.63,0,0,0-.85-0.41,3.6,3.6,0,0,0-1-.14,4.29,4.29,0,0,0-1,.12,2.87,2.87,0,0,0-.9.38,2,2,0,0,0-.65.67,1.89,1.89,0,0,0-.25,1,2,2,0,0,0,.24,1,2.13,2.13,0,0,0,.63.69,2.65,2.65,0,0,0,.89.4,4.25,4.25,0,0,0,1,.12,3.75,3.75,0,0,0,1-.13,2.52,2.52,0,0,0,.85-0.4,2.1,2.1,0,0,0,.6-0.69,2,2,0,0,0,.23-1A1.88,1.88,0,0,0,54,216.21Z" transform="translate(49.48 2.62)"/><path class="cls-37" d="M52.77,212a2.53,2.53,0,0,0,.85-0.4,2.25,2.25,0,0,0,.62-0.69,1.92,1.92,0,0,0,.25-1,2,2,0,0,0-.47-1.4,2.47,2.47,0,0,0-1.25-.7V207a3.27,3.27,0,0,1,1.77,1,2.85,2.85,0,0,1,.62,2,3.12,3.12,0,0,1-.28,1.37,2.52,2.52,0,0,1-.77.94,3.33,3.33,0,0,1-1.13.54,5.14,5.14,0,0,1-1.36.18,4.87,4.87,0,0,1-1.3-.18,3.47,3.47,0,0,1-1.14-.54,2.71,2.71,0,0,1-.81-0.94,2.9,2.9,0,0,1-.31-1.37,2.65,2.65,0,0,1,1.18-2.31,3.53,3.53,0,0,1,1.21-.51,5.3,5.3,0,0,1,1.38-.13v5.16A3.64,3.64,0,0,0,52.77,212Zm-2.5-4.06a2.45,2.45,0,0,0-.76.42A2.1,2.1,0,0,0,49,209a1.9,1.9,0,0,0-.2.88,1.93,1.93,0,0,0,.2.9,2.1,2.1,0,0,0,.53.66,2.65,2.65,0,0,0,.77.44,3.75,3.75,0,0,0,.89.21v-4.34A3,3,0,0,0,50.27,207.95Z" transform="translate(49.48 2.62)"/><path class="cls-37" d="M56,201.3a10.85,10.85,0,0,1-1.42.58,9.68,9.68,0,0,1-1.48.36,10.07,10.07,0,0,1-1.62.12,10.24,10.24,0,0,1-3.18-.49,12.26,12.26,0,0,1-2.84-1.35v-0.65a10.44,10.44,0,0,0,3,1.27,13.69,13.69,0,0,0,3.33.4,9.24,9.24,0,0,0,1.44-.12,11.09,11.09,0,0,0,1.48-.34,12.16,12.16,0,0,0,1.42-.53,10,10,0,0,0,1.29-.68v0.65Q56.75,201,56,201.3Z" transform="translate(49.48 2.62)"/><path class="cls-37" d="M48.28,199L54,196.79l-5.72-2.07V193.9L56,196.81a7.56,7.56,0,0,1,.71.34,1.61,1.61,0,0,1,.44.34,1.14,1.14,0,0,1,.23.44,2.41,2.41,0,0,1,.07.64l0,0.38a0.8,0.8,0,0,1,0,.24H56.71c0-.1,0-0.19,0-0.28a2,2,0,0,0,0-.28,1.11,1.11,0,0,0-.08-0.45,1,1,0,0,0-.21-0.31,1.24,1.24,0,0,0-.33-0.22l-0.43-.19L55,197.19l-6.68,2.68V199Z" transform="translate(49.48 2.62)"/><path class="cls-37" d="M52.77,192.49a2.53,2.53,0,0,0,.85-0.4,2.25,2.25,0,0,0,.62-0.69,1.92,1.92,0,0,0,.25-1A2,2,0,0,0,54,189a2.47,2.47,0,0,0-1.25-.7v-0.82a3.27,3.27,0,0,1,1.77,1,2.85,2.85,0,0,1,.62,2,3.12,3.12,0,0,1-.28,1.37,2.52,2.52,0,0,1-.77.94,3.33,3.33,0,0,1-1.13.54,5.14,5.14,0,0,1-1.36.18,4.87,4.87,0,0,1-1.3-.18,3.47,3.47,0,0,1-1.14-.54,2.71,2.71,0,0,1-.81-0.94,2.9,2.9,0,0,1-.31-1.37,2.65,2.65,0,0,1,1.18-2.31,3.53,3.53,0,0,1,1.21-.51,5.3,5.3,0,0,1,1.38-.13v5.16A3.64,3.64,0,0,0,52.77,192.49Zm-2.5-4.06a2.45,2.45,0,0,0-.76.42,2.1,2.1,0,0,0-.53.66,1.9,1.9,0,0,0-.2.88,1.93,1.93,0,0,0,.2.9,2.1,2.1,0,0,0,.53.66,2.65,2.65,0,0,0,.77.44,3.75,3.75,0,0,0,.89.21v-4.34A3,3,0,0,0,50.27,188.43Z" transform="translate(49.48 2.62)"/><path class="cls-37" d="M49.32,186.18a1.91,1.91,0,0,1-.7-0.57,2.4,2.4,0,0,1-.4-0.84,4.11,4.11,0,0,1-.13-1.07,4.68,4.68,0,0,1,.08-0.88,2.14,2.14,0,0,1,.32-0.79,1.74,1.74,0,0,1,.66-0.57,2.37,2.37,0,0,1,1.1-.22h3.56a0.43,0.43,0,0,0,.49-0.48,0.62,0.62,0,0,0-.05-0.26h0.69c0,0.1,0,.18,0,0.25a2.45,2.45,0,0,1,0,.28,1.23,1.23,0,0,1-.08.5,0.66,0.66,0,0,1-.24.29,0.89,0.89,0,0,1-.37.14,3.21,3.21,0,0,1-.47,0v0a5.5,5.5,0,0,1,.58.45,2.22,2.22,0,0,1,.42.51,2.35,2.35,0,0,1,.26.64,3.5,3.5,0,0,1,.09.85,3.33,3.33,0,0,1-.11.88,2,2,0,0,1-.35.72,1.68,1.68,0,0,1-.61.48,2,2,0,0,1-.88.18,1.73,1.73,0,0,1-1.1-.31,2,2,0,0,1-.6-0.83,4.72,4.72,0,0,1-.29-1.16q-0.08-.64-0.16-1.31c0-.17,0-0.32-0.07-0.46a0.78,0.78,0,0,0-.14-0.32,0.63,0.63,0,0,0-.27-0.2,1.16,1.16,0,0,0-.44-0.07,1.5,1.5,0,0,0-.68.14,1.09,1.09,0,0,0-.42.38,1.53,1.53,0,0,0-.21.56,3.77,3.77,0,0,0-.06.68,2.07,2.07,0,0,0,.37,1.27,1.45,1.45,0,0,0,1.19.52v0.82A2.71,2.71,0,0,1,49.32,186.18Zm2-4.09a0.47,0.47,0,0,1,.21.3,2.84,2.84,0,0,1,.09.39q0.09,0.52.16,1.07a5.86,5.86,0,0,0,.21,1,2,2,0,0,0,.41.75,1,1,0,0,0,.76.29,1.19,1.19,0,0,0,.55-0.12,1.35,1.35,0,0,0,.42-0.33,1.44,1.44,0,0,0,.27-0.48,1.76,1.76,0,0,0,.09-0.56,2.83,2.83,0,0,0-.14-0.9,2.22,2.22,0,0,0-.42-0.75,2,2,0,0,0-1.55-.7H51.32v0Z" transform="translate(49.48 2.62)"/><path class="cls-37" d="M48.28,178.85h1.57v0a2.58,2.58,0,0,1-1.26-1,2.54,2.54,0,0,1-.4-1.57H49a2.48,2.48,0,0,0,.15,1,2.24,2.24,0,0,0,1.27,1.3,2.59,2.59,0,0,0,1,.18H55v0.82H48.28v-0.75Z" transform="translate(49.48 2.62)"/><path class="cls-37" d="M49.59,171.64a1.34,1.34,0,0,0-.46.38,1.6,1.6,0,0,0-.27.55,2.56,2.56,0,0,0-.08.66,2.69,2.69,0,0,0,.06.55,1.71,1.71,0,0,0,.19.51,1.11,1.11,0,0,0,.36.38,1,1,0,0,0,.55.14,0.76,0.76,0,0,0,.46-0.14,1.2,1.2,0,0,0,.32-0.34,2.19,2.19,0,0,0,.21-0.46c0.06-.16.1-0.32,0.14-0.46l0.25-1.09a3.11,3.11,0,0,1,.19-0.7,2.23,2.23,0,0,1,.36-0.61,1.75,1.75,0,0,1,.55-0.44,1.65,1.65,0,0,1,.77-0.17,1.68,1.68,0,0,1,.93.25,2,2,0,0,1,.62.63,2.68,2.68,0,0,1,.34.86,4.48,4.48,0,0,1,.1.95,3.08,3.08,0,0,1-.56,1.92,2.38,2.38,0,0,1-1.79.84v-0.82a1.62,1.62,0,0,0,1.25-.6,2.19,2.19,0,0,0,.42-1.37,3.11,3.11,0,0,0-.06-0.62,2,2,0,0,0-.22-0.59,1.41,1.41,0,0,0-.4-0.45,1,1,0,0,0-.59-0.18,1,1,0,0,0-.5.12,1.08,1.08,0,0,0-.34.33,2.11,2.11,0,0,0-.23.47q-0.09.27-.16,0.54l-0.23,1.05a5.81,5.81,0,0,1-.24.74,2.36,2.36,0,0,1-.34.59,1.42,1.42,0,0,1-.49.4,1.63,1.63,0,0,1-.72.14,1.61,1.61,0,0,1-.87-0.23,1.77,1.77,0,0,1-.58-0.59,2.75,2.75,0,0,1-.33-0.81,3.93,3.93,0,0,1-.1-0.89,3.31,3.31,0,0,1,.13-0.94,2.18,2.18,0,0,1,.4-0.77,2,2,0,0,1,.68-0.53,2.44,2.44,0,0,1,.95-0.22v0.82A1.55,1.55,0,0,0,49.59,171.64Z" transform="translate(49.48 2.62)"/><path class="cls-37" d="M46.93,168.62a10.77,10.77,0,0,1,1.42-.58,10,10,0,0,1,1.49-.36,10.57,10.57,0,0,1,4.78.36,12.29,12.29,0,0,1,2.83,1.35V170a10.67,10.67,0,0,0-3-1.25,13.6,13.6,0,0,0-3.32-.4,8.83,8.83,0,0,0-1.46.12,11.48,11.48,0,0,0-1.46.34,12.74,12.74,0,0,0-1.41.53q-0.69.31-1.31,0.66v-0.64Q46.23,169,46.93,168.62Z" transform="translate(49.48 2.62)"/><path class="cls-37" d="M385,370.35l3.64,9.28h-0.95l-1.13-2.89h-4.23l-1.12,2.89h-0.94l3.73-9.28h1Zm1.26,5.64-1.79-4.76L382.59,376h3.65Z" transform="translate(49.48 2.62)"/><path class="cls-37" d="M394.46,379.63v-1.27h0a1.93,1.93,0,0,1-.38.6,2.48,2.48,0,0,1-.58.46,3,3,0,0,1-.7.29,2.71,2.71,0,0,1-.73.1,3,3,0,0,1-1.33-.28,2.67,2.67,0,0,1-.94-0.77,3.3,3.3,0,0,1-.56-1.13,5.17,5.17,0,0,1,0-2.72,3.3,3.3,0,0,1,.56-1.13,2.74,2.74,0,0,1,.94-0.77,2.92,2.92,0,0,1,1.33-.29,3,3,0,0,1,.73.09,2.45,2.45,0,0,1,.67.28,2.34,2.34,0,0,1,.55.46,1.93,1.93,0,0,1,.37.64h0v-3.85h0.82v9.28h-0.75ZM390,377.31a2.85,2.85,0,0,0,.39.92,2.14,2.14,0,0,0,.68.66,1.89,1.89,0,0,0,1,.25,2.2,2.2,0,0,0,1.1-.25,2.17,2.17,0,0,0,.73-0.66,2.69,2.69,0,0,0,.4-0.92,4.39,4.39,0,0,0,0-2.07,2.69,2.69,0,0,0-.4-0.92,2.1,2.1,0,0,0-1.83-.91,1.89,1.89,0,0,0-1,.25,2.16,2.16,0,0,0-.68.66,2.85,2.85,0,0,0-.39.92A4.39,4.39,0,0,0,390,377.31Z" transform="translate(49.48 2.62)"/><path class="cls-37" d="M397.6,372.92v7.32a4.24,4.24,0,0,1-.06.71,1.6,1.6,0,0,1-.22.59,1.17,1.17,0,0,1-.44.4,1.5,1.5,0,0,1-.71.15h-0.56V381.4l0.22,0H396a0.61,0.61,0,0,0,.61-0.28,1.66,1.66,0,0,0,.13-0.7v-7.51h0.82Zm0-2.57v1.31h-0.82v-1.31h0.82Z" transform="translate(49.48 2.62)"/><path class="cls-37" d="M403.85,379.63v-1.21h0a2.32,2.32,0,0,1-.94,1,2.69,2.69,0,0,1-1.37.36,3,3,0,0,1-1.09-.17,1.81,1.81,0,0,1-.73-0.5,2,2,0,0,1-.41-0.79,4,4,0,0,1-.13-1.07v-4.36H400v4.37a2.18,2.18,0,0,0,.42,1.38,2.11,2.11,0,0,0,2.28.24,1.93,1.93,0,0,0,.62-0.6,2.71,2.71,0,0,0,.36-0.86,4.24,4.24,0,0,0,.12-1v-3.52h0.82v6.71h-0.75Z" transform="translate(49.48 2.62)"/><path class="cls-37" d="M410,374.23a1.34,1.34,0,0,0-.38-0.46,1.6,1.6,0,0,0-.55-0.27,2.56,2.56,0,0,0-.66-0.08,2.69,2.69,0,0,0-.55.06,1.71,1.71,0,0,0-.51.19,1.11,1.11,0,0,0-.38.36,1,1,0,0,0-.14.55,0.76,0.76,0,0,0,.14.46,1.2,1.2,0,0,0,.34.32,2.19,2.19,0,0,0,.46.21l0.46,0.14,1.09,0.25a3.11,3.11,0,0,1,.7.19,2.23,2.23,0,0,1,.61.36,1.75,1.75,0,0,1,.44.55,1.65,1.65,0,0,1,.17.77,1.68,1.68,0,0,1-.25.93,2,2,0,0,1-.63.62,2.68,2.68,0,0,1-.86.34,4.48,4.48,0,0,1-.95.1,3.08,3.08,0,0,1-1.92-.56,2.38,2.38,0,0,1-.84-1.79h0.82a1.62,1.62,0,0,0,.6,1.25,2.19,2.19,0,0,0,1.37.42,3.11,3.11,0,0,0,.62-0.06,2,2,0,0,0,.59-0.22,1.41,1.41,0,0,0,.45-0.4,1,1,0,0,0,.18-0.59,1,1,0,0,0-.12-0.5A1.08,1.08,0,0,0,410,377a2.11,2.11,0,0,0-.47-0.23l-0.54-.16-1.05-.23a5.81,5.81,0,0,1-.74-0.24,2.36,2.36,0,0,1-.59-0.34,1.42,1.42,0,0,1-.4-0.49,1.63,1.63,0,0,1-.14-0.72,1.61,1.61,0,0,1,.23-0.87,1.77,1.77,0,0,1,.59-0.58,2.75,2.75,0,0,1,.81-0.33,3.93,3.93,0,0,1,.89-0.1,3.31,3.31,0,0,1,.94.13,2.18,2.18,0,0,1,.77.4,2,2,0,0,1,.53.68,2.44,2.44,0,0,1,.22.95h-0.82A1.55,1.55,0,0,0,410,374.23Z" transform="translate(49.48 2.62)"/><path class="cls-37" d="M415.07,372.92v0.69h-1.36v4.52a1.47,1.47,0,0,0,.11.63,0.6,0.6,0,0,0,.55.25,6.26,6.26,0,0,0,.7,0v0.69h-0.73a1.21,1.21,0,0,1-1.46-1.5v-4.59h-1.17v-0.69h1.17v-2h0.82v2h1.36Z" transform="translate(49.48 2.62)"/><path class="cls-37" d="M416.86,377.41a2.53,2.53,0,0,0,.4.85,2.25,2.25,0,0,0,.69.62,1.92,1.92,0,0,0,1,.25,2,2,0,0,0,1.4-.47,2.47,2.47,0,0,0,.7-1.25h0.82a3.27,3.27,0,0,1-1,1.77,2.85,2.85,0,0,1-2,.62,3.12,3.12,0,0,1-1.37-.28,2.52,2.52,0,0,1-.94-0.77,3.33,3.33,0,0,1-.54-1.13,5.14,5.14,0,0,1-.18-1.36,4.87,4.87,0,0,1,.18-1.3,3.47,3.47,0,0,1,.54-1.14,2.71,2.71,0,0,1,.94-0.81,2.9,2.9,0,0,1,1.37-.31,2.65,2.65,0,0,1,2.31,1.18,3.53,3.53,0,0,1,.51,1.21,5.3,5.3,0,0,1,.13,1.38h-5.16A3.64,3.64,0,0,0,416.86,377.41Zm4.06-2.5a2.45,2.45,0,0,0-.42-0.76,2.1,2.1,0,0,0-.66-0.53,1.9,1.9,0,0,0-.88-0.2,1.93,1.93,0,0,0-.9.2,2.1,2.1,0,0,0-.66.53,2.65,2.65,0,0,0-.44.77,3.75,3.75,0,0,0-.21.89h4.34A3,3,0,0,0,420.92,374.91Z" transform="translate(49.48 2.62)"/><path class="cls-37" d="M428.15,379.63v-1.27h0a1.93,1.93,0,0,1-.38.6,2.48,2.48,0,0,1-.58.46,3,3,0,0,1-.7.29,2.71,2.71,0,0,1-.73.1,3,3,0,0,1-1.33-.28,2.67,2.67,0,0,1-.94-0.77,3.3,3.3,0,0,1-.56-1.13,5.17,5.17,0,0,1,0-2.72,3.3,3.3,0,0,1,.56-1.13,2.74,2.74,0,0,1,.94-0.77,2.92,2.92,0,0,1,1.33-.29,3,3,0,0,1,.73.09,2.45,2.45,0,0,1,.67.28,2.34,2.34,0,0,1,.55.46,1.93,1.93,0,0,1,.37.64h0v-3.85h0.82v9.28h-0.75Zm-4.49-2.32a2.85,2.85,0,0,0,.39.92,2.14,2.14,0,0,0,.68.66,1.89,1.89,0,0,0,1,.25,2.2,2.2,0,0,0,1.1-.25,2.17,2.17,0,0,0,.73-0.66,2.69,2.69,0,0,0,.4-0.92,4.39,4.39,0,0,0,0-2.07,2.69,2.69,0,0,0-.4-0.92,2.1,2.1,0,0,0-1.83-.91,1.89,1.89,0,0,0-1,.25,2.16,2.16,0,0,0-.68.66,2.85,2.85,0,0,0-.39.92A4.39,4.39,0,0,0,423.66,377.31Z" transform="translate(49.48 2.62)"/><path class="cls-37" d="M435.12,370.35v4h5.51v-4h0.88v9.28h-0.88v-4.5h-5.51v4.5h-0.88v-9.28h0.88Z" transform="translate(49.48 2.62)"/><path class="cls-37" d="M447.64,370.35a4,4,0,0,1,1.09.14,2.61,2.61,0,0,1,.9.44,2.09,2.09,0,0,1,.61.75,2.42,2.42,0,0,1,.23,1.08,2.61,2.61,0,0,1-.45,1.53,2.08,2.08,0,0,1-1.35.83v0a2.05,2.05,0,0,1,.75.24,1.52,1.52,0,0,1,.49.45,1.85,1.85,0,0,1,.27.63,4.61,4.61,0,0,1,.11.77q0,0.23,0,.57c0,0.23,0,.45.05,0.68a4.26,4.26,0,0,0,.12.65,1.24,1.24,0,0,0,.23.47h-1a1.13,1.13,0,0,1-.12-0.32,2.79,2.79,0,0,1-.07-0.39c0-.13,0-0.27,0-0.4s0-.24,0-0.34q0-.49-0.08-1a2.7,2.7,0,0,0-.25-0.87,1.54,1.54,0,0,0-.55-0.62,1.64,1.64,0,0,0-1-.21h-3.35v4.12h-0.88v-9.28h4.25Zm-0.06,4.41a2.38,2.38,0,0,0,.77-0.12,1.92,1.92,0,0,0,.64-0.36,1.73,1.73,0,0,0,.44-0.57,1.7,1.7,0,0,0,.16-0.76,1.83,1.83,0,0,0-.49-1.35,2.05,2.05,0,0,0-1.51-.49h-3.3v3.65h3.3Z" transform="translate(49.48 2.62)"/><path class="cls-37" d="M456.46,380.68a10.85,10.85,0,0,1-.58-1.42,9.68,9.68,0,0,1-.36-1.48,10.07,10.07,0,0,1-.12-1.62,10.24,10.24,0,0,1,.49-3.18,12.26,12.26,0,0,1,1.35-2.84h0.65a10.44,10.44,0,0,0-1.27,3,13.69,13.69,0,0,0-.4,3.33,9.24,9.24,0,0,0,.12,1.44,11.09,11.09,0,0,0,.34,1.48,12.16,12.16,0,0,0,.53,1.42,10,10,0,0,0,.68,1.29h-0.65Q456.8,381.38,456.46,380.68Z" transform="translate(49.48 2.62)"/><path class="cls-37" d="M460,378.67a1.82,1.82,0,0,0,1.29.47,2,2,0,0,0,1.29-.4,2.75,2.75,0,0,0,.76-1,4.66,4.66,0,0,0,.36-1.32,10.52,10.52,0,0,0,.09-1.33h0a2.7,2.7,0,0,1-2.42,1.51,3.25,3.25,0,0,1-1.23-.23,2.73,2.73,0,0,1-.95-0.63,2.8,2.8,0,0,1-.6-1,3.38,3.38,0,0,1-.21-1.22,3.26,3.26,0,0,1,.23-1.23,2.89,2.89,0,0,1,.64-1,3,3,0,0,1,1-.64,3.23,3.23,0,0,1,1.24-.23,3.66,3.66,0,0,1,1.43.25,2.23,2.23,0,0,1,1,.83,4.17,4.17,0,0,1,.58,1.5,11.46,11.46,0,0,1,.19,2.25q0,0.27,0,.71a6.07,6.07,0,0,1-.15.94,6.35,6.35,0,0,1-.33,1,3.37,3.37,0,0,1-.57.92,2.79,2.79,0,0,1-.89.67,2.87,2.87,0,0,1-1.27.26,3,3,0,0,1-1.94-.58,2.58,2.58,0,0,1-.86-1.79h0.82A2,2,0,0,0,460,378.67Zm2.33-3a2.09,2.09,0,0,0,.71-0.51,2.17,2.17,0,0,0,.44-0.76,2.89,2.89,0,0,0,.15-0.94,3.09,3.09,0,0,0-.13-0.92,2,2,0,0,0-.41-0.74,1.93,1.93,0,0,0-.71-0.5,2.61,2.61,0,0,0-1-.18,2.07,2.07,0,0,0-.88.19,2.18,2.18,0,0,0-1.14,1.25,2.6,2.6,0,0,0-.16.9,2.89,2.89,0,0,0,.15.94,2.27,2.27,0,0,0,.43.77,2,2,0,0,0,.69.51,2.19,2.19,0,0,0,.93.19A2.32,2.32,0,0,0,462.28,375.7Z" transform="translate(49.48 2.62)"/><path class="cls-37" d="M466.57,377.89a2,2,0,0,0,1.18,1.1,2.49,2.49,0,0,0,.87.15,2.15,2.15,0,0,0,.95-0.2,2.23,2.23,0,0,0,.71-0.55,2.4,2.4,0,0,0,.46-0.79,2.85,2.85,0,0,0,.16-0.94,2.45,2.45,0,0,0-.18-0.94,2.35,2.35,0,0,0-.48-0.75,2.19,2.19,0,0,0-.73-0.5,2.38,2.38,0,0,0-.94-0.18,2.45,2.45,0,0,0-1.16.28,2.3,2.3,0,0,0-.87.8h-0.7l0.88-4.72h4.55v0.75h-4l-0.58,3,0,0a2.24,2.24,0,0,1,.86-0.62,2.7,2.7,0,0,1,1.07-.22,3.28,3.28,0,0,1,1.27.23,2.79,2.79,0,0,1,1,.65,2.88,2.88,0,0,1,.61,1,3.62,3.62,0,0,1,.21,1.27,3,3,0,0,1-.25,1.23,3,3,0,0,1-.68,1,3.05,3.05,0,0,1-1,.64,3.31,3.31,0,0,1-1.23.23,3.53,3.53,0,0,1-1.18-.19,2.71,2.71,0,0,1-.94-0.55,2.6,2.6,0,0,1-.63-0.88,3,3,0,0,1-.25-1.17h0.82A2.21,2.21,0,0,0,466.57,377.89Z" transform="translate(49.48 2.62)"/><path class="cls-37" d="M476.23,370.64a1.7,1.7,0,0,1,.64.52,2.25,2.25,0,0,1,.36.78,4.08,4.08,0,0,1,0,1.94,2.23,2.23,0,0,1-.36.78,1.7,1.7,0,0,1-.64.52,2.45,2.45,0,0,1-1.89,0,1.7,1.7,0,0,1-.64-0.52,2.22,2.22,0,0,1-.36-0.78,4.06,4.06,0,0,1,0-1.94,2.24,2.24,0,0,1,.36-0.78,1.69,1.69,0,0,1,.64-0.52A2.45,2.45,0,0,1,476.23,370.64Zm-1.62.57a1.3,1.3,0,0,0-.42.46,1.94,1.94,0,0,0-.21.61,3.69,3.69,0,0,0-.06.64,3.58,3.58,0,0,0,.06.64,1.87,1.87,0,0,0,.21.6,1.31,1.31,0,0,0,.42.45,1.21,1.21,0,0,0,.68.18,1.19,1.19,0,0,0,.67-0.18,1.31,1.31,0,0,0,.42-0.45,2,2,0,0,0,.22-0.6,3.22,3.22,0,0,0,.06-0.64,3.33,3.33,0,0,0-.06-0.64,2.07,2.07,0,0,0-.22-0.61,1.3,1.3,0,0,0-.42-0.46,1.2,1.2,0,0,0-.67-0.17A1.22,1.22,0,0,0,474.61,371.21Zm6.69-1-5.88,9.85h-0.62l5.89-9.85h0.61Zm0.64,4.89a1.7,1.7,0,0,1,.64.52,2.26,2.26,0,0,1,.36.78,4.09,4.09,0,0,1,0,1.94,2.24,2.24,0,0,1-.36.78,1.64,1.64,0,0,1-.64.51,2.54,2.54,0,0,1-1.89,0,1.64,1.64,0,0,1-.64-0.51,2.22,2.22,0,0,1-.36-0.78,4.06,4.06,0,0,1,0-1.94,2.24,2.24,0,0,1,.36-0.78,1.69,1.69,0,0,1,.64-0.52A2.45,2.45,0,0,1,481.94,375.1Zm-1.63.57a1.3,1.3,0,0,0-.42.46,1.94,1.94,0,0,0-.21.61,3.69,3.69,0,0,0-.06.64,3.58,3.58,0,0,0,.06.64,1.87,1.87,0,0,0,.21.6,1.31,1.31,0,0,0,.42.45,1.22,1.22,0,0,0,.68.18,1.19,1.19,0,0,0,.67-0.18,1.31,1.31,0,0,0,.42-0.45,2,2,0,0,0,.22-0.6,3.19,3.19,0,0,0,.07-0.64,3.29,3.29,0,0,0-.07-0.64,2,2,0,0,0-.22-0.61,1.29,1.29,0,0,0-.42-0.46,1.2,1.2,0,0,0-.67-0.17A1.23,1.23,0,0,0,480.31,375.67Z" transform="translate(49.48 2.62)"/><path class="cls-37" d="M494.83,372.2a2.61,2.61,0,0,0-.65-0.71,2.9,2.9,0,0,0-.84-0.44,3.12,3.12,0,0,0-1-.15,3.34,3.34,0,0,0-1.59.35,3.14,3.14,0,0,0-1.09.93,4,4,0,0,0-.62,1.31,5.63,5.63,0,0,0,0,3,4,4,0,0,0,.62,1.31,3.13,3.13,0,0,0,1.09.93,3.34,3.34,0,0,0,1.59.35,2.82,2.82,0,0,0,1.17-.23,2.79,2.79,0,0,0,.9-0.64,3.27,3.27,0,0,0,.61-0.94,3.92,3.92,0,0,0,.3-1.16h0.88a5,5,0,0,1-.4,1.55,3.79,3.79,0,0,1-.8,1.17,3.43,3.43,0,0,1-1.16.74,4.07,4.07,0,0,1-1.49.26,4.38,4.38,0,0,1-1.92-.4,4,4,0,0,1-1.37-1.06,4.51,4.51,0,0,1-.82-1.53,6.3,6.3,0,0,1,0-3.67,4.58,4.58,0,0,1,.82-1.54,3.94,3.94,0,0,1,1.37-1.07,4.65,4.65,0,0,1,3.21-.2,3.75,3.75,0,0,1,1.14.58,3.37,3.37,0,0,1,.86.94,3.15,3.15,0,0,1,.44,1.29h-0.88A3,3,0,0,0,494.83,372.2Z" transform="translate(49.48 2.62)"/><path class="cls-37" d="M498.53,370.35v9.28h-0.88v-9.28h0.88Z" transform="translate(49.48 2.62)"/><path class="cls-37" d="M500.94,371.57a10.84,10.84,0,0,1,.58,1.42,10.4,10.4,0,0,1,0,6.27,12.29,12.29,0,0,1-1.35,2.83h-0.64a10.68,10.68,0,0,0,1.25-3,13.63,13.63,0,0,0,.4-3.32,8.88,8.88,0,0,0-.12-1.46,11.32,11.32,0,0,0-.34-1.46,12.55,12.55,0,0,0-.53-1.41q-0.3-.69-0.66-1.31h0.64Q500.6,370.87,500.94,371.57Z" transform="translate(49.48 2.62)"/><path class="cls-37" d="M81.62,68.59a2.9,2.9,0,0,1,.21-1.09,3.17,3.17,0,0,1,.53-0.85A5,5,0,0,1,83.1,66q0.41-.31.85-0.6l0.87-.59a5.74,5.74,0,0,0,.77-0.64,2.56,2.56,0,0,0,.51-0.7,2,2,0,0,0,.17-0.86,1.66,1.66,0,0,0-.15-0.71,1.59,1.59,0,0,0-.4-0.53A1.74,1.74,0,0,0,85.14,61a2.24,2.24,0,0,0-.71-0.11,1.85,1.85,0,0,0-.87.19,1.62,1.62,0,0,0-.58.51,2.12,2.12,0,0,0-.32.73,3.31,3.31,0,0,0-.09.87H81.82A3.87,3.87,0,0,1,82,62a2.52,2.52,0,0,1,.49-0.93,2.25,2.25,0,0,1,.83-0.61,2.92,2.92,0,0,1,1.17-.22,3.34,3.34,0,0,1,1,.15,2.39,2.39,0,0,1,.81.44,2,2,0,0,1,.54.73,2.47,2.47,0,0,1,.19,1,2.51,2.51,0,0,1-.17.94,3,3,0,0,1-.46.78,4.53,4.53,0,0,1-.66.65,8.14,8.14,0,0,1-.79.56l-0.7.44a7.41,7.41,0,0,0-.77.54,4.22,4.22,0,0,0-.66.64,1.63,1.63,0,0,0-.35.76h4.59v0.68H81.62Z" transform="translate(49.48 2.62)"/><path class="cls-37" d="M89.1,67a1.85,1.85,0,0,0,1.07,1,2.25,2.25,0,0,0,.79.14A2,2,0,0,0,91.82,68a2,2,0,0,0,.65-0.5,2.18,2.18,0,0,0,.41-0.72A2.59,2.59,0,0,0,93,65.89,2.22,2.22,0,0,0,92.86,65a2.14,2.14,0,0,0-.44-0.68,2,2,0,0,0-.67-0.45,2.15,2.15,0,0,0-.85-0.17,2.23,2.23,0,0,0-1.05.25,2.09,2.09,0,0,0-.79.73H88.43l0.8-4.28h4.13v0.68H89.75l-0.53,2.74,0,0A2,2,0,0,1,90,63.31a2.45,2.45,0,0,1,1-.2,3,3,0,0,1,1.15.21,2.52,2.52,0,0,1,.87.59,2.61,2.61,0,0,1,.55.9A3.29,3.29,0,0,1,93.76,66a2.76,2.76,0,0,1-.22,1.12,2.71,2.71,0,0,1-.61.89,2.78,2.78,0,0,1-.91.58,3,3,0,0,1-1.12.21,3.22,3.22,0,0,1-1.07-.17,2.47,2.47,0,0,1-.85-0.5,2.36,2.36,0,0,1-.57-0.8,2.69,2.69,0,0,1-.22-1.06h0.74A2,2,0,0,0,89.1,67Z" transform="translate(49.48 2.62)"/><path class="cls-37" d="M82.44,85a1.85,1.85,0,0,0,.4.68,1.83,1.83,0,0,0,.66.44,2.36,2.36,0,0,0,.89.16,2.64,2.64,0,0,0,.79-0.12,2,2,0,0,0,.67-0.35,1.78,1.78,0,0,0,.47-0.58,1.67,1.67,0,0,0,.18-0.78,1.8,1.8,0,0,0-.15-0.77,1.53,1.53,0,0,0-.42-0.54,1.82,1.82,0,0,0-.63-0.32,2.72,2.72,0,0,0-.77-0.11H83.9V82.13h0.63A2.06,2.06,0,0,0,85.11,82a1.68,1.68,0,0,0,.54-0.27A1.43,1.43,0,0,0,86,81.3a1.4,1.4,0,0,0,.15-0.67,1.59,1.59,0,0,0-.14-0.7,1.38,1.38,0,0,0-.39-0.48,1.58,1.58,0,0,0-.57-0.28,2.66,2.66,0,0,0-.7-0.09,2,2,0,0,0-.81.15,1.65,1.65,0,0,0-.6.43,1.8,1.8,0,0,0-.36.66,2.62,2.62,0,0,0-.11.84H81.77A3.11,3.11,0,0,1,82,80.07a2.52,2.52,0,0,1,.52-0.86,2.39,2.39,0,0,1,.82-0.57,2.74,2.74,0,0,1,1.09-.21,3.62,3.62,0,0,1,.94.12,2.58,2.58,0,0,1,.82.38,2,2,0,0,1,.44,2.77,1.74,1.74,0,0,1-1,.66v0a1.94,1.94,0,0,1,1.26.68,2.1,2.1,0,0,1,.44,1.36A2.41,2.41,0,0,1,87,85.52a2.33,2.33,0,0,1-.62.79,2.64,2.64,0,0,1-.91.48,3.67,3.67,0,0,1-1.09.16,3.53,3.53,0,0,1-1.17-.19,2.63,2.63,0,0,1-.92-0.54,2.24,2.24,0,0,1-.58-0.87,2.81,2.81,0,0,1-.15-1.19h0.74A2.42,2.42,0,0,0,82.44,85Z" transform="translate(49.48 2.62)"/><path class="cls-37" d="M92.51,78.84a2.74,2.74,0,0,1,.87,1,4.43,4.43,0,0,1,.42,1.37,9.83,9.83,0,0,1,0,3,4.43,4.43,0,0,1-.42,1.37,2.69,2.69,0,0,1-.87,1,3,3,0,0,1-2.93,0,2.67,2.67,0,0,1-.88-1,4.43,4.43,0,0,1-.42-1.37,9.83,9.83,0,0,1,0-3,4.43,4.43,0,0,1,.42-1.37,2.72,2.72,0,0,1,.88-1A2.92,2.92,0,0,1,92.51,78.84Zm-2.6.6a2.32,2.32,0,0,0-.64.91A4.48,4.48,0,0,0,89,81.53a9.73,9.73,0,0,0,0,2.34A4.56,4.56,0,0,0,89.26,85a2.31,2.31,0,0,0,.64.92,1.94,1.94,0,0,0,2.27,0A2.32,2.32,0,0,0,92.81,85a4.56,4.56,0,0,0,.29-1.18,9.73,9.73,0,0,0,0-2.34,4.48,4.48,0,0,0-.29-1.18,2.33,2.33,0,0,0-.64-0.91A1.94,1.94,0,0,0,89.9,79.44Z" transform="translate(49.48 2.62)"/><path class="cls-37" d="M82.44,103.23a1.85,1.85,0,0,0,.4.68,1.83,1.83,0,0,0,.66.44,2.36,2.36,0,0,0,.89.16,2.64,2.64,0,0,0,.79-0.12,2,2,0,0,0,.67-0.35,1.78,1.78,0,0,0,.47-0.58,1.67,1.67,0,0,0,.18-0.78,1.8,1.8,0,0,0-.15-0.77,1.53,1.53,0,0,0-.42-0.54,1.82,1.82,0,0,0-.63-0.32,2.72,2.72,0,0,0-.77-0.11H83.9v-0.63h0.63a2.06,2.06,0,0,0,.58-0.09,1.68,1.68,0,0,0,.54-0.27,1.43,1.43,0,0,0,.4-0.47,1.4,1.4,0,0,0,.15-0.67,1.59,1.59,0,0,0-.14-0.7,1.38,1.38,0,0,0-.39-0.48,1.58,1.58,0,0,0-.57-0.28,2.66,2.66,0,0,0-.7-0.09,2,2,0,0,0-.81.15,1.65,1.65,0,0,0-.6.43,1.8,1.8,0,0,0-.36.66,2.62,2.62,0,0,0-.11.84H81.77A3.11,3.11,0,0,1,82,98.26a2.52,2.52,0,0,1,.52-0.86,2.39,2.39,0,0,1,.82-0.57,2.74,2.74,0,0,1,1.09-.21,3.62,3.62,0,0,1,.94.12,2.58,2.58,0,0,1,.82.38,2,2,0,0,1,.44,2.77,1.74,1.74,0,0,1-1,.66v0a1.94,1.94,0,0,1,1.26.68,2.1,2.1,0,0,1,.44,1.36,2.41,2.41,0,0,1-.23,1.08,2.33,2.33,0,0,1-.62.79,2.64,2.64,0,0,1-.91.48,3.67,3.67,0,0,1-1.09.16,3.53,3.53,0,0,1-1.17-.19,2.63,2.63,0,0,1-.92-0.54,2.24,2.24,0,0,1-.58-0.87,2.81,2.81,0,0,1-.15-1.19h0.74A2.42,2.42,0,0,0,82.44,103.23Z" transform="translate(49.48 2.62)"/><path class="cls-37" d="M89.1,103.39a1.85,1.85,0,0,0,1.07,1,2.25,2.25,0,0,0,.79.14,2,2,0,0,0,.86-0.18,2,2,0,0,0,.65-0.5,2.18,2.18,0,0,0,.41-0.72,2.59,2.59,0,0,0,.14-0.86,2.22,2.22,0,0,0-.16-0.85,2.14,2.14,0,0,0-.44-0.68,2,2,0,0,0-.67-0.45,2.15,2.15,0,0,0-.85-0.17,2.23,2.23,0,0,0-1.05.25,2.09,2.09,0,0,0-.79.73H88.43l0.8-4.28h4.13V97.5H89.75l-0.53,2.74,0,0A2,2,0,0,1,90,99.69a2.45,2.45,0,0,1,1-.2,3,3,0,0,1,1.15.21,2.52,2.52,0,0,1,.87.59,2.61,2.61,0,0,1,.55.9,3.29,3.29,0,0,1,.19,1.15,2.76,2.76,0,0,1-.22,1.12,2.71,2.71,0,0,1-.61.89,2.78,2.78,0,0,1-.91.58,3,3,0,0,1-1.12.21,3.22,3.22,0,0,1-1.07-.17,2.47,2.47,0,0,1-.85-0.5,2.36,2.36,0,0,1-.57-0.8,2.69,2.69,0,0,1-.22-1.06h0.74A2,2,0,0,0,89.1,103.39Z" transform="translate(49.48 2.62)"/><path class="cls-37" d="M85.37,114.9H86v5.58h1.24v0.63H86v2.05H85.36V121.1H81.55v-0.72Zm0,1.09h0l-3.12,4.5h3.14V116Z" transform="translate(49.48 2.62)"/><path class="cls-37" d="M92.51,115.22a2.74,2.74,0,0,1,.87,1,4.43,4.43,0,0,1,.42,1.37,9.83,9.83,0,0,1,0,3,4.42,4.42,0,0,1-.42,1.37,2.69,2.69,0,0,1-.87,1,3,3,0,0,1-2.93,0,2.67,2.67,0,0,1-.88-1,4.42,4.42,0,0,1-.42-1.37,9.83,9.83,0,0,1,0-3,4.43,4.43,0,0,1,.42-1.37,2.72,2.72,0,0,1,.88-1A2.92,2.92,0,0,1,92.51,115.22Zm-2.6.6a2.32,2.32,0,0,0-.64.91,4.48,4.48,0,0,0-.29,1.18,9.73,9.73,0,0,0,0,2.34,4.55,4.55,0,0,0,.29,1.18,2.32,2.32,0,0,0,.64.92,1.94,1.94,0,0,0,2.27,0,2.32,2.32,0,0,0,.64-0.92,4.55,4.55,0,0,0,.29-1.18,9.73,9.73,0,0,0,0-2.34,4.48,4.48,0,0,0-.29-1.18,2.33,2.33,0,0,0-.64-0.91A1.94,1.94,0,0,0,89.9,115.82Z" transform="translate(49.48 2.62)"/><path class="cls-37" d="M85.37,133.09H86v5.58h1.24v0.63H86v2.05H85.36v-2.05H81.55v-0.72Zm0,1.09h0l-3.12,4.5h3.14v-4.5Z" transform="translate(49.48 2.62)"/><path class="cls-37" d="M89.1,139.77a1.86,1.86,0,0,0,.43.61,1.89,1.89,0,0,0,.64.39,2.27,2.27,0,0,0,.79.14,2,2,0,0,0,.86-0.18,2,2,0,0,0,.65-0.5,2.19,2.19,0,0,0,.41-0.72,2.59,2.59,0,0,0,.14-0.86,2.22,2.22,0,0,0-.16-0.85,2.14,2.14,0,0,0-.44-0.68,2,2,0,0,0-.67-0.46,2.17,2.17,0,0,0-.85-0.17,2.23,2.23,0,0,0-1.05.25,2.09,2.09,0,0,0-.79.73H88.43l0.8-4.28h4.13v0.68H89.75l-0.53,2.74,0,0a2,2,0,0,1,.78-0.57,2.45,2.45,0,0,1,1-.2,3,3,0,0,1,1.15.21,2.52,2.52,0,0,1,.87.59,2.6,2.6,0,0,1,.55.9,3.29,3.29,0,0,1,.19,1.15,2.76,2.76,0,0,1-.22,1.12,2.7,2.7,0,0,1-.61.88,2.79,2.79,0,0,1-.91.58,3,3,0,0,1-1.12.21,3.21,3.21,0,0,1-1.07-.17,2.46,2.46,0,0,1-.85-0.5,2.35,2.35,0,0,1-.57-0.8,2.68,2.68,0,0,1-.22-1.06h0.74A2,2,0,0,0,89.1,139.77Z" transform="translate(49.48 2.62)"/><path class="cls-37" d="M82.53,158a1.86,1.86,0,0,0,.43.61,1.89,1.89,0,0,0,.64.39,2.27,2.27,0,0,0,.79.14,2,2,0,0,0,.86-0.18,2,2,0,0,0,.65-0.5,2.19,2.19,0,0,0,.41-0.72,2.59,2.59,0,0,0,.14-0.86A2.22,2.22,0,0,0,86.3,156a2.14,2.14,0,0,0-.44-0.68,2,2,0,0,0-.67-0.46,2.17,2.17,0,0,0-.85-0.17,2.23,2.23,0,0,0-1.05.25,2.09,2.09,0,0,0-.79.73H81.87l0.8-4.28H86.8v0.68H83.19l-0.53,2.74,0,0a2,2,0,0,1,.78-0.57,2.45,2.45,0,0,1,1-.2,3,3,0,0,1,1.15.21,2.52,2.52,0,0,1,.87.59,2.6,2.6,0,0,1,.55.9,3.29,3.29,0,0,1,.19,1.15A2.76,2.76,0,0,1,87,158a2.7,2.7,0,0,1-.61.88,2.79,2.79,0,0,1-.91.58,3,3,0,0,1-1.12.21,3.21,3.21,0,0,1-1.07-.17,2.46,2.46,0,0,1-.85-0.5,2.35,2.35,0,0,1-.57-0.8,2.68,2.68,0,0,1-.22-1.06h0.74A2,2,0,0,0,82.53,158Z" transform="translate(49.48 2.62)"/><path class="cls-37" d="M92.51,151.6a2.75,2.75,0,0,1,.87,1,4.42,4.42,0,0,1,.42,1.37,9.83,9.83,0,0,1,0,3,4.42,4.42,0,0,1-.42,1.37,2.69,2.69,0,0,1-.87,1,3,3,0,0,1-2.93,0,2.67,2.67,0,0,1-.88-1,4.42,4.42,0,0,1-.42-1.37,9.83,9.83,0,0,1,0-3,4.42,4.42,0,0,1,.42-1.37,2.73,2.73,0,0,1,.88-1A2.92,2.92,0,0,1,92.51,151.6Zm-2.6.6a2.32,2.32,0,0,0-.64.91,4.47,4.47,0,0,0-.29,1.18,9.73,9.73,0,0,0,0,2.34,4.55,4.55,0,0,0,.29,1.18,2.32,2.32,0,0,0,.64.92,1.94,1.94,0,0,0,2.27,0,2.32,2.32,0,0,0,.64-0.92,4.55,4.55,0,0,0,.29-1.18,9.73,9.73,0,0,0,0-2.34,4.47,4.47,0,0,0-.29-1.18,2.33,2.33,0,0,0-.64-0.91A1.94,1.94,0,0,0,89.9,152.2Z" transform="translate(49.48 2.62)"/><path class="cls-37" d="M82.53,176.15a1.86,1.86,0,0,0,.43.61,1.89,1.89,0,0,0,.64.39,2.27,2.27,0,0,0,.79.14,2,2,0,0,0,.86-0.18,2,2,0,0,0,.65-0.5,2.19,2.19,0,0,0,.41-0.72,2.59,2.59,0,0,0,.14-0.86,2.22,2.22,0,0,0-.16-0.85,2.14,2.14,0,0,0-.44-0.68,2,2,0,0,0-.67-0.46,2.17,2.17,0,0,0-.85-0.17,2.23,2.23,0,0,0-1.05.25,2.09,2.09,0,0,0-.79.73H81.87l0.8-4.28H86.8v0.68H83.19L82.66,173l0,0a2,2,0,0,1,.78-0.57,2.45,2.45,0,0,1,1-.2,3,3,0,0,1,1.15.21,2.52,2.52,0,0,1,.87.59,2.6,2.6,0,0,1,.55.9,3.29,3.29,0,0,1,.19,1.15,2.76,2.76,0,0,1-.22,1.12,2.7,2.7,0,0,1-.61.88,2.79,2.79,0,0,1-.91.58,3,3,0,0,1-1.12.21,3.21,3.21,0,0,1-1.07-.17,2.46,2.46,0,0,1-.85-0.5,2.35,2.35,0,0,1-.57-0.8,2.68,2.68,0,0,1-.22-1.06h0.74A2,2,0,0,0,82.53,176.15Z" transform="translate(49.48 2.62)"/><path class="cls-37" d="M89.1,176.15a1.86,1.86,0,0,0,.43.61,1.89,1.89,0,0,0,.64.39,2.27,2.27,0,0,0,.79.14,2,2,0,0,0,.86-0.18,2,2,0,0,0,.65-0.5,2.19,2.19,0,0,0,.41-0.72A2.59,2.59,0,0,0,93,175a2.22,2.22,0,0,0-.16-0.85,2.14,2.14,0,0,0-.44-0.68,2,2,0,0,0-.67-0.46,2.17,2.17,0,0,0-.85-0.17,2.23,2.23,0,0,0-1.05.25,2.09,2.09,0,0,0-.79.73H88.43l0.8-4.28h4.13v0.68H89.75L89.22,173l0,0a2,2,0,0,1,.78-0.57,2.45,2.45,0,0,1,1-.2,3,3,0,0,1,1.15.21,2.52,2.52,0,0,1,.87.59,2.6,2.6,0,0,1,.55.9,3.29,3.29,0,0,1,.19,1.15,2.76,2.76,0,0,1-.22,1.12,2.7,2.7,0,0,1-.61.88,2.79,2.79,0,0,1-.91.58,3,3,0,0,1-1.12.21,3.21,3.21,0,0,1-1.07-.17,2.46,2.46,0,0,1-.85-0.5,2.35,2.35,0,0,1-.57-0.8,2.68,2.68,0,0,1-.22-1.06h0.74A2,2,0,0,0,89.1,176.15Z" transform="translate(49.48 2.62)"/><path class="cls-37" d="M85.86,188.63a1.65,1.65,0,0,0-1.17-.42,1.79,1.79,0,0,0-1.17.37,2.47,2.47,0,0,0-.7.92,4.25,4.25,0,0,0-.33,1.2,9.53,9.53,0,0,0-.08,1.21h0a2.45,2.45,0,0,1,2.2-1.37,2.94,2.94,0,0,1,1.13.21,2.5,2.5,0,0,1,.86.57,2.56,2.56,0,0,1,.55.87,3.08,3.08,0,0,1,.19,1.11,3,3,0,0,1-.21,1.12,2.58,2.58,0,0,1-1.46,1.46,3,3,0,0,1-1.13.21,3.32,3.32,0,0,1-1.3-.23,2,2,0,0,1-.9-0.75,3.73,3.73,0,0,1-.53-1.35,10.4,10.4,0,0,1-.17-2q0-.25,0-0.65a5.54,5.54,0,0,1,.14-0.86,5.83,5.83,0,0,1,.3-0.92,3.14,3.14,0,0,1,.52-0.84,2.49,2.49,0,0,1,.81-0.61,2.62,2.62,0,0,1,1.16-.24,2.7,2.7,0,0,1,1.76.53,2.36,2.36,0,0,1,.78,1.63H86.41A1.8,1.8,0,0,0,85.86,188.63Zm-2.11,2.7a1.9,1.9,0,0,0-.65.47,2,2,0,0,0-.4.69,2.62,2.62,0,0,0-.14.86,2.84,2.84,0,0,0,.12.83,1.81,1.81,0,0,0,.37.68,1.73,1.73,0,0,0,.64.45,2.38,2.38,0,0,0,.93.17,1.86,1.86,0,0,0,.81-0.17,2,2,0,0,0,1-1.14,2.37,2.37,0,0,0,.14-0.81,2.64,2.64,0,0,0-.14-0.85,2.07,2.07,0,0,0-.39-0.7,1.81,1.81,0,0,0-.63-0.47,2,2,0,0,0-.84-0.17A2.1,2.1,0,0,0,83.75,191.33Z" transform="translate(49.48 2.62)"/><path class="cls-37" d="M92.51,188a2.75,2.75,0,0,1,.87,1,4.42,4.42,0,0,1,.42,1.37,9.83,9.83,0,0,1,0,3,4.42,4.42,0,0,1-.42,1.37,2.69,2.69,0,0,1-.87,1,3,3,0,0,1-2.93,0,2.67,2.67,0,0,1-.88-1,4.42,4.42,0,0,1-.42-1.37,9.83,9.83,0,0,1,0-3,4.42,4.42,0,0,1,.42-1.37,2.73,2.73,0,0,1,.88-1A2.92,2.92,0,0,1,92.51,188Zm-2.6.6a2.32,2.32,0,0,0-.64.91,4.47,4.47,0,0,0-.29,1.18A9.73,9.73,0,0,0,89,193a4.55,4.55,0,0,0,.29,1.18,2.32,2.32,0,0,0,.64.92,1.94,1.94,0,0,0,2.27,0,2.32,2.32,0,0,0,.64-0.92A4.55,4.55,0,0,0,93.1,193a9.73,9.73,0,0,0,0-2.34,4.47,4.47,0,0,0-.29-1.18,2.33,2.33,0,0,0-.64-0.91A1.94,1.94,0,0,0,89.9,188.57Z" transform="translate(49.48 2.62)"/><path class="cls-37" d="M85.86,206.82a1.65,1.65,0,0,0-1.17-.42,1.79,1.79,0,0,0-1.17.37,2.47,2.47,0,0,0-.7.92,4.25,4.25,0,0,0-.33,1.2,9.53,9.53,0,0,0-.08,1.21h0a2.45,2.45,0,0,1,2.2-1.37,2.94,2.94,0,0,1,1.13.21,2.5,2.5,0,0,1,.86.57,2.56,2.56,0,0,1,.55.87,3.08,3.08,0,0,1,.19,1.11,3,3,0,0,1-.21,1.12,2.58,2.58,0,0,1-1.46,1.46,3,3,0,0,1-1.13.21,3.32,3.32,0,0,1-1.3-.23,2,2,0,0,1-.9-0.75,3.73,3.73,0,0,1-.53-1.35,10.4,10.4,0,0,1-.17-2q0-.25,0-0.65a5.54,5.54,0,0,1,.14-0.86,5.83,5.83,0,0,1,.3-0.92,3.14,3.14,0,0,1,.52-0.84,2.49,2.49,0,0,1,.81-0.61,2.62,2.62,0,0,1,1.16-.24,2.7,2.7,0,0,1,1.76.53,2.36,2.36,0,0,1,.78,1.63H86.41A1.8,1.8,0,0,0,85.86,206.82Zm-2.11,2.7a1.9,1.9,0,0,0-.65.47,2,2,0,0,0-.4.69,2.62,2.62,0,0,0-.14.86,2.84,2.84,0,0,0,.12.83,1.81,1.81,0,0,0,.37.68,1.73,1.73,0,0,0,.64.45,2.38,2.38,0,0,0,.93.17,1.86,1.86,0,0,0,.81-0.17,2,2,0,0,0,1-1.14,2.37,2.37,0,0,0,.14-0.81,2.64,2.64,0,0,0-.14-0.85,2.07,2.07,0,0,0-.39-0.7,1.81,1.81,0,0,0-.63-0.47,2,2,0,0,0-.84-0.17A2.1,2.1,0,0,0,83.75,209.52Z" transform="translate(49.48 2.62)"/><path class="cls-37" d="M89.1,212.52a1.86,1.86,0,0,0,.43.61,1.89,1.89,0,0,0,.64.39,2.27,2.27,0,0,0,.79.14,2,2,0,0,0,.86-0.18,2,2,0,0,0,.65-0.5,2.19,2.19,0,0,0,.41-0.72A2.59,2.59,0,0,0,93,211.4a2.22,2.22,0,0,0-.16-0.85,2.14,2.14,0,0,0-.44-0.68,2,2,0,0,0-.67-0.46,2.17,2.17,0,0,0-.85-0.17,2.23,2.23,0,0,0-1.05.25,2.09,2.09,0,0,0-.79.73H88.43l0.8-4.28h4.13v0.68H89.75l-0.53,2.74,0,0a2,2,0,0,1,.78-0.57,2.45,2.45,0,0,1,1-.2,3,3,0,0,1,1.15.21,2.52,2.52,0,0,1,.87.59,2.6,2.6,0,0,1,.55.9,3.29,3.29,0,0,1,.19,1.15,2.76,2.76,0,0,1-.22,1.12,2.7,2.7,0,0,1-.61.88,2.79,2.79,0,0,1-.91.58,3,3,0,0,1-1.12.21,3.21,3.21,0,0,1-1.07-.17,2.46,2.46,0,0,1-.85-0.5,2.35,2.35,0,0,1-.57-0.8,2.68,2.68,0,0,1-.22-1.06h0.74A2,2,0,0,0,89.1,212.52Z" transform="translate(49.48 2.62)"/><path class="cls-37" d="M87.11,224.14v0.68q-0.39.4-.93,1.08a11.11,11.11,0,0,0-1.06,1.62,12.15,12.15,0,0,0-.9,2.14,10.28,10.28,0,0,0-.45,2.64H83a12.37,12.37,0,0,1,.29-2,9.7,9.7,0,0,1,.63-1.82,12.28,12.28,0,0,1,1-1.79,19,19,0,0,1,1.47-1.88H81.79v-0.68h5.31Z" transform="translate(49.48 2.62)"/><path class="cls-37" d="M92.51,224.36a2.75,2.75,0,0,1,.87,1,4.42,4.42,0,0,1,.42,1.37,9.83,9.83,0,0,1,0,3,4.42,4.42,0,0,1-.42,1.37,2.69,2.69,0,0,1-.87,1,3,3,0,0,1-2.93,0,2.67,2.67,0,0,1-.88-1,4.42,4.42,0,0,1-.42-1.37,9.83,9.83,0,0,1,0-3,4.42,4.42,0,0,1,.42-1.37,2.73,2.73,0,0,1,.88-1A2.92,2.92,0,0,1,92.51,224.36Zm-2.6.6a2.32,2.32,0,0,0-.64.91A4.47,4.47,0,0,0,89,227a9.73,9.73,0,0,0,0,2.34,4.55,4.55,0,0,0,.29,1.18,2.32,2.32,0,0,0,.64.92,1.94,1.94,0,0,0,2.27,0,2.32,2.32,0,0,0,.64-0.92,4.55,4.55,0,0,0,.29-1.18,9.73,9.73,0,0,0,0-2.34,4.47,4.47,0,0,0-.29-1.18,2.33,2.33,0,0,0-.64-0.91A1.94,1.94,0,0,0,89.9,225Z" transform="translate(49.48 2.62)"/><path class="cls-37" d="M87.11,242.33V243q-0.39.4-.93,1.08a11.11,11.11,0,0,0-1.06,1.62,12.15,12.15,0,0,0-.9,2.14,10.28,10.28,0,0,0-.45,2.64H83a12.37,12.37,0,0,1,.29-2,9.7,9.7,0,0,1,.63-1.82,12.28,12.28,0,0,1,1-1.79A19,19,0,0,1,86.36,243H81.79v-0.68h5.31Z" transform="translate(49.48 2.62)"/><path class="cls-37" d="M89.1,248.9a1.86,1.86,0,0,0,.43.61,1.89,1.89,0,0,0,.64.39A2.27,2.27,0,0,0,91,250a2,2,0,0,0,.86-0.18,2,2,0,0,0,.65-0.5,2.19,2.19,0,0,0,.41-0.72,2.59,2.59,0,0,0,.14-0.86,2.22,2.22,0,0,0-.16-0.85,2.14,2.14,0,0,0-.44-0.68,2,2,0,0,0-.67-0.46,2.17,2.17,0,0,0-.85-0.17,2.23,2.23,0,0,0-1.05.25,2.09,2.09,0,0,0-.79.73H88.43l0.8-4.28h4.13V243H89.75l-0.53,2.74,0,0a2,2,0,0,1,.78-0.57,2.45,2.45,0,0,1,1-.2,3,3,0,0,1,1.15.21,2.52,2.52,0,0,1,.87.59,2.6,2.6,0,0,1,.55.9,3.29,3.29,0,0,1,.19,1.15,2.76,2.76,0,0,1-.22,1.12,2.7,2.7,0,0,1-.61.88,2.79,2.79,0,0,1-.91.58,3,3,0,0,1-1.12.21,3.21,3.21,0,0,1-1.07-.17A2.46,2.46,0,0,1,89,250a2.35,2.35,0,0,1-.57-0.8,2.68,2.68,0,0,1-.22-1.06h0.74A2,2,0,0,0,89.1,248.9Z" transform="translate(49.48 2.62)"/><path class="cls-37" d="M86.62,263.56a1.84,1.84,0,0,1-1,.67v0a2.05,2.05,0,0,1,1.25.71,2.18,2.18,0,0,1,.44,1.4,2.49,2.49,0,0,1-.22,1.09,2.17,2.17,0,0,1-.61.77,2.7,2.7,0,0,1-.9.46,4,4,0,0,1-2.2,0,2.69,2.69,0,0,1-.91-0.46,2.17,2.17,0,0,1-.61-0.77,2.49,2.49,0,0,1-.22-1.09,2.37,2.37,0,0,1,.46-1.39,1.88,1.88,0,0,1,1.22-.72v0a1.9,1.9,0,0,1-1-.67,1.87,1.87,0,0,1-.35-1.15,1.85,1.85,0,0,1,.22-0.92,2,2,0,0,1,.57-0.64,2.52,2.52,0,0,1,.8-0.38,3.42,3.42,0,0,1,1.82,0,2.61,2.61,0,0,1,.81.38,1.94,1.94,0,0,1,.58.64,1.85,1.85,0,0,1,.22.92A1.88,1.88,0,0,1,86.62,263.56Zm-1.33,4.56a1.89,1.89,0,0,0,.67-0.34,1.62,1.62,0,0,0,.45-0.58,1.94,1.94,0,0,0,.17-0.83,1.72,1.72,0,0,0-.17-0.79,1.7,1.7,0,0,0-.46-0.57,2,2,0,0,0-.67-0.34,2.58,2.58,0,0,0-.8-0.1,2.75,2.75,0,0,0-.81.09A1.82,1.82,0,0,0,83,265a1.7,1.7,0,0,0-.45.57,1.75,1.75,0,0,0-.17.79,1.9,1.9,0,0,0,.17.81,1.62,1.62,0,0,0,.45.58,2,2,0,0,0,.67.35,2.79,2.79,0,0,0,.82.12A2.9,2.9,0,0,0,85.29,268.11Zm-0.16-4.25a1.6,1.6,0,0,0,.56-0.28,1.39,1.39,0,0,0,.39-0.48,1.53,1.53,0,0,0,.15-0.7,1.39,1.39,0,0,0-.14-0.63,1.25,1.25,0,0,0-.37-0.45,1.73,1.73,0,0,0-.55-0.27,2.43,2.43,0,0,0-.7-0.09,2.29,2.29,0,0,0-.66.09,1.88,1.88,0,0,0-.57.27,1.32,1.32,0,0,0-.4.45,1.29,1.29,0,0,0-.15.63,1.51,1.51,0,0,0,.15.71,1.43,1.43,0,0,0,.4.48,1.59,1.59,0,0,0,.57.27,2.27,2.27,0,0,0,.65.07A2.19,2.19,0,0,0,85.14,263.87Z" transform="translate(49.48 2.62)"/><path class="cls-37" d="M92.51,260.74a2.75,2.75,0,0,1,.87,1,4.42,4.42,0,0,1,.42,1.37,9.83,9.83,0,0,1,0,3,4.42,4.42,0,0,1-.42,1.37,2.69,2.69,0,0,1-.87,1,3,3,0,0,1-2.93,0,2.67,2.67,0,0,1-.88-1,4.42,4.42,0,0,1-.42-1.37,9.83,9.83,0,0,1,0-3,4.42,4.42,0,0,1,.42-1.37,2.73,2.73,0,0,1,.88-1A2.92,2.92,0,0,1,92.51,260.74Zm-2.6.6a2.32,2.32,0,0,0-.64.91,4.47,4.47,0,0,0-.29,1.18,9.73,9.73,0,0,0,0,2.34,4.55,4.55,0,0,0,.29,1.18,2.32,2.32,0,0,0,.64.92,1.94,1.94,0,0,0,2.27,0,2.32,2.32,0,0,0,.64-0.92,4.55,4.55,0,0,0,.29-1.18,9.73,9.73,0,0,0,0-2.34,4.47,4.47,0,0,0-.29-1.18,2.33,2.33,0,0,0-.64-0.91A1.94,1.94,0,0,0,89.9,261.33Z" transform="translate(49.48 2.62)"/><path class="cls-37" d="M86.62,281.75a1.84,1.84,0,0,1-1,.67v0a2.05,2.05,0,0,1,1.25.71,2.18,2.18,0,0,1,.44,1.4,2.49,2.49,0,0,1-.22,1.09,2.17,2.17,0,0,1-.61.77,2.7,2.7,0,0,1-.9.46,4,4,0,0,1-2.2,0,2.69,2.69,0,0,1-.91-0.46,2.17,2.17,0,0,1-.61-0.77,2.49,2.49,0,0,1-.22-1.09,2.37,2.37,0,0,1,.46-1.39,1.88,1.88,0,0,1,1.22-.72v0a1.9,1.9,0,0,1-1-.67A1.87,1.87,0,0,1,82,280.6a1.85,1.85,0,0,1,.22-0.92,2,2,0,0,1,.57-0.64,2.52,2.52,0,0,1,.8-0.38,3.42,3.42,0,0,1,1.82,0,2.61,2.61,0,0,1,.81.38,1.94,1.94,0,0,1,.58.64,1.85,1.85,0,0,1,.22.92A1.88,1.88,0,0,1,86.62,281.75Zm-1.33,4.56A1.89,1.89,0,0,0,86,286a1.62,1.62,0,0,0,.45-0.58,1.94,1.94,0,0,0,.17-0.83,1.72,1.72,0,0,0-.17-0.79,1.7,1.7,0,0,0-.46-0.57,2,2,0,0,0-.67-0.34,2.58,2.58,0,0,0-.8-0.1,2.75,2.75,0,0,0-.81.09,1.82,1.82,0,0,0-.67.34,1.7,1.7,0,0,0-.45.57,1.75,1.75,0,0,0-.17.79,1.9,1.9,0,0,0,.17.81,1.62,1.62,0,0,0,.45.58,2,2,0,0,0,.67.35,2.79,2.79,0,0,0,.82.12A2.9,2.9,0,0,0,85.29,286.3Zm-0.16-4.25a1.6,1.6,0,0,0,.56-0.28,1.39,1.39,0,0,0,.39-0.48,1.53,1.53,0,0,0,.15-0.7A1.39,1.39,0,0,0,86.1,280a1.25,1.25,0,0,0-.37-0.45,1.73,1.73,0,0,0-.55-0.27,2.43,2.43,0,0,0-.7-0.09,2.29,2.29,0,0,0-.66.09,1.88,1.88,0,0,0-.57.27,1.32,1.32,0,0,0-.4.45,1.29,1.29,0,0,0-.15.63,1.51,1.51,0,0,0,.15.71,1.43,1.43,0,0,0,.4.48,1.59,1.59,0,0,0,.57.27,2.27,2.27,0,0,0,.65.07A2.19,2.19,0,0,0,85.14,282.05Z" transform="translate(49.48 2.62)"/><path class="cls-37" d="M89.1,285.28a1.86,1.86,0,0,0,.43.61,1.89,1.89,0,0,0,.64.39,2.27,2.27,0,0,0,.79.14,2,2,0,0,0,.86-0.18,2,2,0,0,0,.65-0.5,2.19,2.19,0,0,0,.41-0.72,2.59,2.59,0,0,0,.14-0.86,2.22,2.22,0,0,0-.16-0.85,2.14,2.14,0,0,0-.44-0.68,2,2,0,0,0-.67-0.46,2.17,2.17,0,0,0-.85-0.17,2.23,2.23,0,0,0-1.05.25,2.09,2.09,0,0,0-.79.73H88.43l0.8-4.28h4.13v0.68H89.75l-0.53,2.74,0,0a2,2,0,0,1,.78-0.57,2.45,2.45,0,0,1,1-.2,3,3,0,0,1,1.15.21,2.52,2.52,0,0,1,.87.59,2.6,2.6,0,0,1,.55.9,3.29,3.29,0,0,1,.19,1.15,2.76,2.76,0,0,1-.22,1.12,2.7,2.7,0,0,1-.61.88,2.79,2.79,0,0,1-.91.58,3,3,0,0,1-1.12.21,3.21,3.21,0,0,1-1.07-.17,2.46,2.46,0,0,1-.85-0.5,2.35,2.35,0,0,1-.57-0.8,2.68,2.68,0,0,1-.22-1.06h0.74A2,2,0,0,0,89.1,285.28Z" transform="translate(49.48 2.62)"/><path class="cls-37" d="M83.09,304.18a1.65,1.65,0,0,0,1.17.42,1.79,1.79,0,0,0,1.17-.37,2.5,2.5,0,0,0,.69-0.92,4.24,4.24,0,0,0,.33-1.2,9.59,9.59,0,0,0,.08-1.21h0a2.45,2.45,0,0,1-2.2,1.37,3,3,0,0,1-1.12-.21,2.48,2.48,0,0,1-.86-0.57,2.55,2.55,0,0,1-.55-0.87,3.07,3.07,0,0,1-.19-1.11,3,3,0,0,1,.21-1.12,2.61,2.61,0,0,1,.58-0.89,2.7,2.7,0,0,1,.89-0.58,2.92,2.92,0,0,1,1.13-.21,3.32,3.32,0,0,1,1.3.23,2,2,0,0,1,.9.76,3.78,3.78,0,0,1,.52,1.36,10.37,10.37,0,0,1,.17,2q0,0.25,0,.65a5.54,5.54,0,0,1-.14.86,5.83,5.83,0,0,1-.3.92,3.07,3.07,0,0,1-.52.84,2.52,2.52,0,0,1-.81.61,2.6,2.6,0,0,1-1.16.24,2.71,2.71,0,0,1-1.76-.53,2.34,2.34,0,0,1-.78-1.62h0.74A1.8,1.8,0,0,0,83.09,304.18Zm2.11-2.7a1.9,1.9,0,0,0,.65-0.47,2,2,0,0,0,.4-0.69,2.62,2.62,0,0,0,.14-0.86,2.82,2.82,0,0,0-.12-0.83A1.81,1.81,0,0,0,85.9,298a1.74,1.74,0,0,0-.64-0.46,2.4,2.4,0,0,0-.93-0.17,1.88,1.88,0,0,0-.8.17,2,2,0,0,0-1,1.14,2.37,2.37,0,0,0-.14.81,2.63,2.63,0,0,0,.14.85,2.06,2.06,0,0,0,.39.7,1.8,1.8,0,0,0,.63.47,2,2,0,0,0,.84.17A2.11,2.11,0,0,0,85.2,301.48Z" transform="translate(49.48 2.62)"/><path class="cls-37" d="M92.51,297.12a2.75,2.75,0,0,1,.87,1,4.42,4.42,0,0,1,.42,1.37,9.83,9.83,0,0,1,0,3,4.42,4.42,0,0,1-.42,1.37,2.69,2.69,0,0,1-.87,1,3,3,0,0,1-2.93,0,2.67,2.67,0,0,1-.88-1,4.42,4.42,0,0,1-.42-1.37,9.83,9.83,0,0,1,0-3,4.42,4.42,0,0,1,.42-1.37,2.73,2.73,0,0,1,.88-1A2.92,2.92,0,0,1,92.51,297.12Zm-2.6.6a2.32,2.32,0,0,0-.64.91A4.47,4.47,0,0,0,89,299.8a9.73,9.73,0,0,0,0,2.34,4.55,4.55,0,0,0,.29,1.18,2.32,2.32,0,0,0,.64.92,1.94,1.94,0,0,0,2.27,0,2.32,2.32,0,0,0,.64-0.92,4.55,4.55,0,0,0,.29-1.18,9.73,9.73,0,0,0,0-2.34,4.47,4.47,0,0,0-.29-1.18,2.33,2.33,0,0,0-.64-0.91A1.94,1.94,0,0,0,89.9,297.71Z" transform="translate(49.48 2.62)"/><path class="cls-37" d="M83.09,322.37a1.65,1.65,0,0,0,1.17.42,1.79,1.79,0,0,0,1.17-.37,2.5,2.5,0,0,0,.69-0.92,4.24,4.24,0,0,0,.33-1.2,9.59,9.59,0,0,0,.08-1.21h0a2.45,2.45,0,0,1-2.2,1.37,3,3,0,0,1-1.12-.21,2.48,2.48,0,0,1-.86-0.57,2.55,2.55,0,0,1-.55-0.87,3.07,3.07,0,0,1-.19-1.11,3,3,0,0,1,.21-1.12,2.61,2.61,0,0,1,.58-0.89,2.7,2.7,0,0,1,.89-0.58,2.92,2.92,0,0,1,1.13-.21,3.32,3.32,0,0,1,1.3.23,2,2,0,0,1,.9.76,3.78,3.78,0,0,1,.52,1.36,10.37,10.37,0,0,1,.17,2q0,0.25,0,.65a5.54,5.54,0,0,1-.14.86,5.83,5.83,0,0,1-.3.92,3.07,3.07,0,0,1-.52.84,2.52,2.52,0,0,1-.81.61,2.6,2.6,0,0,1-1.16.24,2.71,2.71,0,0,1-1.76-.53,2.34,2.34,0,0,1-.78-1.62h0.74A1.8,1.8,0,0,0,83.09,322.37Zm2.11-2.7a1.9,1.9,0,0,0,.65-0.47,2,2,0,0,0,.4-0.69,2.62,2.62,0,0,0,.14-0.86,2.82,2.82,0,0,0-.12-0.83,1.81,1.81,0,0,0-.37-0.67,1.74,1.74,0,0,0-.64-0.46,2.4,2.4,0,0,0-.93-0.17,1.88,1.88,0,0,0-.8.17,2,2,0,0,0-1,1.14,2.37,2.37,0,0,0-.14.81,2.63,2.63,0,0,0,.14.85,2.06,2.06,0,0,0,.39.7,1.8,1.8,0,0,0,.63.47,2,2,0,0,0,.84.17A2.11,2.11,0,0,0,85.2,319.67Z" transform="translate(49.48 2.62)"/><path class="cls-37" d="M89.1,321.66a1.86,1.86,0,0,0,.43.61,1.89,1.89,0,0,0,.64.39,2.27,2.27,0,0,0,.79.14,2,2,0,0,0,.86-0.18,2,2,0,0,0,.65-0.5,2.19,2.19,0,0,0,.41-0.72,2.59,2.59,0,0,0,.14-0.86,2.22,2.22,0,0,0-.16-0.85,2.14,2.14,0,0,0-.44-0.68,2,2,0,0,0-.67-0.46,2.17,2.17,0,0,0-.85-0.17,2.23,2.23,0,0,0-1.05.25,2.09,2.09,0,0,0-.79.73H88.43l0.8-4.28h4.13v0.68H89.75l-0.53,2.74,0,0A2,2,0,0,1,90,318a2.45,2.45,0,0,1,1-.2,3,3,0,0,1,1.15.21,2.52,2.52,0,0,1,.87.59,2.6,2.6,0,0,1,.55.9,3.29,3.29,0,0,1,.19,1.15,2.76,2.76,0,0,1-.22,1.12,2.7,2.7,0,0,1-.61.88,2.79,2.79,0,0,1-.91.58,3,3,0,0,1-1.12.21,3.21,3.21,0,0,1-1.07-.17,2.46,2.46,0,0,1-.85-0.5,2.35,2.35,0,0,1-.57-0.8,2.68,2.68,0,0,1-.22-1.06h0.74A2,2,0,0,0,89.1,321.66Z" transform="translate(49.48 2.62)"/><path class="cls-37" d="M108.77,349.77a2.75,2.75,0,0,1,.87,1,4.42,4.42,0,0,1,.42,1.37,9.83,9.83,0,0,1,0,3,4.42,4.42,0,0,1-.42,1.37,2.69,2.69,0,0,1-.87,1,3,3,0,0,1-2.93,0,2.67,2.67,0,0,1-.88-1,4.42,4.42,0,0,1-.42-1.37,9.83,9.83,0,0,1,0-3,4.42,4.42,0,0,1,.42-1.37,2.73,2.73,0,0,1,.88-1A2.92,2.92,0,0,1,108.77,349.77Zm-2.6.6a2.32,2.32,0,0,0-.64.91,4.47,4.47,0,0,0-.29,1.18,9.73,9.73,0,0,0,0,2.34,4.55,4.55,0,0,0,.29,1.18,2.32,2.32,0,0,0,.64.92,1.94,1.94,0,0,0,2.27,0,2.32,2.32,0,0,0,.64-0.92,4.55,4.55,0,0,0,.29-1.18,9.73,9.73,0,0,0,0-2.34,4.47,4.47,0,0,0-.29-1.18,2.33,2.33,0,0,0-.64-0.91A1.94,1.94,0,0,0,106.17,350.37Z" transform="translate(49.48 2.62)"/><path class="cls-37" d="M111.73,356.46h1v1.25h-1v-1.25Z" transform="translate(49.48 2.62)"/><path class="cls-37" d="M118,349.45h0.67V355H120v0.63h-1.24v2.05H118v-2.05h-3.81v-0.72Zm0,1.09h0l-3.12,4.5H118v-4.5Z" transform="translate(49.48 2.62)"/><path class="cls-37" d="M208.3,350a2.75,2.75,0,0,1,.87,1,4.42,4.42,0,0,1,.42,1.37,9.83,9.83,0,0,1,0,3,4.42,4.42,0,0,1-.42,1.37,2.69,2.69,0,0,1-.87,1,3,3,0,0,1-2.93,0,2.67,2.67,0,0,1-.88-1,4.42,4.42,0,0,1-.42-1.37,9.83,9.83,0,0,1,0-3,4.42,4.42,0,0,1,.42-1.37,2.73,2.73,0,0,1,.88-1A2.92,2.92,0,0,1,208.3,350Zm-2.6.6a2.32,2.32,0,0,0-.64.91,4.47,4.47,0,0,0-.29,1.18,9.73,9.73,0,0,0,0,2.34,4.55,4.55,0,0,0,.29,1.18,2.32,2.32,0,0,0,.64.92,1.94,1.94,0,0,0,2.27,0,2.32,2.32,0,0,0,.64-0.92,4.55,4.55,0,0,0,.29-1.18,9.73,9.73,0,0,0,0-2.34,4.47,4.47,0,0,0-.29-1.18,2.33,2.33,0,0,0-.64-0.91A1.94,1.94,0,0,0,205.7,350.59Z" transform="translate(49.48 2.62)"/><path class="cls-37" d="M211.26,356.68h1v1.25h-1v-1.25Z" transform="translate(49.48 2.62)"/><path class="cls-37" d="M218.06,350.65a1.65,1.65,0,0,0-1.17-.42,1.79,1.79,0,0,0-1.17.37,2.47,2.47,0,0,0-.7.92,4.25,4.25,0,0,0-.33,1.2,9.53,9.53,0,0,0-.08,1.21h0a2.45,2.45,0,0,1,2.2-1.37,2.94,2.94,0,0,1,1.13.21,2.5,2.5,0,0,1,.86.57,2.56,2.56,0,0,1,.55.87,3.08,3.08,0,0,1,.19,1.11,3,3,0,0,1-.21,1.12,2.58,2.58,0,0,1-1.46,1.46,3,3,0,0,1-1.13.21,3.32,3.32,0,0,1-1.3-.23,2,2,0,0,1-.9-0.75,3.73,3.73,0,0,1-.53-1.35,10.4,10.4,0,0,1-.17-2q0-.25,0-0.65a5.54,5.54,0,0,1,.14-0.86,5.83,5.83,0,0,1,.3-0.92,3.14,3.14,0,0,1,.52-0.84,2.49,2.49,0,0,1,.81-0.61,2.62,2.62,0,0,1,1.16-.24,2.7,2.7,0,0,1,1.76.53,2.36,2.36,0,0,1,.78,1.63h-0.74A1.8,1.8,0,0,0,218.06,350.65Zm-2.11,2.7a1.9,1.9,0,0,0-.65.47,2,2,0,0,0-.4.69,2.62,2.62,0,0,0-.14.86,2.84,2.84,0,0,0,.12.83,1.81,1.81,0,0,0,.37.68,1.73,1.73,0,0,0,.64.45,2.38,2.38,0,0,0,.93.17,1.86,1.86,0,0,0,.81-0.17,2,2,0,0,0,1-1.14,2.37,2.37,0,0,0,.14-0.81,2.64,2.64,0,0,0-.14-0.85,2.07,2.07,0,0,0-.39-0.7,1.81,1.81,0,0,0-.63-0.47,2,2,0,0,0-.84-0.17A2.1,2.1,0,0,0,216,353.35Z" transform="translate(49.48 2.62)"/><path class="cls-37" d="M310.24,350a2.75,2.75,0,0,1,.87,1,4.42,4.42,0,0,1,.42,1.37,9.83,9.83,0,0,1,0,3,4.42,4.42,0,0,1-.42,1.37,2.69,2.69,0,0,1-.87,1,3,3,0,0,1-2.93,0,2.67,2.67,0,0,1-.88-1,4.42,4.42,0,0,1-.42-1.37,9.83,9.83,0,0,1,0-3,4.42,4.42,0,0,1,.42-1.37,2.73,2.73,0,0,1,.88-1A2.92,2.92,0,0,1,310.24,350Zm-2.6.6a2.32,2.32,0,0,0-.64.91,4.47,4.47,0,0,0-.29,1.18,9.73,9.73,0,0,0,0,2.34,4.55,4.55,0,0,0,.29,1.18,2.32,2.32,0,0,0,.64.92,1.94,1.94,0,0,0,2.27,0,2.32,2.32,0,0,0,.64-0.92,4.55,4.55,0,0,0,.29-1.18,9.73,9.73,0,0,0,0-2.34,4.47,4.47,0,0,0-.29-1.18,2.33,2.33,0,0,0-.64-0.91A1.94,1.94,0,0,0,307.64,350.59Z" transform="translate(49.48 2.62)"/><path class="cls-37" d="M313.2,356.68h1v1.25h-1v-1.25Z" transform="translate(49.48 2.62)"/><path class="cls-37" d="M320.76,352.82a1.84,1.84,0,0,1-1,.67v0a2.05,2.05,0,0,1,1.25.71,2.18,2.18,0,0,1,.44,1.4,2.49,2.49,0,0,1-.22,1.09,2.17,2.17,0,0,1-.61.77,2.7,2.7,0,0,1-.9.46,4,4,0,0,1-2.2,0,2.69,2.69,0,0,1-.91-0.46,2.17,2.17,0,0,1-.61-0.77,2.49,2.49,0,0,1-.22-1.09,2.37,2.37,0,0,1,.46-1.39,1.88,1.88,0,0,1,1.22-.72v0a1.9,1.9,0,0,1-1-.67,1.87,1.87,0,0,1-.35-1.15,1.85,1.85,0,0,1,.22-0.92,2,2,0,0,1,.57-0.64,2.52,2.52,0,0,1,.8-0.38,3.42,3.42,0,0,1,1.82,0,2.61,2.61,0,0,1,.81.38,1.94,1.94,0,0,1,.58.64,1.85,1.85,0,0,1,.22.92A1.88,1.88,0,0,1,320.76,352.82Zm-1.33,4.56a1.89,1.89,0,0,0,.67-0.34,1.62,1.62,0,0,0,.45-0.58,1.94,1.94,0,0,0,.17-0.83,1.72,1.72,0,0,0-.17-0.79,1.7,1.7,0,0,0-.46-0.57,2,2,0,0,0-.67-0.34,2.58,2.58,0,0,0-.8-0.1,2.75,2.75,0,0,0-.81.09,1.82,1.82,0,0,0-.67.34,1.7,1.7,0,0,0-.45.57,1.75,1.75,0,0,0-.17.79,1.9,1.9,0,0,0,.17.81,1.62,1.62,0,0,0,.45.58,2,2,0,0,0,.67.35,2.79,2.79,0,0,0,.82.12A2.9,2.9,0,0,0,319.43,357.38Zm-0.16-4.25a1.6,1.6,0,0,0,.56-0.28,1.39,1.39,0,0,0,.39-0.48,1.53,1.53,0,0,0,.15-0.7,1.39,1.39,0,0,0-.14-0.63,1.25,1.25,0,0,0-.37-0.45,1.73,1.73,0,0,0-.55-0.27,2.43,2.43,0,0,0-.7-0.09,2.29,2.29,0,0,0-.66.09,1.88,1.88,0,0,0-.57.27,1.32,1.32,0,0,0-.4.45,1.29,1.29,0,0,0-.15.63,1.51,1.51,0,0,0,.15.71,1.43,1.43,0,0,0,.4.48,1.59,1.59,0,0,0,.57.27,2.27,2.27,0,0,0,.65.07A2.19,2.19,0,0,0,319.27,353.13Z" transform="translate(49.48 2.62)"/><path class="cls-37" d="M409.18,351.21a1.85,1.85,0,0,0,.68-0.19,1.28,1.28,0,0,0,.48-0.47,2.32,2.32,0,0,0,.28-0.88h0.6v8.26h-0.74V351.8H408.3v-0.53Q408.78,351.25,409.18,351.21Z" transform="translate(49.48 2.62)"/><path class="cls-37" d="M414.86,356.68h1v1.25h-1v-1.25Z" transform="translate(49.48 2.62)"/><path class="cls-37" d="M421.75,350a2.75,2.75,0,0,1,.87,1,4.42,4.42,0,0,1,.42,1.37,9.83,9.83,0,0,1,0,3,4.42,4.42,0,0,1-.42,1.37,2.69,2.69,0,0,1-.87,1,3,3,0,0,1-2.93,0,2.67,2.67,0,0,1-.88-1,4.42,4.42,0,0,1-.42-1.37,9.83,9.83,0,0,1,0-3,4.42,4.42,0,0,1,.42-1.37,2.73,2.73,0,0,1,.88-1A2.92,2.92,0,0,1,421.75,350Zm-2.6.6a2.32,2.32,0,0,0-.64.91,4.47,4.47,0,0,0-.29,1.18,9.73,9.73,0,0,0,0,2.34,4.55,4.55,0,0,0,.29,1.18,2.32,2.32,0,0,0,.64.92,1.94,1.94,0,0,0,2.27,0,2.32,2.32,0,0,0,.64-0.92,4.55,4.55,0,0,0,.29-1.18,9.73,9.73,0,0,0,0-2.34,4.47,4.47,0,0,0-.29-1.18,2.33,2.33,0,0,0-.64-0.91A1.94,1.94,0,0,0,419.15,350.59Z" transform="translate(49.48 2.62)"/><path class="cls-37" d="M512.07,351.21a1.86,1.86,0,0,0,.68-0.19,1.28,1.28,0,0,0,.48-0.47,2.33,2.33,0,0,0,.28-0.88h0.6v8.26h-0.74V351.8h-2.18v-0.53Q511.68,351.25,512.07,351.21Z" transform="translate(49.48 2.62)"/><path class="cls-37" d="M517.76,356.68h1v1.25h-1v-1.25Z" transform="translate(49.48 2.62)"/><path class="cls-37" d="M520.32,357.94a2.9,2.9,0,0,1,.21-1.09,3.15,3.15,0,0,1,.53-0.85,4.91,4.91,0,0,1,.74-0.69q0.41-.31.85-0.6l0.87-.59a5.71,5.71,0,0,0,.77-0.64,2.56,2.56,0,0,0,.51-0.7,2,2,0,0,0,.17-0.86,1.66,1.66,0,0,0-.15-0.71,1.58,1.58,0,0,0-.4-0.53,1.74,1.74,0,0,0-.59-0.33,2.23,2.23,0,0,0-.71-0.11,1.85,1.85,0,0,0-.87.19,1.63,1.63,0,0,0-.58.51,2.13,2.13,0,0,0-.32.73,3.31,3.31,0,0,0-.09.87h-0.74a3.83,3.83,0,0,1,.15-1.17,2.52,2.52,0,0,1,.49-0.93,2.26,2.26,0,0,1,.83-0.61,2.93,2.93,0,0,1,1.17-.22,3.33,3.33,0,0,1,1,.15,2.37,2.37,0,0,1,.81.44,2,2,0,0,1,.54.73,2.47,2.47,0,0,1,.19,1,2.52,2.52,0,0,1-.17.94,3,3,0,0,1-.46.78,4.47,4.47,0,0,1-.66.66,7.85,7.85,0,0,1-.78.56l-0.7.44a7.25,7.25,0,0,0-.77.54,4.21,4.21,0,0,0-.66.64,1.64,1.64,0,0,0-.35.76h4.59v0.68h-5.44Z" transform="translate(49.48 2.62)"/><path class="cls-37" d="M613.88,351.21a1.86,1.86,0,0,0,.68-0.19,1.28,1.28,0,0,0,.48-0.47,2.33,2.33,0,0,0,.28-0.88h0.6v8.26h-0.74V351.8H613v-0.53Q613.49,351.25,613.88,351.21Z" transform="translate(49.48 2.62)"/><path class="cls-37" d="M619.56,356.68h1v1.25h-1v-1.25Z" transform="translate(49.48 2.62)"/><path class="cls-37" d="M625.88,349.67h0.67v5.58h1.24v0.63h-1.24v2.05h-0.68v-2.05h-3.81v-0.72Zm0,1.09h0l-3.12,4.5h3.14v-4.5Z" transform="translate(49.48 2.62)"/><path class="cls-37" d="M715.69,351.21a1.86,1.86,0,0,0,.68-0.19,1.28,1.28,0,0,0,.48-0.47,2.33,2.33,0,0,0,.28-0.88h0.6v8.26H717V351.8h-2.18v-0.53Q715.29,351.25,715.69,351.21Z" transform="translate(49.48 2.62)"/><path class="cls-37" d="M721.37,356.68h1v1.25h-1v-1.25Z" transform="translate(49.48 2.62)"/><path class="cls-37" d="M728.18,350.65a1.65,1.65,0,0,0-1.17-.42,1.79,1.79,0,0,0-1.17.37,2.47,2.47,0,0,0-.7.92,4.23,4.23,0,0,0-.33,1.2,9.44,9.44,0,0,0-.08,1.21h0a2.45,2.45,0,0,1,2.2-1.37,2.94,2.94,0,0,1,1.13.21,2.5,2.5,0,0,1,.86.57,2.56,2.56,0,0,1,.55.87,3.08,3.08,0,0,1,.19,1.11,3,3,0,0,1-.21,1.12,2.58,2.58,0,0,1-1.46,1.46,3,3,0,0,1-1.13.21,3.32,3.32,0,0,1-1.3-.23,2,2,0,0,1-.9-0.75,3.7,3.7,0,0,1-.53-1.35,10.35,10.35,0,0,1-.17-2q0-.25,0-0.65a5.48,5.48,0,0,1,.14-0.86,5.78,5.78,0,0,1,.3-0.92,3.14,3.14,0,0,1,.52-0.84,2.49,2.49,0,0,1,.81-0.61,2.61,2.61,0,0,1,1.16-.24,2.7,2.7,0,0,1,1.76.53,2.37,2.37,0,0,1,.78,1.63h-0.74A1.8,1.8,0,0,0,728.18,350.65Zm-2.11,2.7a1.9,1.9,0,0,0-.65.47,2,2,0,0,0-.4.69,2.61,2.61,0,0,0-.14.86,2.82,2.82,0,0,0,.12.83,1.79,1.79,0,0,0,.37.68,1.74,1.74,0,0,0,.64.45,2.38,2.38,0,0,0,.93.17,1.86,1.86,0,0,0,.81-0.17,2,2,0,0,0,1-1.14,2.36,2.36,0,0,0,.14-0.81,2.63,2.63,0,0,0-.14-0.85,2.08,2.08,0,0,0-.39-0.7,1.81,1.81,0,0,0-.63-0.47,2,2,0,0,0-.84-0.17A2.1,2.1,0,0,0,726.06,353.35Z" transform="translate(49.48 2.62)"/><line class="cls-38" x1="135.68" y1="376.79" x2="254.32" y2="376.79"/><polygon class="cls-39" points="127.29 376.79 141.18 381.84 141.18 371.74 127.29 376.79"/><line class="cls-40" x1="839.18" y1="376.79" x2="720.54" y2="376.79"/><polygon class="cls-41" points="847.57 376.79 833.68 381.84 833.68 371.74 847.57 376.79"/><path class="cls-42" d="M749.47,63.55H123.59V80.46H749.47V63.55Zm0,18H123.59V98.47H749.47V81.55Zm0,18H123.59V117H749.47V99.56Zm0,18.55H123.59v16.37H749.47V118.11Zm0,17.46H123.59v16.92H749.47V135.57Zm0,18H123.59V170.5H749.47V153.58Zm0,18H123.59V189H749.47V171.59Zm0,18.55H123.59V207.6H749.47V190.14Zm0,18.55H123.59v16.92H749.47V208.69Zm0,18H123.59v16.92H749.47V226.7Zm0,18H123.59v16.92H749.47V244.71Zm0,18H123.59v16.92H749.47V262.71Zm0,18H123.59v17.46H749.47V280.72Zm0,18.55H123.59v16.37H749.47V299.27Zm0,17.46H123.59v16.92H749.47V316.73Z" transform="translate(49.48 2.62)"/><rect class="cls-39" x="159.97" y="65.62" width="6.55" height="271.74"/><rect class="cls-43" x="805.5" y="65.62" width="6.55" height="271.74"/><rect class="cls-44" x="798.95" y="65.62" width="6.55" height="271.74"/><path class="cls-45" d="M123.59,63.55H117V80.46h6.55V63.55Zm0,18H117V98.47h6.55V81.55Zm0,18H117V117h6.55V99.56Zm0,18.55H117v16.37h6.55V118.11Zm0,17.46H117v16.92h6.55V135.57Zm0,18H117V170.5h6.55V153.58Zm0,18H117V189h6.55V171.59Zm0,18.55H117V207.6h6.55V190.14Zm0,18.55H117v16.92h6.55V208.69Zm0,18H117v16.92h6.55V226.7Zm0,18H117v16.92h6.55V244.71Zm0,18H117v16.92h6.55V262.71Zm0,18H117v17.46h6.55V280.72Zm0,18.55H117v16.37h6.55V299.27Zm0,17.46H117v16.92h6.55V316.73Z" transform="translate(49.48 2.62)"/><rect class="cls-46" x="464.85" y="337.36" width="1.09" height="11.46"/><rect class="cls-46" x="566.65" y="337.36" width="1.09" height="11.46"/><rect class="cls-46" x="668.46" y="337.36" width="1.09" height="11.46"/><polygon class="cls-46" points="771.35 337.36 770.94 337.36 770.26 337.36 770.26 348.82 771.35 348.82 771.35 337.36"/><polygon class="cls-46" points="160.52 337.36 159.97 337.36 159.43 337.36 159.43 348.82 160.52 348.82 160.52 337.36"/><rect class="cls-46" x="261.23" y="337.36" width="1.09" height="11.46"/><rect class="cls-46" x="363.04" y="337.36" width="1.09" height="11.46"/><path class="cls-46" d="M749.47,333.65H123.59v1.09H749.47v-1.09Zm-639,0H99v1.09h11.46v-1.09Z" transform="translate(49.48 2.62)"/><rect class="cls-47" x="159.97" y="336.27" width="6.55" height="1.09"/><rect class="cls-48" x="805.5" y="336.27" width="6.55" height="1.09"/><rect class="cls-49" x="798.95" y="336.27" width="6.55" height="1.09"/><rect class="cls-50" x="166.52" y="336.27" width="6.55" height="1.09"/><rect class="cls-46" x="148.51" y="318.26" width="11.46" height="1.09"/><rect class="cls-51" x="173.07" y="318.26" width="625.88" height="1.09"/><rect class="cls-47" x="159.97" y="318.26" width="6.55" height="1.09"/><rect class="cls-48" x="805.5" y="318.26" width="6.55" height="1.09"/><rect class="cls-49" x="798.95" y="318.26" width="6.55" height="1.09"/><rect class="cls-52" x="166.52" y="318.26" width="6.55" height="1.09"/><rect class="cls-46" x="148.51" y="300.8" width="11.46" height="1.09"/><rect class="cls-51" x="173.07" y="300.8" width="625.88" height="1.09"/><rect class="cls-47" x="159.97" y="300.8" width="6.55" height="1.09"/><rect class="cls-48" x="805.5" y="300.8" width="6.55" height="1.09"/><rect class="cls-49" x="798.95" y="300.8" width="6.55" height="1.09"/><rect class="cls-52" x="166.52" y="300.8" width="6.55" height="1.09"/><rect class="cls-46" x="148.51" y="264.24" width="11.46" height="1.09"/><rect class="cls-51" x="173.07" y="264.24" width="625.88" height="1.09"/><rect class="cls-47" x="159.97" y="264.24" width="6.55" height="1.09"/><rect class="cls-48" x="805.5" y="264.24" width="6.55" height="1.09"/><rect class="cls-49" x="798.95" y="264.24" width="6.55" height="1.09"/><rect class="cls-52" x="166.52" y="264.24" width="6.55" height="1.09"/><rect class="cls-46" x="148.51" y="210.22" width="11.46" height="1.09"/><rect class="cls-51" x="173.07" y="210.22" width="625.88" height="1.09"/><rect class="cls-47" x="159.97" y="210.22" width="6.55" height="1.09"/><rect class="cls-48" x="805.5" y="210.22" width="6.55" height="1.09"/><rect class="cls-49" x="798.95" y="210.22" width="6.55" height="1.09"/><rect class="cls-52" x="166.52" y="210.22" width="6.55" height="1.09"/><rect class="cls-46" x="148.51" y="173.11" width="11.46" height="1.09"/><rect class="cls-51" x="173.07" y="173.11" width="625.88" height="1.09"/><rect class="cls-47" x="159.97" y="173.11" width="6.55" height="1.09"/><rect class="cls-48" x="805.5" y="173.11" width="6.55" height="1.09"/><rect class="cls-49" x="798.95" y="173.11" width="6.55" height="1.09"/><rect class="cls-52" x="166.52" y="173.11" width="6.55" height="1.09"/><polygon class="cls-46" points="812.04 65.07 148.51 65.07 148.51 66.16 159.97 66.16 159.97 65.62 159.97 65.62 166.52 65.62 173.07 65.62 798.95 65.62 805.5 65.62 812.04 65.62 812.04 66.16 812.04 65.07"/><rect class="cls-51" x="173.07" y="65.62" width="625.88" height="0.55"/><rect class="cls-47" x="159.97" y="65.62" width="6.55" height="0.55"/><rect class="cls-48" x="805.5" y="65.62" width="6.55" height="0.55"/><rect class="cls-49" x="798.95" y="65.62" width="6.55" height="0.55"/><rect class="cls-52" x="166.52" y="65.62" width="6.55" height="0.55"/><rect class="cls-46" x="148.51" y="119.64" width="11.46" height="1.09"/><rect class="cls-51" x="173.07" y="119.64" width="625.88" height="1.09"/><rect class="cls-47" x="159.97" y="119.64" width="6.55" height="1.09"/><rect class="cls-48" x="805.5" y="119.64" width="6.55" height="1.09"/><rect class="cls-49" x="798.95" y="119.64" width="6.55" height="1.09"/><rect class="cls-52" x="166.52" y="119.64" width="6.55" height="1.09"/><rect class="cls-46" x="148.51" y="282.25" width="11.46" height="1.09"/><rect class="cls-51" x="173.07" y="282.25" width="625.88" height="1.09"/><rect class="cls-47" x="159.97" y="282.25" width="6.55" height="1.09"/><rect class="cls-48" x="805.5" y="282.25" width="6.55" height="1.09"/><rect class="cls-49" x="798.95" y="282.25" width="6.55" height="1.09"/><rect class="cls-52" x="166.52" y="282.25" width="6.55" height="1.09"/><rect class="cls-46" x="148.51" y="228.23" width="11.46" height="1.09"/><rect class="cls-51" x="173.07" y="228.23" width="625.88" height="1.09"/><rect class="cls-47" x="159.97" y="228.23" width="6.55" height="1.09"/><rect class="cls-48" x="805.5" y="228.23" width="6.55" height="1.09"/><rect class="cls-49" x="798.95" y="228.23" width="6.55" height="1.09"/><rect class="cls-52" x="166.52" y="228.23" width="6.55" height="1.09"/><rect class="cls-46" x="148.51" y="246.23" width="11.46" height="1.09"/><rect class="cls-51" x="173.07" y="246.23" width="625.88" height="1.09"/><rect class="cls-47" x="159.97" y="246.23" width="6.55" height="1.09"/><rect class="cls-48" x="805.5" y="246.23" width="6.55" height="1.09"/><rect class="cls-49" x="798.95" y="246.23" width="6.55" height="1.09"/><rect class="cls-52" x="166.52" y="246.23" width="6.55" height="1.09"/><rect class="cls-46" x="148.51" y="191.67" width="11.46" height="1.09"/><rect class="cls-51" x="173.07" y="191.67" width="625.88" height="1.09"/><rect class="cls-47" x="159.97" y="191.67" width="6.55" height="1.09"/><rect class="cls-48" x="805.5" y="191.67" width="6.55" height="1.09"/><rect class="cls-49" x="798.95" y="191.67" width="6.55" height="1.09"/><rect class="cls-52" x="166.52" y="191.67" width="6.55" height="1.09"/><rect class="cls-46" x="148.51" y="137.1" width="11.46" height="1.09"/><rect class="cls-51" x="173.07" y="137.1" width="625.88" height="1.09"/><rect class="cls-47" x="159.97" y="137.1" width="6.55" height="1.09"/><rect class="cls-48" x="805.5" y="137.1" width="6.55" height="1.09"/><rect class="cls-49" x="798.95" y="137.1" width="6.55" height="1.09"/><rect class="cls-52" x="166.52" y="137.1" width="6.55" height="1.09"/><rect class="cls-46" x="148.51" y="155.11" width="11.46" height="1.09"/><rect class="cls-51" x="173.07" y="155.11" width="625.88" height="1.09"/><rect class="cls-47" x="159.97" y="155.11" width="6.55" height="1.09"/><rect class="cls-48" x="805.5" y="155.11" width="6.55" height="1.09"/><rect class="cls-49" x="798.95" y="155.11" width="6.55" height="1.09"/><rect class="cls-52" x="166.52" y="155.11" width="6.55" height="1.09"/><rect class="cls-46" x="148.51" y="83.08" width="11.46" height="1.09"/><rect class="cls-51" x="173.07" y="83.08" width="625.88" height="1.09"/><rect class="cls-47" x="159.97" y="83.08" width="6.55" height="1.09"/><rect class="cls-48" x="805.5" y="83.08" width="6.55" height="1.09"/><rect class="cls-49" x="798.95" y="83.08" width="6.55" height="1.09"/><rect class="cls-52" x="166.52" y="83.08" width="6.55" height="1.09"/><rect class="cls-46" x="148.51" y="101.09" width="11.46" height="1.09"/><rect class="cls-51" x="173.07" y="101.09" width="625.88" height="1.09"/><rect class="cls-47" x="159.97" y="101.09" width="6.55" height="1.09"/><rect class="cls-48" x="805.5" y="101.09" width="6.55" height="1.09"/><rect class="cls-49" x="798.95" y="101.09" width="6.55" height="1.09"/><rect class="cls-52" x="166.52" y="101.09" width="6.55" height="1.09"/><rect class="cls-53" x="361.32" y="60.16" width="10.91" height="10.91"/><rect class="cls-53" x="361.32" y="78.17" width="10.91" height="10.91"/><rect class="cls-53" x="361.32" y="96.18" width="10.91" height="10.91"/><rect class="cls-53" x="362.42" y="114.18" width="10.91" height="10.91"/><rect class="cls-53" x="362.42" y="132.19" width="10.91" height="10.91"/><rect class="cls-53" x="363.51" y="276.25" width="10.91" height="10.91"/><rect class="cls-53" x="363.51" y="296.43" width="10.91" height="10.91"/><rect class="cls-53" x="365.69" y="312.26" width="10.91" height="10.91"/><rect class="cls-43" x="260.95" y="62.75" width="523.1" height="5.73"/><rect class="cls-43" x="284.94" y="80.21" width="499.4" height="5.73"/><rect class="cls-43" x="309.63" y="98.22" width="439.37" height="5.73"/><rect class="cls-43" x="331.92" y="117.69" width="365.74" height="5.73"/><rect class="cls-43" x="364.05" y="134.2" width="263.88" height="5.73"/><rect class="cls-43" x="390.95" y="151.17" width="191.85" height="5.73"/><rect class="cls-43" x="439.14" y="170.63" width="116.22" height="5.73"/><rect class="cls-43" x="417.6" y="188.8" width="132.09" height="5.73"/><rect class="cls-43" x="401.73" y="207.35" width="174.36" height="5.73"/><rect class="cls-43" x="411.93" y="225.36" width="132.1" height="5.73"/><rect class="cls-43" x="401.73" y="244.76" width="150.95" height="5.99"/><rect class="cls-43" x="378.24" y="261.37" width="202.63" height="5.73"/><rect class="cls-43" x="340.81" y="279.38" width="280.63" height="5.73"/><rect class="cls-43" x="306.48" y="299.03" width="369.33" height="5.73"/><rect class="cls-43" x="264.53" y="315.94" width="484.47" height="5.73"/><line class="cls-54" x1="465.94" y1="336.27" x2="465.94" y2="65.62"/><rect class="cls-55" x="472.97" y="60.16" width="10.91" height="10.91"/><rect class="cls-56" x="472.97" y="60.16" width="10.91" height="10.91"/><rect class="cls-55" x="472.97" y="78.17" width="10.91" height="10.91"/><rect class="cls-56" x="472.97" y="78.17" width="10.91" height="10.91"/><rect class="cls-55" x="472.97" y="96.18" width="10.91" height="10.91"/><rect class="cls-56" x="472.97" y="96.18" width="10.91" height="10.91"/><rect class="cls-55" x="471.88" y="114.18" width="10.91" height="10.91"/><rect class="cls-56" x="471.88" y="114.18" width="10.91" height="10.91"/><rect class="cls-55" x="471.88" y="132.19" width="10.91" height="10.91"/><rect class="cls-56" x="471.88" y="132.19" width="10.91" height="10.91"/><rect class="cls-55" x="471.88" y="150.2" width="10.91" height="10.91"/><rect class="cls-56" x="471.88" y="150.2" width="10.91" height="10.91"/><rect class="cls-55" x="471.88" y="168.2" width="10.91" height="10.91"/><rect class="cls-56" x="471.88" y="168.2" width="10.91" height="10.91"/><rect class="cls-55" x="471.88" y="186.21" width="10.91" height="10.91"/><rect class="cls-56" x="471.88" y="186.21" width="10.91" height="10.91"/><rect class="cls-55" x="470.79" y="204.22" width="10.91" height="10.91"/><rect class="cls-56" x="470.79" y="204.22" width="10.91" height="10.91"/><rect class="cls-55" x="467.43" y="222.09" width="10.91" height="10.91"/><rect class="cls-56" x="467.43" y="222.09" width="10.91" height="10.91"/><rect class="cls-55" x="458.08" y="239.04" width="10.91" height="10.91"/><rect class="cls-56" x="458.08" y="239.04" width="10.91" height="10.91"/><rect class="cls-55" x="456.25" y="258.24" width="10.91" height="10.91"/><rect class="cls-56" x="456.25" y="258.24" width="10.91" height="10.91"/><rect class="cls-55" x="453.52" y="276.25" width="10.91" height="10.91"/><rect class="cls-56" x="453.52" y="276.25" width="10.91" height="10.91"/><rect class="cls-55" x="450.14" y="296.43" width="10.91" height="10.91"/><rect class="cls-56" x="450.14" y="296.43" width="10.91" height="10.91"/><rect class="cls-55" x="446.57" y="312.26" width="10.91" height="10.91"/><rect class="cls-56" x="446.57" y="312.26" width="10.91" height="10.91"/></g><path class="cls-37" d="M84,386.55a5.62,5.62,0,0,1,1.12.11,2.75,2.75,0,0,1,.95.38,2,2,0,0,1,.66.7,2.38,2.38,0,0,1,.13,1.79,2.14,2.14,0,0,1-.33.62,2.1,2.1,0,0,1-.51.47,1.88,1.88,0,0,1-.66.27v0a2.19,2.19,0,0,1,1.43.74,2.26,2.26,0,0,1,.53,1.53,3.67,3.67,0,0,1,0,.5,2.41,2.41,0,0,1-.49,1.15,2,2,0,0,1-.59.5,3.57,3.57,0,0,1-.91.35,5.34,5.34,0,0,1-1.29.14H80.1v-9.28H84Zm0,4.07A3.05,3.05,0,0,0,85,390.5a1.91,1.91,0,0,0,.65-0.34,1.39,1.39,0,0,0,.39-0.5,1.46,1.46,0,0,0,.13-0.61q0-1.74-2.09-1.74H81v3.32h3Zm0,4.46A5,5,0,0,0,85,395a2.13,2.13,0,0,0,.78-0.3,1.56,1.56,0,0,0,.53-0.59,2,2,0,0,0,.2-0.93,1.54,1.54,0,0,0-.63-1.35,3.11,3.11,0,0,0-1.81-.45H81v3.71h3Z" transform="translate(49.48 2.62)"/><path class="cls-37" d="M93,386.55a4,4,0,0,1,1.09.14,2.61,2.61,0,0,1,.9.44,2.09,2.09,0,0,1,.61.75,2.42,2.42,0,0,1,.23,1.08,2.61,2.61,0,0,1-.45,1.53,2.08,2.08,0,0,1-1.35.83v0a2.05,2.05,0,0,1,.75.24,1.52,1.52,0,0,1,.49.45,1.85,1.85,0,0,1,.27.63,4.61,4.61,0,0,1,.11.77q0,0.23,0,.57c0,0.23,0,.45.05,0.68a4.26,4.26,0,0,0,.12.65,1.24,1.24,0,0,0,.23.47h-1a1.13,1.13,0,0,1-.12-0.32,2.79,2.79,0,0,1-.07-0.39c0-.13,0-0.27,0-0.4s0-.24,0-0.34q0-.49-0.08-1a2.7,2.7,0,0,0-.25-0.87,1.54,1.54,0,0,0-.55-0.62,1.64,1.64,0,0,0-1-.21H89.66v4.12H88.77v-9.28H93ZM93,391a2.38,2.38,0,0,0,.77-0.12,1.92,1.92,0,0,0,.64-0.36,1.73,1.73,0,0,0,.44-0.57,1.7,1.7,0,0,0,.16-0.76,1.83,1.83,0,0,0-.49-1.35,2.05,2.05,0,0,0-1.51-.49h-3.3V391H93Z" transform="translate(49.48 2.62)"/><path class="cls-37" d="M98.39,386.55v9.28H97.51v-9.28h0.88Z" transform="translate(49.48 2.62)"/><path class="cls-37" d="M101.22,386.55v8.53h5.2v0.75h-6.08v-9.28h0.88Z" transform="translate(49.48 2.62)"/><path class="cls-37" d="M108.26,386.55v9.28h-0.88v-9.28h0.88Z" transform="translate(49.48 2.62)"/><path class="cls-37" d="M111.17,386.55l5.41,7.85h0v-7.85h0.88v9.28h-1L111.1,388h0v7.85h-0.88v-9.28h1Z" transform="translate(49.48 2.62)"/><path class="cls-37" d="M125.71,386.55v0.75h-3.24v8.53h-0.88v-8.53h-3.22v-0.75h7.34Z" transform="translate(49.48 2.62)"/><path class="cls-37" d="M130.28,386.55l3.64,9.28H133l-1.13-2.89h-4.23l-1.12,2.89h-0.94l3.73-9.28h1Zm1.26,5.64-1.79-4.76-1.86,4.76h3.65Z" transform="translate(49.48 2.62)"/><path class="cls-37" d="M139,386.55v3.85h0a1.93,1.93,0,0,1,.37-0.64,2.34,2.34,0,0,1,.55-0.46,2.43,2.43,0,0,1,.68-0.28,3,3,0,0,1,.73-0.09,2.92,2.92,0,0,1,1.33.29,2.74,2.74,0,0,1,.94.77,3.31,3.31,0,0,1,.56,1.13,5.17,5.17,0,0,1,0,2.72,3.31,3.31,0,0,1-.56,1.13,2.67,2.67,0,0,1-.94.77,3,3,0,0,1-1.33.28,2.83,2.83,0,0,1-1.46-.38,2.16,2.16,0,0,1-.93-1.08h0v1.27h-0.75v-9.28H139Zm4.43,4.89a2.87,2.87,0,0,0-.39-0.92,2.16,2.16,0,0,0-.68-0.66,1.89,1.89,0,0,0-1-.25,2.1,2.1,0,0,0-1.83.91,2.69,2.69,0,0,0-.4.92,4.39,4.39,0,0,0,0,2.07,2.69,2.69,0,0,0,.4.92,2.17,2.17,0,0,0,.73.66,2.2,2.2,0,0,0,1.1.25,1.89,1.89,0,0,0,1-.25,2.15,2.15,0,0,0,.68-0.66,2.87,2.87,0,0,0,.39-0.92A4.39,4.39,0,0,0,143.47,391.45Z" transform="translate(49.48 2.62)"/><path class="cls-37" d="M146.29,393.62a2.53,2.53,0,0,0,.4.85,2.25,2.25,0,0,0,.69.62,1.92,1.92,0,0,0,1,.25,2,2,0,0,0,1.4-.47,2.47,2.47,0,0,0,.7-1.25h0.82a3.27,3.27,0,0,1-1,1.77,2.85,2.85,0,0,1-2,.62,3.12,3.12,0,0,1-1.37-.28,2.52,2.52,0,0,1-.94-0.77,3.33,3.33,0,0,1-.54-1.13,5.14,5.14,0,0,1-.18-1.36,4.87,4.87,0,0,1,.18-1.3,3.47,3.47,0,0,1,.54-1.14,2.71,2.71,0,0,1,.94-0.81,2.9,2.9,0,0,1,1.37-.31,2.65,2.65,0,0,1,2.31,1.18,3.53,3.53,0,0,1,.51,1.21,5.3,5.3,0,0,1,.13,1.38h-5.16A3.64,3.64,0,0,0,146.29,393.62Zm4.06-2.5a2.45,2.45,0,0,0-.42-0.76,2.1,2.1,0,0,0-.66-0.53,1.9,1.9,0,0,0-.88-0.2,1.93,1.93,0,0,0-.9.2,2.1,2.1,0,0,0-.66.53,2.65,2.65,0,0,0-.44.77,3.75,3.75,0,0,0-.21.89h4.34A3,3,0,0,0,150.35,391.12Z" transform="translate(49.48 2.62)"/><path class="cls-37" d="M155.1,389.13v0.69h-1.36v4.52a1.47,1.47,0,0,0,.11.63,0.6,0.6,0,0,0,.55.25,6.26,6.26,0,0,0,.7,0v0.69h-0.73a1.21,1.21,0,0,1-1.46-1.5v-4.59h-1.17v-0.69h1.17v-2h0.82v2h1.36Z" transform="translate(49.48 2.62)"/><path class="cls-37" d="M158.95,389.13v0.69h-1.36v4.52a1.47,1.47,0,0,0,.11.63,0.6,0.6,0,0,0,.55.25,6.26,6.26,0,0,0,.7,0v0.69h-0.73a1.21,1.21,0,0,1-1.46-1.5v-4.59h-1.17v-0.69h1.17v-2h0.82v2h1.36Z" transform="translate(49.48 2.62)"/><path class="cls-37" d="M160.73,393.62a2.53,2.53,0,0,0,.4.85,2.25,2.25,0,0,0,.69.62,1.92,1.92,0,0,0,1,.25,2,2,0,0,0,1.4-.47,2.47,2.47,0,0,0,.7-1.25h0.82a3.27,3.27,0,0,1-1,1.77,2.85,2.85,0,0,1-2,.62,3.12,3.12,0,0,1-1.37-.28,2.52,2.52,0,0,1-.94-0.77,3.33,3.33,0,0,1-.54-1.13,5.14,5.14,0,0,1-.18-1.36,4.87,4.87,0,0,1,.18-1.3,3.47,3.47,0,0,1,.54-1.14,2.71,2.71,0,0,1,.94-0.81,2.9,2.9,0,0,1,1.37-.31,2.65,2.65,0,0,1,2.31,1.18,3.53,3.53,0,0,1,.51,1.21,5.3,5.3,0,0,1,.13,1.38h-5.16A3.64,3.64,0,0,0,160.73,393.62Zm4.06-2.5a2.45,2.45,0,0,0-.42-0.76,2.1,2.1,0,0,0-.66-0.53,1.9,1.9,0,0,0-.88-0.2,1.93,1.93,0,0,0-.9.2,2.1,2.1,0,0,0-.66.53,2.65,2.65,0,0,0-.44.77,3.75,3.75,0,0,0-.21.89H165A3,3,0,0,0,164.79,391.12Z" transform="translate(49.48 2.62)"/><path class="cls-37" d="M167.63,389.13v1.57h0a2.58,2.58,0,0,1,1-1.26,2.54,2.54,0,0,1,1.57-.4v0.82a2.48,2.48,0,0,0-1,.15,2.24,2.24,0,0,0-1.3,1.27,2.59,2.59,0,0,0-.18,1v3.58h-0.82v-6.71h0.75Z" transform="translate(49.48 2.62)"/><path class="cls-37" d="M684.62,388.41a2.62,2.62,0,0,0-.65-0.71,2.91,2.91,0,0,0-.85-0.44,3.12,3.12,0,0,0-1-.15,3.34,3.34,0,0,0-1.59.35,3.14,3.14,0,0,0-1.09.93,4,4,0,0,0-.62,1.31,5.63,5.63,0,0,0,0,3,4,4,0,0,0,.62,1.31,3.13,3.13,0,0,0,1.09.93,3.34,3.34,0,0,0,1.59.35,2.82,2.82,0,0,0,1.17-.23,2.77,2.77,0,0,0,.9-0.64,3.27,3.27,0,0,0,.61-0.94,3.92,3.92,0,0,0,.3-1.16H686a5,5,0,0,1-.4,1.55,3.78,3.78,0,0,1-.81,1.17,3.4,3.4,0,0,1-1.16.74,4.07,4.07,0,0,1-1.49.26,4.38,4.38,0,0,1-1.92-.4,4,4,0,0,1-1.37-1.06A4.51,4.51,0,0,1,678,393a6.3,6.3,0,0,1,0-3.67,4.58,4.58,0,0,1,.82-1.54,3.94,3.94,0,0,1,1.37-1.07,4.65,4.65,0,0,1,3.21-.2,3.74,3.74,0,0,1,1.14.58,3.36,3.36,0,0,1,.86.94,3.17,3.17,0,0,1,.44,1.29H685A3,3,0,0,0,684.62,388.41Z" transform="translate(49.48 2.62)"/><path class="cls-37" d="M688,386.55v9.28h-0.82v-9.28H688Z" transform="translate(49.48 2.62)"/><path class="cls-37" d="M693.81,389.22a3,3,0,0,1,1,.77,3.32,3.32,0,0,1,.61,1.12,4.63,4.63,0,0,1,0,2.74,3.32,3.32,0,0,1-.61,1.12,2.88,2.88,0,0,1-1,.76,3.44,3.44,0,0,1-2.72,0,2.87,2.87,0,0,1-1-.76,3.3,3.3,0,0,1-.61-1.12,4.63,4.63,0,0,1,0-2.74,3.3,3.3,0,0,1,.61-1.12,3,3,0,0,1,1-.77A3.37,3.37,0,0,1,693.81,389.22Zm-2.39.65a2.26,2.26,0,0,0-.73.65,3,3,0,0,0-.44.92,3.74,3.74,0,0,0,0,2.09,3,3,0,0,0,.44.92,2.26,2.26,0,0,0,.73.65,2.26,2.26,0,0,0,2.05,0,2.26,2.26,0,0,0,.73-0.65,3,3,0,0,0,.44-0.92,3.74,3.74,0,0,0,0-2.09,3,3,0,0,0-.44-0.92,2.26,2.26,0,0,0-.73-0.65A2.26,2.26,0,0,0,691.42,389.87Z" transform="translate(49.48 2.62)"/><path class="cls-37" d="M697.6,389.13v1.27h0a2.19,2.19,0,0,1,.93-1.09,2.8,2.8,0,0,1,1.46-.38,2.92,2.92,0,0,1,1.33.29,2.75,2.75,0,0,1,.94.77,3.3,3.3,0,0,1,.56,1.13,5.17,5.17,0,0,1,0,2.72,3.3,3.3,0,0,1-.56,1.13,2.67,2.67,0,0,1-.94.77,3.19,3.19,0,0,1-2.06.19,2.57,2.57,0,0,1-.68-0.27,2.25,2.25,0,0,1-.55-0.46,1.94,1.94,0,0,1-.37-0.64h0v3.74h-0.82v-9.18h0.75Zm4.49,2.32a2.85,2.85,0,0,0-.39-0.92,2.16,2.16,0,0,0-.68-0.66,1.89,1.89,0,0,0-1-.25,2.46,2.46,0,0,0-1.13.23,2,2,0,0,0-.73.62,2.46,2.46,0,0,0-.38.91,5.21,5.21,0,0,0-.11,1.09,4.42,4.42,0,0,0,.12,1,2.69,2.69,0,0,0,.4.92,2.17,2.17,0,0,0,.73.66,2.2,2.2,0,0,0,1.1.25,1.89,1.89,0,0,0,1-.25,2.15,2.15,0,0,0,.68-0.66,2.85,2.85,0,0,0,.39-0.92A4.37,4.37,0,0,0,702.09,391.45Z" transform="translate(49.48 2.62)"/><path class="cls-37" d="M705.14,386.55v1.31h-0.82v-1.31h0.82Zm0,2.57v6.71h-0.82v-6.71h0.82Z" transform="translate(49.48 2.62)"/><path class="cls-37" d="M711.86,395.83v-1.27h0a1.94,1.94,0,0,1-.38.6,2.47,2.47,0,0,1-.58.46,3,3,0,0,1-.7.29,2.71,2.71,0,0,1-.74.1,3,3,0,0,1-1.33-.28,2.66,2.66,0,0,1-.94-0.77,3.3,3.3,0,0,1-.56-1.13,5.17,5.17,0,0,1,0-2.72,3.3,3.3,0,0,1,.56-1.13,2.74,2.74,0,0,1,.94-0.77,2.92,2.92,0,0,1,1.33-.29,3,3,0,0,1,.74.09,2.44,2.44,0,0,1,.67.28,2.34,2.34,0,0,1,.55.46,1.93,1.93,0,0,1,.37.64h0v-3.85h0.82v9.28h-0.75Zm-4.49-2.32a2.85,2.85,0,0,0,.39.92,2.14,2.14,0,0,0,.68.66,1.89,1.89,0,0,0,1,.25,2.2,2.2,0,0,0,1.1-.25,2.17,2.17,0,0,0,.73-0.66,2.69,2.69,0,0,0,.4-0.92,4.37,4.37,0,0,0,0-2.07,2.69,2.69,0,0,0-.4-0.92,2.18,2.18,0,0,0-.73-0.66,2.2,2.2,0,0,0-1.1-.25,1.89,1.89,0,0,0-1,.25,2.15,2.15,0,0,0-.68.66,2.85,2.85,0,0,0-.39.92A4.4,4.4,0,0,0,707.37,393.51Z" transform="translate(49.48 2.62)"/><path class="cls-37" d="M718.36,389.22a3,3,0,0,1,1,.77,3.32,3.32,0,0,1,.61,1.12,4.63,4.63,0,0,1,0,2.74,3.32,3.32,0,0,1-.61,1.12,2.88,2.88,0,0,1-1,.76,3.44,3.44,0,0,1-2.72,0,2.87,2.87,0,0,1-1-.76,3.3,3.3,0,0,1-.61-1.12,4.63,4.63,0,0,1,0-2.74,3.3,3.3,0,0,1,.61-1.12,3,3,0,0,1,1-.77A3.37,3.37,0,0,1,718.36,389.22Zm-2.39.65a2.26,2.26,0,0,0-.73.65,3,3,0,0,0-.44.92,3.74,3.74,0,0,0,0,2.09,3,3,0,0,0,.44.92,2.26,2.26,0,0,0,.73.65,2.26,2.26,0,0,0,2.05,0,2.26,2.26,0,0,0,.73-0.65,3,3,0,0,0,.44-0.92,3.74,3.74,0,0,0,0-2.09,3,3,0,0,0-.44-0.92,2.26,2.26,0,0,0-.73-0.65A2.26,2.26,0,0,0,716,389.87Z" transform="translate(49.48 2.62)"/><path class="cls-37" d="M726.91,396.63a2.6,2.6,0,0,1-.51,1,2.24,2.24,0,0,1-.92.64,3.84,3.84,0,0,1-1.38.22,4.17,4.17,0,0,1-1-.12,2.81,2.81,0,0,1-.86-0.36,2.15,2.15,0,0,1-.64-0.63,1.89,1.89,0,0,1-.29-0.92h0.82a1.44,1.44,0,0,0,.25.63,1.5,1.5,0,0,0,.45.41,2,2,0,0,0,.59.23,3.06,3.06,0,0,0,.66.07,2,2,0,0,0,1.65-.65,3,3,0,0,0,.51-1.87v-0.91h0a2.39,2.39,0,0,1-.84,1,2.24,2.24,0,0,1-1.29.38,3.24,3.24,0,0,1-1.38-.27,2.55,2.55,0,0,1-.94-0.73,3,3,0,0,1-.54-1.1,5.19,5.19,0,0,1-.17-1.35,4.17,4.17,0,0,1,.2-1.31,3.22,3.22,0,0,1,.58-1.08,2.71,2.71,0,0,1,.95-0.73,3,3,0,0,1,1.29-.27,2.36,2.36,0,0,1,.71.1,2.26,2.26,0,0,1,.6.29,2.66,2.66,0,0,1,.49.44,2,2,0,0,1,.33.52h0v-1.16h0.82v6.16A5.1,5.1,0,0,1,726.91,396.63ZM725,394.84a2.16,2.16,0,0,0,.68-0.6,2.63,2.63,0,0,0,.41-0.85,3.6,3.6,0,0,0,.14-1,4.26,4.26,0,0,0-.12-1,2.88,2.88,0,0,0-.38-0.9,2,2,0,0,0-.67-0.65,1.89,1.89,0,0,0-1-.25,2,2,0,0,0-1,.24,2.14,2.14,0,0,0-.69.63,2.66,2.66,0,0,0-.4.89,4.25,4.25,0,0,0-.12,1,3.75,3.75,0,0,0,.13,1,2.52,2.52,0,0,0,.4.85,2.09,2.09,0,0,0,.69.6,2,2,0,0,0,1,.23A1.88,1.88,0,0,0,725,394.84Z" transform="translate(49.48 2.62)"/><path class="cls-37" d="M729.38,389.13v1.57h0a2.58,2.58,0,0,1,1-1.26,2.54,2.54,0,0,1,1.57-.4v0.82a2.48,2.48,0,0,0-1,.15,2.24,2.24,0,0,0-1.3,1.27,2.59,2.59,0,0,0-.18,1v3.58h-0.82v-6.71h0.75Z" transform="translate(49.48 2.62)"/><path class="cls-37" d="M733.33,393.62a2.52,2.52,0,0,0,.4.85,2.24,2.24,0,0,0,.69.62,1.92,1.92,0,0,0,1,.25,2,2,0,0,0,1.4-.47,2.47,2.47,0,0,0,.7-1.25h0.82a3.27,3.27,0,0,1-1,1.77,2.85,2.85,0,0,1-2,.62,3.12,3.12,0,0,1-1.37-.28,2.52,2.52,0,0,1-.94-0.77,3.32,3.32,0,0,1-.54-1.13,5.14,5.14,0,0,1-.18-1.36,4.87,4.87,0,0,1,.18-1.3,3.46,3.46,0,0,1,.54-1.14,2.71,2.71,0,0,1,.94-0.81,2.91,2.91,0,0,1,1.37-.31,2.65,2.65,0,0,1,2.31,1.18,3.52,3.52,0,0,1,.51,1.21,5.28,5.28,0,0,1,.13,1.38H733.2A3.64,3.64,0,0,0,733.33,393.62Zm4.06-2.5a2.46,2.46,0,0,0-.42-0.76,2.11,2.11,0,0,0-.66-0.53,1.9,1.9,0,0,0-.88-0.2,1.93,1.93,0,0,0-.9.2,2.1,2.1,0,0,0-.66.53,2.66,2.66,0,0,0-.44.77,3.75,3.75,0,0,0-.21.89h4.34A3,3,0,0,0,737.38,391.12Z" transform="translate(49.48 2.62)"/><path class="cls-37" d="M740.3,386.55v9.28h-0.82v-9.28h0.82Z" transform="translate(49.48 2.62)"/><path class="cls-37" d="M746.31,386.55v3.85h0a1.94,1.94,0,0,1,.37-0.64,2.34,2.34,0,0,1,.55-0.46,2.43,2.43,0,0,1,.68-0.28,3,3,0,0,1,.73-0.09,2.92,2.92,0,0,1,1.33.29,2.75,2.75,0,0,1,.94.77,3.3,3.3,0,0,1,.56,1.13,5.17,5.17,0,0,1,0,2.72,3.3,3.3,0,0,1-.56,1.13,2.67,2.67,0,0,1-.94.77,3,3,0,0,1-1.33.28,2.84,2.84,0,0,1-1.46-.38,2.15,2.15,0,0,1-.93-1.08h0v1.27h-0.75v-9.28h0.82Zm4.43,4.89a2.85,2.85,0,0,0-.39-0.92,2.16,2.16,0,0,0-.68-0.66,1.89,1.89,0,0,0-1-.25,2.2,2.2,0,0,0-1.1.25,2.18,2.18,0,0,0-.73.66,2.69,2.69,0,0,0-.4.92,4.4,4.4,0,0,0,0,2.07,2.69,2.69,0,0,0,.4.92,2.17,2.17,0,0,0,.73.66,2.2,2.2,0,0,0,1.1.25,1.89,1.89,0,0,0,1-.25,2.15,2.15,0,0,0,.68-0.66,2.85,2.85,0,0,0,.39-0.92A4.37,4.37,0,0,0,750.73,391.45Z" transform="translate(49.48 2.62)"/><path class="cls-37" d="M753.55,393.62a2.52,2.52,0,0,0,.4.85,2.24,2.24,0,0,0,.69.62,1.92,1.92,0,0,0,1,.25,2,2,0,0,0,1.4-.47,2.47,2.47,0,0,0,.7-1.25h0.82a3.27,3.27,0,0,1-1,1.77,2.85,2.85,0,0,1-2,.62,3.12,3.12,0,0,1-1.37-.28,2.52,2.52,0,0,1-.94-0.77,3.32,3.32,0,0,1-.54-1.13,5.14,5.14,0,0,1-.18-1.36,4.87,4.87,0,0,1,.18-1.3,3.46,3.46,0,0,1,.54-1.14,2.71,2.71,0,0,1,.94-0.81,2.91,2.91,0,0,1,1.37-.31,2.65,2.65,0,0,1,2.31,1.18,3.52,3.52,0,0,1,.51,1.21,5.28,5.28,0,0,1,.13,1.38h-5.16A3.64,3.64,0,0,0,753.55,393.62Zm4.06-2.5a2.46,2.46,0,0,0-.42-0.76,2.11,2.11,0,0,0-.66-0.53,1.9,1.9,0,0,0-.88-0.2,1.93,1.93,0,0,0-.9.2,2.1,2.1,0,0,0-.66.53,2.66,2.66,0,0,0-.44.77,3.75,3.75,0,0,0-.21.89h4.34A3,3,0,0,0,757.61,391.12Z" transform="translate(49.48 2.62)"/><path class="cls-37" d="M762.36,389.13v0.69H761v4.52a1.48,1.48,0,0,0,.11.63,0.6,0.6,0,0,0,.55.25,6.27,6.27,0,0,0,.7,0v0.69h-0.73a1.21,1.21,0,0,1-1.46-1.5v-4.59H759v-0.69h1.17v-2H761v2h1.37Z" transform="translate(49.48 2.62)"/><path class="cls-37" d="M766.21,389.13v0.69h-1.37v4.52a1.48,1.48,0,0,0,.11.63,0.6,0.6,0,0,0,.55.25,6.27,6.27,0,0,0,.7,0v0.69h-0.73a1.21,1.21,0,0,1-1.46-1.5v-4.59h-1.17v-0.69H764v-2h0.82v2h1.37Z" transform="translate(49.48 2.62)"/><path class="cls-37" d="M768,393.62a2.53,2.53,0,0,0,.4.85,2.26,2.26,0,0,0,.69.62,1.92,1.92,0,0,0,1,.25,2,2,0,0,0,1.4-.47,2.47,2.47,0,0,0,.7-1.25H773a3.27,3.27,0,0,1-1,1.77,2.85,2.85,0,0,1-2,.62,3.12,3.12,0,0,1-1.37-.28,2.52,2.52,0,0,1-.94-0.77,3.34,3.34,0,0,1-.54-1.13,5.14,5.14,0,0,1-.18-1.36,4.87,4.87,0,0,1,.18-1.3,3.48,3.48,0,0,1,.54-1.14,2.71,2.71,0,0,1,.94-0.81,2.9,2.9,0,0,1,1.37-.31,2.65,2.65,0,0,1,2.31,1.18,3.54,3.54,0,0,1,.51,1.21,5.32,5.32,0,0,1,.13,1.38h-5.16A3.64,3.64,0,0,0,768,393.62Zm4.06-2.5a2.44,2.44,0,0,0-.42-0.76,2.09,2.09,0,0,0-.66-0.53,1.9,1.9,0,0,0-.88-0.2,1.93,1.93,0,0,0-.9.2,2.09,2.09,0,0,0-.66.53,2.64,2.64,0,0,0-.44.77,3.75,3.75,0,0,0-.21.89h4.34A3,3,0,0,0,772.05,391.12Z" transform="translate(49.48 2.62)"/><path class="cls-37" d="M774.89,389.13v1.57h0a2.58,2.58,0,0,1,1-1.26,2.54,2.54,0,0,1,1.57-.4v0.82a2.48,2.48,0,0,0-1,.15,2.24,2.24,0,0,0-1.3,1.27,2.59,2.59,0,0,0-.18,1v3.58h-0.82v-6.71h0.75Z" transform="translate(49.48 2.62)"/></svg>