<?xml version="1.0" standalone="no"?>
<!DOCTYPE svg PUBLIC "-//W3C//DTD SVG 1.1//EN" "http://www.w3.org/Graphics/SVG/1.1/DTD/svg11.dtd" >
<svg xmlns="http://www.w3.org/2000/svg" width="100%" height="100%">
<metadata>
Created by FontXChange 20110222 at Tue Apr  7 14:13:45 2015
 By Creative4
 Copyright (c) 1989, 1991 Fundicion Tipografica Neufville S. A. This record material and the data recorded thereon is the property of Fundicion Tipografica Neufville S. A. and Adobe Systems Incorporated, or its licensors, and may not be reproduced, used, displayed, modified, disclosed or transferred in any manner without the express written approval of Fundicion Tipografica Neufville S. A. and Adobe Systems Incorporated. 
</metadata>
<defs>
<font id="BauerBodoni-BoldItalic" horiz-adv-x="556" >
  <font-face 
    font-family="Bauer Bodoni"
    font-weight="700"
    font-style="italic"
    font-stretch="normal"
    units-per-em="1000"
    panose-1="2 0 8 3 0 0 0 0 0 0"
    ascent="800"
    descent="-200"
    x-height="446"
    cap-height="704"
    bbox="-207 -288 1065 964"
    underline-thickness="50"
    underline-position="-100"
    slope="-12"
    stemh="18"
    stemv="120"
    unicode-range="U+0020-FB02"
  />
    <missing-glyph />
    <glyph glyph-name="space" unicode=" " horiz-adv-x="278" 
 />
    <glyph glyph-name="exclam" unicode="!" horiz-adv-x="333" 
d="M142 189l-12 3c24 104 46 202 48 304c0 35 -4 68 -24 98c54 29 96 73 127 126c10 -48 22 -97 58 -133c-91 -68 -155 -288 -197 -398zM173 78c0 -39 -32 -86 -78 -86c-37 0 -60 27 -60 58c0 39 32 86 78 86c37 0 60 -27 60 -58z" />
    <glyph glyph-name="quotedbl" unicode="&#x22;" horiz-adv-x="500" 
d="M177 443l-15 167c-2 15 -4 32 -4 44c0 19 0 66 45 66s45 -47 45 -66c0 -12 -2 -29 -3 -44l-16 -167c-1 -8 -5 -31 -26 -31c-20 0 -25 23 -26 31zM337 443l-15 167c-2 15 -4 32 -4 44c0 19 0 66 45 66s45 -47 45 -66c0 -12 -2 -29 -3 -44l-16 -167c-1 -8 -5 -31 -26 -31
c-20 0 -25 23 -26 31z" />
    <glyph glyph-name="numbersign" unicode="#" 
d="M116 0l29 210h-96l10 72h97l18 140h-96l10 72h96l30 210h77l-29 -210h114l29 210h78l-29 -210h96l-10 -72h-97l-18 -140h96l-10 -72h-96l-30 -210h-77l29 210h-114l-29 -210h-78zM347 282l18 140h-113l-18 -140h113z" />
    <glyph glyph-name="dollar" unicode="$" 
d="M314 467l65 226c-3 1 -7 1 -10 1c-72 0 -166 -36 -166 -121c0 -48 53 -78 111 -106zM290 308l-85 -293c16 -4 34 -5 54 -5c107 0 179 65 179 176c0 63 -74 90 -148 122zM402 690l-68 -232c89 -43 194 -85 194 -185c0 -154 -114 -281 -269 -281c-21 0 -42 3 -59 7
l-33 -115h-23l35 120c-72 22 -121 65 -151 65c-25 0 -35 -15 -45 -36l-13 5c26 80 53 159 75 240l15 -5c-1 -16 -3 -31 -3 -43c0 -102 29 -183 127 -210l87 297c-69 31 -134 64 -134 179c0 98 80 216 224 216c9 0 18 0 23 -1l32 109h23l-32 -111c78 -12 142 -58 166 -58
c11 0 20 19 26 26l12 -4c-23 -68 -44 -136 -62 -206l-15 3c2 15 3 30 3 44c0 89 -50 162 -135 176z" />
    <glyph glyph-name="percent" unicode="%" horiz-adv-x="1000" 
d="M251 340c-88 0 -125 70 -125 137c0 129 100 235 203 235c94 0 128 -75 128 -138c0 -114 -86 -234 -206 -234zM385 636c0 35 -14 64 -54 64c-84 0 -133 -233 -133 -278c0 -35 14 -70 54 -70c84 0 133 219 133 284zM668 -8c-88 0 -125 70 -125 137c0 129 100 235 203 235
c94 0 128 -75 128 -138c0 -114 -86 -234 -206 -234zM802 288c0 35 -14 64 -54 64c-84 0 -133 -233 -133 -278c0 -35 14 -70 54 -70c84 0 133 219 133 284zM242 -16l465 736h43l-464 -736h-44z" />
    <glyph glyph-name="ampersand" unicode="&#x26;" horiz-adv-x="778" 
d="M685 123l16 -6c-21 -64 -86 -133 -157 -133c-62 0 -107 35 -149 113c-57 -70 -120 -113 -194 -113c-86 0 -159 79 -159 163c0 139 124 187 230 239c-9 32 -15 67 -15 100c0 94 59 182 160 182c69 0 120 -40 120 -112c0 -69 -80 -117 -135 -140c23 -63 48 -123 77 -184
c56 68 100 114 156 114c44 0 74 -36 74 -74c0 -53 -33 -76 -74 -76c-34 0 -64 23 -64 59c0 13 2 24 7 35c-1 2 -3 4 -8 4c-15 0 -54 -38 -82 -81c25 -46 64 -157 128 -157c33 0 60 38 69 67zM277 369c-68 -27 -103 -85 -103 -157c-8 -75 47 -171 108 -174c43 0 80 44 102 76
c-39 82 -76 169 -107 255zM519 561c0 48 -34 89 -85 89c-49 0 -69 -37 -69 -81c0 -37 16 -97 31 -138c54 24 123 62 123 130z" />
    <glyph glyph-name="quoteright" unicode="&#x2019;" horiz-adv-x="278" 
d="M118 412l-3 17c53 14 138 87 138 145c0 4 -1 7 -5 7c-7 0 -14 -5 -30 -5c-32 0 -59 28 -59 60c0 45 31 84 77 84c42 0 65 -39 65 -78c0 -97 -94 -200 -183 -230z" />
    <glyph glyph-name="parenleft" unicode="(" horiz-adv-x="333" 
d="M147 -237l-51 -14c-15 79 -33 152 -33 234c0 291 110 554 317 758l32 -37c-185 -197 -295 -427 -295 -712c0 -79 15 -156 30 -229z" />
    <glyph glyph-name="parenright" unicode=")" horiz-adv-x="333" 
d="M-78 -251l-32 37c185 197 295 427 295 712c0 79 -15 156 -30 229l51 14c15 -79 33 -152 33 -234c0 -291 -110 -554 -317 -758z" />
    <glyph glyph-name="asterisk" unicode="*" 
d="M198 519h-34c-8 0 -13 3 -13 10c0 11 27 19 26 27c0 13 -33 39 -33 53c0 7 6 9 11 9c17 0 45 -17 54 -17s3 37 18 37c13 0 22 -34 26 -44c13 -32 40 -70 76 -98c6 18 8 36 8 53c0 26 -6 51 -13 78c-4 15 -10 33 -10 39c0 3 3 6 7 6c11 0 20 -16 30 -16c17 0 28 48 45 48
c12 0 12 -20 12 -31c0 -24 -5 -36 4 -36c5 0 13 3 20 3c6 0 16 -3 16 -7c0 -15 -23 -29 -34 -38c-27 -23 -56 -61 -71 -104c49 6 87 23 124 47c14 8 29 21 34 21s9 -4 9 -8c0 -11 -8 -21 -8 -30c0 -15 61 -12 61 -31c0 -20 -61 -22 -61 -30c0 -5 12 -19 12 -29
c0 -6 -2 -11 -9 -11c-9 0 -25 12 -41 22c-30 18 -74 34 -121 37c16 -38 49 -77 78 -101c23 -18 36 -27 36 -35c0 -13 -40 -6 -40 -15c0 -13 2 -24 2 -35c0 -12 -4 -24 -13 -24c-17 0 -35 45 -43 45c-5 0 -13 -18 -28 -18c-8 0 -10 7 -10 10c0 10 15 45 15 102
c0 31 -7 49 -10 63c-36 -33 -64 -80 -79 -124c-2 -7 -9 -25 -17 -25c-10 0 -13 35 -19 35c-10 0 -43 -17 -52 -17s-13 8 -13 14c0 9 32 42 32 48c0 8 -28 12 -28 26c0 6 10 8 18 8c54 0 104 17 149 47c-40 24 -94 36 -123 36z" />
    <glyph glyph-name="plus" unicode="+" horiz-adv-x="600" 
d="M258 295v211h84v-211h211v-84h-211v-211h-84v211h-211v84h211z" />
    <glyph glyph-name="comma" unicode="," horiz-adv-x="278" 
d="M-22 -172l-3 17c53 14 138 87 138 145c0 4 -1 7 -5 7c-7 0 -14 -5 -30 -5c-32 0 -59 28 -59 60c0 45 31 84 77 84c42 0 65 -39 65 -78c0 -97 -94 -200 -183 -230z" />
    <glyph glyph-name="hyphen" unicode="-" horiz-adv-x="500" 
d="M74 217l26 84h304l-26 -84h-304z" />
    <glyph glyph-name="period" unicode="." horiz-adv-x="278" 
d="M161 78c0 -39 -32 -86 -78 -86c-37 0 -60 27 -60 58c0 39 32 86 78 86c37 0 60 -27 60 -58z" />
    <glyph glyph-name="slash" unicode="/" horiz-adv-x="389" 
d="M461 720l-413 -736h-89l413 736h89z" />
    <glyph glyph-name="zero" unicode="0" 
d="M141 96c0 -39 18 -86 61 -86c29 0 45 9 70 41c68 87 173 454 173 564c0 36 -13 79 -65 79c-131 0 -239 -499 -239 -598zM39 250c0 181 133 462 343 462c121 0 165 -137 165 -235c0 -145 -77 -334 -192 -427c-31 -25 -93 -58 -140 -58c-131 0 -176 145 -176 258z" />
    <glyph glyph-name="one" unicode="1" 
d="M74 0l5 18h68l163 582c-61 -33 -125 -60 -190 -83l3 19c116 43 248 115 339 176h17l-194 -694h71l-4 -18h-278z" />
    <glyph glyph-name="two" unicode="2" 
d="M456 183l-97 -183h-366c77 214 398 306 398 603c0 51 -32 91 -100 91c-66 0 -146 -60 -146 -94c0 -48 87 -20 87 -97c0 -31 -22 -64 -61 -64c-49 0 -68 42 -68 82c0 121 105 191 213 191c104 0 201 -47 201 -165c0 -238 -302 -273 -428 -427h291c20 0 40 21 57 63h19z
" />
    <glyph glyph-name="three" unicode="3" 
d="M167 385v15h85c72 0 115 26 134 87c7 23 33 84 33 139c0 60 -56 68 -100 68c-46 0 -99 -25 -99 -56c0 -15 70 -2 70 -70c0 -34 -25 -56 -59 -56c-43 0 -67 27 -67 66c0 87 100 134 173 134c100 0 196 -43 196 -146c0 -110 -72 -175 -240 -178v-2c90 -22 164 -61 164 -165
c0 -91 -70 -229 -255 -229c-99 0 -184 44 -184 140c0 42 24 99 77 99c38 0 69 -22 69 -65c0 -29 -19 -61 -51 -61c-26 0 -45 15 -54 15c-11 0 -17 -11 -17 -23c0 -54 80 -81 124 -81c72 0 93 40 118 99c23 52 47 122 47 180c0 60 -37 82 -69 84z" />
    <glyph glyph-name="four" unicode="4" 
d="M85 278h191l95 307l-2 2zM525 712l-117 -434h99l-18 -72h-100l-51 -188h71l-4 -18h-278l5 18h68l54 188h-236l3 27l440 479h64z" />
    <glyph glyph-name="five" unicode="5" 
d="M135 322l-12 4c34 126 105 332 108 394c79 -32 128 -43 159 -43c47 0 94 14 127 49c-15 -103 -118 -163 -216 -163c-29 0 -58 4 -87 10l-55 -180l2 -2c39 38 87 62 145 62c100 0 173 -65 173 -161c0 -157 -167 -300 -321 -300c-72 0 -147 41 -147 120c0 42 30 80 73 80
c32 0 63 -20 63 -55c0 -74 -70 -54 -70 -91c0 -30 53 -36 73 -36c58 0 94 23 120 71c25 46 71 165 71 255c0 50 -16 93 -73 93c-55 0 -114 -58 -133 -107z" />
    <glyph glyph-name="six" unicode="6" 
d="M386 354c0 44 -25 62 -62 62c-42 0 -105 -28 -131 -124c-29 -108 -41 -164 -41 -191c0 -50 20 -91 79 -91c51 0 87 32 126 185c12 47 29 130 29 159zM547 706l-3 -16c-14 2 -28 4 -58 4c-144 0 -214 -170 -258 -302l2 -2c34 37 91 50 126 50c99 0 150 -77 150 -162
c0 -156 -106 -286 -265 -286c-133 0 -185 107 -185 236c0 251 195 484 442 484c14 0 31 -1 49 -6z" />
    <glyph glyph-name="seven" unicode="7" 
d="M138 515l-14 5c30 63 61 126 83 192h12v-12c66 -23 139 -33 210 -33c55 0 110 12 161 33l11 -8c-91 -97 -229 -291 -301 -409c-21 -37 -57 -96 -57 -136c0 -28 75 -23 75 -88c0 -44 -34 -67 -75 -67s-63 34 -63 72c0 37 46 116 62 149c63 127 150 238 233 352
c-51 -8 -103 -18 -155 -18c-65 0 -120 17 -153 24z" />
    <glyph glyph-name="eight" unicode="8" 
d="M471 212c0 -133 -113 -220 -247 -220c-99 0 -185 52 -185 165c0 99 101 166 192 206c-29 56 -56 79 -56 144c0 100 92 205 205 205c93 0 160 -47 160 -131c0 -96 -77 -144 -158 -182c36 -58 89 -114 89 -187zM369 130c0 70 -90 161 -129 219c-83 -37 -183 -95 -183 -192
c0 -81 53 -147 167 -147c72 0 145 33 145 120zM271 594c0 -50 67 -140 100 -182c77 37 151 79 151 168c0 77 -67 114 -135 114c-66 0 -116 -29 -116 -100z" />
    <glyph glyph-name="nine" unicode="9" 
d="M436 611c0 42 -20 83 -74 83c-56 0 -94 -52 -134 -196c-15 -52 -32 -96 -32 -148c0 -35 39 -54 65 -54c45 0 115 46 151 176c8 31 24 84 24 139zM5 0l4 12c130 12 218 31 288 187l55 123l1 2l-2 2c-31 -29 -76 -54 -126 -54c-92 0 -143 69 -143 154
c0 156 108 286 262 286c137 0 182 -121 182 -230c0 -204 -161 -482 -515 -482h-6z" />
    <glyph glyph-name="colon" unicode=":" horiz-adv-x="278" 
d="M236 331c0 -39 -32 -86 -78 -86c-37 0 -60 27 -60 58c0 39 32 86 78 86c37 0 60 -27 60 -58zM161 78c0 -39 -32 -86 -78 -86c-37 0 -60 27 -60 58c0 39 32 86 78 86c37 0 60 -27 60 -58z" />
    <glyph glyph-name="semicolon" unicode=";" horiz-adv-x="278" 
d="M-22 -172l-3 17c53 14 138 87 138 145c0 4 -1 7 -5 7c-7 0 -14 -5 -30 -5c-32 0 -59 28 -59 60c0 45 31 84 77 84c42 0 65 -39 65 -78c0 -97 -94 -200 -183 -230zM236 331c0 -39 -32 -86 -78 -86c-37 0 -60 27 -60 58c0 39 32 86 78 86c37 0 60 -27 60 -58z" />
    <glyph glyph-name="less" unicode="&#x3c;" horiz-adv-x="600" 
d="M553 514v-88l-393 -173l393 -173v-88l-506 223v76z" />
    <glyph glyph-name="equal" unicode="=" horiz-adv-x="600" 
d="M553 397v-84h-506v84h506zM553 193v-84h-506v84h506z" />
    <glyph glyph-name="greater" unicode="&#x3e;" horiz-adv-x="600" 
d="M47 -8v88l393 173l-393 173v88l506 -223v-76z" />
    <glyph glyph-name="question" unicode="?" horiz-adv-x="444" 
d="M158 189l-13 4c23 112 38 192 66 228c47 61 201 83 201 174c0 65 -67 91 -123 91c-29 0 -95 -15 -104 -47c-1 -5 -1 -5 1 -9c8 -3 18 -4 27 -5c26 -2 47 -20 47 -48c0 -34 -21 -60 -56 -60c-40 0 -64 30 -64 69c0 72 81 118 145 118c93 0 163 -57 163 -153
c0 -120 -62 -172 -207 -244c-56 -28 -64 -38 -76 -89zM207 78c0 -39 -32 -86 -78 -86c-37 0 -60 27 -60 58c0 39 32 86 78 86c37 0 60 -27 60 -58z" />
    <glyph glyph-name="at" unicode="@" horiz-adv-x="800" 
d="M359 295c-1 -58 27 -87 57 -87c76 0 118 140 118 209c0 44 -11 67 -42 67c-49 0 -133 -75 -133 -189zM556 486l9 36h76l-62 -247c-4 -16 -6 -26 -6 -36c0 -25 13 -44 36 -44c69 0 124 118 124 215c0 118 -95 256 -281 256c-154 0 -292 -102 -292 -335
c0 -162 125 -287 285 -287c89 0 148 16 208 50l9 -36c-62 -48 -150 -74 -244 -74c-230 0 -366 168 -366 350c0 234 176 386 378 386s351 -132 351 -309c0 -115 -81 -258 -193 -258c-62 0 -90 60 -90 75h-2c-9 -17 -58 -70 -120 -74c-34 -1 -101 19 -101 129
c0 82 72 255 198 255c27 0 59 -9 81 -52h2z" />
    <glyph glyph-name="A" unicode="A" horiz-adv-x="667" 
d="M-60 0l5 18h22c34 0 66 36 80 57l440 659h21v-716h71l-5 -18h-293l5 18h78v196h-198l-84 -130c-8 -13 -21 -29 -21 -39c0 -21 21 -27 45 -27h37l-5 -18h-198zM364 232v284h-2l-184 -284h186z" />
    <glyph glyph-name="B" unicode="B" horiz-adv-x="667" 
d="M367 686l-88 -316h84c146 0 170 193 170 244c0 59 -31 72 -88 72h-78zM-46 0l5 18h73l186 668h-79l5 18h326c90 0 195 -27 195 -138c0 -122 -109 -190 -218 -203v-2c74 0 153 -50 153 -141c0 -88 -61 -220 -319 -220h-327zM274 352l-93 -334h81c85 0 115 11 154 68
c19 27 46 113 46 174c0 59 -35 92 -97 92h-91z" />
    <glyph glyph-name="C" unicode="C" horiz-adv-x="667" 
d="M691 691l18 -4c-23 -84 -44 -169 -57 -256l-18 3c4 16 6 32 6 47c0 115 -52 221 -177 221c-95 0 -162 -118 -212 -254c-38 -103 -66 -207 -66 -295c0 -89 58 -151 149 -151c117 0 202 82 248 174l15 -11c-48 -97 -142 -181 -256 -181c-182 0 -282 144 -282 313
c0 210 203 423 406 423c53 0 90 -14 123 -34c29 -18 61 -34 74 -34c19 0 25 25 29 39z" />
    <glyph glyph-name="D" unicode="D" horiz-adv-x="778" 
d="M-46 0l5 18h73l186 668h-79l5 18h334c146 0 271 -87 271 -279c0 -229 -172 -425 -403 -425h-392zM367 686l-186 -668h127c64 0 121 20 166 71c76 86 143 353 143 428c0 131 -75 169 -146 169h-104z" />
    <glyph glyph-name="E" unicode="E" horiz-adv-x="667" 
d="M-46 0l5 18h73l186 668h-79l5 18h542l-36 -192h-17c2 14 5 28 5 42c0 104 -58 132 -122 132h-150l-82 -296h89c49 0 77 17 93 62l16 46h17c-24 -84 -48 -168 -67 -253h-16c6 25 10 49 10 74c0 41 -25 53 -71 53h-76l-98 -354h149c146 0 222 110 255 205h17l-61 -223h-587
z" />
    <glyph glyph-name="F" unicode="F" horiz-adv-x="611" 
d="M255 0h-301l5 18h73l186 668h-79l5 18h542l-36 -192h-17c2 14 5 28 5 42c0 104 -58 132 -122 132h-150l-79 -296h86c49 0 77 17 93 62l16 46h17c-24 -84 -48 -168 -67 -253h-16c6 25 10 49 10 74c0 41 -25 53 -71 53h-75l-98 -354h78z" />
    <glyph glyph-name="G" unicode="G" horiz-adv-x="722" 
d="M438 252l4 18h279l-5 -18h-57l-25 -86c-32 -111 -185 -182 -293 -182c-182 0 -282 144 -282 313c0 210 203 423 406 423c53 0 90 -14 123 -34c29 -18 61 -34 74 -34c19 0 25 25 29 39l18 -4c-23 -84 -44 -169 -57 -256l-18 3c4 16 6 32 6 47c0 115 -52 221 -177 221
c-95 0 -162 -118 -212 -254c-38 -103 -66 -207 -66 -295c0 -89 58 -151 149 -151c56 0 104 21 124 85l51 165h-71z" />
    <glyph glyph-name="H" unicode="H" horiz-adv-x="778" 
d="M-46 0l5 18h73l186 668h-79l5 18h301l-5 -18h-73l-88 -316h266l88 316h-82l5 18h303l-5 -18h-75l-186 -668h80l-5 -18h-301l5 18h74l93 334h-265l-93 -334h79l-5 -18h-301z" />
    <glyph glyph-name="I" unicode="I" horiz-adv-x="389" 
d="M-40 0l5 18h73l186 668h-79l5 18h301l-5 -18h-73l-186 -668h79l-5 -18h-301z" />
    <glyph glyph-name="J" unicode="J" horiz-adv-x="500" 
d="M267 686l5 18h301l-5 -18h-73l-156 -557c-42 -150 -178 -215 -280 -215c-61 0 -122 49 -122 113c0 52 29 93 83 93c39 0 73 -27 73 -68c0 -45 -24 -76 -65 -76c-12 0 -16 6 -28 6c-6 0 -14 -3 -14 -12c0 -15 39 -38 71 -38c85 0 106 98 122 154l167 600h-79z" />
    <glyph glyph-name="K" unicode="K" horiz-adv-x="722" 
d="M-46 0l5 18h73l186 668h-79l5 18h301l-5 -18h-73l-86 -309h2l234 192c43 35 88 77 88 96c0 18 -21 21 -39 21h-26l5 18h234l-5 -18h-29c-45 0 -91 -33 -122 -58l-246 -196l195 -414h71l-4 -18h-297l5 18h70l-145 316l-91 -316h79l-5 -18h-301z" />
    <glyph glyph-name="L" unicode="L" horiz-adv-x="667" 
d="M-46 0l5 18h73l186 668h-79l5 18h301l-5 -18h-73l-187 -668h113c150 0 268 92 315 257l15 -3l-77 -272h-592z" />
    <glyph glyph-name="M" unicode="M" horiz-adv-x="889" 
d="M-54 0l4 18h22c33 0 64 26 75 64l174 604h-74l4 18h227l39 -506h2l330 506h219l-4 -18h-70l-190 -668h80l-4 -18h-305l4 18h76l183 636l-2 2l-424 -656h-26l-49 668h-2l-160 -559c-5 -16 -7 -30 -7 -46s14 -45 47 -45h34l-4 -18h-199z" />
    <glyph glyph-name="N" unicode="N" horiz-adv-x="722" 
d="M-60 0l5 18h41c33 0 67 55 77 90l163 578h-72l5 18h219l181 -563h2l127 455c6 24 8 38 8 52c0 23 -12 38 -53 38h-33l5 18h224l-5 -18h-34c-55 0 -77 -37 -92 -90l-170 -596h-83l-216 662h-2l-148 -532c-8 -28 -16 -49 -16 -63c0 -40 29 -49 59 -49h30l-5 -18h-217z" />
    <glyph glyph-name="O" unicode="O" horiz-adv-x="722" 
d="M175 129c0 -75 37 -127 125 -127c112 0 165 101 197 210c74 252 82 300 82 363c0 75 -37 127 -125 127c-94 0 -160 -80 -225 -306c-46 -160 -54 -219 -54 -267zM49 249c0 246 217 471 396 471c162 0 260 -140 260 -288c0 -216 -160 -448 -401 -448
c-156 0 -255 123 -255 265z" />
    <glyph glyph-name="P" unicode="P" horiz-adv-x="667" 
d="M275 316l-84 -298h73l-5 -18h-294l5 18h73l186 668h-79l5 18h299c78 0 229 -10 229 -154c0 -148 -117 -234 -295 -234h-113zM378 686l-99 -352h87c59 0 84 15 111 49c29 34 68 142 68 216c0 71 -49 87 -97 87h-70z" />
    <glyph glyph-name="Q" unicode="Q" horiz-adv-x="722" 
d="M175 129c0 -75 37 -127 125 -127c112 0 165 101 197 210c74 252 82 300 82 363c0 75 -37 127 -125 127c-94 0 -160 -80 -225 -306c-46 -160 -54 -219 -54 -267zM480 -200l-4 -18h-76c-60 0 -204 18 -204 119c0 29 15 66 26 99c-108 31 -173 134 -173 249
c0 246 217 471 396 471c162 0 260 -140 260 -288c0 -202 -140 -418 -352 -445c-12 -33 -31 -91 -31 -123c0 -59 54 -64 102 -64h56z" />
    <glyph glyph-name="R" unicode="R" horiz-adv-x="722" 
d="M367 686l-86 -306h149c123 0 144 203 144 247c0 46 -28 59 -67 59h-140zM-46 0l5 18h73l186 668h-79l5 18h359c144 0 203 -45 203 -139c0 -137 -111 -194 -233 -198v-2c96 -20 131 -55 131 -138c0 -40 -43 -157 -43 -184c0 -15 5 -31 23 -31c32 0 52 24 70 47l13 -4
c-24 -40 -57 -61 -104 -61c-57 0 -134 24 -134 94c0 81 49 148 49 224c0 45 -44 50 -94 50h-108l-95 -344h79l-5 -18h-301z" />
    <glyph glyph-name="S" unicode="S" horiz-adv-x="611" 
d="M58 270l16 -5c-8 -21 -10 -42 -10 -61c0 -126 85 -202 208 -202c108 0 180 65 180 174c0 139 -301 115 -301 303c0 101 73 241 232 241c104 0 175 -61 204 -61c13 0 23 19 27 26l12 -4c-23 -68 -44 -136 -62 -206l-16 3c4 15 4 30 4 44c0 99 -64 180 -170 180
s-159 -62 -159 -122c0 -127 319 -136 319 -311c0 -146 -112 -285 -268 -285c-119 0 -191 77 -231 77c-24 0 -36 -14 -44 -36l-14 5c27 79 52 159 73 240z" />
    <glyph glyph-name="T" unicode="T" horiz-adv-x="722" 
d="M123 0l6 18h81l186 668h-52c-127 0 -205 -124 -244 -231h-20l72 249h657l-72 -249h-21c9 32 15 69 15 95c0 82 -48 136 -140 136h-46l-186 -668h87l-6 -18h-317z" />
    <glyph glyph-name="U" unicode="U" horiz-adv-x="722" 
d="M135 686l5 18h304l-5 -18h-80l-142 -494c-9 -32 -12 -58 -12 -77c0 -88 70 -113 133 -113c122 0 202 66 233 174l121 425c8 27 15 45 15 59c0 16 -25 26 -59 26h-27l5 18h210l-5 -18h-48c-43 0 -58 -43 -64 -67l-128 -449c-42 -148 -150 -186 -271 -186
c-80 0 -253 32 -253 168c0 19 13 68 23 105l119 429h-74z" />
    <glyph glyph-name="V" unicode="V" horiz-adv-x="611" 
d="M133 -21l67 707h-71l5 18h292l-5 -18h-75l-44 -471h2l264 360c16 22 34 53 34 77c0 26 -19 34 -41 34h-28l5 18h187l-5 -18c-45 -2 -65 -25 -97 -68l-470 -639h-20z" />
    <glyph glyph-name="W" unicode="W" horiz-adv-x="944" 
d="M133 -21l67 707h-71l5 18h292l-5 -18h-75l-44 -462h2l238 330l13 132h-71l5 18h292l-5 -18h-75l-44 -461l2 -2l249 352c16 22 34 51 34 77s-19 34 -41 34h-28l5 18h187l-5 -18c-45 -2 -52 -6 -72 -34l-480 -673h-20l52 542l-2 2v-2l-385 -542h-20z" />
    <glyph glyph-name="X" unicode="X" horiz-adv-x="611" 
d="M-50 0l5 18h21c55 0 80 18 128 77l154 187l-83 404h-63l5 18h278l-5 -18h-72l55 -265l149 188c20 24 28 42 28 57c0 14 -18 20 -50 20h-23l4 18h230l-5 -18h-18c-50 0 -86 -11 -154 -94l-157 -193l81 -381h72l-5 -18h-285l5 18h70l-53 240l-129 -159
c-12 -16 -29 -36 -29 -50c0 -20 22 -31 47 -31h23l-5 -18h-219z" />
    <glyph glyph-name="Y" unicode="Y" horiz-adv-x="611" 
d="M73 0l5 18h69l84 298l-38 370h-75l5 18h299l-5 -18h-79l35 -362l186 258c20 27 35 60 35 79c0 18 -19 25 -40 25h-27l5 18h183l-5 -18h-16c-35 0 -52 -18 -85 -63l-235 -325l-79 -280h80l-5 -18h-297z" />
    <glyph glyph-name="Z" unicode="Z" horiz-adv-x="667" 
d="M-11 0l523 686h-117c-135 0 -184 -76 -231 -156l-22 -38h-12l48 212h528l-524 -686h177c97 0 191 87 243 201h14l-57 -219h-570z" />
    <glyph glyph-name="bracketleft" unicode="[" horiz-adv-x="333" 
d="M-41 -239l277 968h192l-11 -36h-136l-254 -896h135l-12 -36h-191z" />
    <glyph glyph-name="backslash" unicode="\" horiz-adv-x="278" 
d="M23 720h82l182 -736h-82z" />
    <glyph glyph-name="bracketright" unicode="]" horiz-adv-x="333" 
d="M351 729l-277 -968h-192l11 36h136l254 896h-135l12 36h191z" />
    <glyph glyph-name="asciicircum" unicode="^" horiz-adv-x="600" 
d="M185 339h-89l178 365h80l178 -365h-89l-129 275z" />
    <glyph glyph-name="underscore" unicode="_" horiz-adv-x="500" 
d="M500 -125h-500v50h500v-50z" />
    <glyph glyph-name="quoteleft" unicode="&#x2018;" horiz-adv-x="278" 
d="M298 720l3 -17c-53 -14 -138 -87 -138 -145c0 -4 1 -7 5 -7c7 0 14 5 30 5c32 0 59 -28 59 -60c0 -45 -31 -84 -77 -84c-42 0 -65 39 -65 78c0 97 94 200 183 230z" />
    <glyph glyph-name="a" unicode="a" 
d="M506 434l-99 -335c-6 -21 -15 -45 -15 -54c0 -17 8 -21 18 -21c32 0 74 59 85 81l14 -8c-28 -49 -74 -109 -148 -109c-50 0 -77 45 -77 102h-2c-20 -41 -73 -102 -139 -102c-78 0 -121 68 -121 158c0 116 102 300 256 300c51 0 77 -26 83 -74h2l18 62h125zM191 288
l-31 -91c-16 -48 -36 -136 -36 -153c0 -29 18 -38 34 -38c33 0 91 34 127 125c34 85 64 179 64 221c0 59 -31 76 -56 76c-32 0 -58 -12 -102 -140z" />
    <glyph glyph-name="b" unicode="b" 
d="M128 686l4 18h54c96 0 123 15 143 31l-112 -377l2 -1c33 47 84 89 146 89c96 0 141 -68 141 -152c0 -166 -133 -306 -295 -306c-106 0 -167 91 -167 153c0 45 15 104 32 161l112 384h-60zM392 380c0 33 -25 48 -45 48c-45 0 -123 -65 -149 -135
c-14 -39 -32 -109 -43 -153c-5 -20 -9 -39 -9 -53c0 -62 34 -81 61 -81c55 0 90 28 136 154c36 98 49 173 49 220z" />
    <glyph glyph-name="c" unicode="c" horiz-adv-x="444" 
d="M378 136l15 -6c-39 -77 -103 -142 -194 -142c-113 0 -177 65 -177 159c0 175 157 299 287 299c56 0 127 -18 127 -94c0 -34 -28 -73 -74 -73c-35 0 -64 28 -64 69c0 58 53 57 53 69c0 11 -28 11 -45 11c-114 0 -164 -316 -164 -351c0 -49 25 -71 71 -71
c68 0 136 65 165 130z" />
    <glyph glyph-name="d" unicode="d" 
d="M394 686l4 18h54c96 0 123 15 143 31l-188 -636c-6 -21 -15 -45 -15 -54c0 -17 8 -21 18 -21c32 0 74 59 85 81l14 -8c-28 -49 -74 -109 -148 -109c-50 0 -77 45 -77 102h-2c-20 -41 -73 -102 -139 -102c-78 0 -121 68 -121 158c0 116 102 300 256 300
c51 0 77 -26 83 -74h2l91 314h-60zM191 288l-31 -91c-16 -48 -36 -136 -36 -153c0 -29 18 -38 34 -38c33 0 91 34 127 125c34 85 64 179 64 221c0 59 -31 76 -56 76c-32 0 -58 -12 -102 -140z" />
    <glyph glyph-name="e" unicode="e" horiz-adv-x="444" 
d="M359 99l13 -7c-42 -65 -106 -104 -187 -104c-108 0 -163 77 -163 165c0 133 142 297 269 293c58 0 124 -36 124 -103c0 -104 -103 -144 -193 -144c-11 0 -41 2 -59 8c-12 -46 -21 -91 -21 -134c0 -41 25 -67 63 -67c62 0 119 40 154 93zM319 393c0 30 -18 41 -33 41
c-47 0 -77 -73 -118 -213c10 -6 28 -10 42 -10c44 0 63 26 78 65c16 41 31 83 31 117z" />
    <glyph glyph-name="f" unicode="f" horiz-adv-x="333" 
d="M121 416h-72l4 18h73c46 138 168 301 282 301c41 0 79 -25 79 -69c0 -38 -27 -64 -64 -64c-35 0 -62 23 -62 57c0 32 13 50 44 61v3c-52 0 -85 -42 -125 -193c-7 -27 -18 -60 -26 -96h87l-4 -18h-87l-56 -256c-15 -69 -129 -425 -273 -425c-36 0 -83 22 -83 63
c0 44 28 65 64 65c43 0 62 -28 62 -55c0 -31 -22 -50 -43 -53v-2c65 0 84 51 103 157c40 219 79 448 97 506z" />
    <glyph glyph-name="g" unicode="g" horiz-adv-x="500" 
d="M147 -255c84 0 216 61 216 160c0 50 -54 50 -123 50c-49 0 -117 -5 -144 -5c-49 0 -83 -62 -83 -104c0 -75 69 -101 134 -101zM162 184c0 -22 13 -38 35 -38c38 0 49 19 79 116c16 51 30 96 30 128c0 26 -16 44 -37 44c-51 0 -70 -88 -78 -118c-12 -46 -29 -97 -29 -132z
M66 271c0 106 85 175 185 175c31 0 74 -8 111 -42c32 41 55 48 87 48c35 0 59 -28 59 -56c1 -37 -19 -58 -50 -58c-30 0 -46 23 -46 48c0 23 14 34 14 41c0 3 -2 7 -7 7c-12 0 -40 -30 -46 -44c17 -26 29 -60 29 -92c0 -99 -96 -164 -189 -164c-20 0 -35 2 -47 6
c-11 4 -18 7 -26 7c-38 0 -97 -23 -97 -57c0 -28 18 -32 91 -32c27 0 122 5 156 5c67 0 115 -28 115 -102c0 -141 -140 -234 -273 -234c-74 0 -179 31 -179 121c0 58 56 96 110 107v2c-43 15 -62 43 -62 89c0 67 69 109 129 113v2c-40 21 -64 65 -64 110z" />
    <glyph glyph-name="h" unicode="h" 
d="M3 0l198 686h-58l4 18h54c96 0 123 15 143 31l-121 -406l2 -1c41 50 96 118 172 118c60 0 93 -33 93 -84c0 -30 -21 -87 -38 -136l-45 -127c-7 -21 -15 -45 -15 -54c0 -17 8 -21 18 -21c32 0 74 59 85 81l14 -8c-28 -49 -74 -109 -148 -109c-53 0 -83 39 -83 84
c0 19 9 41 14 57l79 234c6 18 11 31 11 44s-12 15 -21 15c-48 0 -141 -114 -155 -162l-75 -260h-128z" />
    <glyph glyph-name="i" unicode="i" horiz-adv-x="333" 
d="M80 416l4 18h103c48 0 72 8 92 22l-109 -357c-6 -21 -15 -45 -15 -54c0 -17 8 -21 18 -21c32 0 74 59 85 81l14 -8c-28 -49 -74 -109 -139 -109c-92 0 -92 75 -92 83c0 16 6 39 12 59l89 286h-62zM190 603c0 38 31 69 69 69s69 -31 69 -69s-31 -69 -69 -69s-69 31 -69 69
z" />
    <glyph glyph-name="j" unicode="j" horiz-adv-x="333" 
d="M80 416l1 6l3 12h103c48 0 72 8 92 22l-134 -439c-26 -85 -131 -271 -270 -271c-40 0 -82 21 -82 66c0 34 24 65 60 65c34 0 60 -14 60 -55c0 -21 -15 -49 -39 -53c-6 -1 -13 -2 -13 -5s2 -6 15 -6c61 0 80 55 112 163l154 495h-62zM190 603c0 38 31 69 69 69
s69 -31 69 -69s-31 -69 -69 -69s-69 31 -69 69z" />
    <glyph glyph-name="k" unicode="k" 
d="M3 0l204 686h-60l4 18h54c96 0 123 15 143 31l-140 -462h49c101 0 54 189 187 189c41 0 65 -30 65 -67s-31 -63 -62 -63c-24 0 -58 13 -58 43c0 11 5 17 5 23s-4 10 -10 10c-33 0 -40 -135 -96 -146v-2c66 -32 87 -52 88 -115c3 -106 15 -115 35 -115c35 0 61 54 69 79
l14 -4c-19 -65 -62 -117 -127 -117c-55 0 -104 16 -105 149c-1 112 -8 118 -35 118c-8 0 -15 0 -24 -2l-76 -253h-124z" />
    <glyph glyph-name="l" unicode="l" horiz-adv-x="333" 
d="M149 686l4 18h54c96 0 123 15 143 31l-185 -636c-6 -21 -15 -45 -15 -54c0 -17 8 -21 18 -21c32 0 74 59 85 81l14 -8c-28 -49 -74 -109 -139 -109c-92 0 -92 75 -92 83c0 16 6 39 12 59l163 556h-62z" />
    <glyph glyph-name="m" unicode="m" horiz-adv-x="833" 
d="M3 0l120 416h-58l4 18h103c48 0 72 8 92 22l-41 -127l2 -1c41 50 90 118 174 118c43 0 91 -13 91 -82c0 -13 -1 -27 -3 -35l2 -1c43 50 93 118 180 118c64 0 98 -33 98 -84c0 -30 -21 -87 -38 -136l-45 -127c-7 -21 -15 -45 -15 -54c0 -17 8 -21 18 -21c32 0 74 59 85 81
l14 -8c-28 -49 -74 -109 -148 -109c-53 0 -83 39 -83 84c0 19 9 41 14 57l73 223c7 21 11 39 11 52c0 16 -12 18 -20 18c-45 0 -140 -92 -161 -162l-77 -260h-126l103 353c6 20 10 38 10 51c0 16 -12 18 -21 18c-48 0 -141 -114 -155 -162l-75 -260h-128z" />
    <glyph glyph-name="n" unicode="n" 
d="M3 0l120 416h-58l4 18h103c48 0 72 8 92 22l-41 -127l2 -1c41 50 96 118 172 118c60 0 93 -33 93 -84c0 -30 -21 -87 -38 -136l-45 -127c-7 -21 -15 -45 -15 -54c0 -17 8 -21 18 -21c32 0 74 59 85 81l14 -8c-28 -49 -74 -109 -148 -109c-53 0 -83 39 -83 84
c0 19 9 41 14 57l79 234c6 18 11 31 11 44s-12 15 -21 15c-48 0 -141 -114 -155 -162l-75 -260h-128z" />
    <glyph glyph-name="o" unicode="o" horiz-adv-x="500" 
d="M450 263c0 -126 -107 -275 -266 -275c-82 0 -162 61 -162 171c0 175 144 287 260 287c107 0 168 -82 168 -183zM348 378c0 39 -16 56 -58 56c-56 0 -75 -48 -90 -86c-36 -92 -76 -232 -76 -282c0 -44 23 -66 59 -66c61 0 79 53 94 91c23 57 71 252 71 287z" />
    <glyph glyph-name="p" unicode="p" 
d="M-111 -265l4 18h51l194 663h-62l6 18h69c50 0 84 2 113 21c-4 -20 -11 -64 -15 -97h2c28 44 81 88 141 88c84 0 114 -75 114 -148c0 -122 -86 -310 -235 -310c-60 0 -88 38 -100 92h-2l-97 -327h66l-5 -18h-244zM398 382c0 32 -20 40 -35 40c-50 0 -116 -78 -134 -137
l-31 -107c-7 -26 -15 -55 -15 -73c0 -34 25 -93 64 -93c40 0 63 47 100 152c20 56 51 167 51 218z" />
    <glyph glyph-name="q" unicode="q" 
d="M191 288l-31 -91c-16 -48 -37 -136 -36 -153c1 -29 18 -38 34 -38h6c117 1 185 257 185 346c0 59 -31 76 -56 76c-32 0 -58 -12 -102 -140zM126 -265l5 18h51l99 321h-2c-32 -44 -64 -86 -136 -86c-78 0 -121 68 -121 158c0 116 102 300 256 300c51 0 77 -26 83 -74h2
l18 62h129l-200 -681h66l-5 -18h-245z" />
    <glyph glyph-name="r" unicode="r" horiz-adv-x="444" 
d="M3 0l124 416h-62l4 18h103c48 0 72 8 92 22l-37 -111h2c28 41 78 101 137 101c43 0 78 -20 78 -70c0 -39 -27 -74 -75 -74c-37 0 -63 25 -63 62c0 28 22 47 22 49c0 3 -2 3 -4 3c-22 0 -101 -97 -108 -122l-85 -294h-128z" />
    <glyph glyph-name="s" unicode="s" horiz-adv-x="444" 
d="M357 135c0 -102 -110 -147 -201 -147c-65 0 -153 42 -153 110c0 41 22 70 61 70c35 0 59 -28 59 -61c0 -43 -29 -57 -53 -59c-10 0 -17 -2 -17 -7c0 -9 50 -41 105 -41c53 0 103 19 103 83c0 86 -172 77 -172 200c0 96 87 163 183 163c50 0 133 -23 133 -88
c0 -38 -19 -68 -59 -68c-33 0 -55 26 -55 59c0 38 26 52 43 55c5 1 11 3 11 7c0 6 -37 23 -74 23c-40 0 -98 -22 -98 -76c0 -97 184 -71 184 -223z" />
    <glyph glyph-name="t" unicode="t" horiz-adv-x="333" 
d="M39 416l5 18h85l35 120c53 14 98 23 142 55l-52 -175h91l-5 -18h-91l-88 -317c-6 -21 -15 -45 -15 -54c0 -17 8 -21 18 -21c32 0 74 59 89 88l6 14l15 -7l-14 -25c-25 -46 -78 -106 -136 -106c-92 0 -92 75 -92 83c0 16 6 39 12 59l80 286h-85z" />
    <glyph glyph-name="u" unicode="u" 
d="M61 416l4 18h103c48 0 72 8 92 22l-108 -356c-7 -22 -15 -48 -15 -63c0 -12 5 -19 22 -19c23 0 67 42 95 81c24 33 36 48 49 89l79 246h129l-104 -335c-6 -21 -15 -45 -15 -54c0 -17 8 -21 18 -21c32 0 74 59 85 81l14 -8c-28 -49 -74 -109 -148 -109
c-56 0 -83 41 -83 80c0 18 4 35 8 49h-2c-39 -58 -89 -129 -180 -129c-49 0 -81 31 -81 79c0 15 10 52 13 63l87 286h-62z" />
    <glyph glyph-name="v" unicode="v" horiz-adv-x="500" 
d="M45 130l86 286h-63l4 18h103c48 0 72 8 98 22l-107 -362c-12 -41 -13 -47 -13 -53c0 -8 7 -17 20 -17c114 0 252 208 252 274c0 23 -11 25 -28 31c-32 10 -54 34 -54 62c0 38 23 65 61 65c37 0 63 -26 63 -75c0 -164 -185 -393 -347 -393c-58 0 -87 34 -87 78
c0 18 9 53 12 64z" />
    <glyph glyph-name="w" unicode="w" horiz-adv-x="778" 
d="M47 130l87 286h-62l4 18h103c48 0 72 8 92 22l-108 -356c-7 -22 -15 -43 -15 -53c0 -12 9 -23 25 -23c64 0 134 98 155 164l76 246h125l-100 -340c-9 -29 -15 -46 -15 -55c0 -16 8 -21 27 -21c89 0 261 177 261 280c0 23 -11 25 -28 31c-32 10 -54 34 -54 62
c0 38 23 65 61 65c37 0 63 -26 63 -75c0 -164 -185 -393 -347 -393c-70 0 -91 34 -91 78c0 15 3 37 6 51h-2c-72 -103 -113 -129 -195 -129c-53 0 -81 34 -81 78c0 18 9 53 13 64z" />
    <glyph glyph-name="x" unicode="x" 
d="M41 316l-12 7l24 25c59 61 113 98 189 98c78 0 114 -37 114 -98c0 -8 -1 -16 -2 -26h2c33 61 79 124 152 124c46 0 77 -31 77 -81c0 -29 -18 -62 -65 -62c-36 0 -55 27 -55 54c0 48 55 55 55 67c0 7 -12 10 -23 10c-118 0 -195 -288 -195 -368c0 -33 6 -60 39 -60
c44 0 90 40 112 67l32 39l12 -8l-14 -17c-41 -50 -90 -99 -173 -99c-99 0 -119 64 -122 127h-2c-16 -45 -62 -127 -133 -127c-42 0 -66 32 -66 68c0 33 21 64 55 64c30 0 53 -18 53 -51c0 -45 -34 -49 -34 -56c0 -4 4 -7 8 -7c93 0 167 258 167 337c0 45 -14 73 -54 73
c-39 0 -71 -32 -103 -63z" />
    <glyph glyph-name="y" unicode="y" 
d="M169 -49l-37 344c-5 44 -10 79 -34 79c-36 0 -55 -51 -69 -77l-14 5c31 62 81 144 159 144c40 0 67 -16 72 -70l25 -254h2l143 243c23 39 55 81 103 81c39 0 64 -24 64 -64c0 -37 -26 -68 -64 -68c-29 0 -56 21 -56 52c0 14 3 27 12 38c-16 0 -44 -47 -52 -60l-275 -465
c-44 -75 -90 -144 -185 -144c-40 0 -77 25 -77 68c0 41 24 76 67 76c26 0 59 -16 59 -58c0 -48 -40 -51 -40 -58c0 -5 6 -10 12 -10c48 0 97 41 128 96z" />
    <glyph glyph-name="z" unicode="z" horiz-adv-x="500" 
d="M28 72l301 267h-2c-50 -21 -122 -30 -176 -30c-29 0 -63 4 -85 14l-22 -41l-14 6c27 53 52 104 76 152c76 -26 126 -35 211 -35c29 0 52 5 80 6c0 16 4 35 19 35c12 0 17 -11 17 -25c0 -13 -20 -36 -52 -64l-282 -244l2 -2c30 10 57 15 84 15c77 0 148 -66 191 -66
c20 0 33 27 33 38c0 6 -2 6 -5 6c-4 0 -8 -2 -14 -2c-28 0 -48 20 -48 49c0 28 19 47 47 47c35 0 49 -24 49 -56c0 -64 -64 -148 -167 -148c-78 0 -152 54 -221 54c-7 0 -13 -4 -13 -9c0 -7 5 -10 5 -16c0 -12 -11 -23 -27 -23c-9 0 -21 8 -21 20c0 16 18 38 34 52z" />
    <glyph glyph-name="braceleft" unicode="{" horiz-adv-x="333" 
d="M422 729l-4 -18c-92 -18 -124 -55 -148 -133l-60 -189c-25 -79 -50 -123 -126 -143l-1 -2c26 -14 53 -39 53 -80c0 -33 -22 -91 -44 -152s-45 -124 -45 -169c0 -32 6 -51 69 -64l-4 -18c-63 0 -125 4 -125 82c0 45 22 109 44 171c22 63 45 122 45 156c0 35 -5 59 -48 75
c70 21 94 55 117 128l63 199c43 134 105 157 214 157z" />
    <glyph glyph-name="bar" unicode="|" horiz-adv-x="222" 
d="M89 -250v1000h84v-1000h-84z" />
    <glyph glyph-name="braceright" unicode="}" horiz-adv-x="333" 
d="M-139 -239l4 18c92 12 124 55 148 133l60 189c25 79 50 123 126 143l1 2c-44 14 -53 39 -53 80c0 34 22 92 44 152c22 61 45 125 45 169c0 32 -6 57 -69 64l4 18c85 0 125 -15 125 -82c0 -44 -21 -109 -44 -171s-45 -122 -45 -156c0 -35 5 -59 48 -75
c-70 -21 -94 -55 -117 -128l-63 -199c-43 -134 -105 -157 -214 -157z" />
    <glyph glyph-name="asciitilde" unicode="~" horiz-adv-x="600" 
d="M105 175l-36 67c30 42 63 89 125 89c37 0 69 -18 102 -36c32 -18 69 -36 115 -36c44 0 68 38 84 72l36 -69c-30 -40 -63 -87 -125 -87c-37 0 -69 18 -102 36c-32 18 -69 36 -115 36c-44 0 -68 -38 -84 -72z" />
    <glyph glyph-name="exclamdown" unicode="&#xa1;" horiz-adv-x="333" 
d="M161 243l12 -3c-24 -104 -46 -202 -48 -304c0 -35 4 -68 24 -98c-54 -29 -96 -73 -127 -126c-10 48 -22 97 -58 133c91 68 155 288 197 398zM130 354c0 39 32 86 78 86c37 0 60 -27 60 -58c0 -39 -32 -86 -78 -86c-37 0 -60 27 -60 58z" />
    <glyph glyph-name="cent" unicode="&#xa2;" 
d="M185 -87l23 82c-88 13 -137 70 -137 152c0 175 151 286 263 298l24 86h20l-24 -85c62 0 131 -19 131 -94c0 -34 -28 -73 -74 -73c-35 0 -64 28 -64 68c0 16 7 44 31 56c8 4 22 7 22 14c0 11 -23 11 -41 11h-10l-115 -413c7 -4 17 -5 28 -5c68 0 136 61 165 126l15 -6
c-39 -77 -103 -138 -194 -138c-7 0 -14 1 -20 2l-23 -81h-20zM216 22l111 400c-83 -40 -136 -304 -136 -345c0 -27 9 -46 25 -55z" />
    <glyph glyph-name="sterling" unicode="&#xa3;" 
d="M60 340l5 18h82c0 16 -1 31 -1 47c0 167 90 307 269 307c109 0 152 -73 152 -128c0 -45 -25 -84 -68 -84c-48 0 -67 31 -67 59c0 38 23 67 63 67c15 0 30 -2 42 -10c-5 45 -53 72 -95 72c-130 0 -159 -234 -179 -330h166l-4 -18h-167c-8 -66 -37 -138 -67 -194
c52 -14 108 -28 162 -28c65 0 100 31 124 89h13c-51 -175 -115 -215 -184 -215c-65 0 -114 46 -158 83c-22 -36 -55 -75 -101 -75c-30 0 -58 21 -58 53c0 74 58 106 124 106c14 0 28 -6 42 -6c3 70 -2 118 -7 187h-88zM131 90c-19 11 -37 21 -59 21c-33 0 -65 -14 -65 -52
c0 -25 14 -41 39 -41c45 0 69 35 85 72z" />
    <glyph glyph-name="fraction" unicode="&#x2044;" horiz-adv-x="167" 
d="M-164 -16l463 736h45l-463 -736h-45z" />
    <glyph glyph-name="yen" unicode="&#xa5;" 
d="M33 0l5 18h79l46 160h-136l6 24h136l24 84h-142l6 24h145l-41 376h-83l5 18h299l-5 -18h-85l29 -357l195 256c30 40 35 57 35 76c0 18 -18 25 -39 25h-27l5 18h185l-5 -18h-16c-35 0 -53 -18 -86 -62l-239 -314h146l-6 -24h-144l-24 -84h150l-6 -24h-150l-46 -160h86
l-5 -18h-297z" />
    <glyph glyph-name="florin" unicode="&#x192;" 
d="M208 339h-133l6 18h131c26 138 158 355 312 355c42 0 95 -17 95 -71c0 -40 -28 -59 -60 -59c-37 0 -60 19 -60 57s30 43 30 52c0 3 -9 3 -14 3c-95 0 -135 -268 -161 -337h138l-4 -18h-140c-34 -112 -58 -230 -98 -343c-42 -116 -104 -250 -244 -250c-39 0 -88 20 -88 67
c0 33 23 61 57 61c42 0 63 -21 63 -53c0 -39 -25 -45 -25 -52c0 -4 5 -5 14 -5c49 0 76 119 86 154c39 139 65 283 95 421z" />
    <glyph glyph-name="section" unicode="&#xa7;" 
d="M401 -11c0 -146 -101 -254 -253 -254c-74 0 -174 39 -174 140c0 44 23 90 72 90c36 0 69 -25 69 -63c0 -37 -23 -63 -65 -63c-13 0 -23 6 -30 6s-10 -6 -10 -12c0 -39 62 -80 139 -80c95 0 174 53 174 144c0 151 -280 166 -280 323c0 92 71 167 145 213
c-14 18 -22 60 -22 82c0 115 101 205 210 205c80 0 158 -31 158 -123c0 -35 -28 -69 -69 -69c-37 0 -66 24 -66 62c0 30 20 58 55 58c7 0 14 -2 21 -2c5 0 11 2 11 7c0 42 -79 49 -109 49c-66 0 -139 -39 -139 -110c0 -105 275 -157 275 -294c0 -111 -64 -171 -134 -230
c16 -26 22 -48 22 -79zM115 317c0 -91 198 -154 255 -235c34 30 83 68 83 118c0 66 -156 124 -257 220c-30 -23 -81 -61 -81 -103z" />
    <glyph glyph-name="currency" unicode="&#xa4;" 
d="M88 95l-52 53l58 58c-30 41 -48 91 -48 146c0 54 18 105 47 145l-57 57l52 52l57 -57c41 32 93 51 149 51c54 0 105 -18 146 -48l54 54l52 -52l-54 -54c31 -40 50 -92 50 -148c0 -57 -19 -109 -51 -149l54 -54l-52 -52l-54 55c-41 -31 -91 -48 -145 -48
c-55 0 -106 18 -147 50zM130 352c0 -91 73 -164 164 -164s164 73 164 164s-73 164 -164 164s-164 -73 -164 -164z" />
    <glyph glyph-name="quotesingle" unicode="'" horiz-adv-x="278" 
d="M141 443l-15 167c-2 15 -4 32 -4 44c0 19 0 66 45 66s45 -47 45 -66c0 -12 -2 -29 -3 -44l-16 -167c-1 -8 -5 -31 -26 -31c-20 0 -25 23 -26 31z" />
    <glyph glyph-name="quotedblleft" unicode="&#x201c;" horiz-adv-x="500" 
d="M313 720l3 -17c-53 -14 -138 -87 -138 -145c0 -4 1 -7 5 -7c7 0 14 5 30 5c32 0 59 -28 59 -60c0 -45 -31 -84 -77 -84c-42 0 -65 39 -65 78c0 97 94 200 183 230zM505 720l3 -17c-53 -14 -138 -87 -138 -145c0 -4 1 -7 5 -7c7 0 14 5 30 5c32 0 59 -28 59 -60
c0 -45 -31 -84 -77 -84c-42 0 -65 39 -65 78c0 97 94 200 183 230z" />
    <glyph glyph-name="guillemotleft" unicode="&#xab;" horiz-adv-x="500" 
d="M172 88l-88 171l150 171h60l-152 -171l84 -171h-54zM304 88l-88 171l150 171h60l-152 -171l84 -171h-54z" />
    <glyph glyph-name="guilsinglleft" unicode="&#x2039;" horiz-adv-x="278" 
d="M122 88l-88 171l150 171h60l-152 -171l84 -171h-54z" />
    <glyph glyph-name="guilsinglright" unicode="&#x203a;" horiz-adv-x="278" 
d="M156 430l88 -171l-150 -171h-60l152 171l-84 171h54z" />
    <glyph glyph-name="fi" unicode="&#xfb01;" horiz-adv-x="611" 
d="M49 416l4 18h73c52 167 152 301 329 301c72 0 155 -20 155 -106c0 -43 -32 -68 -73 -68c-32 0 -65 26 -65 59c0 54 54 62 54 76c0 21 -45 27 -60 27c-148 -2 -192 -200 -213 -289h222c48 0 72 8 92 22l-109 -357c-6 -21 -15 -45 -15 -54c0 -17 8 -21 18 -21
c32 0 74 59 85 81l14 -8c-28 -49 -74 -109 -148 -109c-39 0 -83 34 -83 78c0 14 6 44 12 64l89 286h-180l-56 -256c-15 -69 -129 -425 -273 -425c-36 0 -83 22 -83 63c0 44 28 65 64 65c43 0 62 -28 62 -55c0 -31 -22 -50 -43 -53v-2c65 0 84 51 103 157
c40 219 79 448 97 506h-72z" />
    <glyph glyph-name="fl" unicode="&#xfb02;" horiz-adv-x="611" 
d="M49 416l4 18h73c52 167 152 301 331 301c39 0 71 -10 94 -42l93 42l-186 -636c-6 -21 -15 -45 -15 -54c0 -17 8 -21 18 -21c32 0 74 59 85 81l14 -8c-28 -49 -74 -109 -148 -109c-39 0 -83 34 -83 78c0 14 6 44 12 64l137 468c-35 8 -48 32 -48 52c0 46 32 51 32 60
c0 6 -13 13 -27 13c-122 0 -156 -199 -182 -289h86l-4 -18h-85l-56 -256c-15 -69 -129 -425 -273 -425c-36 0 -83 22 -83 63c0 44 28 65 64 65c43 0 62 -28 62 -55c0 -31 -22 -50 -43 -53v-2c65 0 84 51 103 157c40 219 79 448 97 506h-72z" />
    <glyph glyph-name="endash" unicode="&#x2013;" horiz-adv-x="500" 
d="M-11 220l22 78h500l-22 -78h-500z" />
    <glyph glyph-name="dagger" unicode="&#x2020;" 
d="M253 253l29 91c-60 -3 -110 -14 -147 -35c-49 -28 -60 -34 -66 -34s-9 4 -9 8c0 13 21 31 21 36c0 10 -52 23 -52 36c0 14 73 19 73 34c0 6 -5 20 -5 27c0 8 2 14 8 14c7 0 13 -5 21 -12c43 -40 103 -53 162 -56c11 47 21 95 21 143c0 82 -35 119 -35 135c0 4 4 9 10 9
c9 0 34 -16 40 -16c13 0 30 39 43 61c10 16 16 26 28 26c9 0 10 -14 10 -23c0 -26 0 -61 9 -61c12 0 31 11 41 11c8 0 12 -1 12 -7c0 -14 -45 -46 -83 -102c-32 -48 -62 -114 -80 -176c66 6 112 15 172 48c11 6 35 20 44 20c2 0 5 -4 5 -8c0 -18 -19 -34 -19 -41
c0 -10 51 -17 51 -32c0 -8 -14 -11 -40 -18c-22 -6 -30 -8 -30 -11c0 -7 3 -20 3 -29c0 -10 -2 -19 -9 -19c-8 0 -17 10 -21 13c-37 37 -109 59 -161 59l-22 -91c-32 -132 -41 -220 -41 -274c0 -46 8 -100 17 -130c2 -7 -4 -10 -9 -10c-9 0 -35 15 -43 15
c-5 0 -10 -6 -14 -16c-7 -16 -43 -87 -61 -87c-9 0 -18 20 -18 39c0 30 3 47 3 52c0 6 -2 14 -7 14s-35 -14 -45 -14c-7 0 -10 3 -10 8c0 6 6 15 12 23c103 130 141 220 192 380z" />
    <glyph glyph-name="daggerdbl" unicode="&#x2021;" 
d="M231 181c0 19 -15 40 -27 55c70 51 81 92 100 176c-62 -3 -112 -14 -149 -35c-49 -28 -60 -34 -66 -34s-9 4 -9 8c0 13 21 31 21 36c0 10 -52 23 -52 36c0 14 73 19 73 34c0 6 -5 20 -5 27c0 8 2 14 8 14c7 0 13 -5 21 -12c43 -40 103 -53 163 -56c6 25 11 51 11 75
c0 82 -41 119 -41 135c0 4 4 9 10 9c9 0 34 -16 40 -16c13 0 30 39 43 61c10 16 16 26 28 26c9 0 10 -14 10 -23c0 -26 0 -61 9 -61c12 0 31 11 41 11c8 0 12 -1 12 -7c0 -7 -12 -21 -33 -41c-53 -51 -84 -103 -112 -169c68 6 114 15 174 48c11 6 35 20 44 20c2 0 5 -4 5 -8
c0 -18 -19 -34 -19 -41c0 -10 51 -17 51 -32c0 -8 -14 -11 -40 -18c-22 -6 -30 -8 -30 -11c0 -7 3 -20 3 -29c0 -10 -2 -19 -9 -19c-8 0 -17 10 -21 13c-37 37 -109 59 -162 59c-14 -39 -26 -88 -26 -121c0 -19 15 -40 27 -55c-70 -51 -81 -92 -100 -176c62 3 112 14 149 35
c49 28 60 34 66 34s9 -4 9 -8c0 -13 -21 -31 -21 -36c0 -10 52 -23 52 -36c0 -14 -73 -19 -73 -34c0 -6 5 -20 5 -27c0 -8 -2 -14 -8 -14c-7 0 -13 5 -21 12c-43 40 -103 53 -163 56c-6 -25 -11 -51 -11 -75c0 -82 41 -119 41 -135c0 -4 -4 -9 -10 -9c-9 0 -34 16 -40 16
c-13 0 -30 -39 -43 -61c-10 -16 -16 -27 -28 -27c-9 0 -10 15 -10 24c0 26 0 61 -9 61c-12 0 -31 -11 -41 -11c-8 0 -12 1 -12 7c0 7 12 21 33 41c53 51 84 103 112 169c-68 -6 -114 -15 -174 -48c-11 -6 -35 -20 -44 -20c-2 0 -5 4 -5 8c0 18 19 34 19 41
c0 10 -51 17 -51 32c0 8 14 11 40 18c22 6 30 8 30 11c0 7 -3 20 -3 29c0 10 2 19 9 19c8 0 17 -10 21 -13c37 -37 109 -59 162 -59c14 39 26 88 26 121z" />
    <glyph glyph-name="periodcentered" unicode="&#xb7;" horiz-adv-x="278" 
d="M74 289c0 38 34 72 72 72s72 -34 72 -72s-34 -72 -72 -72s-72 34 -72 72z" />
    <glyph glyph-name="paragraph" unicode="&#xb6;" horiz-adv-x="620" 
d="M428 686l-259 -935h-157l6 18h80l143 524c-89 0 -132 81 -132 141c0 156 91 270 277 270h283l-5 -18h-80l-251 -917h76l-5 -18h-156l259 935h-79zM248 318l95 350c-103 -24 -150 -143 -150 -228c0 -71 27 -111 55 -122z" />
    <glyph glyph-name="bullet" unicode="&#x2022;" horiz-adv-x="500" 
d="M87 352c0 97 79 176 176 176s176 -79 176 -176s-79 -176 -176 -176s-176 79 -176 176z" />
    <glyph glyph-name="quotesinglbase" unicode="&#x201a;" horiz-adv-x="278" 
d="M-22 -172l-3 17c53 14 138 87 138 145c0 4 -1 7 -5 7c-7 0 -14 -5 -30 -5c-32 0 -59 28 -59 60c0 45 31 84 77 84c42 0 65 -39 65 -78c0 -97 -94 -200 -183 -230z" />
    <glyph glyph-name="quotedblbase" unicode="&#x201e;" horiz-adv-x="500" 
d="M0 -172l-3 17c53 14 138 87 138 145c0 4 -1 7 -5 7c-7 0 -14 -5 -30 -5c-32 0 -59 28 -59 60c0 45 31 84 77 84c42 0 65 -39 65 -78c0 -97 -94 -200 -183 -230zM192 -172l-3 17c53 14 138 87 138 145c0 4 -1 7 -5 7c-7 0 -14 -5 -30 -5c-32 0 -59 28 -59 60
c0 45 31 84 77 84c42 0 65 -39 65 -78c0 -97 -94 -200 -183 -230z" />
    <glyph glyph-name="quotedblright" unicode="&#x201d;" horiz-adv-x="500" 
d="M133 412l-3 17c53 14 138 87 138 145c0 4 -1 7 -5 7c-7 0 -14 -5 -30 -5c-32 0 -59 28 -59 60c0 45 31 84 77 84c42 0 65 -39 65 -78c0 -97 -94 -200 -183 -230zM325 412l-3 17c53 14 138 87 138 145c0 4 -1 7 -5 7c-7 0 -14 -5 -30 -5c-32 0 -59 28 -59 60
c0 45 31 84 77 84c42 0 65 -39 65 -78c0 -97 -94 -200 -183 -230z" />
    <glyph glyph-name="guillemotright" unicode="&#xbb;" horiz-adv-x="500" 
d="M322 430l88 -171l-150 -171h-60l152 171l-84 171h54zM190 430l88 -171l-150 -171h-60l152 171l-84 171h54z" />
    <glyph glyph-name="ellipsis" unicode="&#x2026;" horiz-adv-x="1000" 
d="M38 53c0 42 31 83 75 83c41 0 63 -25 63 -64c0 -23 -13 -80 -82 -80c-56 0 -56 56 -56 61zM371 53c0 42 31 83 75 83c41 0 63 -25 63 -64c0 -23 -13 -80 -82 -80c-56 0 -56 56 -56 61zM704 53c0 42 31 83 75 83c41 0 63 -25 63 -64c0 -23 -13 -80 -82 -80
c-56 0 -56 56 -56 61z" />
    <glyph glyph-name="perthousand" unicode="&#x2030;" horiz-adv-x="1000" 
d="M482 -8c-79 0 -99 75 -99 131c0 97 81 236 180 236c71 0 98 -75 98 -131c0 -91 -75 -236 -179 -236zM477 4c33 0 58 29 87 135l29 106c7 26 8 52 8 63c0 20 -13 39 -33 39c-33 0 -55 -30 -80 -116l-29 -101c-7 -26 -16 -76 -16 -85c0 -20 13 -41 34 -41zM795 -8
c-79 0 -99 75 -99 131c0 97 81 236 180 236c71 0 98 -75 98 -131c0 -91 -75 -236 -179 -236zM790 4c33 0 58 29 87 135l29 106c7 26 8 52 8 63c0 20 -13 39 -33 39c-33 0 -55 -30 -80 -116l-29 -101c-7 -26 -16 -76 -16 -85c0 -20 13 -41 34 -41zM150 345
c-79 0 -99 75 -99 131c0 97 81 236 180 236c71 0 98 -75 98 -131c0 -91 -75 -236 -179 -236zM145 357c33 0 58 29 87 135l29 106c7 26 8 52 8 63c0 20 -13 39 -33 39c-33 0 -55 -30 -80 -116l-29 -101c-7 -26 -16 -76 -16 -85c0 -20 13 -41 34 -41zM102 -16l465 736h43
l-464 -736h-44z" />
    <glyph glyph-name="questiondown" unicode="&#xbf;" horiz-adv-x="444" 
d="M256 243l13 -4c-23 -112 -38 -192 -66 -228c-47 -61 -201 -83 -201 -174c0 -65 67 -91 123 -91c29 0 95 15 104 47c1 5 1 5 -1 9c-8 3 -18 4 -27 5c-26 2 -47 20 -47 48c0 34 21 60 56 60c40 0 64 -30 64 -69c0 -72 -81 -118 -145 -118c-93 0 -163 57 -163 153
c0 120 62 172 207 244c56 28 64 38 76 89zM207 354c0 39 32 86 78 86c37 0 60 -27 60 -58c0 -39 -32 -86 -78 -86c-37 0 -60 27 -60 58z" />
    <glyph glyph-name="grave" unicode="`" horiz-adv-x="278" 
d="M245 506h-14l-157 129c-18 14 -27 31 -27 40c0 22 20 29 39 29c22 0 34 -14 46 -31z" />
    <glyph glyph-name="acute" unicode="&#xb4;" horiz-adv-x="278" 
d="M199 506h-14l113 167c12 17 24 31 46 31c19 0 39 -7 39 -29c0 -9 -9 -26 -27 -40z" />
    <glyph glyph-name="circumflex" unicode="&#x2c6;" horiz-adv-x="278" 
d="M68 506l148 198h68l60 -198h-11l-95 126l-158 -126h-12z" />
    <glyph glyph-name="tilde" unicode="&#x2dc;" horiz-adv-x="278" 
d="M372 667h15c-12 -46 -45 -120 -101 -120c-45 0 -106 42 -152 42c-37 0 -46 -12 -61 -42h-15c12 46 45 120 101 120c45 0 106 -42 152 -42c37 0 46 12 61 42z" />
    <glyph glyph-name="macron" unicode="&#xaf;" horiz-adv-x="278" 
d="M105 640h250l-14 -60h-250z" />
    <glyph glyph-name="breve" unicode="&#x2d8;" horiz-adv-x="278" 
d="M369 685h15c-27 -84 -83 -156 -178 -156c-61 0 -112 41 -112 105c0 18 2 35 6 52h15c-1 -6 -3 -10 -3 -16c0 -53 64 -75 113 -75c59 0 124 31 144 90z" />
    <glyph glyph-name="dotaccent" unicode="&#x2d9;" horiz-adv-x="278" 
d="M133 603c0 36 30 66 66 66s66 -30 66 -66s-30 -66 -66 -66s-66 30 -66 66z" />
    <glyph glyph-name="dieresis" unicode="&#xa8;" horiz-adv-x="278" 
d="M83 603c0 36 30 66 66 66s66 -30 66 -66s-30 -66 -66 -66s-66 30 -66 66zM257 603c0 36 30 66 66 66s66 -30 66 -66s-30 -66 -66 -66s-66 30 -66 66z" />
    <glyph glyph-name="ring" unicode="&#x2da;" horiz-adv-x="278" 
d="M330 596c0 -59 -49 -108 -108 -108s-108 50 -108 108s50 108 108 108s108 -49 108 -108zM222 530c37 0 66 29 66 66s-29 66 -66 66s-66 -29 -66 -66s29 -66 66 -66z" />
    <glyph glyph-name="cedilla" unicode="&#xb8;" horiz-adv-x="278" 
d="M116 0h22l-77 -85l2 -2c16 6 34 10 53 10c37 0 81 -18 81 -62c0 -56 -64 -77 -111 -77c-37 0 -72 9 -106 21l7 18c22 -6 42 -15 65 -15c30 0 71 16 71 51c0 31 -30 40 -51 40c-11 0 -23 -4 -33 -7l-10 8z" />
    <glyph glyph-name="hungarumlaut" unicode="&#x2dd;" horiz-adv-x="278" 
d="M118 506h-14l113 167c12 17 24 31 46 31c19 0 39 -7 39 -29c0 -9 -9 -26 -27 -40zM278 506h-14l113 167c12 17 24 31 46 31c19 0 39 -7 39 -29c0 -9 -9 -26 -27 -40z" />
    <glyph glyph-name="ogonek" unicode="&#x2db;" horiz-adv-x="278" 
d="M213 -147l5 -16c-25 -15 -65 -35 -109 -35c-46 0 -89 21 -89 72c0 70 89 107 143 126h17c-30 -21 -88 -54 -88 -105c0 -30 18 -57 65 -57c19 0 42 9 56 15z" />
    <glyph glyph-name="caron" unicode="&#x2c7;" horiz-adv-x="278" 
d="M385 704l-148 -198h-68l-60 198h11l95 -128l158 128h12z" />
    <glyph glyph-name="emdash" unicode="&#x2014;" horiz-adv-x="1000" 
d="M1011 298l-22 -78h-1000l22 78h1000z" />
    <glyph glyph-name="AE" unicode="&#xc6;" horiz-adv-x="944" 
d="M-74 0l5 18h16c32 1 62 20 81 46l477 622h-89l5 18h542l-36 -192h-17c2 14 5 28 5 42c0 104 -58 132 -122 132h-129l-83 -296h69c49 0 77 17 93 62l16 46h17c-24 -84 -48 -168 -67 -253h-16c6 25 10 49 10 74c0 41 -25 53 -71 53h-56l-99 -354h130c146 0 222 110 255 205
h17l-61 -223h-587l5 18h91l55 196h-216l-83 -113c-17 -24 -29 -42 -29 -54c0 -25 30 -29 54 -29h21l-5 -18h-198zM387 232l126 436h-2l-332 -436h208z" />
    <glyph glyph-name="ordfeminine" unicode="&#xaa;" horiz-adv-x="361" 
d="M404 705l-64 -200c-4 -12 -13 -38 -13 -47c0 -5 4 -9 12 -9c21 0 47 36 57 48l8 -5c-20 -24 -48 -61 -83 -61c-55 0 -66 29 -66 63h-2c-19 -34 -51 -63 -89 -63c-66 0 -82 42 -82 99c0 81 72 182 162 182c31 0 54 -15 61 -41h2l11 34h86zM260 529c10 26 33 89 33 129
c0 21 -13 42 -36 42c-27 0 -46 -41 -79 -136c-13 -37 -24 -74 -24 -97c0 -15 9 -24 23 -24c29 0 62 35 83 86z" />
    <glyph glyph-name="Lslash" unicode="&#x141;" horiz-adv-x="667" 
d="M-46 0l5 18h73l78 279l-81 -42l12 40l80 41l97 350h-79l5 18h301l-5 -18h-73l-73 -261l184 95l-12 -40l-183 -94l-103 -368h113c150 0 268 92 315 257l15 -3l-77 -272h-592z" />
    <glyph glyph-name="Oslash" unicode="&#xd8;" horiz-adv-x="722" 
d="M575 606l-388 -537c16 -39 52 -67 113 -67c112 0 165 101 197 210c74 252 82 300 82 363c0 1 -1 16 -4 31zM178 96l390 537c-15 44 -50 69 -114 69c-94 0 -160 -80 -225 -306c-46 -160 -54 -219 -54 -267c0 -11 1 -22 3 -33zM109 -38l-19 12l50 69
c-58 49 -91 124 -91 206c0 246 217 471 396 471c60 0 110 -19 149 -51l45 62l18 -12l-45 -63c60 -55 93 -138 93 -224c0 -216 -160 -448 -401 -448c-57 0 -107 17 -146 46z" />
    <glyph glyph-name="OE" unicode="&#x152;" horiz-adv-x="1000" 
d="M1019 704l-36 -192h-17c2 14 5 28 5 42c0 104 -58 132 -122 132h-114l-83 -296h69c49 0 77 17 93 62l16 46h17c-24 -84 -48 -168 -67 -253h-16c6 25 10 49 10 74c0 41 -25 53 -71 53h-56l-99 -354h111c146 0 222 110 255 205h17l-61 -223h-407c-14 0 -54 -8 -80 -11
c-17 -2 -42 -5 -59 -5c-157 0 -276 108 -275 280c0 231 202 456 411 456c14 0 40 -1 55 -4s27 -5 45 -8c13 -3 31 -4 53 -4h406zM430 118l140 501c4 13 6 23 6 35c0 34 -43 48 -113 48c-133 0 -189 -151 -230 -291c-45 -156 -58 -234 -58 -282c0 -69 48 -127 132 -127
c82 0 95 14 123 116z" />
    <glyph glyph-name="ordmasculine" unicode="&#xba;" horiz-adv-x="325" 
d="M377 602c0 -84 -78 -171 -172 -171c-78 0 -111 51 -111 117c0 78 83 164 170 164c72 0 113 -47 113 -110zM271 700c-42 0 -57 -52 -71 -91c-8 -21 -34 -98 -34 -128c0 -27 12 -38 38 -38c29 0 53 30 62 67c5 22 39 136 39 164c0 17 -11 26 -34 26z" />
    <glyph glyph-name="ae" unicode="&#xe6;" horiz-adv-x="722" 
d="M191 288l-31 -91c-16 -48 -36 -136 -36 -153c0 -29 18 -38 34 -38c43 0 100 41 126 109c50 128 58 199 58 229c0 60 -28 84 -50 84c-31 0 -57 -12 -101 -140zM644 99l13 -7c-42 -65 -106 -104 -187 -104c-98 0 -157 59 -169 124h-3c-12 -38 -77 -124 -155 -124
s-121 68 -121 158c0 154 120 300 246 300c44 0 87 -26 86 -99h2l25 87h127c20 7 47 12 68 12c58 0 117 -36 117 -103c0 -107 -114 -144 -193 -144c-11 0 -38 0 -59 3c-15 -41 -27 -86 -27 -129c0 -41 38 -67 76 -67c62 0 119 40 154 93zM497 378l-53 -162c12 -3 30 -5 42 -5
c46 0 65 26 80 65c16 41 31 83 31 124c0 23 -13 33 -37 33c-21 1 -51 -17 -63 -55z" />
    <glyph glyph-name="dotlessi" unicode="&#x131;" horiz-adv-x="333" 
d="M80 416l4 18h103c48 0 72 8 92 22l-109 -357c-6 -21 -15 -45 -15 -54c0 -17 8 -21 18 -21c32 0 74 59 85 81l14 -8c-28 -49 -74 -109 -139 -109c-92 0 -92 75 -92 83c0 16 6 39 12 59l89 286h-62z" />
    <glyph glyph-name="lslash" unicode="&#x142;" horiz-adv-x="333" 
d="M151 686l4 18h52c96 0 123 15 143 31l-86 -296l104 58l-12 -42l-105 -58l-86 -298c-6 -21 -15 -45 -15 -54c0 -17 8 -21 18 -21c32 0 74 59 85 81l14 -8c-28 -49 -74 -109 -139 -109c-92 0 -92 75 -92 83c0 16 6 39 12 59l55 188l-73 -40l12 41l74 41l95 326h-60z" />
    <glyph glyph-name="oslash" unicode="&#xf8;" horiz-adv-x="500" 
d="M346 370l-222 -304c0 -44 23 -66 59 -66c75 0 95 64 165 368zM131 105l217 292c0 19 -21 37 -58 37c-78 0 -102 -92 -161 -327zM55 -26l-15 11l34 46c-31 28 -52 72 -52 128c0 175 144 287 260 287c32 0 60 -7 84 -21l30 41l15 -10l-30 -40c45 -33 69 -89 69 -153
c0 -126 -107 -275 -266 -275c-34 0 -68 11 -95 32z" />
    <glyph glyph-name="oe" unicode="&#x153;" horiz-adv-x="722" 
d="M348 378c0 39 -16 56 -58 56c-56 0 -75 -48 -90 -86c-35 -92 -76 -232 -76 -282c0 -44 23 -66 59 -66c61 0 79 53 94 91c23 57 71 252 71 287zM637 99l13 -7c-42 -65 -106 -104 -187 -104c-56 0 -98 17 -126 51c-41 -34 -93 -51 -153 -51c-82 0 -162 61 -162 171
c0 175 144 287 260 287c50 0 105 -19 132 -61c47 41 101 61 155 61c58 0 124 -36 124 -103c0 -104 -103 -144 -193 -144c-11 0 -41 2 -59 8c-12 -46 -21 -91 -21 -134c0 -41 25 -67 63 -67c62 0 119 40 154 93zM597 393c0 30 -18 41 -33 41c-47 0 -77 -73 -118 -213
c10 -6 28 -10 42 -10c44 0 63 26 78 65c16 41 31 83 31 117z" />
    <glyph glyph-name="germandbls" unicode="&#xdf;" horiz-adv-x="611" 
d="M304 301c0 121 235 149 235 341c0 54 -32 75 -83 75c-111 0 -152 -95 -202 -290c-19 -75 -39 -161 -70 -270c-31 -112 -145 -422 -297 -422c-30 0 -71 22 -71 67c0 40 25 65 59 65c37 0 61 -17 61 -53c0 -37 -22 -53 -43 -55v-4c3 -1 6 -2 9 -2c27 0 59 28 72 49
c37 62 66 241 76 288l51 241c46 218 169 404 348 404c64 0 162 -31 162 -111c0 -122 -223 -185 -223 -240c0 -20 25 -36 45 -50c86 -62 111 -83 111 -142c0 -116 -80 -198 -193 -198c-73 0 -128 40 -128 99c0 35 24 67 65 67c36 0 61 -20 61 -57c0 -25 -21 -46 -40 -51
c-14 -4 -24 -5 -24 -13c0 -22 55 -33 67 -33c54 0 120 36 120 108c0 90 -168 104 -168 187z" />
    <glyph glyph-name="divide" unicode="&#xf7;" horiz-adv-x="600" 
d="M47 211v84h506v-84h-506zM224 460c0 38 34 72 72 72s72 -34 72 -72s-34 -72 -72 -72s-72 34 -72 72zM224 46c0 38 34 72 72 72s72 -34 72 -72s-34 -72 -72 -72s-72 34 -72 72z" />
    <glyph glyph-name="threequarters" unicode="&#xbe;" horiz-adv-x="834" 
d="M171 -16l463 736h45l-463 -736h-45zM150 515v10h55c80 0 105 67 105 136c0 36 -33 39 -64 39c-30 0 -64 -20 -64 -32c0 -9 45 -1 45 -42c0 -21 -16 -34 -38 -34c-28 0 -46 17 -46 42c0 50 67 78 115 78c68 0 130 -26 130 -93c0 -64 -47 -99 -156 -101v-2
c58 -13 109 -36 109 -98c0 -90 -90 -138 -168 -138c-65 0 -122 27 -122 84c0 25 18 62 52 62c25 0 45 -16 45 -41c0 -18 -12 -37 -33 -37c-17 0 -29 9 -35 9c-7 0 -11 -7 -11 -14c0 -32 52 -45 90 -45c58 0 98 110 98 164c0 36 -24 48 -45 49zM611 167l63 191l-2 2
l-196 -193h135zM775 426l-76 -259h64l-11 -42h-65l-33 -113h46l-3 -12h-185l4 12h44l37 113h-155l5 26l273 275h55z" />
    <glyph glyph-name="onequarter" unicode="&#xbc;" horiz-adv-x="834" 
d="M161 -16l463 736h45l-463 -736h-45zM59 286l3 12h45l106 343c-40 -20 -82 -36 -124 -50l3 16c74 25 160 69 219 105h15l-126 -414h47l-3 -12h-185zM611 167l63 191l-2 2l-196 -193h135zM775 426l-76 -259h64l-11 -42h-65l-33 -113h46l-3 -12h-185l4 12h44l37 113h-155
l5 26l273 275h55z" />
    <glyph glyph-name="onesuperior" unicode="&#xb9;" horiz-adv-x="361" 
d="M88 286l3 12h45l106 343c-40 -20 -82 -36 -124 -50l3 16c74 25 160 69 219 105h15l-126 -414h47l-3 -12h-185z" />
    <glyph glyph-name="multiply" unicode="&#xd7;" horiz-adv-x="600" 
d="M238 253l-170 170l62 62l170 -170l170 170l62 -62l-170 -170l170 -170l-62 -62l-170 170l-170 -170l-62 62z" />
    <glyph glyph-name="registered" unicode="&#xae;" horiz-adv-x="800" 
d="M250 163v18c44 3 47 7 47 46v260c0 38 -4 42 -47 45v18h162c110 0 156 -30 156 -99c0 -48 -36 -90 -85 -106l53 -85c28 -46 52 -80 77 -85v-12h-84c-10 0 -26 18 -35 33l-78 136h-35v-105c0 -39 1 -43 45 -46v-18h-176zM381 526v-170h33c48 0 64 44 64 91
c0 60 -26 79 -63 79h-34zM136 352c0 -166 124 -290 284 -290s284 124 284 290s-124 290 -284 290s-284 -124 -284 -290zM52 352c0 203 165 368 368 368s368 -165 368 -368s-165 -368 -368 -368s-368 165 -368 368z" />
    <glyph glyph-name="Thorn" unicode="&#xde;" horiz-adv-x="667" 
d="M-35 0l5 18h73l186 668h-79l5 18h297l-5 -19h-69l-24 -89h69c78 0 229 -10 229 -154c0 -159 -125 -234 -304 -234h-104l-53 -190h73l-5 -18h-294zM249 226h103c107 0 162 157 162 265c0 71 -48 87 -96 87h-71z" />
    <glyph glyph-name="brokenbar" unicode="&#xa6;" horiz-adv-x="222" 
d="M89 -175v350h84v-350h-84zM89 325v350h84v-350h-84z" />
    <glyph glyph-name="Eth" unicode="&#xd0;" horiz-adv-x="778" 
d="M-46 0l5 18h73l99 361h-72l8 30h75l76 277h-79l5 18h326c154 0 279 -87 279 -279c0 -227 -172 -425 -403 -425h-392zM280 379l-99 -361h159c170 0 277 330 277 510c0 123 -75 158 -146 158h-104l-76 -277h161l-8 -30h-164z" />
    <glyph glyph-name="onehalf" unicode="&#xbd;" horiz-adv-x="834" 
d="M141 -16l463 736h45l-463 -736h-45zM59 286l3 12h45l106 343c-40 -20 -82 -36 -124 -50l3 16c74 25 160 69 219 105h15l-126 -414h47l-3 -12h-185zM735 110l-63 -110h-241c50 128 254 185 254 355c0 38 -18 59 -61 59c-42 0 -94 -30 -94 -55c0 -29 56 -13 56 -55
c0 -22 -12 -45 -40 -45c-35 0 -46 29 -46 56c0 70 71 111 141 111c67 0 134 -28 134 -98c0 -143 -200 -164 -282 -256h189c13 0 26 13 37 38h16z" />
    <glyph glyph-name="minus" unicode="&#x2212;" horiz-adv-x="600" 
d="M47 211v84h506v-84h-506z" />
    <glyph glyph-name="ccedilla" unicode="&#xe7;" horiz-adv-x="444" 
d="M378 136l15 -6c-37 -74 -97 -136 -182 -141l-67 -74l2 -2c16 6 34 10 53 10c37 0 81 -18 81 -62c0 -56 -64 -77 -111 -77c-37 0 -72 9 -106 21l7 18c22 -6 42 -15 65 -15c30 0 71 16 71 51c0 31 -30 40 -51 40c-11 0 -23 -4 -33 -7l-10 8l77 89c-107 3 -167 67 -167 158
c0 175 157 299 287 299c56 0 127 -18 127 -94c0 -34 -28 -73 -74 -73c-35 0 -64 28 -64 69c0 58 53 57 53 69c0 11 -28 11 -45 11c-114 0 -164 -316 -164 -351c0 -49 25 -71 71 -71c68 0 136 65 165 130z" />
    <glyph glyph-name="eth" unicode="&#xf0;" horiz-adv-x="500" 
d="M22 159c0 175 144 287 260 287c39 0 55 -9 66 -18c0 46 -14 117 -40 168l-108 -54l-13 27l104 51c-18 40 -56 76 -73 88l19 12c33 -18 66 -44 96 -79l104 52l16 -26l-97 -47c28 -44 94 -121 94 -280c0 -176 -109 -352 -266 -352c-82 0 -162 61 -162 171zM348 378
c0 39 -16 56 -58 56c-56 0 -75 -48 -90 -86c-36 -92 -76 -232 -76 -282c0 -44 23 -66 59 -66c61 0 79 53 94 91c23 57 71 252 71 287z" />
    <glyph glyph-name="plusminus" unicode="&#xb1;" horiz-adv-x="600" 
d="M258 357v149h84v-149h211v-84h-211v-151h-84v151h-211v84h211zM47 0v84h506v-84h-506z" />
    <glyph glyph-name="Ccedilla" unicode="&#xc7;" horiz-adv-x="667" 
d="M691 691l18 -4c-23 -84 -44 -169 -57 -256l-18 3c4 16 6 32 6 47c0 115 -52 221 -177 221c-95 0 -162 -118 -212 -254c-38 -103 -66 -207 -66 -295c0 -89 58 -151 149 -151c117 0 202 82 248 174l15 -11c-48 -97 -142 -181 -256 -181c-7 0 -14 0 -21 2l-64 -71l2 -2
c16 6 34 10 53 10c37 0 81 -18 81 -62c0 -56 -64 -77 -111 -77c-37 0 -72 9 -106 21l7 18c22 -6 42 -15 65 -15c30 0 71 16 71 51c0 31 -30 40 -51 40c-11 0 -23 -4 -33 -7l-10 8l76 87c-155 19 -241 154 -241 310c0 210 203 423 406 423c53 0 90 -14 123 -34
c29 -18 61 -34 74 -34c19 0 25 25 29 39z" />
    <glyph glyph-name="thorn" unicode="&#xfe;" 
d="M-111 -265l4 18h51l274 933h-62l4 18h54c96 0 123 15 143 31l-108 -377h2c28 44 81 88 141 88c84 0 114 -75 114 -148c0 -122 -86 -310 -235 -310c-60 0 -88 38 -100 92h-2l-97 -327h66l-5 -18h-244zM229 285l-31 -107c-7 -26 -15 -55 -15 -73c0 -34 25 -93 64 -93
c40 0 63 47 100 152c20 56 51 167 51 218c0 32 -20 40 -35 40c-50 0 -116 -78 -134 -137z" />
    <glyph glyph-name="copyright" unicode="&#xa9;" horiz-adv-x="800" 
d="M571 268h23l-16 -75c-1 -12 -12 -15 -29 -22c-19 -5 -61 -19 -109 -19c-130 0 -221 67 -221 208c0 87 59 202 229 202c36 0 72 -7 88 -13c28 -10 41 -13 41 -28v-73h-24c-9 43 -34 90 -106 90c-84 0 -126 -71 -126 -173c0 -107 34 -189 128 -189c62 0 102 40 122 92z
M136 352c0 -166 124 -290 284 -290s284 124 284 290s-124 290 -284 290s-284 -124 -284 -290zM52 352c0 203 165 368 368 368s368 -165 368 -368s-165 -368 -368 -368s-368 165 -368 368z" />
    <glyph glyph-name="logicalnot" unicode="&#xac;" horiz-adv-x="600" 
d="M469 110v203h-422v84h506v-287h-84z" />
    <glyph glyph-name="twosuperior" unicode="&#xb2;" horiz-adv-x="361" 
d="M346 396l-63 -110h-241c50 128 254 185 254 355c0 38 -18 59 -61 59c-42 0 -94 -30 -94 -55c0 -29 56 -13 56 -55c0 -22 -12 -45 -40 -45c-35 0 -46 29 -46 56c0 70 71 111 141 111c67 0 134 -28 134 -98c0 -143 -200 -164 -282 -256h189c13 0 26 13 37 38h16z" />
    <glyph glyph-name="threesuperior" unicode="&#xb3;" horiz-adv-x="361" 
d="M150 515v10h55c80 0 105 67 105 136c0 36 -33 39 -64 39c-30 0 -64 -20 -64 -32c0 -9 45 -1 45 -42c0 -21 -16 -34 -38 -34c-28 0 -46 17 -46 42c0 50 67 78 115 78c68 0 130 -26 130 -93c0 -64 -47 -99 -156 -101v-2c58 -13 109 -36 109 -98c0 -90 -90 -138 -168 -138
c-65 0 -122 27 -122 84c0 25 18 62 52 62c25 0 45 -16 45 -41c0 -18 -12 -37 -33 -37c-17 0 -29 9 -35 9c-7 0 -11 -7 -11 -14c0 -32 52 -45 90 -45c58 0 98 110 98 164c0 36 -24 48 -45 49z" />
    <glyph glyph-name="trademark" unicode="&#x2122;" horiz-adv-x="1000" 
d="M147 300v24h21c17 0 31 14 31 47v309h-48c-40 -1 -56 -29 -64 -64h-24v88h362v-88h-24c-8 35 -24 63 -64 64h-48v-309c0 -33 14 -47 31 -47h21v-24h-97h-97zM706 299l-140 291h-2v-198c0 -44 12 -68 38 -68h14v-24h-133v24h15c22 0 36 18 36 68v237c-13 32 -40 51 -69 51
v24h139l142 -289l151 289h115v-24h-16c-23 1 -38 -18 -38 -47v-262c0 -37 9 -47 39 -47h12v-24h-191v24h14c28 0 36 12 36 47v219h-2l-147 -291h-13z" />
    <glyph glyph-name="degree" unicode="&#xb0;" horiz-adv-x="400" 
d="M160 569c0 -54 41 -95 95 -95s95 41 95 95s-41 95 -95 95s-95 -41 -95 -95zM112 569c0 80 63 143 143 143s143 -63 143 -143s-63 -143 -143 -143s-143 63 -143 143z" />
    <glyph glyph-name="mu" unicode="&#x3bc;" 
d="M61 416l4 18h103c48 0 72 8 92 22l-108 -356c-7 -22 -15 -48 -15 -63c0 -12 5 -19 22 -19c23 0 67 42 95 81c24 33 36 48 49 89l79 246h129l-104 -335c-6 -21 -15 -45 -15 -54c0 -17 8 -21 18 -21c32 0 74 59 85 81l14 -8c-28 -49 -74 -109 -148 -109
c-56 0 -83 41 -83 80c0 18 4 35 8 49h-2c-39 -58 -88 -124 -167 -129l-23 -104c-32 -138 -62 -149 -113 -149c-28 0 -51 28 -51 55c0 34 26 101 38 130c14 35 35 85 48 129l107 367h-62z" />
    <glyph glyph-name="Aacute" unicode="&#xc1;" horiz-adv-x="667" 
d="M-60 0l5 18h22c34 0 66 36 80 57l440 659h21v-716h71l-5 -18h-293l5 18h78v196h-198l-84 -130c-8 -13 -21 -29 -21 -39c0 -21 21 -27 45 -27h37l-5 -18h-198zM364 232v284h-2l-184 -284h186zM474 739h-14l113 167c12 17 24 31 46 31c19 0 39 -7 39 -29
c0 -9 -9 -26 -27 -40z" />
    <glyph glyph-name="Acircumflex" unicode="&#xc2;" horiz-adv-x="667" 
d="M-60 0l5 18h22c34 0 66 36 80 57l440 659h21v-716h71l-5 -18h-293l5 18h78v196h-198l-84 -130c-8 -13 -21 -29 -21 -39c0 -21 21 -27 45 -27h37l-5 -18h-198zM364 232v284h-2l-184 -284h186zM333 739l148 198h68l60 -198h-11l-95 126l-158 -126h-12z" />
    <glyph glyph-name="Adieresis" unicode="&#xc4;" horiz-adv-x="667" 
d="M-60 0l5 18h22c34 0 66 36 80 57l440 659h21v-716h71l-5 -18h-293l5 18h78v196h-198l-84 -130c-8 -13 -21 -29 -21 -39c0 -21 21 -27 45 -27h37l-5 -18h-198zM364 232v284h-2l-184 -284h186zM348 836c0 36 30 66 66 66s66 -30 66 -66s-30 -66 -66 -66s-66 30 -66 66z
M522 836c0 36 30 66 66 66s66 -30 66 -66s-30 -66 -66 -66s-66 30 -66 66z" />
    <glyph glyph-name="Agrave" unicode="&#xc0;" horiz-adv-x="667" 
d="M-60 0l5 18h22c34 0 66 36 80 57l440 659h21v-716h71l-5 -18h-293l5 18h78v196h-198l-84 -130c-8 -13 -21 -29 -21 -39c0 -21 21 -27 45 -27h37l-5 -18h-198zM364 232v284h-2l-184 -284h186zM510 739h-14l-157 129c-18 14 -27 31 -27 40c0 22 20 29 39 29
c22 0 34 -14 46 -31z" />
    <glyph glyph-name="Aring" unicode="&#xc5;" horiz-adv-x="667" 
d="M-60 0l5 18h22c34 0 66 36 80 57l440 659h21v-716h71l-5 -18h-293l5 18h78v196h-198l-84 -130c-8 -13 -21 -29 -21 -39c0 -21 21 -27 45 -27h37l-5 -18h-198zM364 232v284h-2l-184 -284h186zM610 856c0 -59 -49 -108 -108 -108s-108 50 -108 108s50 108 108 108
s108 -49 108 -108zM502 790c37 0 66 29 66 66s-29 66 -66 66s-66 -29 -66 -66s29 -66 66 -66z" />
    <glyph glyph-name="Atilde" unicode="&#xc3;" horiz-adv-x="667" 
d="M-60 0l5 18h22c34 0 66 36 80 57l440 659h21v-716h71l-5 -18h-293l5 18h78v196h-198l-84 -130c-8 -13 -21 -29 -21 -39c0 -21 21 -27 45 -27h37l-5 -18h-198zM364 232v284h-2l-184 -284h186zM637 900h15c-12 -46 -45 -120 -101 -120c-45 0 -106 42 -152 42
c-37 0 -46 -12 -61 -42h-15c12 46 45 120 101 120c45 0 106 -42 152 -42c37 0 46 12 61 42z" />
    <glyph glyph-name="Eacute" unicode="&#xc9;" horiz-adv-x="667" 
d="M-46 0l5 18h73l186 668h-79l5 18h542l-36 -192h-17c2 14 5 28 5 42c0 104 -58 132 -122 132h-150l-82 -296h89c49 0 77 17 93 62l16 46h17c-24 -84 -48 -168 -67 -253h-16c6 25 10 49 10 74c0 41 -25 53 -71 53h-76l-98 -354h149c146 0 222 110 255 205h17l-61 -223h-587
zM444 739h-14l113 167c12 17 24 31 46 31c19 0 39 -7 39 -29c0 -9 -9 -26 -27 -40z" />
    <glyph glyph-name="Ecircumflex" unicode="&#xca;" horiz-adv-x="667" 
d="M-46 0l5 18h73l186 668h-79l5 18h542l-36 -192h-17c2 14 5 28 5 42c0 104 -58 132 -122 132h-150l-82 -296h89c49 0 77 17 93 62l16 46h17c-24 -84 -48 -168 -67 -253h-16c6 25 10 49 10 74c0 41 -25 53 -71 53h-76l-98 -354h149c146 0 222 110 255 205h17l-61 -223h-587
zM313 739l148 198h68l60 -198h-11l-95 126l-158 -126h-12z" />
    <glyph glyph-name="Edieresis" unicode="&#xcb;" horiz-adv-x="667" 
d="M-46 0l5 18h73l186 668h-79l5 18h542l-36 -192h-17c2 14 5 28 5 42c0 104 -58 132 -122 132h-150l-82 -296h89c49 0 77 17 93 62l16 46h17c-24 -84 -48 -168 -67 -253h-16c6 25 10 49 10 74c0 41 -25 53 -71 53h-76l-98 -354h149c146 0 222 110 255 205h17l-61 -223h-587
zM328 836c0 36 30 66 66 66s66 -30 66 -66s-30 -66 -66 -66s-66 30 -66 66zM502 836c0 36 30 66 66 66s66 -30 66 -66s-30 -66 -66 -66s-66 30 -66 66z" />
    <glyph glyph-name="Egrave" unicode="&#xc8;" horiz-adv-x="667" 
d="M-46 0l5 18h73l186 668h-79l5 18h542l-36 -192h-17c2 14 5 28 5 42c0 104 -58 132 -122 132h-150l-82 -296h89c49 0 77 17 93 62l16 46h17c-24 -84 -48 -168 -67 -253h-16c6 25 10 49 10 74c0 41 -25 53 -71 53h-76l-98 -354h149c146 0 222 110 255 205h17l-61 -223h-587
zM490 739h-14l-157 129c-18 14 -27 31 -27 40c0 22 20 29 39 29c22 0 34 -14 46 -31z" />
    <glyph glyph-name="Iacute" unicode="&#xcd;" horiz-adv-x="389" 
d="M-40 0l5 18h73l186 668h-79l5 18h301l-5 -18h-73l-186 -668h79l-5 -18h-301zM305 739h-14l113 167c12 17 24 31 46 31c19 0 39 -7 39 -29c0 -9 -9 -26 -27 -40z" />
    <glyph glyph-name="Icircumflex" unicode="&#xce;" horiz-adv-x="389" 
d="M-40 0l5 18h73l186 668h-79l5 18h301l-5 -18h-73l-186 -668h79l-5 -18h-301zM174 739l148 198h68l60 -198h-11l-95 126l-158 -126h-12z" />
    <glyph glyph-name="Idieresis" unicode="&#xcf;" horiz-adv-x="389" 
d="M-40 0l5 18h73l186 668h-79l5 18h301l-5 -18h-73l-186 -668h79l-5 -18h-301zM189 836c0 36 30 66 66 66s66 -30 66 -66s-30 -66 -66 -66s-66 30 -66 66zM363 836c0 36 30 66 66 66s66 -30 66 -66s-30 -66 -66 -66s-66 30 -66 66z" />
    <glyph glyph-name="Igrave" unicode="&#xcc;" horiz-adv-x="389" 
d="M-40 0l5 18h73l186 668h-79l5 18h301l-5 -18h-73l-186 -668h79l-5 -18h-301zM351 739h-14l-157 129c-18 14 -27 31 -27 40c0 22 20 29 39 29c22 0 34 -14 46 -31z" />
    <glyph glyph-name="Ntilde" unicode="&#xd1;" horiz-adv-x="722" 
d="M-60 0l5 18h41c33 0 67 55 77 90l163 578h-72l5 18h219l181 -563h2l127 455c6 24 8 38 8 52c0 23 -12 38 -53 38h-33l5 18h224l-5 -18h-34c-55 0 -77 -37 -92 -90l-170 -596h-83l-216 662h-2l-148 -532c-8 -28 -16 -49 -16 -63c0 -40 29 -49 59 -49h30l-5 -18h-217z
M644 900h15c-12 -46 -45 -120 -101 -120c-45 0 -106 42 -152 42c-37 0 -46 -12 -61 -42h-15c12 46 45 120 101 120c45 0 106 -42 152 -42c37 0 46 12 61 42z" />
    <glyph glyph-name="Oacute" unicode="&#xd3;" horiz-adv-x="722" 
d="M175 129c0 -75 37 -127 125 -127c112 0 165 101 197 210c74 252 82 300 82 363c0 75 -37 127 -125 127c-94 0 -160 -80 -225 -306c-46 -160 -54 -219 -54 -267zM49 249c0 246 217 471 396 471c162 0 260 -140 260 -288c0 -216 -160 -448 -401 -448
c-156 0 -255 123 -255 265zM471 739h-14l113 167c12 17 24 31 46 31c19 0 39 -7 39 -29c0 -9 -9 -26 -27 -40z" />
    <glyph glyph-name="Ocircumflex" unicode="&#xd4;" horiz-adv-x="722" 
d="M175 129c0 -75 37 -127 125 -127c112 0 165 101 197 210c74 252 82 300 82 363c0 75 -37 127 -125 127c-94 0 -160 -80 -225 -306c-46 -160 -54 -219 -54 -267zM49 249c0 246 217 471 396 471c162 0 260 -140 260 -288c0 -216 -160 -448 -401 -448
c-156 0 -255 123 -255 265zM350 739l148 198h68l60 -198h-11l-95 126l-158 -126h-12z" />
    <glyph glyph-name="Odieresis" unicode="&#xd6;" horiz-adv-x="722" 
d="M175 129c0 -75 37 -127 125 -127c112 0 165 101 197 210c74 252 82 300 82 363c0 75 -37 127 -125 127c-94 0 -160 -80 -225 -306c-46 -160 -54 -219 -54 -267zM49 249c0 246 217 471 396 471c162 0 260 -140 260 -288c0 -216 -160 -448 -401 -448
c-156 0 -255 123 -255 265zM345 836c0 36 30 66 66 66s66 -30 66 -66s-30 -66 -66 -66s-66 30 -66 66zM519 836c0 36 30 66 66 66s66 -30 66 -66s-30 -66 -66 -66s-66 30 -66 66z" />
    <glyph glyph-name="Ograve" unicode="&#xd2;" horiz-adv-x="722" 
d="M175 129c0 -75 37 -127 125 -127c112 0 165 101 197 210c74 252 82 300 82 363c0 75 -37 127 -125 127c-94 0 -160 -80 -225 -306c-46 -160 -54 -219 -54 -267zM49 249c0 246 217 471 396 471c162 0 260 -140 260 -288c0 -216 -160 -448 -401 -448
c-156 0 -255 123 -255 265zM537 739h-14l-157 129c-18 14 -27 31 -27 40c0 22 20 29 39 29c22 0 34 -14 46 -31z" />
    <glyph glyph-name="Otilde" unicode="&#xd5;" horiz-adv-x="722" 
d="M175 129c0 -75 37 -127 125 -127c112 0 165 101 197 210c74 252 82 300 82 363c0 75 -37 127 -125 127c-94 0 -160 -80 -225 -306c-46 -160 -54 -219 -54 -267zM49 249c0 246 217 471 396 471c162 0 260 -140 260 -288c0 -216 -160 -448 -401 -448
c-156 0 -255 123 -255 265zM644 900h15c-12 -46 -45 -120 -101 -120c-45 0 -106 42 -152 42c-37 0 -46 -12 -61 -42h-15c12 46 45 120 101 120c45 0 106 -42 152 -42c37 0 46 12 61 42z" />
    <glyph glyph-name="Scaron" unicode="&#x160;" horiz-adv-x="611" 
d="M58 270l16 -5c-8 -21 -10 -42 -10 -61c0 -126 85 -202 208 -202c108 0 180 65 180 174c0 139 -301 115 -301 303c0 101 73 241 232 241c104 0 175 -61 204 -61c13 0 23 19 27 26l12 -4c-23 -68 -44 -136 -62 -206l-16 3c4 15 4 30 4 44c0 99 -64 180 -170 180
s-159 -62 -159 -122c0 -127 319 -136 319 -311c0 -146 -112 -285 -268 -285c-119 0 -191 77 -231 77c-24 0 -36 -14 -44 -36l-14 5c27 79 52 159 73 240zM602 937l-148 -198h-68l-60 198h11l95 -128l158 128h12z" />
    <glyph glyph-name="Uacute" unicode="&#xda;" horiz-adv-x="722" 
d="M135 686l5 18h304l-5 -18h-80l-142 -494c-9 -32 -12 -58 -12 -77c0 -88 70 -113 133 -113c122 0 202 66 233 174l121 425c8 27 15 45 15 59c0 16 -25 26 -59 26h-27l5 18h210l-5 -18h-48c-43 0 -58 -43 -64 -67l-128 -449c-42 -148 -150 -186 -271 -186
c-80 0 -253 32 -253 168c0 19 13 68 23 105l119 429h-74zM491 739h-14l113 167c12 17 24 31 46 31c19 0 39 -7 39 -29c0 -9 -9 -26 -27 -40z" />
    <glyph glyph-name="Ucircumflex" unicode="&#xdb;" horiz-adv-x="722" 
d="M135 686l5 18h304l-5 -18h-80l-142 -494c-9 -32 -12 -58 -12 -77c0 -88 70 -113 133 -113c122 0 202 66 233 174l121 425c8 27 15 45 15 59c0 16 -25 26 -59 26h-27l5 18h210l-5 -18h-48c-43 0 -58 -43 -64 -67l-128 -449c-42 -148 -150 -186 -271 -186
c-80 0 -253 32 -253 168c0 19 13 68 23 105l119 429h-74zM350 739l148 198h68l60 -198h-11l-95 126l-158 -126h-12z" />
    <glyph glyph-name="Udieresis" unicode="&#xdc;" horiz-adv-x="722" 
d="M135 686l5 18h304l-5 -18h-80l-142 -494c-9 -32 -12 -58 -12 -77c0 -88 70 -113 133 -113c122 0 202 66 233 174l121 425c8 27 15 45 15 59c0 16 -25 26 -59 26h-27l5 18h210l-5 -18h-48c-43 0 -58 -43 -64 -67l-128 -449c-42 -148 -150 -186 -271 -186
c-80 0 -253 32 -253 168c0 19 13 68 23 105l119 429h-74zM365 836c0 36 30 66 66 66s66 -30 66 -66s-30 -66 -66 -66s-66 30 -66 66zM539 836c0 36 30 66 66 66s66 -30 66 -66s-30 -66 -66 -66s-66 30 -66 66z" />
    <glyph glyph-name="Ugrave" unicode="&#xd9;" horiz-adv-x="722" 
d="M135 686l5 18h304l-5 -18h-80l-142 -494c-9 -32 -12 -58 -12 -77c0 -88 70 -113 133 -113c122 0 202 66 233 174l121 425c8 27 15 45 15 59c0 16 -25 26 -59 26h-27l5 18h210l-5 -18h-48c-43 0 -58 -43 -64 -67l-128 -449c-42 -148 -150 -186 -271 -186
c-80 0 -253 32 -253 168c0 19 13 68 23 105l119 429h-74zM527 739h-14l-157 129c-18 14 -27 31 -27 40c0 22 20 29 39 29c22 0 34 -14 46 -31z" />
    <glyph glyph-name="Yacute" unicode="&#xdd;" horiz-adv-x="611" 
d="M73 0l5 18h69l84 298l-38 370h-75l5 18h299l-5 -18h-79l35 -362l186 258c20 27 35 60 35 79c0 18 -19 25 -40 25h-27l5 18h183l-5 -18h-16c-35 0 -52 -18 -85 -63l-235 -325l-79 -280h80l-5 -18h-297zM426 739h-14l113 167c12 17 24 31 46 31c19 0 39 -7 39 -29
c0 -9 -9 -26 -27 -40z" />
    <glyph glyph-name="Ydieresis" unicode="&#x178;" horiz-adv-x="611" 
d="M73 0l5 18h69l84 298l-38 370h-75l5 18h299l-5 -18h-79l35 -362l186 258c20 27 35 60 35 79c0 18 -19 25 -40 25h-27l5 18h183l-5 -18h-16c-35 0 -52 -18 -85 -63l-235 -325l-79 -280h80l-5 -18h-297zM310 836c0 36 30 66 66 66s66 -30 66 -66s-30 -66 -66 -66
s-66 30 -66 66zM484 836c0 36 30 66 66 66s66 -30 66 -66s-30 -66 -66 -66s-66 30 -66 66z" />
    <glyph glyph-name="Zcaron" unicode="&#x17d;" horiz-adv-x="667" 
d="M-11 0l523 686h-117c-135 0 -184 -76 -231 -156l-22 -38h-12l48 212h528l-524 -686h177c97 0 191 87 243 201h14l-57 -219h-570zM640 937l-148 -198h-68l-60 198h11l95 -128l158 128h12z" />
    <glyph glyph-name="aacute" unicode="&#xe1;" 
d="M506 434l-99 -335c-6 -21 -15 -45 -15 -54c0 -17 8 -21 18 -21c32 0 74 59 85 81l14 -8c-28 -49 -74 -109 -148 -109c-50 0 -77 45 -77 102h-2c-20 -41 -73 -102 -139 -102c-78 0 -121 68 -121 158c0 116 102 300 256 300c51 0 77 -26 83 -74h2l18 62h125zM191 288
l-31 -91c-16 -48 -36 -136 -36 -153c0 -29 18 -38 34 -38c33 0 91 34 127 125c34 85 64 179 64 221c0 59 -31 76 -56 76c-32 0 -58 -12 -102 -140zM338 506h-14l113 167c12 17 24 31 46 31c19 0 39 -7 39 -29c0 -9 -9 -26 -27 -40z" />
    <glyph glyph-name="acircumflex" unicode="&#xe2;" 
d="M506 434l-99 -335c-6 -21 -15 -45 -15 -54c0 -17 8 -21 18 -21c32 0 74 59 85 81l14 -8c-28 -49 -74 -109 -148 -109c-50 0 -77 45 -77 102h-2c-20 -41 -73 -102 -139 -102c-78 0 -121 68 -121 158c0 116 102 300 256 300c51 0 77 -26 83 -74h2l18 62h125zM191 288
l-31 -91c-16 -48 -36 -136 -36 -153c0 -29 18 -38 34 -38c33 0 91 34 127 125c34 85 64 179 64 221c0 59 -31 76 -56 76c-32 0 -58 -12 -102 -140zM207 506l148 198h68l60 -198h-11l-95 126l-158 -126h-12z" />
    <glyph glyph-name="adieresis" unicode="&#xe4;" 
d="M506 434l-99 -335c-6 -21 -15 -45 -15 -54c0 -17 8 -21 18 -21c32 0 74 59 85 81l14 -8c-28 -49 -74 -109 -148 -109c-50 0 -77 45 -77 102h-2c-20 -41 -73 -102 -139 -102c-78 0 -121 68 -121 158c0 116 102 300 256 300c51 0 77 -26 83 -74h2l18 62h125zM191 288
l-31 -91c-16 -48 -36 -136 -36 -153c0 -29 18 -38 34 -38c33 0 91 34 127 125c34 85 64 179 64 221c0 59 -31 76 -56 76c-32 0 -58 -12 -102 -140zM222 603c0 36 30 66 66 66s66 -30 66 -66s-30 -66 -66 -66s-66 30 -66 66zM396 603c0 36 30 66 66 66s66 -30 66 -66
s-30 -66 -66 -66s-66 30 -66 66z" />
    <glyph glyph-name="agrave" unicode="&#xe0;" 
d="M506 434l-99 -335c-6 -21 -15 -45 -15 -54c0 -17 8 -21 18 -21c32 0 74 59 85 81l14 -8c-28 -49 -74 -109 -148 -109c-50 0 -77 45 -77 102h-2c-20 -41 -73 -102 -139 -102c-78 0 -121 68 -121 158c0 116 102 300 256 300c51 0 77 -26 83 -74h2l18 62h125zM191 288
l-31 -91c-16 -48 -36 -136 -36 -153c0 -29 18 -38 34 -38c33 0 91 34 127 125c34 85 64 179 64 221c0 59 -31 76 -56 76c-32 0 -58 -12 -102 -140zM384 506h-14l-157 129c-18 14 -27 31 -27 40c0 22 20 29 39 29c22 0 34 -14 46 -31z" />
    <glyph glyph-name="aring" unicode="&#xe5;" 
d="M506 434l-99 -335c-6 -21 -15 -45 -15 -54c0 -17 8 -21 18 -21c32 0 74 59 85 81l14 -8c-28 -49 -74 -109 -148 -109c-50 0 -77 45 -77 102h-2c-20 -41 -73 -102 -139 -102c-78 0 -121 68 -121 158c0 116 102 300 256 300c51 0 77 -26 83 -74h2l18 62h125zM191 288
l-31 -91c-16 -48 -36 -136 -36 -153c0 -29 18 -38 34 -38c33 0 91 34 127 125c34 85 64 179 64 221c0 59 -31 76 -56 76c-32 0 -58 -12 -102 -140zM469 596c0 -59 -49 -108 -108 -108s-108 50 -108 108s50 108 108 108s108 -49 108 -108zM361 530c37 0 66 29 66 66
s-29 66 -66 66s-66 -29 -66 -66s29 -66 66 -66z" />
    <glyph glyph-name="atilde" unicode="&#xe3;" 
d="M506 434l-99 -335c-6 -21 -15 -45 -15 -54c0 -17 8 -21 18 -21c32 0 74 59 85 81l14 -8c-28 -49 -74 -109 -148 -109c-50 0 -77 45 -77 102h-2c-20 -41 -73 -102 -139 -102c-78 0 -121 68 -121 158c0 116 102 300 256 300c51 0 77 -26 83 -74h2l18 62h125zM191 288
l-31 -91c-16 -48 -36 -136 -36 -153c0 -29 18 -38 34 -38c33 0 91 34 127 125c34 85 64 179 64 221c0 59 -31 76 -56 76c-32 0 -58 -12 -102 -140zM511 667h15c-12 -46 -45 -120 -101 -120c-45 0 -106 42 -152 42c-37 0 -46 -12 -61 -42h-15c12 46 45 120 101 120
c45 0 106 -42 152 -42c37 0 46 12 61 42z" />
    <glyph glyph-name="eacute" unicode="&#xe9;" horiz-adv-x="444" 
d="M359 99l13 -7c-42 -65 -106 -104 -187 -104c-108 0 -163 77 -163 165c0 133 142 297 269 293c58 0 124 -36 124 -103c0 -104 -103 -144 -193 -144c-11 0 -41 2 -59 8c-12 -46 -21 -91 -21 -134c0 -41 25 -67 63 -67c62 0 119 40 154 93zM319 393c0 30 -18 41 -33 41
c-47 0 -77 -73 -118 -213c10 -6 28 -10 42 -10c44 0 63 26 78 65c16 41 31 83 31 117zM282 506h-14l113 167c12 17 24 31 46 31c19 0 39 -7 39 -29c0 -9 -9 -26 -27 -40z" />
    <glyph glyph-name="ecircumflex" unicode="&#xea;" horiz-adv-x="444" 
d="M359 99l13 -7c-42 -65 -106 -104 -187 -104c-108 0 -163 77 -163 165c0 133 142 297 269 293c58 0 124 -36 124 -103c0 -104 -103 -144 -193 -144c-11 0 -41 2 -59 8c-12 -46 -21 -91 -21 -134c0 -41 25 -67 63 -67c62 0 119 40 154 93zM319 393c0 30 -18 41 -33 41
c-47 0 -77 -73 -118 -213c10 -6 28 -10 42 -10c44 0 63 26 78 65c16 41 31 83 31 117zM151 506l148 198h68l60 -198h-11l-95 126l-158 -126h-12z" />
    <glyph glyph-name="edieresis" unicode="&#xeb;" horiz-adv-x="444" 
d="M359 99l13 -7c-42 -65 -106 -104 -187 -104c-108 0 -163 77 -163 165c0 133 142 297 269 293c58 0 124 -36 124 -103c0 -104 -103 -144 -193 -144c-11 0 -41 2 -59 8c-12 -46 -21 -91 -21 -134c0 -41 25 -67 63 -67c62 0 119 40 154 93zM319 393c0 30 -18 41 -33 41
c-47 0 -77 -73 -118 -213c10 -6 28 -10 42 -10c44 0 63 26 78 65c16 41 31 83 31 117zM166 603c0 36 30 66 66 66s66 -30 66 -66s-30 -66 -66 -66s-66 30 -66 66zM340 603c0 36 30 66 66 66s66 -30 66 -66s-30 -66 -66 -66s-66 30 -66 66z" />
    <glyph glyph-name="egrave" unicode="&#xe8;" horiz-adv-x="444" 
d="M359 99l13 -7c-42 -65 -106 -104 -187 -104c-108 0 -163 77 -163 165c0 133 142 297 269 293c58 0 124 -36 124 -103c0 -104 -103 -144 -193 -144c-11 0 -41 2 -59 8c-12 -46 -21 -91 -21 -134c0 -41 25 -67 63 -67c62 0 119 40 154 93zM319 393c0 30 -18 41 -33 41
c-47 0 -77 -73 -118 -213c10 -6 28 -10 42 -10c44 0 63 26 78 65c16 41 31 83 31 117zM328 506h-14l-157 129c-18 14 -27 31 -27 40c0 22 20 29 39 29c22 0 34 -14 46 -31z" />
    <glyph glyph-name="iacute" unicode="&#xed;" horiz-adv-x="333" 
d="M80 416l4 18h103c48 0 72 8 92 22l-109 -357c-6 -21 -15 -45 -15 -54c0 -17 8 -21 18 -21c32 0 74 59 85 81l14 -8c-28 -49 -74 -109 -139 -109c-92 0 -92 75 -92 83c0 16 6 39 12 59l89 286h-62zM227 506h-14l113 167c12 17 24 31 46 31c19 0 39 -7 39 -29
c0 -9 -9 -26 -27 -40z" />
    <glyph glyph-name="icircumflex" unicode="&#xee;" horiz-adv-x="333" 
d="M80 416l4 18h103c48 0 72 8 92 22l-109 -357c-6 -21 -15 -45 -15 -54c0 -17 8 -21 18 -21c32 0 74 59 85 81l14 -8c-28 -49 -74 -109 -139 -109c-92 0 -92 75 -92 83c0 16 6 39 12 59l89 286h-62zM76 506l148 198h68l60 -198h-11l-95 126l-158 -126h-12z" />
    <glyph glyph-name="idieresis" unicode="&#xef;" horiz-adv-x="333" 
d="M80 416l4 18h103c48 0 72 8 92 22l-109 -357c-6 -21 -15 -45 -15 -54c0 -17 8 -21 18 -21c32 0 74 59 85 81l14 -8c-28 -49 -74 -109 -139 -109c-92 0 -92 75 -92 83c0 16 6 39 12 59l89 286h-62zM111 603c0 36 30 66 66 66s66 -30 66 -66s-30 -66 -66 -66s-66 30 -66 66
zM285 603c0 36 30 66 66 66s66 -30 66 -66s-30 -66 -66 -66s-66 30 -66 66z" />
    <glyph glyph-name="igrave" unicode="&#xec;" horiz-adv-x="333" 
d="M80 416l4 18h103c48 0 72 8 92 22l-109 -357c-6 -21 -15 -45 -15 -54c0 -17 8 -21 18 -21c32 0 74 59 85 81l14 -8c-28 -49 -74 -109 -139 -109c-92 0 -92 75 -92 83c0 16 6 39 12 59l89 286h-62zM273 506h-14l-157 129c-18 14 -27 31 -27 40c0 22 20 29 39 29
c22 0 34 -14 46 -31z" />
    <glyph glyph-name="ntilde" unicode="&#xf1;" 
d="M3 0l120 416h-58l4 18h103c48 0 72 8 92 22l-41 -127l2 -1c41 50 96 118 172 118c60 0 93 -33 93 -84c0 -30 -21 -87 -38 -136l-45 -127c-7 -21 -15 -45 -15 -54c0 -17 8 -21 18 -21c32 0 74 59 85 81l14 -8c-28 -49 -74 -109 -148 -109c-53 0 -83 39 -83 84
c0 19 9 41 14 57l79 234c6 18 11 31 11 44s-12 15 -21 15c-48 0 -141 -114 -155 -162l-75 -260h-128zM511 667h15c-12 -46 -45 -120 -101 -120c-45 0 -106 42 -152 42c-37 0 -46 -12 -61 -42h-15c12 46 45 120 101 120c45 0 106 -42 152 -42c37 0 46 12 61 42z" />
    <glyph glyph-name="oacute" unicode="&#xf3;" horiz-adv-x="500" 
d="M450 263c0 -126 -107 -275 -266 -275c-82 0 -162 61 -162 171c0 175 144 287 260 287c107 0 168 -82 168 -183zM348 378c0 39 -16 56 -58 56c-56 0 -75 -48 -90 -86c-36 -92 -76 -232 -76 -282c0 -44 23 -66 59 -66c61 0 79 53 94 91c23 57 71 252 71 287zM310 506h-14
l113 167c12 17 24 31 46 31c19 0 39 -7 39 -29c0 -9 -9 -26 -27 -40z" />
    <glyph glyph-name="ocircumflex" unicode="&#xf4;" horiz-adv-x="500" 
d="M450 263c0 -126 -107 -275 -266 -275c-82 0 -162 61 -162 171c0 175 144 287 260 287c107 0 168 -82 168 -183zM348 378c0 39 -16 56 -58 56c-56 0 -75 -48 -90 -86c-36 -92 -76 -232 -76 -282c0 -44 23 -66 59 -66c61 0 79 53 94 91c23 57 71 252 71 287zM179 506
l148 198h68l60 -198h-11l-95 126l-158 -126h-12z" />
    <glyph glyph-name="odieresis" unicode="&#xf6;" horiz-adv-x="500" 
d="M450 263c0 -126 -107 -275 -266 -275c-82 0 -162 61 -162 171c0 175 144 287 260 287c107 0 168 -82 168 -183zM348 378c0 39 -16 56 -58 56c-56 0 -75 -48 -90 -86c-36 -92 -76 -232 -76 -282c0 -44 23 -66 59 -66c61 0 79 53 94 91c23 57 71 252 71 287zM194 603
c0 36 30 66 66 66s66 -30 66 -66s-30 -66 -66 -66s-66 30 -66 66zM368 603c0 36 30 66 66 66s66 -30 66 -66s-30 -66 -66 -66s-66 30 -66 66z" />
    <glyph glyph-name="ograve" unicode="&#xf2;" horiz-adv-x="500" 
d="M450 263c0 -126 -107 -275 -266 -275c-82 0 -162 61 -162 171c0 175 144 287 260 287c107 0 168 -82 168 -183zM348 378c0 39 -16 56 -58 56c-56 0 -75 -48 -90 -86c-36 -92 -76 -232 -76 -282c0 -44 23 -66 59 -66c61 0 79 53 94 91c23 57 71 252 71 287zM356 506h-14
l-157 129c-18 14 -27 31 -27 40c0 22 20 29 39 29c22 0 34 -14 46 -31z" />
    <glyph glyph-name="otilde" unicode="&#xf5;" horiz-adv-x="500" 
d="M450 263c0 -126 -107 -275 -266 -275c-82 0 -162 61 -162 171c0 175 144 287 260 287c107 0 168 -82 168 -183zM348 378c0 39 -16 56 -58 56c-56 0 -75 -48 -90 -86c-36 -92 -76 -232 -76 -282c0 -44 23 -66 59 -66c61 0 79 53 94 91c23 57 71 252 71 287zM483 667h15
c-12 -46 -45 -120 -101 -120c-45 0 -106 42 -152 42c-37 0 -46 -12 -61 -42h-15c12 46 45 120 101 120c45 0 106 -42 152 -42c37 0 46 12 61 42z" />
    <glyph glyph-name="scaron" unicode="&#x161;" horiz-adv-x="444" 
d="M357 135c0 -102 -110 -147 -201 -147c-65 0 -153 42 -153 110c0 41 22 70 61 70c35 0 59 -28 59 -61c0 -43 -29 -57 -53 -59c-10 0 -17 -2 -17 -7c0 -9 50 -41 105 -41c53 0 103 19 103 83c0 86 -172 77 -172 200c0 96 87 163 183 163c50 0 133 -23 133 -88
c0 -38 -19 -68 -59 -68c-33 0 -55 26 -55 59c0 38 26 52 43 55c5 1 11 3 11 7c0 6 -37 23 -74 23c-40 0 -98 -22 -98 -76c0 -97 184 -71 184 -223zM468 704l-148 -198h-68l-60 198h11l95 -128l158 128h12z" />
    <glyph glyph-name="uacute" unicode="&#xfa;" 
d="M61 416l4 18h103c48 0 72 8 92 22l-108 -356c-7 -22 -15 -48 -15 -63c0 -12 5 -19 22 -19c23 0 67 42 95 81c24 33 36 48 49 89l79 246h129l-104 -335c-6 -21 -15 -45 -15 -54c0 -17 8 -21 18 -21c32 0 74 59 85 81l14 -8c-28 -49 -74 -109 -148 -109
c-56 0 -83 41 -83 80c0 18 4 35 8 49h-2c-39 -58 -89 -129 -180 -129c-49 0 -81 31 -81 79c0 15 10 52 13 63l87 286h-62zM338 506h-14l113 167c12 17 24 31 46 31c19 0 39 -7 39 -29c0 -9 -9 -26 -27 -40z" />
    <glyph glyph-name="ucircumflex" unicode="&#xfb;" 
d="M61 416l4 18h103c48 0 72 8 92 22l-108 -356c-7 -22 -15 -48 -15 -63c0 -12 5 -19 22 -19c23 0 67 42 95 81c24 33 36 48 49 89l79 246h129l-104 -335c-6 -21 -15 -45 -15 -54c0 -17 8 -21 18 -21c32 0 74 59 85 81l14 -8c-28 -49 -74 -109 -148 -109
c-56 0 -83 41 -83 80c0 18 4 35 8 49h-2c-39 -58 -89 -129 -180 -129c-49 0 -81 31 -81 79c0 15 10 52 13 63l87 286h-62zM207 506l148 198h68l60 -198h-11l-95 126l-158 -126h-12z" />
    <glyph glyph-name="udieresis" unicode="&#xfc;" 
d="M61 416l4 18h103c48 0 72 8 92 22l-108 -356c-7 -22 -15 -48 -15 -63c0 -12 5 -19 22 -19c23 0 67 42 95 81c24 33 36 48 49 89l79 246h129l-104 -335c-6 -21 -15 -45 -15 -54c0 -17 8 -21 18 -21c32 0 74 59 85 81l14 -8c-28 -49 -74 -109 -148 -109
c-56 0 -83 41 -83 80c0 18 4 35 8 49h-2c-39 -58 -89 -129 -180 -129c-49 0 -81 31 -81 79c0 15 10 52 13 63l87 286h-62zM222 603c0 36 30 66 66 66s66 -30 66 -66s-30 -66 -66 -66s-66 30 -66 66zM396 603c0 36 30 66 66 66s66 -30 66 -66s-30 -66 -66 -66s-66 30 -66 66z
" />
    <glyph glyph-name="ugrave" unicode="&#xf9;" 
d="M61 416l4 18h103c48 0 72 8 92 22l-108 -356c-7 -22 -15 -48 -15 -63c0 -12 5 -19 22 -19c23 0 67 42 95 81c24 33 36 48 49 89l79 246h129l-104 -335c-6 -21 -15 -45 -15 -54c0 -17 8 -21 18 -21c32 0 74 59 85 81l14 -8c-28 -49 -74 -109 -148 -109
c-56 0 -83 41 -83 80c0 18 4 35 8 49h-2c-39 -58 -89 -129 -180 -129c-49 0 -81 31 -81 79c0 15 10 52 13 63l87 286h-62zM384 506h-14l-157 129c-18 14 -27 31 -27 40c0 22 20 29 39 29c22 0 34 -14 46 -31z" />
    <glyph glyph-name="yacute" unicode="&#xfd;" 
d="M169 -49l-37 344c-5 44 -10 79 -34 79c-36 0 -55 -51 -69 -77l-14 5c31 62 81 144 159 144c40 0 67 -16 72 -70l25 -254h2l143 243c23 39 55 81 103 81c39 0 64 -24 64 -64c0 -37 -26 -68 -64 -68c-29 0 -56 21 -56 52c0 14 3 27 12 38c-16 0 -44 -47 -52 -60l-275 -465
c-44 -75 -90 -144 -185 -144c-40 0 -77 25 -77 68c0 41 24 76 67 76c26 0 59 -16 59 -58c0 -48 -40 -51 -40 -58c0 -5 6 -10 12 -10c48 0 97 41 128 96zM338 506h-14l113 167c12 17 24 31 46 31c19 0 39 -7 39 -29c0 -9 -9 -26 -27 -40z" />
    <glyph glyph-name="ydieresis" unicode="&#xff;" 
d="M169 -49l-37 344c-5 44 -10 79 -34 79c-36 0 -55 -51 -69 -77l-14 5c31 62 81 144 159 144c40 0 67 -16 72 -70l25 -254h2l143 243c23 39 55 81 103 81c39 0 64 -24 64 -64c0 -37 -26 -68 -64 -68c-29 0 -56 21 -56 52c0 14 3 27 12 38c-16 0 -44 -47 -52 -60l-275 -465
c-44 -75 -90 -144 -185 -144c-40 0 -77 25 -77 68c0 41 24 76 67 76c26 0 59 -16 59 -58c0 -48 -40 -51 -40 -58c0 -5 6 -10 12 -10c48 0 97 41 128 96zM222 603c0 36 30 66 66 66s66 -30 66 -66s-30 -66 -66 -66s-66 30 -66 66zM396 603c0 36 30 66 66 66s66 -30 66 -66
s-30 -66 -66 -66s-66 30 -66 66z" />
    <glyph glyph-name="zcaron" unicode="&#x17e;" horiz-adv-x="500" 
d="M28 72l301 267h-2c-50 -21 -122 -30 -176 -30c-29 0 -63 4 -85 14l-22 -41l-14 6c27 53 52 104 76 152c76 -26 126 -35 211 -35c29 0 52 5 80 6c0 16 4 35 19 35c12 0 17 -11 17 -25c0 -13 -20 -36 -52 -64l-282 -244l2 -2c30 10 57 15 84 15c77 0 148 -66 191 -66
c20 0 33 27 33 38c0 6 -2 6 -5 6c-4 0 -8 -2 -14 -2c-28 0 -48 20 -48 49c0 28 19 47 47 47c35 0 49 -24 49 -56c0 -64 -64 -148 -167 -148c-78 0 -152 54 -221 54c-7 0 -13 -4 -13 -9c0 -7 5 -10 5 -16c0 -12 -11 -23 -27 -23c-9 0 -21 8 -21 20c0 16 18 38 34 52zM496 704
l-148 -198h-68l-60 198h11l95 -128l158 128h12z" />
  </font>
</defs>
</svg>
