<?xml version="1.0" standalone="no"?>
<!DOCTYPE svg PUBLIC "-//W3C//DTD SVG 1.1//EN" "http://www.w3.org/Graphics/SVG/1.1/DTD/svg11.dtd" >
<svg xmlns="http://www.w3.org/2000/svg" width="100%" height="100%">
<metadata>
Created by FontXChange 20110222 at Tue Apr  7 14:19:04 2015
 By Creative4
 The digitally encoded machine readable outline data for producing  the Typefaces provided as part of your laser printer is copyrighted  (c) 1981 Linotype Ag and/or its subsidiaries All Rights Reserved.  This data is the property of Linotype Ag and/or its subsidiaries, and may not be reproduced, used, displayed, modified, disclosed or transferred without the express written approval of Linotype. 
</metadata>
<defs>
<font id="Memphis-Light" horiz-adv-x="278" >
  <font-face 
    font-family="Memphis"
    font-weight="200"
    font-stretch="normal"
    units-per-em="1000"
    panose-1="2 0 3 3 0 0 0 0 0 0"
    ascent="800"
    descent="-200"
    x-height="454"
    cap-height="722"
    bbox="-169 -208 1000 966"
    underline-thickness="60"
    underline-position="-95"
    stemh="48"
    stemv="50"
    unicode-range="U+0020-2212"
  />
    <missing-glyph />
    <glyph glyph-name="A" unicode="A" horiz-adv-x="778" 
d="M256 0h-234v48h89l224 626h-70v48h245v-48h-69l223 -626h92v-48h-236v48h86l-64 179h-311l-64 -179h89v-48zM248 275h277l-137 385h-2z" />
    <glyph glyph-name="registered" unicode="&#xae;" horiz-adv-x="1000" 
d="M275 301h251v373h-26zM331 674v48h623v-177h-54v129h-320v-266h251v-48h-251v-312h320v128h54v-176h-517v48h89v205h-280l-124 -205h92v-48h-204v48h56l378 626h-113z" />
    <glyph glyph-name="ccedilla" unicode="&#xe7;" horiz-adv-x="778" 
d="M256 0h-234v48h89l224 626h-70v48h245v-48h-69l223 -626h92v-48h-236v48h86l-64 179h-311l-64 -179h89v-48zM248 275h277l-137 385h-2zM376 763h-50l111 139h77z" />
    <glyph glyph-name="aring" unicode="&#xe5;" horiz-adv-x="778" 
d="M256 0h-234v48h89l224 626h-70v48h245v-48h-69l223 -626h92v-48h-236v48h86l-64 179h-311l-64 -179h89v-48zM248 275h277l-137 385h-2zM388 865l-82 -102h-64l112 139h68l113 -139h-65z" />
    <glyph glyph-name="uni0080" horiz-adv-x="778" 
d="M256 0h-234v48h89l224 626h-70v48h245v-48h-69l223 -626h92v-48h-236v48h86l-64 179h-311l-64 -179h89v-48zM248 275h277l-137 385h-2zM277 774v102h65v-102h-65zM436 774v102h65v-102h-65z" />
    <glyph glyph-name="Edieresis" unicode="&#xcb;" horiz-adv-x="778" 
d="M256 0h-234v48h89l224 626h-70v48h245v-48h-69l223 -626h92v-48h-236v48h86l-64 179h-311l-64 -179h89v-48zM248 275h277l-137 385h-2zM402 763l-138 139h77l111 -139h-50z" />
    <glyph glyph-name="uni0081" horiz-adv-x="778" 
d="M256 0h-234v48h89l224 626h-70v48h245v-48h-69l223 -626h92v-48h-236v48h86l-64 179h-311l-64 -179h89v-48zM248 275h277l-137 385h-2zM389 762c-55 0 -102 47 -102 102s47 102 102 102s102 -47 102 -102s-47 -102 -102 -102zM389 799c36 0 65 28 65 65
c0 36 -29 65 -65 65c-37 0 -65 -29 -65 -65c0 -37 28 -65 65 -65z" />
    <glyph glyph-name="Igrave" unicode="&#xcc;" horiz-adv-x="778" 
d="M256 0h-234v48h89l224 626h-70v48h245v-48h-69l223 -626h92v-48h-236v48h86l-64 179h-311l-64 -179h89v-48zM248 275h277l-137 385h-2zM270 775h-37c4 48 35 97 88 97c24 0 49 -11 74 -22c24 -12 48 -23 68 -23c28 0 42 25 45 50h37c-6 -51 -29 -98 -87 -98
c-21 0 -47 12 -72 23c-26 12 -50 23 -69 23c-26 0 -44 -27 -47 -50z" />
    <glyph glyph-name="B" unicode="B" horiz-adv-x="611" 
d="M171 408h115c95 0 192 23 192 136c0 78 -48 130 -211 130h-96v-266zM347 0h-315v48h85v626h-85v48h224c132 0 276 -18 276 -175c0 -72 -43 -134 -111 -157v-2c89 -25 152 -91 152 -188c0 -133 -103 -200 -226 -200zM171 48h143c115 0 205 29 205 160
c0 45 -22 152 -212 152h-136v-312z" />
    <glyph glyph-name="C" unicode="C" horiz-adv-x="778" 
d="M713 722v-222h-42c-27 123 -139 190 -261 190c-182 0 -318 -140 -318 -328c0 -174 118 -330 304 -330c138 0 238 71 283 200h51c-48 -164 -167 -248 -334 -248c-199 0 -358 161 -358 377c0 204 143 377 372 377c94 0 196 -34 253 -114h2v98h48z" />
    <glyph glyph-name="uni0082" horiz-adv-x="778" 
d="M713 722v-222h-42c-27 123 -139 190 -261 190c-182 0 -318 -140 -318 -328c0 -174 118 -330 304 -330c138 0 238 71 283 200h51c-48 -164 -167 -248 -334 -248c-199 0 -358 161 -358 377c0 204 143 377 372 377c94 0 196 -34 253 -114h2v98h48zM287 -188l15 30
c16 -6 40 -15 58 -15c29 0 71 9 71 46c0 46 -63 44 -93 32l-16 13l61 82h38l-44 -57l2 -2c9 5 20 7 31 6c48 -5 79 -25 79 -77s-61 -78 -105 -78c-33 0 -67 6 -97 20z" />
    <glyph glyph-name="D" unicode="D" horiz-adv-x="722" 
d="M171 674v-626h174c147 1 286 132 286 322c0 176 -127 299 -296 304h-164zM32 0v48h85v626h-85v48h224c119 0 221 3 325 -102c67 -67 104 -158 104 -250c0 -107 -38 -199 -102 -264s-155 -106 -262 -106h-289z" />
    <glyph glyph-name="E" unicode="E" horiz-adv-x="611" 
d="M565 0h-537v48h89v626h-89v48h537v-177h-54v129h-340v-266h262v-48h-262v-312h340v123h54v-171z" />
    <glyph glyph-name="uni0083" horiz-adv-x="611" 
d="M565 0h-537v48h89v626h-89v48h537v-177h-54v129h-340v-266h262v-48h-262v-312h340v123h54v-171zM302 763h-50l111 139h77z" />
    <glyph glyph-name="ae" unicode="&#xe6;" horiz-adv-x="611" 
d="M565 0h-537v48h89v626h-89v48h537v-177h-54v129h-340v-266h262v-48h-262v-312h340v123h54v-171zM314 865l-82 -102h-64l112 139h68l113 -139h-65z" />
    <glyph glyph-name="egrave" unicode="&#xe8;" horiz-adv-x="611" 
d="M565 0h-537v48h89v626h-89v48h537v-177h-54v129h-340v-266h262v-48h-262v-312h340v123h54v-171zM203 774v102h65v-102h-65zM362 774v102h65v-102h-65z" />
    <glyph glyph-name="eacute" unicode="&#xe9;" horiz-adv-x="611" 
d="M565 0h-537v48h89v626h-89v48h537v-177h-54v129h-340v-266h262v-48h-262v-312h340v123h54v-171zM328 763l-138 139h77l111 -139h-50z" />
    <glyph glyph-name="Eth" unicode="&#xd0;" horiz-adv-x="722" 
d="M171 674v-280h190v-48h-190v-298h174c147 1 286 132 286 322c0 176 -127 299 -296 304h-164zM117 394v280h-85v48h224c119 0 221 3 325 -102c67 -67 104 -158 104 -250c0 -107 -38 -199 -102 -264s-155 -106 -262 -106h-289v48h85v298h-85v48h85z" />
    <glyph glyph-name="F" unicode="F" horiz-adv-x="611" 
d="M274 0h-246v48h94v626h-94v48h544v-179h-54v131h-342v-266h262v-48h-262v-312h98v-48z" />
    <glyph glyph-name="G" unicode="G" horiz-adv-x="833" 
d="M677 0v117h-2c-63 -101 -172 -133 -252 -133c-247 0 -388 178 -388 377c0 137 89 377 394 377c62 0 171 -27 238 -108h2v92h48v-220h-48c-21 127 -146 188 -252 188c-191 0 -328 -150 -328 -329c0 -200 152 -329 334 -329c144 0 254 108 261 238h-226v48h352v-48h-79
v-270h-54z" />
    <glyph glyph-name="H" unicode="H" horiz-adv-x="722" 
d="M554 355h-386v-307h86v-48h-226v48h86v626h-86v48h226v-48h-86v-271h386v271h-86v48h226v-48h-86v-626h86v-48h-226v48h86v307z" />
    <glyph glyph-name="I" unicode="I" 
d="M112 48v626h-92v48h238v-48h-92v-626h92v-48h-238v48h92z" />
    <glyph glyph-name="ecircumflex" unicode="&#xea;" 
d="M112 48v626h-92v48h238v-48h-92v-626h92v-48h-238v48h92zM121 763h-50l111 139h77z" />
    <glyph glyph-name="edieresis" unicode="&#xeb;" 
d="M112 48v626h-92v48h238v-48h-92v-626h92v-48h-238v48h92zM133 865l-82 -102h-64l112 139h68l113 -139h-65z" />
    <glyph glyph-name="igrave" unicode="&#xec;" 
d="M112 48v626h-92v48h238v-48h-92v-626h92v-48h-238v48h92zM22 774v102h65v-102h-65zM181 774v102h65v-102h-65z" />
    <glyph glyph-name="iacute" unicode="&#xed;" 
d="M112 48v626h-92v48h238v-48h-92v-626h92v-48h-238v48h92zM147 763l-138 139h77l111 -139h-50z" />
    <glyph glyph-name="J" unicode="J" 
d="M23 722h236v-48h-88v-596c0 -133 -24 -190 -164 -190v48c127 0 110 74 110 169v569h-94v48z" />
    <glyph glyph-name="K" unicode="K" horiz-adv-x="667" 
d="M255 0h-225v48h87v626h-87v48h225v-48h-84v-300l321 300h-80v48h229v-48h-78l-335 -309l333 -317h85v-48h-239v48h78l-314 307v-307h84v-48z" />
    <glyph glyph-name="L" unicode="L" horiz-adv-x="556" 
d="M529 0h-502v48h85v626h-85v48h224v-48h-85v-626h309v102h54v-150z" />
    <glyph glyph-name="Lslash" unicode="&#x141;" horiz-adv-x="556" 
d="M529 0h-502v48h85v283l-112 -56v52l112 56v291h-85v48h224v-48h-85v-264l154 76v-52l-154 -76v-310h309v102h54v-150z" />
    <glyph glyph-name="M" unicode="M" horiz-adv-x="889" 
d="M710 722h152v-48h-89v-626h89v-48h-231v48h88v570h-2l-256 -588h-34l-256 588h-2v-570h83v-48h-225v48h88v626h-88v48h152l264 -617h2z" />
    <glyph glyph-name="N" unicode="N" horiz-adv-x="722" 
d="M163 660v-612h86v-48h-223v48h83v626h-84v48h166l366 -627h2v579h-84v48h222v-48h-84v-674h-56l-392 660h-2z" />
    <glyph glyph-name="uni0084" horiz-adv-x="722" 
d="M163 660v-612h86v-48h-223v48h83v626h-84v48h166l366 -627h2v579h-84v48h222v-48h-84v-674h-56l-392 660h-2zM242 775h-37c4 48 35 97 88 97c24 0 49 -11 74 -22c24 -12 48 -23 68 -23c28 0 42 25 45 50h37c-6 -51 -29 -98 -87 -98c-21 0 -47 12 -72 23
c-26 12 -50 23 -69 23c-26 0 -44 -27 -47 -50z" />
    <glyph glyph-name="O" unicode="O" horiz-adv-x="833" 
d="M90 361c0 -181 146 -329 326 -329s327 148 327 329s-147 329 -327 329s-326 -148 -326 -329zM36 361c0 206 169 377 380 377c210 0 381 -171 381 -377s-171 -377 -381 -377c-211 0 -380 171 -380 377z" />
    <glyph glyph-name="Icircumflex" unicode="&#xce;" horiz-adv-x="1000" 
d="M954 0h-540c-166 0 -386 72 -386 361c0 169 94 361 370 361h556v-179h-54v131h-318v-266h251v-48h-251v-312h318v123h54v-171zM528 95v534c0 43 -16 45 -90 45c-70 0 -356 6 -356 -313c0 -214 125 -313 352 -313c72 0 94 4 94 47z" />
    <glyph glyph-name="icircumflex" unicode="&#xee;" horiz-adv-x="833" 
d="M90 361c0 -181 146 -329 326 -329s327 148 327 329s-147 329 -327 329s-326 -148 -326 -329zM36 361c0 206 169 377 380 377c210 0 381 -171 381 -377s-171 -377 -381 -377c-211 0 -380 171 -380 377zM404 763h-50l111 139h77z" />
    <glyph glyph-name="idieresis" unicode="&#xef;" horiz-adv-x="833" 
d="M90 361c0 -181 146 -329 326 -329s327 148 327 329s-147 329 -327 329s-326 -148 -326 -329zM36 361c0 206 169 377 380 377c210 0 381 -171 381 -377s-171 -377 -381 -377c-211 0 -380 171 -380 377zM416 865l-82 -102h-64l112 139h68l113 -139h-65z" />
    <glyph glyph-name="uni0085" unicode="&#x85;" horiz-adv-x="833" 
d="M90 361c0 -181 146 -329 326 -329s327 148 327 329s-147 329 -327 329s-326 -148 -326 -329zM36 361c0 206 169 377 380 377c210 0 381 -171 381 -377s-171 -377 -381 -377c-211 0 -380 171 -380 377zM305 774v102h65v-102h-65zM464 774v102h65v-102h-65z" />
    <glyph glyph-name="ntilde" unicode="&#xf1;" horiz-adv-x="833" 
d="M90 361c0 -181 146 -329 326 -329s327 148 327 329s-147 329 -327 329s-326 -148 -326 -329zM36 361c0 206 169 377 380 377c210 0 381 -171 381 -377s-171 -377 -381 -377c-211 0 -380 171 -380 377zM430 763l-138 139h77l111 -139h-50z" />
    <glyph glyph-name="macron" unicode="&#xaf;" horiz-adv-x="833" 
d="M191 123l409 509c-52 36 -115 58 -184 58c-180 0 -326 -148 -326 -329c0 -93 38 -176 101 -238zM119 -41h-60l101 125c-76 68 -124 168 -124 277c0 206 169 377 380 377c80 0 154 -24 215 -67l81 100h60l-104 -129c79 -69 129 -170 129 -281c0 -206 -171 -377 -381 -377
c-82 0 -158 26 -220 71zM637 603l-410 -510c52 -38 118 -61 189 -61c180 0 327 148 327 329c0 96 -41 182 -106 242z" />
    <glyph glyph-name="Iacute" unicode="&#xcd;" horiz-adv-x="833" 
d="M90 361c0 -181 146 -329 326 -329s327 148 327 329s-147 329 -327 329s-326 -148 -326 -329zM36 361c0 206 169 377 380 377c210 0 381 -171 381 -377s-171 -377 -381 -377c-211 0 -380 171 -380 377zM298 775h-37c4 48 35 97 88 97c24 0 49 -11 74 -22
c24 -12 48 -23 68 -23c28 0 42 25 45 50h37c-6 -51 -29 -98 -87 -98c-21 0 -47 12 -72 23c-26 12 -50 23 -69 23c-26 0 -44 -27 -47 -50z" />
    <glyph glyph-name="P" unicode="P" horiz-adv-x="611" 
d="M170 674v-339h133c121 0 218 43 218 171c0 149 -110 168 -238 168h-113zM263 0h-240v48h93v626h-91v48h269c250 0 281 -126 281 -206c0 -187 -142 -229 -283 -229h-122v-239h93v-48z" />
    <glyph glyph-name="Q" unicode="Q" horiz-adv-x="833" 
d="M411 114l46 20l45 -90c139 38 241 166 241 317c0 181 -147 329 -327 329s-326 -148 -326 -329s146 -329 326 -329c12 0 23 1 35 2zM660 -104h-141l-46 93c-19 -4 -38 -5 -57 -5c-211 0 -380 171 -380 377s169 377 380 377c210 0 381 -171 381 -377
c0 -169 -115 -314 -273 -360l29 -57h107v-48z" />
    <glyph glyph-name="R" unicode="R" horiz-adv-x="667" 
d="M259 0h-231v48h89v626h-89v48h311c196 0 253 -83 253 -173c0 -92 -63 -162 -161 -174v-2c97 -26 127 -91 127 -179v-146h90v-48h-144v197c0 135 -99 158 -224 158h-109v-307h88v-48zM171 674v-271h109c98 0 258 4 258 140c0 126 -135 131 -223 131h-144z" />
    <glyph glyph-name="S" unicode="S" horiz-adv-x="611" 
d="M526 534h-42c-29 90 -104 156 -204 156c-99 0 -171 -39 -171 -147c0 -197 461 -97 461 -364c0 -132 -125 -195 -243 -195c-88 0 -168 38 -218 109h-2v-93h-48v245h48c0 -113 96 -213 224 -213c92 0 185 48 185 151c0 220 -461 101 -461 362c0 132 100 193 224 193
c75 0 148 -32 199 -90v74h48v-188z" />
    <glyph glyph-name="Scaron" unicode="&#x160;" horiz-adv-x="611" 
d="M526 534h-42c-29 90 -104 156 -204 156c-99 0 -171 -39 -171 -147c0 -197 461 -97 461 -364c0 -132 -125 -195 -243 -195c-88 0 -168 38 -218 109h-2v-93h-48v245h48c0 -113 96 -213 224 -213c92 0 185 48 185 151c0 220 -461 101 -461 362c0 132 100 193 224 193
c75 0 148 -32 199 -90v74h48v-188zM316 800l82 102h65l-113 -139h-68l-112 139h64z" />
    <glyph glyph-name="T" unicode="T" horiz-adv-x="556" 
d="M546 722v-192h-54v144h-187v-626h90v-48h-234v48h90v626h-187v-144h-54v192h536z" />
    <glyph glyph-name="Thorn" unicode="&#xde;" horiz-adv-x="611" 
d="M170 531v-340h133c121 0 218 44 218 172c0 149 -110 168 -238 168h-113zM23 674v48h239v-48h-92v-95h125c250 0 280 -126 280 -206c0 -187 -141 -230 -282 -230h-123v-95h92v-48h-239v48h93v626h-93z" />
    <glyph glyph-name="U" unicode="U" horiz-adv-x="722" 
d="M25 674v48h226v-48h-86v-444c0 -122 66 -198 196 -198s196 76 196 198v444h-86v48h226v-48h-86v-444c0 -147 -72 -246 -250 -246s-250 99 -250 246v444h-86z" />
    <glyph glyph-name="ograve" unicode="&#xf2;" horiz-adv-x="722" 
d="M25 674v48h226v-48h-86v-444c0 -122 66 -198 196 -198s196 76 196 198v444h-86v48h226v-48h-86v-444c0 -147 -72 -246 -250 -246s-250 99 -250 246v444h-86zM343 763h-50l111 139h77z" />
    <glyph glyph-name="oacute" unicode="&#xf3;" horiz-adv-x="722" 
d="M25 674v48h226v-48h-86v-444c0 -122 66 -198 196 -198s196 76 196 198v444h-86v48h226v-48h-86v-444c0 -147 -72 -246 -250 -246s-250 99 -250 246v444h-86zM355 865l-82 -102h-64l112 139h68l113 -139h-65z" />
    <glyph glyph-name="uni0086" horiz-adv-x="722" 
d="M25 674v48h226v-48h-86v-444c0 -122 66 -198 196 -198s196 76 196 198v444h-86v48h226v-48h-86v-444c0 -147 -72 -246 -250 -246s-250 99 -250 246v444h-86zM244 774v102h65v-102h-65zM403 774v102h65v-102h-65z" />
    <glyph glyph-name="ocircumflex" unicode="&#xf4;" horiz-adv-x="722" 
d="M25 674v48h226v-48h-86v-444c0 -122 66 -198 196 -198s196 76 196 198v444h-86v48h226v-48h-86v-444c0 -147 -72 -246 -250 -246s-250 99 -250 246v444h-86zM369 763l-138 139h77l111 -139h-50z" />
    <glyph glyph-name="V" unicode="V" horiz-adv-x="667" 
d="M6 674v48h224v-48h-84l184 -589h2l189 589h-84v48h224v-48h-84l-223 -682h-46l-218 682h-84z" />
    <glyph glyph-name="W" unicode="W" horiz-adv-x="1000" 
d="M14 674v48h213v-48h-90l188 -598h2l142 598h-90v48h242v-48h-91l142 -598h2l190 598h-91v48h213v-48h-71l-220 -682h-52l-144 610h-2l-141 -610h-52l-220 682h-70z" />
    <glyph glyph-name="X" unicode="X" horiz-adv-x="667" 
d="M239 0h-233v48h88l208 311v2l-208 313h-88v48h238v-48h-87l174 -268h2l178 268h-86v48h236v-48h-89l-208 -313v-2l206 -311h91v-48h-239v48h85l-174 265h-2l-178 -265h86v-48z" />
    <glyph glyph-name="Y" unicode="Y" horiz-adv-x="667" 
d="M3 722h234v-48h-91l182 -308h2l191 308h-90v48h233v-48h-85l-223 -360v-266h85v-48h-224v48h85v266l-214 360h-85v48z" />
    <glyph glyph-name="Yacute" unicode="&#xdd;" horiz-adv-x="667" 
d="M3 722h234v-48h-91l182 -308h2l191 308h-90v48h233v-48h-85l-223 -360v-266h85v-48h-224v48h85v266l-214 360h-85v48zM330 763h-50l111 139h77z" />
    <glyph glyph-name="Ugrave" unicode="&#xd9;" horiz-adv-x="667" 
d="M3 722h234v-48h-91l182 -308h2l191 308h-90v48h233v-48h-85l-223 -360v-266h85v-48h-224v48h85v266l-214 360h-85v48zM231 774v102h65v-102h-65zM390 774v102h65v-102h-65z" />
    <glyph glyph-name="Z" unicode="Z" horiz-adv-x="556" 
d="M88 674v-138h-54v186h489v-48l-424 -626h365v144h54v-192h-485v48l424 626h-369z" />
    <glyph glyph-name="Zcaron" unicode="&#x17d;" horiz-adv-x="556" 
d="M88 674v-138h-54v186h489v-48l-424 -626h365v144h54v-192h-485v48l424 626h-369zM288 800l82 102h65l-113 -139h-68l-112 139h64z" />
    <glyph glyph-name="a" unicode="a" horiz-adv-x="611" 
d="M262 419c-108 0 -187 -89 -187 -183c0 -113 72 -201 187 -201c101 0 187 76 187 201c0 97 -72 183 -187 183zM501 409v-364h77v-45h-127v80c-59 -66 -136 -90 -189 -90c-123 0 -237 89 -237 244c0 109 97 230 237 230c70 0 142 -32 187 -92h2v82h127v-45h-77z" />
    <glyph glyph-name="uni0087" horiz-adv-x="611" 
d="M262 419c-108 0 -187 -89 -187 -183c0 -113 72 -201 187 -201c101 0 187 76 187 201c0 97 -72 183 -187 183zM501 409v-364h77v-45h-127v80c-59 -66 -136 -90 -189 -90c-123 0 -237 89 -237 244c0 109 97 230 237 230c70 0 142 -32 187 -92h2v82h127v-45h-77zM284 510
h-50l111 139h77z" />
    <glyph glyph-name="uni0089" horiz-adv-x="611" 
d="M262 419c-108 0 -187 -89 -187 -183c0 -113 72 -201 187 -201c101 0 187 76 187 201c0 97 -72 183 -187 183zM501 409v-364h77v-45h-127v80c-59 -66 -136 -90 -189 -90c-123 0 -237 89 -237 244c0 109 97 230 237 230c70 0 142 -32 187 -92h2v82h127v-45h-77zM296 612
l-82 -102h-64l112 139h68l113 -139h-65z" />
    <glyph glyph-name="guillemotleft" unicode="&#xab;" 
d="M126 510h-50l111 139h77z" />
    <glyph glyph-name="uni008A" horiz-adv-x="611" 
d="M262 419c-108 0 -187 -89 -187 -183c0 -113 72 -201 187 -201c101 0 187 76 187 201c0 97 -72 183 -187 183zM501 409v-364h77v-45h-127v80c-59 -66 -136 -90 -189 -90c-123 0 -237 89 -237 244c0 109 97 230 237 230c70 0 142 -32 187 -92h2v82h127v-45h-77zM185 521
v102h65v-102h-65zM344 521v102h65v-102h-65z" />
    <glyph glyph-name="Ydieresis" unicode="&#x178;" horiz-adv-x="833" 
d="M413 252h339c-6 88 -76 167 -169 167c-105 0 -162 -73 -170 -167zM802 207h-389c10 -100 60 -172 168 -172c60 0 118 41 142 95h57c-34 -85 -116 -140 -208 -140c-69 0 -141 39 -175 99c-46 -66 -112 -99 -191 -99c-99 0 -181 69 -181 171c0 103 92 161 186 161
c56 0 112 -27 152 -66c3 14 4 27 4 39c0 89 -80 124 -159 124c-51 0 -78 -6 -105 -12l-7 42c37 11 74 15 112 15c75 0 158 -31 192 -103c49 69 102 103 188 103c140 0 214 -128 214 -257zM75 157c0 -71 60 -122 129 -122s159 39 159 120s-77 122 -150 122
c-74 0 -138 -40 -138 -120z" />
    <glyph glyph-name="uni0088" horiz-adv-x="611" 
d="M262 419c-108 0 -187 -89 -187 -183c0 -113 72 -201 187 -201c101 0 187 76 187 201c0 97 -72 183 -187 183zM501 409v-364h77v-45h-127v80c-59 -66 -136 -90 -189 -90c-123 0 -237 89 -237 244c0 109 97 230 237 230c70 0 142 -32 187 -92h2v82h127v-45h-77zM310 510
l-138 139h77l111 -139h-50z" />
    <glyph glyph-name="ampersand" unicode="&#x26;" horiz-adv-x="722" 
d="M407 159l-167 179c-46 -41 -135 -112 -135 -188c0 -67 40 -118 109 -118c82 0 142 71 193 127zM250 411c48 43 105 102 105 170c0 53 -43 93 -95 93c-62 0 -90 -51 -90 -108c0 -51 49 -116 80 -155zM554 0l-110 120c-67 -74 -129 -136 -234 -136c-99 0 -159 77 -159 170
c0 103 90 167 158 224c-45 59 -93 116 -93 194c0 90 62 150 151 150c76 0 142 -65 142 -142c0 -87 -68 -154 -128 -208l160 -171c43 54 84 112 104 179h-66v48h185v-48h-60c-29 -80 -73 -153 -126 -218l102 -114h84v-48h-110z" />
    <glyph glyph-name="uni008C" horiz-adv-x="611" 
d="M262 419c-108 0 -187 -89 -187 -183c0 -113 72 -201 187 -201c101 0 187 76 187 201c0 97 -72 183 -187 183zM501 409v-364h77v-45h-127v80c-59 -66 -136 -90 -189 -90c-123 0 -237 89 -237 244c0 109 97 230 237 230c70 0 142 -32 187 -92h2v82h127v-45h-77zM297 509
c-55 0 -102 47 -102 102s47 102 102 102s102 -47 102 -102s-47 -102 -102 -102zM297 546c36 0 65 28 65 65c0 36 -29 65 -65 65c-37 0 -65 -29 -65 -65c0 -37 28 -65 65 -65z" />
    <glyph glyph-name="asciicircum" unicode="^" horiz-adv-x="600" 
d="M148 341h-55l184 365h46l184 -365h-55l-152 301z" />
    <glyph glyph-name="asciitilde" unicode="~" horiz-adv-x="600" 
d="M495 290l36 -36c-30 -42 -63 -86 -125 -86c-39 0 -71 17 -105 34c-33 17 -67 34 -112 34c-44 0 -68 -37 -84 -72l-36 36c22 42 58 86 125 86c38 0 78 -17 115 -34s72 -34 98 -34c40 0 65 37 88 72z" />
    <glyph glyph-name="asterisk" unicode="*" horiz-adv-x="389" 
d="M88 492l69 81l-102 40l18 40l100 -38v107h48v-109l99 32l14 -45l-106 -31l60 -94l-39 -25l-58 94l-68 -83z" />
    <glyph glyph-name="at" unicode="@" horiz-adv-x="800" 
d="M522 440c0 46 -16 71 -48 71c-54 0 -156 -81 -156 -223c0 -67 33 -91 74 -91c43 0 116 84 130 243zM537 495l11 44h72l-72 -284c-4 -13 -13 -67 41 -67c99 0 151 130 151 227c0 127 -114 303 -320 303c-179 0 -313 -143 -313 -386c0 -156 120 -318 323 -318
c95 0 151 26 212 52l15 -22c-70 -31 -142 -60 -226 -60c-279 0 -402 213 -402 360c0 236 180 394 391 394c198 0 351 -138 351 -322c0 -111 -72 -261 -198 -261c-71 0 -97 64 -96 77h-2c-13 -19 -61 -68 -123 -76c-26 -1 -103 6 -103 136c0 73 67 260 211 260
c50 0 63 -30 77 -57z" />
    <glyph glyph-name="uni008B" horiz-adv-x="611" 
d="M262 419c-108 0 -187 -89 -187 -183c0 -113 72 -201 187 -201c101 0 187 76 187 201c0 97 -72 183 -187 183zM501 409v-364h77v-45h-127v80c-59 -66 -136 -90 -189 -90c-123 0 -237 89 -237 244c0 109 97 230 237 230c70 0 142 -32 187 -92h2v82h127v-45h-77zM178 522
h-37c4 48 35 97 88 97c24 0 49 -11 74 -22c24 -12 48 -23 68 -23c28 0 42 25 45 50h37c-6 -51 -29 -98 -87 -98c-21 0 -47 12 -72 23c-26 12 -50 23 -69 23c-26 0 -44 -27 -47 -50z" />
    <glyph glyph-name="b" unicode="b" horiz-adv-x="611" 
d="M524 226c0 101 -77 193 -182 193c-112 0 -198 -84 -198 -195c0 -116 108 -189 180 -189c154 0 200 126 200 191zM100 45v632h-81v45h131v-352h2c44 59 115 94 190 94c130 0 232 -106 232 -234c0 -86 -60 -240 -247 -240c-67 0 -143 40 -175 98h-2v-88h-132v45h82z" />
    <glyph glyph-name="backslash" unicode="\" 
d="M-70 738h46l371 -754h-46z" />
    <glyph glyph-name="bar" unicode="|" horiz-adv-x="222" 
d="M89 0v722h44v-722h-44z" />
    <glyph glyph-name="braceleft" unicode="{" horiz-adv-x="333" 
d="M137 33v173c0 63 -14 94 -76 111c62 18 76 49 76 112v173c0 116 55 136 135 136v-11c-65 -15 -83 -53 -83 -120v-164c0 -69 -12 -108 -81 -125v-2c69 -16 81 -55 81 -124v-164c0 -67 18 -105 83 -120v-11c-80 0 -135 20 -135 136z" />
    <glyph glyph-name="braceright" unicode="}" horiz-adv-x="333" 
d="M196 602v-173c0 -63 14 -94 76 -111c-62 -18 -76 -49 -76 -112v-173c0 -116 -55 -136 -135 -136v11c65 15 83 53 83 120v164c0 69 12 108 81 125v2c-69 16 -81 55 -81 124v164c0 67 -18 105 -83 120v11c80 0 135 -20 135 -136z" />
    <glyph glyph-name="bracketleft" unicode="[" 
d="M227 -85h-190v807h190v-46h-138v-715h138v-46z" />
    <glyph glyph-name="bracketright" unicode="]" 
d="M241 722v-807h-190v46h138v715h-138v46h190z" />
    <glyph glyph-name="ugrave" unicode="&#xf9;" 
d="M-5 642h38c10 -59 54 -81 110 -81c51 0 91 31 102 81h37c-9 -83 -68 -127 -150 -127c-76 0 -134 49 -137 127z" />
    <glyph glyph-name="brokenbar" unicode="&#xa6;" horiz-adv-x="222" 
d="M89 0v270h44v-270h-44zM89 452v270h44v-270h-44z" />
    <glyph glyph-name="yen" unicode="&#xa5;" horiz-adv-x="500" 
d="M431 361c0 -100 -81 -181 -181 -181s-181 80 -181 181c-1 101 80 181 181 181c100 0 181 -80 181 -181z" />
    <glyph glyph-name="c" unicode="c" horiz-adv-x="500" 
d="M457 302h-41c-20 72 -77 117 -153 117c-96 0 -188 -65 -188 -193c0 -121 92 -191 191 -191c67 0 124 39 162 88l35 -28c-42 -64 -120 -105 -207 -105c-132 0 -231 89 -231 237c0 131 95 237 237 237c56 0 105 -21 150 -62v52h45v-152z" />
    <glyph glyph-name="ydieresis" unicode="&#xff;" 
d="M140 547l82 102h65l-113 -139h-68l-112 139h64z" />
    <glyph glyph-name="uni008D" horiz-adv-x="500" 
d="M457 302h-41c-20 72 -77 117 -153 117c-96 0 -188 -65 -188 -193c0 -121 92 -191 191 -191c67 0 124 39 162 88l35 -28c-42 -64 -120 -105 -207 -105c-132 0 -231 89 -231 237c0 131 95 237 237 237c56 0 105 -21 150 -62v52h45v-152zM139 -188l15 30
c16 -6 40 -15 58 -15c29 0 71 9 71 46c0 46 -63 44 -93 32l-16 13l61 82h38l-44 -57l2 -2c9 5 20 7 31 6c48 -5 79 -25 79 -77s-61 -78 -105 -78c-33 0 -67 6 -97 20z" />
    <glyph glyph-name="udieresis" unicode="&#xfc;" 
d="M12 -188l15 30c16 -6 40 -15 58 -15c29 0 71 9 71 46c0 46 -63 44 -93 32l-16 13l61 82h38l-44 -57l2 -2c9 5 20 7 31 6c48 -5 79 -25 79 -77s-61 -78 -105 -78c-33 0 -67 6 -97 20z" />
    <glyph glyph-name="cent" unicode="&#xa2;" horiz-adv-x="500" 
d="M176 59l119 357c-12 2 -22 3 -32 3c-114 0 -188 -80 -188 -193c0 -74 39 -137 101 -167zM456 454v-152h-40c-12 45 -39 79 -79 99l-120 -360c16 -4 32 -6 49 -6c64 0 124 39 162 88l35 -28c-42 -64 -120 -105 -196 -105c-21 0 -42 2 -64 8l-43 -129h-48l49 146
c-79 35 -136 109 -136 212c0 129 100 237 232 237c17 0 33 -2 52 -5l40 120h48l-46 -137c22 -9 42 -23 60 -40v52h45z" />
    <glyph glyph-name="odieresis" unicode="&#xf6;" 
d="M138 612l-82 -102h-64l112 139h68l113 -139h-65z" />
    <glyph glyph-name="colon" unicode=":" horiz-adv-x="250" 
d="M71 49c0 29 24 54 54 54c29 0 54 -25 54 -54c0 -30 -25 -54 -54 -54c-30 0 -54 24 -54 54zM71 402c0 29 24 54 54 54c29 0 54 -25 54 -54c0 -30 -25 -54 -54 -54c-30 0 -54 24 -54 54z" />
    <glyph glyph-name="comma" unicode="," horiz-adv-x="250" 
d="M57 -108l66 212h56l-66 -212h-56z" />
    <glyph glyph-name="copyright" unicode="&#xa9;" horiz-adv-x="800" 
d="M400 -16c-203 0 -369 170 -369 375c0 208 166 379 369 379c204 0 369 -170 369 -379c0 -205 -165 -375 -369 -375zM400 24c173 0 319 160 319 335c0 179 -145 339 -319 339c-173 0 -319 -162 -319 -339c0 -175 147 -335 319 -335zM568 265h15l-17 -74
c0 -12 -11 -15 -27 -20c-23 -8 -64 -18 -116 -18c-121 0 -230 58 -230 216c0 90 78 210 236 210c58 0 85 -10 114 -20c16 -5 23 -13 23 -23v-76h-16c-2 47 -32 99 -126 99c-111 0 -163 -80 -164 -186c-1 -116 53 -199 173 -200c80 1 116 46 135 92z" />
    <glyph glyph-name="currency" unicode="&#xa4;" horiz-adv-x="500" 
d="M95 164l-53 -58l-38 38l53 56c-37 46 -53 100 -53 150s16 104 53 150l-53 56l38 38l53 -58c45 40 100 58 155 58s110 -18 155 -58l53 58l38 -38l-53 -56c37 -46 53 -100 53 -150s-16 -104 -53 -150l53 -56l-38 -38l-53 58c-45 -40 -100 -58 -155 -58s-110 18 -155 58z
M250 548c-107 0 -194 -89 -194 -198c0 -110 88 -198 194 -198c110 0 194 92 194 198s-85 198 -194 198z" />
    <glyph glyph-name="d" unicode="d" horiz-adv-x="611" 
d="M453 0v84h-2c-45 -62 -105 -94 -184 -94c-130 0 -238 101 -238 232c0 141 102 242 242 242c71 0 141 -41 180 -97h2v310h-77v45h127v-677h82v-45h-132zM458 222c0 107 -78 197 -189 197c-105 0 -190 -82 -190 -188c0 -113 80 -196 195 -196c82 0 184 75 184 187z" />
    <glyph glyph-name="uni00A0" unicode="&#xa0;" horiz-adv-x="500" 
d="M79 366h-45v126h45v-40h141v225h-44v45h140v-45h-44v-225h149v40h45v-126h-45v40h-149v-523h-52v523h-141v-40z" />
    <glyph glyph-name="agrave" unicode="&#xe0;" horiz-adv-x="500" 
d="M79 64h-45v126h45v-40h141v308h-141v-40h-45v126h45v-40h141v173h-44v45h140v-45h-44v-173h149v40h45v-126h-45v40h-149v-308h149v40h45v-126h-45v40h-149v-176h44v-45h-140v45h44v176h-141v-40z" />
    <glyph glyph-name="exclamdown" unicode="&#xa1;" horiz-adv-x="400" 
d="M200 466c60 0 108 53 108 113s-48 113 -108 113s-108 -53 -108 -113s48 -113 108 -113zM200 436c-80 0 -143 63 -143 143s63 143 143 143s143 -63 143 -143s-63 -143 -143 -143z" />
    <glyph glyph-name="logicalnot" unicode="&#xac;" 
d="M27 521v102h65v-102h-65zM186 521v102h65v-102h-65z" />
    <glyph glyph-name="Odieresis" unicode="&#xd6;" horiz-adv-x="600" 
d="M527 205h-454v44h454v-44zM249 402c0 28 24 51 51 51s51 -24 51 -51c0 -25 -24 -51 -50 -51c-28 0 -52 24 -52 51zM249 52c0 29 24 51 51 51s51 -23 51 -51c0 -25 -24 -51 -50 -51c-28 0 -52 24 -52 51z" />
    <glyph glyph-name="dollar" unicode="$" horiz-adv-x="500" 
d="M225 387v252c-78 1 -138 -43 -138 -126c0 -76 73 -115 138 -126zM265 331v-289c84 -3 161 49 161 139c0 92 -85 130 -161 150zM225 46v295c-93 17 -186 64 -186 174c0 100 91 170 186 170v65h40v-68c52 -10 98 -41 126 -82h2v81h48v-186h-40c-18 66 -67 125 -136 141
v-259c116 -22 209 -71 209 -202c0 -110 -105 -179 -209 -179v-85h-40v89c-65 0 -124 56 -149 113h-2v-113h-48v241h40c15 -81 70 -185 159 -195z" />
    <glyph glyph-name="uacute" unicode="&#xfa;" 
d="M106 521v102h65v-102h-65z" />
    <glyph glyph-name="otilde" unicode="&#xf5;" 
d="M247 0h-216v45h83v364h-81v45h131v-409h83v-45z" />
    <glyph glyph-name="e" unicode="e" horiz-adv-x="556" 
d="M80 252h395c-11 100 -102 167 -201 167c-95 0 -183 -73 -194 -167zM525 207h-445c8 -107 92 -172 196 -172c68 0 135 35 173 92h56c-41 -90 -139 -137 -235 -137c-131 0 -240 96 -240 230c0 142 111 244 251 244c150 0 244 -108 244 -257z" />
    <glyph glyph-name="uni008E" horiz-adv-x="556" 
d="M80 252h395c-11 100 -102 167 -201 167c-95 0 -183 -73 -194 -167zM525 207h-445c8 -107 92 -172 196 -172c68 0 135 35 173 92h56c-41 -90 -139 -137 -235 -137c-131 0 -240 96 -240 230c0 142 111 244 251 244c150 0 244 -108 244 -257zM265 510h-50l111 139h77z" />
    <glyph glyph-name="uni0090" horiz-adv-x="556" 
d="M80 252h395c-11 100 -102 167 -201 167c-95 0 -183 -73 -194 -167zM525 207h-445c8 -107 92 -172 196 -172c68 0 135 35 173 92h56c-41 -90 -139 -137 -235 -137c-131 0 -240 96 -240 230c0 142 111 244 251 244c150 0 244 -108 244 -257zM277 612l-82 -102h-64l112 139
h68l113 -139h-65z" />
    <glyph glyph-name="uni0091" horiz-adv-x="556" 
d="M80 252h395c-11 100 -102 167 -201 167c-95 0 -183 -73 -194 -167zM525 207h-445c8 -107 92 -172 196 -172c68 0 135 35 173 92h56c-41 -90 -139 -137 -235 -137c-131 0 -240 96 -240 230c0 142 111 244 251 244c150 0 244 -108 244 -257zM166 521v102h65v-102h-65z
M325 521v102h65v-102h-65z" />
    <glyph glyph-name="uni008F" horiz-adv-x="556" 
d="M80 252h395c-11 100 -102 167 -201 167c-95 0 -183 -73 -194 -167zM525 207h-445c8 -107 92 -172 196 -172c68 0 135 35 173 92h56c-41 -90 -139 -137 -235 -137c-131 0 -240 96 -240 230c0 142 111 244 251 244c150 0 244 -108 244 -257zM291 510l-138 139h77l111 -139
h-50z" />
    <glyph glyph-name="eight" unicode="8" horiz-adv-x="500" 
d="M405 187c0 83 -72 155 -155 155c-89 0 -156 -60 -156 -151c0 -98 70 -161 155 -161c93 0 156 78 156 157zM395 533c0 86 -70 143 -152 143c-77 0 -139 -61 -139 -138c0 -87 60 -150 147 -150c81 0 144 64 144 145zM457 186c0 -119 -93 -202 -208 -202
c-124 0 -207 94 -207 210c0 76 54 151 122 172c-68 33 -112 87 -112 165c0 118 86 191 200 191c107 0 195 -82 195 -190c0 -70 -47 -138 -111 -166c75 -28 121 -100 121 -180z" />
    <glyph glyph-name="Eacute" unicode="&#xc9;" horiz-adv-x="1000" 
d="M113 49c0 29 24 54 54 54c29 0 54 -25 54 -54c0 -30 -25 -54 -54 -54c-30 0 -54 24 -54 54zM446 49c0 29 24 54 54 54c29 0 54 -25 54 -54c0 -30 -25 -54 -54 -54c-30 0 -54 24 -54 54zM779 49c0 29 24 54 54 54c29 0 54 -25 54 -54c0 -30 -25 -54 -54 -54
c-30 0 -54 24 -54 54z" />
    <glyph glyph-name="Ntilde" unicode="&#xd1;" horiz-adv-x="1000" 
d="M1000 211h-1000v41h1000v-41z" />
    <glyph glyph-name="Eth" unicode="&#xd0;" horiz-adv-x="500" 
d="M500 211h-500v41h500v-41z" />
    <glyph glyph-name="equal" unicode="=" horiz-adv-x="600" 
d="M527 346v-44h-454v44h454zM527 152v-44h-454v44h454z" />
    <glyph glyph-name="eth" unicode="&#xf0;" horiz-adv-x="556" 
d="M475 225c0 115 -84 194 -198 194c-112 0 -197 -79 -197 -194s85 -190 199 -190c112 0 196 75 196 190zM332 458l-120 115l-150 -53v48l114 40l-118 114h62l104 -97l152 54v-48l-116 -41l112 -105c89 -86 104 -108 124 -141c18 -35 29 -75 29 -119
c0 -135 -105 -235 -248 -235s-248 100 -247 235c0 135 105 239 247 239c20 0 39 -2 55 -8v2z" />
    <glyph glyph-name="exclam" unicode="!" 
d="M108 722h62l-10 -571h-42zM85 49c0 29 24 54 54 54c29 0 54 -25 54 -54c0 -30 -25 -54 -54 -54c-30 0 -54 24 -54 54z" />
    <glyph glyph-name="Aacute" unicode="&#xc1;" 
d="M118 388h42l10 -570h-62zM85 491c0 29 24 54 54 54c29 0 54 -25 54 -54c0 -30 -25 -54 -54 -54c-30 0 -54 24 -54 54z" />
    <glyph glyph-name="f" unicode="f" 
d="M251 0h-221v45h82v364h-80v45h80v156c0 101 80 112 128 112h37v-45h-18c-64 0 -97 -4 -97 -72v-151h89v-45h-89v-364h89v-45z" />
    <glyph glyph-name="Thorn" unicode="&#xde;" horiz-adv-x="611" 
d="M568 0h-216v45h83v364h-81v45h131v-409h83v-45zM435 545v118h50v-118h-50zM264 0h-221v45h82v364h-80v45h80v156c0 101 80 112 128 112h37v-45h-18c-64 0 -97 -4 -97 -72v-151h89v-45h-89v-364h89v-45z" />
    <glyph glyph-name="five" unicode="5" horiz-adv-x="500" 
d="M93 706h297v-46h-245v-217c23 8 51 11 100 11c105 0 208 -70 208 -232c0 -125 -89 -238 -206 -238c-127 0 -200 87 -200 210h52c0 -86 48 -164 148 -164c105 0 154 104 154 192c0 126 -81 186 -183 186c-41 0 -83 -8 -125 -19v317z" />
    <glyph glyph-name="germandbls" unicode="&#xdf;" horiz-adv-x="611" 
d="M350 0v45h85v632h-85v45h135v-677h83v-45h-218zM264 0h-221v45h82v364h-80v45h80v156c0 101 80 112 128 112h37v-45h-18c-64 0 -97 -4 -97 -72v-151h89v-45h-89v-364h89v-45z" />
    <glyph glyph-name="Adieresis" unicode="&#xc4;" horiz-adv-x="500" 
d="M408 440v-46h-118l-35 -241c-8 -57 -15 -141 -39 -210c-25 -69 -68 -125 -150 -125c-16 0 -33 2 -48 7l5 47c12 -4 25 -8 39 -8c64 0 96 44 114 103c18 61 22 137 32 203l33 224h-121v46h127c11 82 27 210 101 260c18 13 53 22 76 22c19 0 39 -2 57 -10l-10 -45
c-16 4 -32 9 -49 9c-68 -1 -88 -53 -104 -110c-10 -33 -17 -67 -22 -126h112z" />
    <glyph glyph-name="four" unicode="4" horiz-adv-x="500" 
d="M463 0h-232v46h92v144h-294v44l293 472h53v-470h86v-46h-86v-144h88v-46zM321 613l-234 -377h236v377h-2z" />
    <glyph glyph-name="Uacute" unicode="&#xda;" horiz-adv-x="167" 
d="M289 722h46l-458 -738h-46z" />
    <glyph glyph-name="g" unicode="g" horiz-adv-x="611" 
d="M75 225c0 -123 108 -190 182 -190c110 0 192 87 192 193c0 104 -85 191 -192 191c-102 0 -182 -99 -182 -194zM499 409v-241c0 -122 -7 -181 -20 -218c-30 -87 -119 -132 -207 -132c-79 0 -198 26 -216 118h51c18 -55 91 -73 165 -73c67 0 134 21 164 112
c10 31 12 74 13 106c-54 -58 -110 -91 -190 -91c-182 0 -234 156 -234 235c0 121 99 239 236 239c103 0 188 -76 186 -106h2v96h132v-45h-82z" />
    <glyph glyph-name="section" unicode="&#xa7;" horiz-adv-x="556" 
d="M100 45v479c0 122 54 214 188 214c104 0 184 -76 184 -170c0 -80 -31 -136 -97 -163v-2c92 -11 139 -130 139 -210c0 -103 -50 -203 -151 -203c-42 0 -73 13 -97 32l28 39c26 -16 39 -26 69 -26c77 0 101 97 101 158c0 130 -82 189 -205 182v45c100 0 163 43 163 148
c0 72 -62 125 -134 125c-69 0 -109 -28 -128 -93c-15 -53 -10 -217 -10 -281v-274h71v-45h-197v45h76z" />
    <glyph glyph-name="grave" unicode="`" 
d="M152 510l-138 139h77l111 -139h-50z" />
    <glyph glyph-name="greater" unicode="&#x3e;" horiz-adv-x="600" 
d="M46 21l446 206l-446 206v55l508 -234v-54l-508 -234v55z" />
    <glyph glyph-name="Ccedilla" unicode="&#xc7;" horiz-adv-x="500" 
d="M84 231l124 154h63l-123 -154l123 -154h-63zM229 231l124 154h63l-123 -154l123 -154h-63z" />
    <glyph glyph-name="Egrave" unicode="&#xc8;" horiz-adv-x="500" 
d="M147 385l124 -154l-124 -154h-63l123 154l-123 154h63zM292 385l124 -154l-124 -154h-63l123 154l-123 154h63z" />
    <glyph glyph-name="Udieresis" unicode="&#xdc;" horiz-adv-x="333" 
d="M73 231l124 154h63l-123 -154l123 -154h-63z" />
    <glyph glyph-name="Yacute" unicode="&#xdd;" horiz-adv-x="333" 
d="M136 385l124 -154l-124 -154h-63l123 154l-123 154h63z" />
    <glyph glyph-name="h" unicode="h" horiz-adv-x="611" 
d="M169 722v-355h2c46 63 115 97 177 97c143 0 160 -76 160 -181v-238h79v-45h-208v45h79v242c0 101 -32 132 -110 132c-79 0 -154 -57 -179 -111v-263h77v-45h-208v45h81v632h-81v45h131z" />
    <glyph glyph-name="yacute" unicode="&#xfd;" 
d="M181 649l-123 -139h-50l96 139h77zM335 649l-138 -139h-50l111 139h77z" />
    <glyph glyph-name="hyphen" unicode="-" horiz-adv-x="333" 
d="M42 257h248v-50h-248v50z" />
    <glyph glyph-name="i" unicode="i" 
d="M247 0h-216v45h83v364h-81v45h131v-409h83v-45zM114 545v118h50v-118h-50z" />
    <glyph glyph-name="uni0092" 
d="M247 0h-216v45h83v364h-81v45h131v-409h83v-45zM121 510h-50l111 139h77z" />
    <glyph glyph-name="uni0094" 
d="M247 0h-216v45h83v364h-81v45h131v-409h83v-45zM133 612l-82 -102h-64l112 139h68l113 -139h-65z" />
    <glyph glyph-name="uni0095" 
d="M247 0h-216v45h83v364h-81v45h131v-409h83v-45zM22 521v102h65v-102h-65zM181 521v102h65v-102h-65z" />
    <glyph glyph-name="uni0093" 
d="M247 0h-216v45h83v364h-81v45h131v-409h83v-45zM147 510l-138 139h77l111 -139h-50z" />
    <glyph glyph-name="j" unicode="j" 
d="M46 454h136v-443c0 -144 -81 -181 -153 -193v45c95 20 103 83 103 151v395h-86v45zM132 545v118h50v-118h-50z" />
    <glyph glyph-name="k" unicode="k" horiz-adv-x="500" 
d="M235 0h-212v45h82v632h-82v45h132v-465l174 152h-72v45h219v-45h-78l-191 -160l233 -204h65v-45h-210v45h70l-210 189v-189h80v-45z" />
    <glyph glyph-name="l" unicode="l" 
d="M29 0v45h85v632h-85v45h135v-677h85v-45h-220z" />
    <glyph glyph-name="less" unicode="&#x3c;" horiz-adv-x="600" 
d="M554 21v-55l-508 234v54l508 234v-55l-446 -206z" />
    <glyph glyph-name="Acircumflex" unicode="&#xc2;" horiz-adv-x="600" 
d="M483 109v193h-410v44h454v-237h-44z" />
    <glyph glyph-name="lslash" unicode="&#x142;" 
d="M29 722h135v-310l96 48v-49l-96 -48v-318h85v-45h-220v45h85v293l-88 -44v49l88 44v290h-85v45z" />
    <glyph glyph-name="m" unicode="m" horiz-adv-x="889" 
d="M169 454v-73c45 48 102 83 170 83c59 0 108 -27 129 -83c54 51 99 83 178 83c78 0 137 -58 137 -132v-287h81v-45h-212v45h81v291c0 58 -52 83 -93 83c-67 0 -122 -42 -164 -88v-286h81v-45h-212v45h81v291c0 50 -47 83 -95 83c-50 0 -105 -28 -162 -96v-278h81v-45h-212
v45h81v364h-81v45h131z" />
    <glyph glyph-name="oslash" unicode="&#xf8;" 
d="M-9 549v46h295v-46h-295z" />
    <glyph glyph-name="minus" unicode="&#x2212;" horiz-adv-x="600" 
d="M527 205h-454v44h454v-44z" />
    <glyph glyph-name="mu" unicode="&#x3bc;" horiz-adv-x="611" 
d="M441 0v85c-47 -54 -113 -95 -195 -95c-34 0 -64 9 -85 25v-197h-130v45h80v546h-80v45h130v-329c0 -66 48 -90 94 -90c77 0 130 48 186 104v270h-79v45h129v-409h78v-45h-128z" />
    <glyph glyph-name="multiply" unicode="&#xd7;" horiz-adv-x="600" 
d="M300 196l-194 -196l-33 32l196 195l-196 196l32 31l195 -196l195 196l32 -31l-196 -196l196 -195l-32 -31z" />
    <glyph glyph-name="n" unicode="n" horiz-adv-x="611" 
d="M169 454v-87h2c46 63 115 97 177 97c143 0 160 -76 160 -181v-238h79v-45h-208v45h79v242c0 101 -32 132 -110 132c-79 0 -154 -57 -179 -111v-263h77v-45h-208v45h81v364h-81v45h131z" />
    <glyph glyph-name="nine" unicode="9" horiz-adv-x="500" 
d="M239 313c109 0 164 81 164 185c0 97 -57 178 -159 178c-98 0 -147 -98 -147 -186c0 -131 94 -177 142 -177zM75 151h52c0 -73 42 -121 122 -121s121 54 139 120c14 46 15 92 15 149v56h-2c-30 -56 -95 -88 -159 -88c-127 0 -197 108 -197 225c0 113 67 230 205 230
c159 0 205 -128 205 -238v-215c0 -152 -63 -285 -204 -285c-102 0 -176 66 -176 167z" />
    <glyph glyph-name="uni0096" horiz-adv-x="611" 
d="M169 454v-87h2c46 63 115 97 177 97c143 0 160 -76 160 -181v-238h79v-45h-208v45h79v242c0 101 -32 132 -110 132c-79 0 -154 -57 -179 -111v-263h77v-45h-208v45h81v364h-81v45h131zM187 522h-37c4 48 35 97 88 97c24 0 49 -11 74 -22c24 -12 48 -23 68 -23
c28 0 42 25 45 50h37c-6 -51 -29 -98 -87 -98c-21 0 -47 12 -72 23c-26 12 -50 23 -69 23c-26 0 -44 -27 -47 -50z" />
    <glyph glyph-name="numbersign" unicode="#" horiz-adv-x="500" 
d="M465 274l4 -46h-111l-32 -228h-50l32 228h-141l-32 -228h-50l32 228h-110l-4 46h120l22 158h-110l-4 46h120l32 228h50l-32 -228h141l32 228h50l-32 -228h101l4 -46h-111l-22 -158h101zM336 432h-141l-22 -158h141z" />
    <glyph glyph-name="o" unicode="o" horiz-adv-x="556" 
d="M475 225c0 115 -84 194 -198 194c-112 0 -197 -79 -197 -194s85 -190 199 -190c112 0 196 75 196 190zM525 225c0 -135 -105 -235 -248 -235s-248 100 -247 235c0 135 105 239 247 239c143 0 248 -104 248 -239z" />
    <glyph glyph-name="uni0097" horiz-adv-x="556" 
d="M475 225c0 115 -84 194 -198 194c-112 0 -197 -79 -197 -194s85 -190 199 -190c112 0 196 75 196 190zM525 225c0 -135 -105 -235 -248 -235s-248 100 -247 235c0 135 105 239 247 239c143 0 248 -104 248 -239zM265 510h-50l111 139h77z" />
    <glyph glyph-name="uni0099" horiz-adv-x="556" 
d="M475 225c0 115 -84 194 -198 194c-112 0 -197 -79 -197 -194s85 -190 199 -190c112 0 196 75 196 190zM525 225c0 -135 -105 -235 -248 -235s-248 100 -247 235c0 135 105 239 247 239c143 0 248 -104 248 -239zM277 612l-82 -102h-64l112 139h68l113 -139h-65z" />
    <glyph glyph-name="uni009A" horiz-adv-x="556" 
d="M475 225c0 115 -84 194 -198 194c-112 0 -197 -79 -197 -194s85 -190 199 -190c112 0 196 75 196 190zM525 225c0 -135 -105 -235 -248 -235s-248 100 -247 235c0 135 105 239 247 239c143 0 248 -104 248 -239zM166 521v102h65v-102h-65zM325 521v102h65v-102h-65z" />
    <glyph glyph-name="Idieresis" unicode="&#xcf;" horiz-adv-x="944" 
d="M499 252h364c-11 97 -94 167 -192 167c-94 0 -164 -77 -172 -167zM913 207h-414c6 -97 78 -172 175 -172c70 0 123 31 161 90h56c-43 -82 -119 -135 -213 -135c-98 0 -164 46 -211 130c-34 -86 -113 -130 -203 -130c-142 0 -237 105 -237 243c0 130 108 231 237 231
c94 0 167 -47 209 -130c41 88 109 130 206 130c149 0 237 -115 234 -257zM77 227c0 -102 80 -192 184 -192c109 0 188 88 188 194c0 112 -78 190 -189 190c-104 0 -183 -91 -183 -192z" />
    <glyph glyph-name="thorn" unicode="&#xfe;" 
d="M225 -158l15 -30c-30 -14 -64 -20 -97 -20c-52 0 -105 26 -105 78c0 69 61 103 141 130h46c-48 -24 -139 -61 -139 -117c0 -47 42 -56 81 -56c18 0 42 9 58 15z" />
    <glyph glyph-name="uni0098" horiz-adv-x="556" 
d="M475 225c0 115 -84 194 -198 194c-112 0 -197 -79 -197 -194s85 -190 199 -190c112 0 196 75 196 190zM525 225c0 -135 -105 -235 -248 -235s-248 100 -247 235c0 135 105 239 247 239c143 0 248 -104 248 -239zM291 510l-138 139h77l111 -139h-50z" />
    <glyph glyph-name="one" unicode="1" horiz-adv-x="500" 
d="M370 0h-229v46h89v614h-86v46h138v-660h88v-46z" />
    <glyph glyph-name="onehalf" unicode="&#xbd;" horiz-adv-x="750" 
d="M191 289h-149v33h55v357h-53v33h93v-390h54v-33zM703 0h-271v33l156 170c30 33 63 79 63 125c0 49 -37 72 -88 72c-52 0 -91 -33 -91 -80v-42h-40v34c0 71 53 121 132 121c66 0 127 -40 127 -105c0 -68 -64 -131 -106 -178l-113 -117h191v71h40v-104zM537 722h46
l-458 -738h-46z" />
    <glyph glyph-name="onequarter" unicode="&#xbc;" horiz-adv-x="750" 
d="M703 33v-33h-151v33h57v79h-189v33l188 278h41v-278h53v-33h-53v-79h54zM462 145h147v218h-2zM587 722h46l-458 -738h-46zM191 289h-149v33h55v357h-53v33h93v-390h54v-33z" />
    <glyph glyph-name="onesuperior" unicode="&#xb9;" horiz-adv-x="300" 
d="M232 289h-149v33h55v357h-53v33h93v-390h54v-33z" />
    <glyph glyph-name="guillemotright" unicode="&#xbb;" horiz-adv-x="367" 
d="M158 704c-70 0 -116 -51 -116 -109c0 -71 41 -121 116 -121c66 0 115 43 115 121c0 61 -53 109 -115 109zM273 447v44c-31 -35 -67 -51 -115 -51c-96 0 -154 73 -154 155c0 77 71 143 154 143c45 0 92 -21 113 -52h2v45h90v-34h-52v-216h52v-34h-90z" />
    <glyph glyph-name="OE" unicode="&#x152;" horiz-adv-x="334" 
d="M44 589c0 -72 49 -115 123 -115c73 0 122 43 122 115s-49 115 -123 115c-73 0 -122 -43 -122 -115zM327 589c0 -85 -68 -149 -161 -149s-160 64 -160 149c0 84 68 149 160 149c93 0 161 -65 161 -149z" />
    <glyph glyph-name="questiondown" unicode="&#xbf;" horiz-adv-x="556" 
d="M412 371l-238 -310c30 -17 66 -26 105 -26c112 0 196 75 196 190c0 60 -23 111 -63 146zM135 89l237 308c-27 14 -60 22 -95 22c-112 0 -197 -79 -197 -194c0 -56 21 -103 55 -136zM65 -81h-60l101 133c-48 42 -77 103 -76 173c0 135 105 239 247 239
c46 0 88 -11 123 -30l74 96h60l-94 -123c53 -43 85 -108 85 -182c0 -135 -105 -235 -248 -235c-49 0 -93 12 -131 34z" />
    <glyph glyph-name="uni009B" horiz-adv-x="556" 
d="M475 225c0 115 -84 194 -198 194c-112 0 -197 -79 -197 -194s85 -190 199 -190c112 0 196 75 196 190zM525 225c0 -135 -105 -235 -248 -235s-248 100 -247 235c0 135 105 239 247 239c143 0 248 -104 248 -239zM159 522h-37c4 48 35 97 88 97c24 0 49 -11 74 -22
c24 -12 48 -23 68 -23c28 0 42 25 45 50h37c-6 -51 -29 -98 -87 -98c-21 0 -47 12 -72 23c-26 12 -50 23 -69 23c-26 0 -44 -27 -47 -50z" />
    <glyph glyph-name="p" unicode="p" horiz-adv-x="611" 
d="M100 -137v546h-82v45h132v-85h3c45 69 106 95 179 95c137 0 242 -110 242 -236c0 -146 -115 -238 -239 -238c-120 0 -181 93 -185 93v-220h82v-45h-214v45h82zM524 231c0 100 -87 188 -188 188c-109 2 -190 -89 -190 -195c0 -98 82 -189 182 -189c116 0 196 79 196 196z
" />
    <glyph glyph-name="Scaron" unicode="&#x160;" horiz-adv-x="600" 
d="M305 674v-766h59v766h-59zM414 674v-766h86v-48h-331v48h86v403c-144 0 -205 87 -205 213c0 139 59 198 209 198h241v-48h-86z" />
    <glyph glyph-name="parenleft" unicode="(" 
d="M195 738l39 -29c-83 -107 -138 -235 -138 -391c0 -140 42 -262 138 -391l-36 -30c-93 109 -154 266 -154 409c0 168 47 300 151 432z" />
    <glyph glyph-name="parenright" unicode=")" 
d="M80 -103l-36 30c84 116 138 245 138 390c0 153 -47 270 -138 392l38 29c97 -124 152 -260 152 -419c0 -153 -57 -304 -154 -422z" />
    <glyph glyph-name="percent" unicode="%" horiz-adv-x="833" 
d="M152 -16l473 738h46l-473 -738h-46zM624 306c88 0 163 -72 163 -161s-73 -161 -161 -161c-89 0 -161 72 -161 161s70 161 159 161zM625 28c65 0 118 51 118 117c0 65 -55 117 -119 117s-115 -53 -115 -117c0 -65 50 -117 116 -117zM205 402c-89 0 -159 71 -159 160
s73 160 161 160s161 -71 161 -160c0 -91 -74 -160 -163 -160zM207 446c64 0 117 52 117 116s-53 116 -117 116s-117 -52 -117 -116c0 -65 53 -116 117 -116z" />
    <glyph glyph-name="period" unicode="." horiz-adv-x="250" 
d="M71 49c0 29 24 54 54 54c29 0 54 -25 54 -54c0 -30 -25 -54 -54 -54c-30 0 -54 24 -54 54z" />
    <glyph glyph-name="aacute" unicode="&#xe1;" horiz-adv-x="250" 
d="M71 227c0 29 24 54 54 54c29 0 54 -25 54 -54c0 -30 -25 -54 -54 -54c-30 0 -54 24 -54 54z" />
    <glyph glyph-name="adieresis" unicode="&#xe4;" horiz-adv-x="1000" 
d="M837 -16c-83 0 -151 65 -151 149c0 83 67 151 151 151c83 0 150 -69 150 -151c0 -83 -68 -149 -150 -149zM730 133c0 -59 48 -105 107 -105c58 0 106 46 106 105c0 58 -48 107 -106 107c-59 0 -107 -49 -107 -107zM164 421c-84 0 -150 68 -150 151c0 82 67 150 150 150
c82 0 151 -67 151 -150c0 -84 -68 -151 -151 -151zM58 572c0 -59 47 -107 106 -107c58 0 107 48 107 107c0 58 -49 106 -107 106c-59 0 -106 -48 -106 -106zM57 -16l473 738h46l-473 -738h-46zM465 -16c-83 0 -150 66 -150 149s67 151 150 151c82 0 151 -68 151 -151
s-69 -149 -151 -149zM359 133c0 -59 47 -105 106 -105c58 0 107 46 107 105c0 58 -49 107 -107 107c-59 0 -106 -49 -106 -107z" />
    <glyph glyph-name="plus" unicode="+" horiz-adv-x="600" 
d="M278 249v205h44v-205h205v-44h-205v-205h-44v205h-205v44h205z" />
    <glyph glyph-name="plusminus" unicode="&#xb1;" horiz-adv-x="600" 
d="M278 290v164h44v-164h205v-44h-205v-164h-44v164h-205v44h205zM73 0v44h454v-44h-454z" />
    <glyph glyph-name="q" unicode="q" horiz-adv-x="611" 
d="M453 227c0 104 -79 192 -186 192c-108 0 -188 -87 -188 -194c0 -114 85 -190 195 -190c106 0 179 91 179 192zM503 409v-546h82v-45h-214v45h82v220c-59 -62 -105 -93 -192 -93c-128 0 -232 102 -232 232c0 131 101 242 234 242c83 0 136 -35 190 -96v86h132v-45h-82z
" />
    <glyph glyph-name="question" unicode="?" horiz-adv-x="444" 
d="M227 322v-177h-52v225c104 -12 185 48 185 157c0 76 -58 149 -138 149c-81 0 -137 -66 -138 -145h-52c3 108 80 191 190 191c111 0 190 -91 190 -199c0 -106 -73 -201 -185 -201zM147 49c0 29 24 54 54 54c29 0 54 -25 54 -54c0 -30 -25 -54 -54 -54c-30 0 -54 24 -54 54
z" />
    <glyph glyph-name="Agrave" unicode="&#xc0;" horiz-adv-x="444" 
d="M217 218v177h52v-225c-104 12 -185 -48 -185 -157c0 -76 58 -149 138 -149c81 0 137 66 138 145h52c-3 -108 -80 -191 -190 -191c-111 0 -190 91 -190 199c0 106 73 201 185 201zM189 491c0 29 24 54 54 54c29 0 54 -25 54 -54c0 -30 -25 -54 -54 -54
c-30 0 -54 24 -54 54z" />
    <glyph glyph-name="quotedbl" unicode="&#x22;" horiz-adv-x="333" 
d="M265 657l-16 -204c-1 -8 0 -31 -15 -31s-14 23 -15 31l-16 204c-2 25 -6 81 31 81s33 -56 31 -81zM128 657l-16 -204c-1 -8 0 -31 -15 -31s-14 23 -15 31l-16 204c-2 25 -6 81 31 81s33 -56 31 -81z" />
    <glyph glyph-name="atilde" unicode="&#xe3;" horiz-adv-x="444" 
d="M71 -108l62 199h56l-62 -199h-56zM256 -108l62 199h56l-62 -199h-56z" />
    <glyph glyph-name="Ograve" unicode="&#xd2;" horiz-adv-x="444" 
d="M70 523l62 199h56l-62 -199h-56zM255 523l62 199h56l-62 -199h-56z" />
    <glyph glyph-name="Oacute" unicode="&#xd3;" horiz-adv-x="444" 
d="M71 523l62 199h56l-62 -199h-56zM256 523l62 199h56l-62 -199h-56z" />
    <glyph glyph-name="Ocircumflex" unicode="&#xd4;" horiz-adv-x="222" 
d="M52 523l62 199h56l-62 -199h-56z" />
    <glyph glyph-name="Otilde" unicode="&#xd5;" horiz-adv-x="222" 
d="M52 523l62 199h56l-62 -199h-56z" />
    <glyph glyph-name="acircumflex" unicode="&#xe2;" horiz-adv-x="222" 
d="M52 -108l62 199h56l-62 -199h-56z" />
    <glyph glyph-name="quotesingle" unicode="'" horiz-adv-x="222" 
d="M141 657l-16 -204c-1 -8 0 -31 -15 -31s-14 23 -15 31l-16 204c-2 25 -6 81 31 81s33 -56 31 -81z" />
    <glyph glyph-name="r" unicode="r" horiz-adv-x="389" 
d="M169 454v-54h2c20 36 63 64 112 64c62 0 98 -40 98 -98h-50c0 32 -12 53 -59 53c-73 0 -102 -92 -102 -156v-218h81v-45h-214v45h83v364h-82v45h131z" />
    <glyph glyph-name="scaron" unicode="&#x161;" horiz-adv-x="800" 
d="M342 551v-191h53c55 0 83 38 83 107c0 62 -40 84 -87 84h-49zM400 -16c-203 0 -369 170 -369 375c0 208 166 379 369 379c204 0 369 -170 369 -379c0 -205 -165 -375 -369 -375zM400 24c173 0 319 160 319 335c0 179 -145 339 -319 339c-173 0 -319 -162 -319 -339
c0 -175 147 -335 319 -335zM397 164h-172v16c57 6 55 3 55 56v258c0 54 2 51 -55 57v16h185c65 0 130 -31 130 -98c0 -60 -40 -100 -90 -116l64 -87c31 -41 67 -82 89 -93v-9h-59c-38 0 -62 64 -142 180h-60v-108c0 -53 -2 -50 55 -56v-16z" />
    <glyph glyph-name="ucircumflex" unicode="&#xfb;" 
d="M139 509c-55 0 -102 47 -102 102s47 102 102 102s102 -47 102 -102s-47 -102 -102 -102zM139 546c36 0 65 28 65 65c0 36 -29 65 -65 65c-37 0 -65 -29 -65 -65c0 -37 28 -65 65 -65z" />
    <glyph glyph-name="s" unicode="s" horiz-adv-x="444" 
d="M42 159h45c0 -81 80 -124 157 -124c101 0 121 65 121 85c0 137 -328 54 -328 222c0 55 46 122 161 122c51 0 100 -17 136 -45v35h45v-138h-43c-3 69 -65 103 -135 103c-50 0 -114 -12 -114 -70c0 -141 327 -31 328 -230c1 -62 -70 -129 -175 -129c-56 0 -114 24 -153 61
v-51h-45v159z" />
    <glyph glyph-name="scaron" unicode="&#x161;" horiz-adv-x="444" 
d="M42 159h45c0 -81 80 -124 157 -124c101 0 121 65 121 85c0 137 -328 54 -328 222c0 55 46 122 161 122c51 0 100 -17 136 -45v35h45v-138h-43c-3 69 -65 103 -135 103c-50 0 -114 -12 -114 -70c0 -141 327 -31 328 -230c1 -62 -70 -129 -175 -129c-56 0 -114 24 -153 61
v-51h-45v159zM223 547l82 102h65l-113 -139h-68l-112 139h64z" />
    <glyph glyph-name="Euro" unicode="&#x20ac;" horiz-adv-x="500" 
d="M318 140c47 0 96 32 96 82c0 24 -18 52 -33 69c-25 31 -98 112 -140 148c-21 19 -46 29 -74 29c-34 0 -81 -28 -81 -76c0 -29 17 -55 34 -78c21 -29 64 -78 123 -129c18 -15 50 -45 75 -45zM312 676h-58c-48 0 -84 -9 -84 -54c0 -27 19 -57 61 -96
c34 -32 169 -187 186 -205c29 -28 46 -63 46 -101c0 -72 -68 -123 -137 -120c29 -33 62 -73 62 -123c0 -96 -107 -96 -167 -96h-93v157h45v-111h70c63 0 91 19 91 56c0 46 -89 126 -149 191c-74 74 -148 151 -148 207c0 84 63 127 141 127c-28 32 -62 76 -62 120
c0 105 102 94 177 94h64v-142h-45v96z" />
    <glyph glyph-name="semicolon" unicode=";" horiz-adv-x="250" 
d="M57 -108l66 212h56l-66 -212h-56zM71 402c0 29 24 54 54 54c29 0 54 -25 54 -54c0 -30 -25 -54 -54 -54c-30 0 -54 24 -54 54z" />
    <glyph glyph-name="seven" unicode="7" horiz-adv-x="500" 
d="M451 660l-285 -660h-58l287 660h-287v-118h-52v164h395v-46z" />
    <glyph glyph-name="six" unicode="6" horiz-adv-x="500" 
d="M261 393c-109 0 -164 -81 -164 -185c0 -97 57 -178 159 -178c98 0 147 98 147 186c0 131 -94 177 -142 177zM425 555h-52c0 73 -42 121 -122 121s-121 -54 -139 -120c-14 -46 -15 -92 -15 -149v-56h2c30 56 95 88 159 88c127 0 197 -108 197 -225
c0 -113 -67 -230 -205 -230c-159 0 -205 128 -205 238v215c0 152 63 285 204 285c102 0 176 -66 176 -167z" />
    <glyph glyph-name="slash" unicode="/" 
d="M-2 -16l235 754h46l-235 -754h-46z" />
    <glyph glyph-name="space" unicode=" " horiz-adv-x="250" 
d="M0 0v0z" />
    <glyph glyph-name="sterling" unicode="&#xa3;" horiz-adv-x="500" 
d="M430 512h-52c3 15 5 30 5 45c0 76 -57 119 -120 119c-85 0 -131 -68 -131 -140c0 -61 27 -122 40 -179h115v-46h-105c18 -79 23 -160 -4 -221c33 -30 104 -57 166 -57c43 0 77 34 77 94c0 17 -2 35 -3 52h52c1 -17 3 -35 3 -52c0 -82 -43 -140 -129 -140
c-55 0 -152 23 -190 59c-27 -25 -55 -50 -89 -62l-20 58c125 24 105 175 85 269h-104v46h94c-17 60 -40 124 -40 179c0 119 82 186 183 186c94 0 172 -73 172 -163c0 -16 -2 -31 -5 -47z" />
    <glyph glyph-name="t" unicode="t" 
d="M27 454h78v171h50v-171h93v-45h-93v-330c1 -28 6 -38 45 -34h55v-45h-64c-67 0 -86 5 -86 86v323h-78v45z" />
    <glyph glyph-name="thorn" unicode="&#xfe;" horiz-adv-x="611" 
d="M578 228c0 -146 -115 -238 -239 -238c-120 0 -181 93 -185 93v-220h82v-45h-214v45h82v814h-82v45h132v-353h3c45 69 106 95 179 95c137 0 242 -110 242 -236zM528 231c0 100 -87 188 -188 188c-109 2 -190 -89 -190 -195c0 -98 82 -189 182 -189c116 0 196 79 196 196z
" />
    <glyph glyph-name="three" unicode="3" horiz-adv-x="500" 
d="M38 197h52c0 -93 55 -167 156 -167c87 0 150 67 150 157c0 93 -59 143 -136 151c-21 2 -40 3 -54 3v46c23 0 46 1 69 6c64 14 117 68 117 136c0 93 -67 147 -146 147c-101 0 -144 -89 -144 -170h-52c0 132 77 216 196 216c111 0 198 -88 198 -189
c0 -81 -48 -138 -121 -166c81 -29 125 -91 125 -177c0 -123 -89 -206 -202 -206c-132 0 -208 92 -208 213z" />
    <glyph glyph-name="threequarters" unicode="&#xbe;" horiz-adv-x="750" 
d="M703 33v-33h-151v33h57v79h-189v33l188 278h41v-278h53v-33h-53v-79h54zM462 145h147v218h-2zM627 722h46l-458 -738h-46zM42 407h40c0 -56 35 -95 95 -95c50 0 91 35 91 89c0 56 -38 86 -82 89c-14 1 -26 1 -35 1v33c15 0 30 0 45 3c35 6 70 39 70 79
c0 56 -44 83 -89 83c-59 0 -87 -48 -87 -96h-40c0 79 50 129 127 129c72 0 129 -53 129 -113c0 -49 -32 -83 -79 -99v-2c53 -16 81 -53 81 -105c0 -74 -58 -124 -131 -124c-86 0 -135 56 -135 128z" />
    <glyph glyph-name="threesuperior" unicode="&#xb3;" horiz-adv-x="300" 
d="M25 407h40c0 -56 35 -95 95 -95c50 0 91 35 91 89c0 56 -38 86 -82 89c-14 1 -26 1 -35 1v33c15 0 30 0 45 3c35 6 70 39 70 79c0 56 -44 83 -89 83c-59 0 -87 -48 -87 -96h-40c0 79 50 129 127 129c72 0 129 -53 129 -113c0 -49 -32 -83 -79 -99v-2
c53 -16 81 -53 81 -105c0 -74 -58 -124 -131 -124c-86 0 -135 56 -135 128z" />
    <glyph glyph-name="divide" unicode="&#xf7;" 
d="M20 522h-37c4 48 35 97 88 97c24 0 49 -11 74 -22c24 -12 48 -23 68 -23c28 0 42 25 45 50h37c-6 -51 -29 -98 -87 -98c-21 0 -47 12 -72 23c-26 12 -50 23 -69 23c-26 0 -44 -27 -47 -50z" />
    <glyph glyph-name="ordfeminine" unicode="&#xaa;" horiz-adv-x="990" 
d="M235 704v-310c0 -54 -2 -51 50 -58v-18h-156v18c52 7 50 4 50 58v310h-52c-42 0 -59 -32 -69 -70h-18v88h334v-88h-18c-10 38 -27 70 -69 70h-52zM669 315l-155 315h-2v-231c0 -41 10 -58 53 -63v-18h-130v18c43 5 53 22 53 63v243c0 34 -40 62 -68 62v18h109l161 -322
l167 322h93v-18c-42 -2 -58 -23 -58 -59v-251c0 -54 -2 -51 50 -58v-18h-155v18c52 7 49 4 49 58v239h-2l-156 -318h-9z" />
    <glyph glyph-name="two" unicode="2" horiz-adv-x="500" 
d="M459 0h-418v46l241 292c46 55 105 132 105 208c0 83 -65 130 -144 130c-80 0 -149 -64 -149 -142v-71h-52v57c0 118 81 202 203 202c102 0 194 -67 194 -176c0 -112 -106 -218 -171 -296l-168 -204h307v128h52v-174z" />
    <glyph glyph-name="twosuperior" unicode="&#xb2;" horiz-adv-x="300" 
d="M297 289h-271v33l156 170c30 33 63 79 63 125c0 49 -37 72 -88 72c-52 0 -91 -33 -91 -80v-42h-40v34c0 71 53 121 132 121c66 0 127 -40 127 -105c0 -68 -64 -131 -106 -178l-113 -117h191v71h40v-104z" />
    <glyph glyph-name="u" unicode="u" horiz-adv-x="611" 
d="M441 0v86c-54 -58 -113 -96 -195 -96c-78 0 -135 47 -135 128v291h-80v45h130v-323c0 -59 32 -96 94 -96c77 0 130 48 186 99v275h-79v45h129v-409h78v-45h-128z" />
    <glyph glyph-name="uni009C" horiz-adv-x="611" 
d="M441 0v86c-54 -58 -113 -96 -195 -96c-78 0 -135 47 -135 128v291h-80v45h130v-323c0 -59 32 -96 94 -96c77 0 130 48 186 99v275h-79v45h129v-409h78v-45h-128zM277 510h-50l111 139h77z" />
    <glyph glyph-name="uni009E" horiz-adv-x="611" 
d="M441 0v86c-54 -58 -113 -96 -195 -96c-78 0 -135 47 -135 128v291h-80v45h130v-323c0 -59 32 -96 94 -96c77 0 130 48 186 99v275h-79v45h129v-409h78v-45h-128zM289 612l-82 -102h-64l112 139h68l113 -139h-65z" />
    <glyph glyph-name="uni009F" horiz-adv-x="611" 
d="M441 0v86c-54 -58 -113 -96 -195 -96c-78 0 -135 47 -135 128v291h-80v45h130v-323c0 -59 32 -96 94 -96c77 0 130 48 186 99v275h-79v45h129v-409h78v-45h-128zM178 521v102h65v-102h-65zM337 521v102h65v-102h-65z" />
    <glyph glyph-name="uni009D" horiz-adv-x="611" 
d="M441 0v86c-54 -58 -113 -96 -195 -96c-78 0 -135 47 -135 128v291h-80v45h130v-323c0 -59 32 -96 94 -96c77 0 130 48 186 99v275h-79v45h129v-409h78v-45h-128zM303 510l-138 139h77l111 -139h-50z" />
    <glyph glyph-name="underscore" unicode="_" horiz-adv-x="500" 
d="M500 -125h-500v60h500v-60z" />
    <glyph glyph-name="v" unicode="v" horiz-adv-x="556" 
d="M262 -8l-180 417h-72v45h201v-45h-77l148 -342l141 342h-86v45h208v-45h-72l-171 -417h-40z" />
    <glyph glyph-name="w" unicode="w" horiz-adv-x="833" 
d="M415 372l-117 -380h-40l-157 417h-80v45h214v-45h-87l129 -342h2l102 342h-84v45h238v-45h-84l101 -342h2l131 342h-86v45h212v-45h-80l-158 -417h-40l-116 380h-2z" />
    <glyph glyph-name="x" unicode="x" horiz-adv-x="500" 
d="M202 0h-196v45h67l149 189l-130 175h-74v45h196v-45h-64l100 -137l111 137h-65v45h198v-45h-72l-146 -175l143 -189h75v-45h-198v45h67l-113 154l-120 -154h72v-45z" />
    <glyph glyph-name="y" unicode="y" horiz-adv-x="556" 
d="M547 409h-71l-263 -546h78v-45h-208v45h79l86 181l-173 365h-73v45h198v-45h-74l145 -319l154 319h-80v45h202v-45z" />
    <glyph glyph-name="yacute" unicode="&#xfd;" horiz-adv-x="556" 
d="M547 409h-71l-263 -546h78v-45h-208v45h79l86 181l-173 365h-73v45h198v-45h-74l145 -319l154 319h-80v45h202v-45zM265 510h-50l111 139h77z" />
    <glyph glyph-name="Oslash" unicode="&#xd8;" horiz-adv-x="556" 
d="M547 409h-71l-263 -546h78v-45h-208v45h79l86 181l-173 365h-73v45h198v-45h-74l145 -319l154 319h-80v45h202v-45zM166 521v102h65v-102h-65zM325 521v102h65v-102h-65z" />
    <glyph glyph-name="Zcaron" unicode="&#x17d;" horiz-adv-x="500" 
d="M359 0h-226v46h87v186h-204v46h204v18l-40 88h-164v46h143l-103 230h-76v46h224v-46h-92l134 -302l141 302h-89v46h222v-46h-74l-107 -230h147v-46h-169l-45 -88v-18h214v-46h-214v-186h87v-46z" />
    <glyph glyph-name="z" unicode="z" horiz-adv-x="444" 
d="M409 409l-314 -364h269v85h50v-130h-384v45l313 364h-256v-81h-50v126h372v-45z" />
    <glyph glyph-name="zcaron" unicode="&#x17e;" horiz-adv-x="444" 
d="M409 409l-314 -364h269v85h50v-130h-384v45l313 364h-256v-81h-50v126h372v-45zM223 547l82 102h65l-113 -139h-68l-112 139h64z" />
    <glyph glyph-name="zero" unicode="0" horiz-adv-x="500" 
d="M49 206v294c0 150 101 222 201 222c128 0 201 -72 201 -222v-294c0 -150 -101 -222 -201 -222s-201 72 -201 222zM399 185v315c0 114 -57 176 -149 176c-76 0 -149 -56 -149 -176v-315c0 -83 50 -155 149 -155c92 0 149 60 149 155z" />
  </font>
</defs>
</svg>
