<?xml version="1.0" standalone="no"?>
<!DOCTYPE svg PUBLIC "-//W3C//DTD SVG 1.1//EN" "http://www.w3.org/Graphics/SVG/1.1/DTD/svg11.dtd" >
<svg xmlns="http://www.w3.org/2000/svg" width="100%" height="100%">
<metadata>
Created by FontXChange 20110222 at Tue Apr  7 14:18:03 2015
 By Creative4
 The digitally encoded machine readable outline data for producing  the Typefaces provided as part of your laser printer is copyrighted  (c) 1981 Linotype Ag and/or its subsidiaries All Rights Reserved.  This data is the property of Linotype Ag and/or its subsidiaries, and may not be reproduced, used, displayed, modified, disclosed or transferred without the express written approval of Linotype. 
</metadata>
<defs>
<font id="Memphis-Bold" horiz-adv-x="333" >
  <font-face 
    font-family="Memphis"
    font-weight="700"
    font-stretch="normal"
    units-per-em="1000"
    panose-1="2 0 8 3 0 0 0 0 0 0"
    ascent="800"
    descent="-200"
    x-height="462"
    cap-height="722"
    bbox="-166 -229 1000 984"
    underline-thickness="60"
    underline-position="-95"
    stemh="98"
    stemv="130"
    unicode-range="U+0020-2212"
  />
    <missing-glyph />
    <glyph glyph-name="A" unicode="A" horiz-adv-x="722" 
d="M276 337h166l-81 244h-2zM277 0h-259v98h59l180 526h-79v98h373v-98h-78l175 -526h55v-98h-266v98h79l-49 141h-219l-49 -141h78v-98z" />
    <glyph glyph-name="registered" unicode="&#xae;" horiz-adv-x="1000" 
d="M315 337h182v287h-38zM627 328v-230h230v116h115v-214h-544v98h69v141h-236l-65 -141h77v-98h-260v98h57l260 526h-83v98h725v-191h-115v93h-230v-182h196v-114h-196z" />
    <glyph glyph-name="ccedilla" unicode="&#xe7;" horiz-adv-x="722" 
d="M276 337h166l-81 244h-2zM277 0h-259v98h59l180 526h-79v98h373v-98h-78l175 -526h55v-98h-266v98h79l-49 141h-219l-49 -141h78v-98zM277 768l94 146h155l-137 -146h-112z" />
    <glyph glyph-name="aring" unicode="&#xe5;" horiz-adv-x="722" 
d="M276 337h166l-81 244h-2zM277 0h-259v98h59l180 526h-79v98h373v-98h-78l175 -526h55v-98h-266v98h79l-49 141h-219l-49 -141h78v-98zM298 914h125l115 -146h-114l-63 82l-64 -82h-112z" />
    <glyph glyph-name="uni0080" horiz-adv-x="722" 
d="M276 337h166l-81 244h-2zM277 0h-259v98h59l180 526h-79v98h373v-98h-78l175 -526h55v-98h-266v98h79l-49 141h-219l-49 -141h78v-98zM327 779h-125v114h125v-114zM521 779h-125v114h125v-114z" />
    <glyph glyph-name="Edieresis" unicode="&#xcb;" horiz-adv-x="722" 
d="M276 337h166l-81 244h-2zM277 0h-259v98h59l180 526h-79v98h373v-98h-78l175 -526h55v-98h-266v98h79l-49 141h-219l-49 -141h78v-98zM197 914h155l94 -146h-112z" />
    <glyph glyph-name="uni0081" horiz-adv-x="722" 
d="M276 337h166l-81 244h-2zM277 0h-259v98h59l180 526h-79v98h373v-98h-78l175 -526h55v-98h-266v98h79l-49 141h-219l-49 -141h78v-98zM361 771c-59 0 -106 48 -106 107c0 58 47 106 106 106c58 0 107 -48 107 -106c0 -59 -49 -107 -107 -107zM306 878
c0 -33 23 -56 55 -56s56 24 56 56c0 31 -25 55 -56 55c-32 0 -55 -24 -55 -55z" />
    <glyph glyph-name="Igrave" unicode="&#xcc;" horiz-adv-x="722" 
d="M276 337h166l-81 244h-2zM277 0h-259v98h59l180 526h-79v98h373v-98h-78l175 -526h55v-98h-266v98h79l-49 141h-219l-49 -141h78v-98zM480 902h65c-14 -62 -39 -120 -111 -120c-27 0 -52 8 -77 17c-24 9 -47 17 -70 17c-26 0 -39 -19 -46 -41h-62c9 64 44 122 115 122
c27 0 53 -8 77 -18c25 -10 46 -19 62 -19c25 0 42 20 47 42z" />
    <glyph glyph-name="B" unicode="B" horiz-adv-x="611" 
d="M239 342v-244h54c86 0 144 27 144 120c0 110 -94 124 -121 124h-77zM239 626v-186h52c55 0 118 16 118 97c0 83 -75 89 -107 89h-63zM222 0h-189v98h76v526h-76v98h257c170 0 249 -52 249 -181c0 -71 -40 -118 -103 -146c84 -33 131 -88 131 -181
c0 -120 -72 -189 -187 -209c-47 -8 -127 -5 -158 -5z" />
    <glyph glyph-name="C" unicode="C" horiz-adv-x="778" 
d="M697 488h-105c-10 41 -37 73 -71 95c-34 23 -76 35 -117 35c-151 0 -237 -118 -237 -257c0 -138 84 -257 237 -257c108 0 165 56 205 136h120c-42 -173 -168 -256 -325 -256c-208 0 -367 165 -367 381c0 254 193 373 366 373c23 0 131 -7 189 -62v46h105v-234z" />
    <glyph glyph-name="uni0082" horiz-adv-x="778" 
d="M697 488h-105c-10 41 -37 73 -71 95c-34 23 -76 35 -117 35c-151 0 -237 -118 -237 -257c0 -138 84 -257 237 -257c108 0 165 56 205 136h120c-42 -173 -168 -256 -325 -256c-208 0 -367 165 -367 381c0 254 193 373 366 373c23 0 131 -7 189 -62v46h105v-234zM274 -203
l19 42c24 -8 50 -17 75 -17c29 0 54 10 54 43c0 20 -21 33 -39 33c-16 0 -30 -4 -45 -8l-21 20l59 90h53l-43 -63c11 3 23 6 34 6c47 0 90 -27 90 -77c0 -67 -70 -95 -127 -95c-38 0 -74 12 -109 26z" />
    <glyph glyph-name="D" unicode="D" horiz-adv-x="722" 
d="M104 98v526h-77v98h257c174 0 235 -57 268 -79c27 -18 136 -118 136 -291c0 -135 -90 -233 -112 -250c-76 -59 -137 -102 -299 -102h-250v98h77zM234 624v-528h73c181 0 251 137 251 267c0 116 -64 261 -261 261h-63z" />
    <glyph glyph-name="E" unicode="E" horiz-adv-x="611" 
d="M583 0h-556v98h77v526h-77v98h556v-191h-115v93h-234v-182h201v-114h-201v-230h234v118h115v-216z" />
    <glyph glyph-name="uni0083" horiz-adv-x="611" 
d="M583 0h-556v98h77v526h-77v98h556v-191h-115v93h-234v-182h201v-114h-201v-230h234v118h115v-216zM221 768l94 146h155l-137 -146h-112z" />
    <glyph glyph-name="ae" unicode="&#xe6;" horiz-adv-x="611" 
d="M583 0h-556v98h77v526h-77v98h556v-191h-115v93h-234v-182h201v-114h-201v-230h234v118h115v-216zM242 914h125l115 -146h-114l-63 82l-64 -82h-112z" />
    <glyph glyph-name="egrave" unicode="&#xe8;" horiz-adv-x="611" 
d="M583 0h-556v98h77v526h-77v98h556v-191h-115v93h-234v-182h201v-114h-201v-230h234v118h115v-216zM271 779h-125v114h125v-114zM465 779h-125v114h125v-114z" />
    <glyph glyph-name="eacute" unicode="&#xe9;" horiz-adv-x="611" 
d="M583 0h-556v98h77v526h-77v98h556v-191h-115v93h-234v-182h201v-114h-201v-230h234v118h115v-216zM141 914h155l94 -146h-112z" />
    <glyph glyph-name="Eth" unicode="&#xd0;" horiz-adv-x="722" 
d="M234 411h130v-98h-130v-217h73c181 0 251 137 251 267c0 116 -64 261 -261 261h-63v-213zM27 98h77v215h-94v98h94v213h-77v98h257c174 0 234 -57 268 -79c27 -18 136 -118 136 -291c0 -135 -90 -233 -112 -250c-62 -48 -137 -102 -299 -102h-250v98z" />
    <glyph glyph-name="F" unicode="F" horiz-adv-x="611" 
d="M319 0h-292v98h77v526h-77v98h564v-191h-115v93h-242v-182h217v-114h-217v-230h85v-98z" />
    <glyph glyph-name="G" unicode="G" horiz-adv-x="833" 
d="M732 237v-237h-105v76c-58 -59 -139 -92 -219 -92c-223 0 -371 159 -371 380c0 195 164 374 375 374c81 0 135 -20 199 -65v49h105v-250h-101c-7 48 -35 85 -73 109c-38 25 -85 37 -129 37c-143 0 -246 -113 -246 -253c0 -152 93 -261 250 -261c97 0 171 41 210 133h-168
v106h350v-106h-77z" />
    <glyph glyph-name="H" unicode="H" horiz-adv-x="722" 
d="M309 0h-284v98h77v526h-77v98h284v-98h-77v-182h258v182h-77v98h284v-98h-77v-526h77v-98h-284v98h77v230h-258v-230h77v-98z" />
    <glyph glyph-name="I" unicode="I" 
d="M306 0h-280v98h76v526h-76v98h280v-98h-74v-526h74v-98z" />
    <glyph glyph-name="ecircumflex" unicode="&#xea;" 
d="M306 0h-280v98h76v526h-76v98h280v-98h-74v-526h74v-98zM75 768l94 146h155l-137 -146h-112z" />
    <glyph glyph-name="edieresis" unicode="&#xeb;" 
d="M306 0h-280v98h76v526h-76v98h280v-98h-74v-526h74v-98zM96 914h125l115 -146h-114l-63 82l-64 -82h-112z" />
    <glyph glyph-name="igrave" unicode="&#xec;" 
d="M306 0h-280v98h76v526h-76v98h280v-98h-74v-526h74v-98zM125 779h-125v114h125v-114zM319 779h-125v114h125v-114z" />
    <glyph glyph-name="iacute" unicode="&#xed;" 
d="M306 0h-280v98h76v526h-76v98h280v-98h-74v-526h74v-98zM-5 914h155l94 -146h-112z" />
    <glyph glyph-name="J" unicode="J" 
d="M25 624v98h287v-98h-75v-553c0 -131 -45 -183 -157 -183h-59v128h34c33 0 52 12 52 63v545h-82z" />
    <glyph glyph-name="K" unicode="K" horiz-adv-x="667" 
d="M366 98h72l-201 274h-2v-274h76v-98h-278v98h72v526h-70v98h276v-98h-76v-236l204 236h-70v98h271v-98h-51l-204 -242v-2l204 -282h55v-98h-278v98z" />
    <glyph glyph-name="L" unicode="L" horiz-adv-x="556" 
d="M531 0h-498v98h81v526h-81v98h299v-98h-88v-526h172v116h115v-214z" />
    <glyph glyph-name="Lslash" unicode="&#x141;" horiz-adv-x="556" 
d="M416 214h115v-214h-498v98h81v206l-81 -44v95l81 44v225h-81v98h299v-98h-88v-165l104 48v-95l-104 -48v-266h172v116z" />
    <glyph glyph-name="M" unicode="M" horiz-adv-x="889" 
d="M405 88l-180 488h-2v-478h81v-98h-273v98h72v526h-72v98h274l139 -414h2l150 414h261v-98h-71v-526h71v-98h-272v98h81v478h-2l-179 -488h-80z" />
    <glyph glyph-name="N" unicode="N" horiz-adv-x="722" 
d="M517 0l-295 550h-2v-452h81v-98h-268v98h67v526h-67v98h237l230 -445h2v347h-74v98h269v-98h-75v-624h-105z" />
    <glyph glyph-name="uni0084" horiz-adv-x="722" 
d="M517 0l-295 550h-2v-452h81v-98h-268v98h67v526h-67v98h237l230 -445h2v347h-74v98h269v-98h-75v-624h-105zM480 902h65c-14 -62 -39 -120 -111 -120c-27 0 -52 8 -77 17c-24 9 -47 17 -70 17c-26 0 -39 -19 -46 -41h-62c9 64 44 122 115 122c27 0 53 -8 77 -18
c25 -10 46 -19 62 -19c25 0 42 20 47 42z" />
    <glyph glyph-name="O" unicode="O" horiz-adv-x="833" 
d="M416 -16c-264 0 -379 202 -379 376c0 209 161 378 379 378s380 -169 380 -378c0 -213 -174 -376 -380 -376zM420 618c-159 0 -253 -119 -253 -272c0 -135 107 -242 242 -242c149 0 257 114 257 261c0 139 -106 253 -246 253z" />
    <glyph glyph-name="Icircumflex" unicode="&#xce;" horiz-adv-x="1000" 
d="M499 200v353c0 49 2 73 -82 73c-158 0 -259 -88 -259 -248c0 -272 194 -280 235 -280c100 0 106 15 106 102zM857 219h115v-219h-528c-161 0 -189 19 -243 45c-68 32 -173 126 -173 314c0 176 98 273 148 303c69 40 106 60 341 60h455v-188h-115v90h-228v-182h194v-114
h-194v-230h228v121z" />
    <glyph glyph-name="icircumflex" unicode="&#xee;" horiz-adv-x="833" 
d="M416 -16c-264 0 -379 202 -379 376c0 209 161 378 379 378s380 -169 380 -378c0 -213 -174 -376 -380 -376zM420 618c-159 0 -253 -119 -253 -272c0 -135 107 -242 242 -242c149 0 257 114 257 261c0 139 -106 253 -246 253zM332 768l94 146h155l-137 -146h-112z" />
    <glyph glyph-name="idieresis" unicode="&#xef;" horiz-adv-x="833" 
d="M416 -16c-264 0 -379 202 -379 376c0 209 161 378 379 378s380 -169 380 -378c0 -213 -174 -376 -380 -376zM420 618c-159 0 -253 -119 -253 -272c0 -135 107 -242 242 -242c149 0 257 114 257 261c0 139 -106 253 -246 253zM353 914h125l115 -146h-114l-63 82l-64 -82
h-112z" />
    <glyph glyph-name="uni0085" unicode="&#x85;" horiz-adv-x="833" 
d="M416 -16c-264 0 -379 202 -379 376c0 209 161 378 379 378s380 -169 380 -378c0 -213 -174 -376 -380 -376zM420 618c-159 0 -253 -119 -253 -272c0 -135 107 -242 242 -242c149 0 257 114 257 261c0 139 -106 253 -246 253zM382 779h-125v114h125v-114zM576 779h-125
v114h125v-114z" />
    <glyph glyph-name="ntilde" unicode="&#xf1;" horiz-adv-x="833" 
d="M416 -16c-264 0 -379 202 -379 376c0 209 161 378 379 378s380 -169 380 -378c0 -213 -174 -376 -380 -376zM420 618c-159 0 -253 -119 -253 -272c0 -135 107 -242 242 -242c149 0 257 114 257 261c0 139 -106 253 -246 253zM252 914h155l94 -146h-112z" />
    <glyph glyph-name="macron" unicode="&#xaf;" horiz-adv-x="833" 
d="M591 548l-312 -407c37 -23 82 -37 130 -37c149 0 257 114 257 261c0 72 -28 136 -75 183zM227 187l308 402c-35 19 -73 29 -115 29c-159 0 -253 -119 -253 -272c0 -61 22 -116 60 -159zM745 748l-78 -102c80 -69 129 -171 129 -286c0 -213 -174 -376 -380 -376
c-87 0 -158 22 -213 58l-52 -68h-87l85 111c-77 76 -112 180 -112 275c0 209 161 378 379 378c72 0 139 -19 194 -51l47 61h88z" />
    <glyph glyph-name="Iacute" unicode="&#xcd;" horiz-adv-x="833" 
d="M416 -16c-264 0 -379 202 -379 376c0 209 161 378 379 378s380 -169 380 -378c0 -213 -174 -376 -380 -376zM420 618c-159 0 -253 -119 -253 -272c0 -135 107 -242 242 -242c149 0 257 114 257 261c0 139 -106 253 -246 253zM535 902h65c-14 -62 -39 -120 -111 -120
c-27 0 -52 8 -77 17c-24 9 -47 17 -70 17c-26 0 -39 -19 -46 -41h-62c9 64 44 122 115 122c27 0 53 -8 77 -18c25 -10 46 -19 62 -19c25 0 42 20 47 42z" />
    <glyph glyph-name="P" unicode="P" horiz-adv-x="611" 
d="M328 0h-301v98h79v526h-79v98h274c140 0 280 -56 280 -228c0 -174 -135 -228 -254 -228h-91v-168h92v-98zM236 626v-262h33c10 0 182 -19 182 130c0 150 -164 132 -185 132h-30z" />
    <glyph glyph-name="Q" unicode="Q" horiz-adv-x="833" 
d="M428 105l-37 73l97 57l49 -97c79 43 129 114 129 227c0 139 -106 253 -246 253c-159 0 -253 -114 -253 -253c0 -163 107 -261 242 -261c7 0 13 0 19 1zM544 -124l-58 115c-23 -5 -46 -7 -70 -7c-264 0 -379 229 -379 381c0 204 161 373 379 373s380 -169 380 -373
c0 -152 -83 -276 -202 -337l19 -38h102v-114h-171z" />
    <glyph glyph-name="R" unicode="R" horiz-adv-x="667" 
d="M315 0h-287v98h77v526h-77v98h310c49 0 155 8 223 -82c33 -42 32 -87 32 -98c0 -84 -37 -132 -113 -164v-2c82 -20 89 -71 89 -115v-163h70v-98h-200v253c0 68 -73 75 -126 75h-78v-230h80v-98zM235 624v-198h84c72 0 144 12 144 109c0 89 -91 89 -159 89h-69z" />
    <glyph glyph-name="S" unicode="S" horiz-adv-x="611" 
d="M56 247h101c12 -95 76 -163 174 -163c58 0 109 46 109 106c0 98 -76 97 -196 133c-30 9 -194 29 -194 216c0 67 56 199 225 199c56 0 109 -24 148 -61v45h105v-216h-100c-8 38 -25 71 -49 94c-25 24 -58 38 -98 38c-59 0 -101 -36 -101 -98c0 -69 98 -82 196 -111
s194 -65 194 -221c0 -135 -97 -224 -229 -224c-67 0 -128 18 -180 61v-45h-105v247z" />
    <glyph glyph-name="Scaron" unicode="&#x160;" horiz-adv-x="611" 
d="M56 247h101c12 -95 76 -163 174 -163c58 0 109 46 109 106c0 98 -76 97 -196 133c-30 9 -194 29 -194 216c0 67 56 199 225 199c56 0 109 -24 148 -61v45h105v-216h-100c-8 38 -25 71 -49 94c-25 24 -58 38 -98 38c-59 0 -101 -36 -101 -98c0 -69 98 -82 196 -111
s194 -65 194 -221c0 -135 -97 -224 -229 -224c-67 0 -128 18 -180 61v-45h-105v247zM496 914l-115 -146h-125l-113 146h112l64 -83l63 83h114z" />
    <glyph glyph-name="T" unicode="T" horiz-adv-x="611" 
d="M149 520h-115v202h542v-202h-115v104h-91v-526h87v-98h-304v98h87v526h-91v-104z" />
    <glyph glyph-name="Thorn" unicode="&#xde;" horiz-adv-x="611" 
d="M234 722v-98v-22h62c140 0 280 -59 280 -227c0 -170 -135 -224 -254 -224h-88v-151h-207v98h77v526h-77v98h207zM234 504v-255h30c10 0 182 -20 182 126c0 147 -164 129 -185 129h-27z" />
    <glyph glyph-name="U" unicode="U" horiz-adv-x="722" 
d="M31 624v98h280v-98h-78v-328c0 -86 -13 -192 135 -192c134 0 121 106 121 192v328h-78v98h280v-98h-72v-383c0 -190 -136 -257 -249 -257c-146 0 -267 86 -267 241v399h-72z" />
    <glyph glyph-name="ograve" unicode="&#xf2;" horiz-adv-x="722" 
d="M31 624v98h280v-98h-78v-328c0 -86 -13 -192 135 -192c134 0 121 106 121 192v328h-78v98h280v-98h-72v-383c0 -190 -136 -257 -249 -257c-146 0 -267 86 -267 241v399h-72zM275 768l94 146h155l-137 -146h-112z" />
    <glyph glyph-name="oacute" unicode="&#xf3;" horiz-adv-x="722" 
d="M31 624v98h280v-98h-78v-328c0 -86 -13 -192 135 -192c134 0 121 106 121 192v328h-78v98h280v-98h-72v-383c0 -190 -136 -257 -249 -257c-146 0 -267 86 -267 241v399h-72zM296 914h125l115 -146h-114l-63 82l-64 -82h-112z" />
    <glyph glyph-name="uni0086" horiz-adv-x="722" 
d="M31 624v98h280v-98h-78v-328c0 -86 -13 -192 135 -192c134 0 121 106 121 192v328h-78v98h280v-98h-72v-383c0 -190 -136 -257 -249 -257c-146 0 -267 86 -267 241v399h-72zM325 779h-125v114h125v-114zM519 779h-125v114h125v-114z" />
    <glyph glyph-name="ocircumflex" unicode="&#xf4;" horiz-adv-x="722" 
d="M31 624v98h280v-98h-78v-328c0 -86 -13 -192 135 -192c134 0 121 106 121 192v328h-78v98h280v-98h-72v-383c0 -190 -136 -257 -249 -257c-146 0 -267 86 -267 241v399h-72zM195 914h155l94 -146h-112z" />
    <glyph glyph-name="V" unicode="V" horiz-adv-x="667" 
d="M18 624v98h266v-98h-72l136 -399h2l107 399h-71v98h262v-98h-58l-194 -624h-93l-224 624h-61z" />
    <glyph glyph-name="W" unicode="W" horiz-adv-x="1000" 
d="M20 624v98h250v-98h-68l123 -406h2l114 406h-65v98h257v-98h-66l121 -406h2l119 406h-67v98h238v-98h-53l-196 -624h-89l-139 443h-2l-133 -443h-89l-206 624h-53z" />
    <glyph glyph-name="X" unicode="X" horiz-adv-x="667" 
d="M375 0v98h61l-107 160h-2l-107 -160h62v-98h-261v98h61l178 262v2l-171 262h-66v98h268v-98h-60l103 -154h2l107 154h-64v98h262v-98h-65l-174 -254v-2l181 -270h63v-98h-271z" />
    <glyph glyph-name="Y" unicode="Y" horiz-adv-x="667" 
d="M648 624h-49l-201 -282v-244h81v-98h-294v98h83v250l-198 276h-52v98h264v-98h-65l128 -181h2l126 181h-66v98h241v-98z" />
    <glyph glyph-name="Yacute" unicode="&#xdd;" horiz-adv-x="667" 
d="M648 624h-49l-201 -282v-244h81v-98h-294v98h83v250l-198 276h-52v98h264v-98h-65l128 -181h2l126 181h-66v98h241v-98zM263 768l94 146h155l-137 -146h-112z" />
    <glyph glyph-name="Ugrave" unicode="&#xd9;" horiz-adv-x="667" 
d="M648 624h-49l-201 -282v-244h81v-98h-294v98h83v250l-198 276h-52v98h264v-98h-65l128 -181h2l126 181h-66v98h241v-98zM313 779h-125v114h125v-114zM507 779h-125v114h125v-114z" />
    <glyph glyph-name="Z" unicode="Z" horiz-adv-x="556" 
d="M531 624l-349 -526h234v125h115v-223h-507v95l351 529h-224v-97h-115v195h495v-98z" />
    <glyph glyph-name="Zcaron" unicode="&#x17d;" horiz-adv-x="556" 
d="M531 624l-349 -526h234v125h115v-223h-507v95l351 529h-224v-97h-115v195h495v-98zM469 914l-115 -146h-125l-113 146h112l64 -83l63 83h114z" />
    <glyph glyph-name="a" unicode="a" horiz-adv-x="611" 
d="M506 367v-272h73v-95h-167v67h-2c-34 -45 -91 -77 -152 -77c-122 0 -229 96 -229 241s107 241 229 241c58 0 113 -29 151 -79h3v69h167v-95h-73zM276 86c89 0 126 70 126 148c0 74 -37 142 -126 142c-88 0 -132 -68 -132 -142c0 -78 44 -148 132 -148z" />
    <glyph glyph-name="uni0087" horiz-adv-x="611" 
d="M506 367v-272h73v-95h-167v67h-2c-34 -45 -91 -77 -152 -77c-122 0 -229 96 -229 241s107 241 229 241c58 0 113 -29 151 -79h3v69h167v-95h-73zM276 86c89 0 126 70 126 148c0 74 -37 142 -126 142c-88 0 -132 -68 -132 -142c0 -78 44 -148 132 -148zM203 528l94 146
h155l-137 -146h-112z" />
    <glyph glyph-name="uni0089" horiz-adv-x="611" 
d="M506 367v-272h73v-95h-167v67h-2c-34 -45 -91 -77 -152 -77c-122 0 -229 96 -229 241s107 241 229 241c58 0 113 -29 151 -79h3v69h167v-95h-73zM276 86c89 0 126 70 126 148c0 74 -37 142 -126 142c-88 0 -132 -68 -132 -142c0 -78 44 -148 132 -148zM224 674h125
l115 -146h-114l-63 82l-64 -82h-112z" />
    <glyph glyph-name="guillemotleft" unicode="&#xab;" 
d="M82 528l94 146h155l-137 -146h-112z" />
    <glyph glyph-name="uni008A" horiz-adv-x="611" 
d="M506 367v-272h73v-95h-167v67h-2c-34 -45 -91 -77 -152 -77c-122 0 -229 96 -229 241s107 241 229 241c58 0 113 -29 151 -79h3v69h167v-95h-73zM276 86c89 0 126 70 126 148c0 74 -37 142 -126 142c-88 0 -132 -68 -132 -142c0 -78 44 -148 132 -148zM253 539h-125v114
h125v-114zM447 539h-125v114h125v-114z" />
    <glyph glyph-name="Ydieresis" unicode="&#x178;" horiz-adv-x="833" 
d="M436 275h254c0 45 -47 100 -124 101c-61 -1 -119 -22 -130 -101zM805 198h-369c7 -80 69 -112 140 -112c72 0 96 42 101 48h115c-9 -46 -67 -144 -228 -144c-53 0 -108 14 -167 67c-70 -61 -125 -67 -179 -67c-157 0 -190 94 -190 155c0 57 48 153 192 153
c40 0 82 -14 122 -27v31c0 66 -59 74 -107 74c-45 0 -89 -12 -130 -29l-43 83c50 27 110 42 167 42c64 0 129 -13 180 -53c46 39 86 53 165 53c123 0 231 -104 231 -274zM143 143c0 -38 37 -64 94 -64c53 0 108 19 108 68c0 33 -31 68 -103 68c-46 0 -99 -17 -99 -72z" />
    <glyph glyph-name="uni0088" horiz-adv-x="611" 
d="M506 367v-272h73v-95h-167v67h-2c-34 -45 -91 -77 -152 -77c-122 0 -229 96 -229 241s107 241 229 241c58 0 113 -29 151 -79h3v69h167v-95h-73zM276 86c89 0 126 70 126 148c0 74 -37 142 -126 142c-88 0 -132 -68 -132 -142c0 -78 44 -148 132 -148zM123 674h155
l94 -146h-112z" />
    <glyph glyph-name="ampersand" unicode="&#x26;" horiz-adv-x="722" 
d="M368 153l-135 148c-39 -34 -79 -76 -79 -133c0 -48 36 -80 83 -80c50 0 97 31 131 65zM252 443c34 29 72 72 72 121c0 42 -25 73 -68 73c-39 0 -73 -31 -73 -73c0 -49 37 -89 69 -121zM514 0l-75 80c-62 -57 -123 -96 -209 -96c-105 0 -191 78 -191 186
c0 128 127 196 129 206c-44 42 -83 108 -83 184c0 91 74 162 173 162c91 0 164 -71 164 -162c0 -76 -47 -142 -103 -187c2 -1 115 -118 127 -130c29 44 56 90 73 138h-58v95h213v-95h-51c-23 -81 -62 -151 -107 -216l67 -70h91v-95h-160z" />
    <glyph glyph-name="uni008C" horiz-adv-x="611" 
d="M506 367v-272h73v-95h-167v67h-2c-34 -45 -91 -77 -152 -77c-122 0 -229 96 -229 241s107 241 229 241c58 0 113 -29 151 -79h3v69h167v-95h-73zM276 86c89 0 126 70 126 148c0 74 -37 142 -126 142c-88 0 -132 -68 -132 -142c0 -78 44 -148 132 -148zM287 531
c-59 0 -106 48 -106 107c0 58 47 106 106 106c58 0 107 -48 107 -106c0 -59 -49 -107 -107 -107zM232 638c0 -33 23 -56 55 -56s56 24 56 56c0 31 -25 55 -56 55c-32 0 -55 -24 -55 -55z" />
    <glyph glyph-name="asciicircum" unicode="^" horiz-adv-x="600" 
d="M184 341h-110l176 365h100l175 -365h-110l-115 254z" />
    <glyph glyph-name="asciitilde" unicode="~" horiz-adv-x="600" 
d="M495 321l36 -90c-30 -42 -63 -86 -125 -86c-40 0 -71 17 -104 34s-67 34 -113 34c-44 0 -68 -37 -84 -72l-36 90c22 42 58 86 125 86c37 0 78 -17 115 -34c38 -17 73 -34 98 -34c40 0 65 37 88 72z" />
    <glyph glyph-name="asterisk" unicode="*" horiz-adv-x="444" 
d="M87 664l101 -54l-6 112h91l-16 -117l110 40l21 -95l-117 -13l71 -101l-85 -41l-42 108l-76 -90l-66 64l94 74l-111 22z" />
    <glyph glyph-name="at" unicode="@" horiz-adv-x="800" 
d="M505 426c0 45 -9 69 -40 69c-46 0 -118 -78 -118 -183c0 -58 19 -91 46 -91c48 0 98 61 112 205zM529 508l10 35h79l-61 -260c-6 -27 -2 -76 28 -76c49 0 102 119 102 208c0 120 -102 246 -268 246c-114 0 -261 -85 -261 -328c0 -156 134 -272 271 -272
c93 0 148 20 208 52l10 -61c-64 -38 -135 -68 -217 -68c-274 0 -394 213 -394 360c0 236 176 394 383 394c194 0 345 -137 345 -322c0 -111 -70 -260 -195 -260c-70 0 -96 62 -95 79h-2c-7 -18 -57 -75 -120 -78c-39 -1 -101 29 -101 133c0 94 66 270 207 270
c49 0 57 -27 71 -52z" />
    <glyph glyph-name="uni008B" horiz-adv-x="611" 
d="M506 367v-272h73v-95h-167v67h-2c-34 -45 -91 -77 -152 -77c-122 0 -229 96 -229 241s107 241 229 241c58 0 113 -29 151 -79h3v69h167v-95h-73zM276 86c89 0 126 70 126 148c0 74 -37 142 -126 142c-88 0 -132 -68 -132 -142c0 -78 44 -148 132 -148zM406 662h65
c-14 -62 -39 -120 -111 -120c-27 0 -52 8 -77 17c-24 9 -47 17 -70 17c-26 0 -39 -19 -46 -41h-62c9 64 44 122 115 122c27 0 53 -8 77 -18c25 -10 46 -19 62 -19c25 0 42 20 47 42z" />
    <glyph glyph-name="b" unicode="b" horiz-adv-x="611" 
d="M100 95v532h-69v95h184v-315c35 40 88 65 143 65c117 0 224 -96 224 -241s-107 -241 -224 -241c-66 0 -121 26 -156 74h-2v-64h-169v95h69zM334 86c89 0 133 70 133 148c0 74 -44 142 -133 142c-88 0 -132 -68 -132 -142c0 -78 44 -148 132 -148z" />
    <glyph glyph-name="backslash" unicode="\" horiz-adv-x="278" 
d="M-64 738h83l323 -754h-83z" />
    <glyph glyph-name="bar" unicode="|" horiz-adv-x="222" 
d="M59 0v722h105v-722h-105z" />
    <glyph glyph-name="braceleft" unicode="{" 
d="M115 32v174c0 63 -14 93 -76 111c62 18 76 48 76 111v174c0 116 55 136 179 136v-11c-56 -15 -74 -53 -74 -120v-164c0 -69 -12 -108 -81 -125v-2c69 -17 81 -56 81 -125v-164c0 -67 18 -105 74 -120v-11c-124 0 -179 20 -179 136z" />
    <glyph glyph-name="braceright" unicode="}" 
d="M218 602v-174c0 -63 14 -93 76 -111c-62 -18 -76 -48 -76 -111v-174c0 -116 -55 -136 -179 -136v11c56 15 74 53 74 120v164c0 69 12 108 81 125v2c-69 17 -81 56 -81 125v164c0 67 -18 105 -74 120v11c124 0 179 -20 179 -136z" />
    <glyph glyph-name="bracketleft" unicode="[" horiz-adv-x="278" 
d="M259 -85h-222v807h222v-85h-117v-637h117v-85z" />
    <glyph glyph-name="bracketright" unicode="]" horiz-adv-x="278" 
d="M241 -85h-222v85h117v637h-117v85h222v-807z" />
    <glyph glyph-name="ugrave" unicode="&#xf9;" 
d="M270 674h65c-14 -101 -76 -144 -175 -144c-94 0 -157 48 -162 144h66c5 -55 56 -70 104 -70c53 0 92 15 102 70z" />
    <glyph glyph-name="brokenbar" unicode="&#xa6;" horiz-adv-x="222" 
d="M59 0v275h105v-275h-105zM59 447v275h105v-275h-105z" />
    <glyph glyph-name="yen" unicode="&#xa5;" horiz-adv-x="500" 
d="M431 361c0 -100 -81 -181 -181 -181s-181 80 -181 181c-1 101 80 181 181 181c100 0 181 -80 181 -181z" />
    <glyph glyph-name="c" unicode="c" horiz-adv-x="500" 
d="M460 302h-79c-13 19 -28 38 -46 52c-19 14 -40 22 -65 22c-82 0 -126 -66 -126 -142c0 -81 44 -148 128 -148c51 0 102 42 132 76l71 -66c-62 -64 -119 -106 -213 -106c-131 0 -233 96 -233 244c0 119 78 238 221 238c44 0 88 -16 118 -48v38h92v-160z" />
    <glyph glyph-name="ydieresis" unicode="&#xff;" 
d="M343 674l-115 -146h-125l-113 146h112l64 -83l63 83h114z" />
    <glyph glyph-name="uni008D" horiz-adv-x="500" 
d="M460 302h-79c-13 19 -28 38 -46 52c-19 14 -40 22 -65 22c-82 0 -126 -66 -126 -142c0 -81 44 -148 128 -148c51 0 102 42 132 76l71 -66c-62 -64 -119 -106 -213 -106c-131 0 -233 96 -233 244c0 119 78 238 221 238c44 0 88 -16 118 -48v38h92v-160zM125 -203l19 42
c24 -8 50 -17 75 -17c29 0 54 10 54 43c0 20 -21 33 -39 33c-16 0 -30 -4 -45 -8l-21 20l59 90h53l-43 -63c11 3 23 6 34 6c47 0 90 -27 90 -77c0 -67 -70 -95 -127 -95c-38 0 -74 12 -109 26z" />
    <glyph glyph-name="udieresis" unicode="&#xfc;" 
d="M37 -203l19 42c24 -8 50 -17 75 -17c29 0 54 10 54 43c0 20 -21 33 -39 33c-16 0 -30 -4 -45 -8l-21 20l59 90h53l-43 -63c11 3 23 6 34 6c47 0 90 -27 90 -77c0 -67 -70 -95 -127 -95c-38 0 -74 12 -109 26z" />
    <glyph glyph-name="cent" unicode="&#xa2;" horiz-adv-x="500" 
d="M178 129l82 247c-76 0 -116 -69 -116 -142c0 -42 12 -80 34 -105zM312 367l-90 -271c15 -7 31 -10 50 -10c51 0 102 42 132 76l71 -66c-62 -64 -119 -106 -213 -106c-25 0 -49 4 -71 11l-45 -134h-56l52 155c-68 39 -113 114 -113 212c0 119 78 238 221 238
c14 0 28 -2 40 -5l38 114h56l-45 -134c10 -6 20 -14 29 -23v38h92v-160h-79c-17 25 -40 54 -69 65z" />
    <glyph glyph-name="odieresis" unicode="&#xf6;" 
d="M103 674h125l115 -146h-114l-63 82l-64 -82h-112z" />
    <glyph glyph-name="colon" unicode=":" horiz-adv-x="250" 
d="M125 472c49 0 89 -39 89 -89s-40 -89 -89 -89s-89 39 -89 89s40 89 89 89zM125 168c49 0 89 -39 89 -89s-40 -89 -89 -89s-89 39 -89 89s40 89 89 89z" />
    <glyph glyph-name="comma" unicode="," horiz-adv-x="250" 
d="M4 -40l83 213h127l-83 -213h-127z" />
    <glyph glyph-name="copyright" unicode="&#xa9;" horiz-adv-x="800" 
d="M754 360c0 -214 -149 -376 -354 -376s-354 162 -354 376c0 213 149 378 354 378s354 -165 354 -378zM667 360c0 174 -110 313 -267 313s-267 -140 -267 -313s110 -311 267 -311s267 138 267 311zM549 282h23l-15 -81c-2 -13 -12 -16 -30 -23c-17 -6 -61 -21 -108 -21
c-138 0 -222 75 -222 216c0 91 51 211 231 211c51 0 77 -11 105 -20c16 -5 22 -13 22 -23v-76h-23c-14 43 -42 92 -102 92c-72 0 -104 -72 -105 -178c-1 -110 21 -195 103 -195c53 0 95 38 121 98z" />
    <glyph glyph-name="currency" unicode="&#xa4;" horiz-adv-x="500" 
d="M60 117l-57 56l55 55c-28 33 -45 81 -45 133c0 53 15 106 45 135l-55 55l58 58l53 -54c31 26 85 43 136 43c54 0 105 -16 137 -44l54 53l57 -56l-56 -55c28 -32 46 -80 46 -133c0 -52 -16 -105 -46 -135l55 -55l-59 -59l-53 55c-30 -25 -84 -42 -134 -42
c-55 0 -106 16 -138 43zM118 361c0 -76 59 -134 135 -134c75 0 130 61 130 136c0 73 -55 135 -129 135c-78 0 -136 -60 -136 -137z" />
    <glyph glyph-name="d" unicode="d" horiz-adv-x="611" 
d="M411 0v60c-46 -47 -95 -70 -161 -70c-112 0 -219 96 -219 241s107 241 219 241c60 0 113 -26 146 -63v218h-67v95h182v-627h68v-95h-168zM278 86c89 0 133 70 133 148c0 74 -44 142 -133 142c-88 0 -132 -68 -132 -142c0 -78 44 -148 132 -148z" />
    <glyph glyph-name="uni00A0" unicode="&#xa0;" horiz-adv-x="500" 
d="M110 338h-90v175h90v-41h85v160h-47v90h204v-90h-47v-160h85v41h90v-175h-90v39h-85v-493h-110v493h-85v-39z" />
    <glyph glyph-name="agrave" unicode="&#xe0;" horiz-adv-x="500" 
d="M110 42h-90v175h90v-40h85v253h-85v-40h-90v175h90v-40h85v107h-46v90h202v-90h-46v-107h85v40h90v-175h-90v40h-85v-253h85v40h90v-175h-90v40h-85v-108h46v-90h-202v90h46v108h-85v-40z" />
    <glyph glyph-name="exclamdown" unicode="&#xa1;" horiz-adv-x="400" 
d="M200 487c51 0 87 41 87 92s-36 92 -87 92s-87 -41 -87 -92s36 -92 87 -92zM200 436c-80 0 -143 63 -143 143s63 143 143 143s143 -63 143 -143s-63 -143 -143 -143z" />
    <glyph glyph-name="logicalnot" unicode="&#xac;" 
d="M132 539h-125v114h125v-114zM326 539h-125v114h125v-114z" />
    <glyph glyph-name="Odieresis" unicode="&#xd6;" horiz-adv-x="600" 
d="M530 179h-460v105h460v-105zM381 421c0 -40 -37 -80 -79 -80c-45 0 -82 36 -82 80c0 45 37 81 81 81c43 0 80 -37 80 -81zM381 42c0 -40 -37 -81 -79 -81c-45 0 -82 37 -82 81c0 45 37 80 81 80c43 0 80 -36 80 -80z" />
    <glyph glyph-name="dollar" unicode="$" horiz-adv-x="500" 
d="M267 292v-197c54 -2 98 39 98 97c0 62 -53 80 -98 100zM210 683v76h57v-80c31 -7 63 -20 91 -41v39h80v-196h-72c-10 50 -47 97 -99 110v-179c115 -36 208 -81 208 -213c0 -102 -73 -203 -208 -204v-81h-57v85c-43 3 -82 26 -109 55v-54h-80v226h77
c6 -59 49 -115 112 -124v205c-96 29 -185 80 -185 181c0 109 73 196 185 195zM210 428v166c-46 -3 -75 -36 -75 -79c0 -46 30 -74 75 -87z" />
    <glyph glyph-name="uacute" unicode="&#xfa;" 
d="M229 539h-125v114h125v-114z" />
    <glyph glyph-name="otilde" unicode="&#xf5;" 
d="M39 367v95h185v-367h70v-95h-253v95h68v272h-70z" />
    <glyph glyph-name="e" unicode="e" horiz-adv-x="556" 
d="M522 198h-374c7 -78 69 -112 140 -112c72 0 101 44 106 50h115c-9 -46 -72 -146 -231 -146c-142 0 -249 96 -249 241s107 241 249 241c159 0 244 -116 244 -274zM148 275h259c0 52 -59 96 -129 101c-61 0 -117 -39 -130 -101z" />
    <glyph glyph-name="uni008E" horiz-adv-x="556" 
d="M522 198h-374c7 -78 69 -112 140 -112c72 0 101 44 106 50h115c-9 -46 -72 -146 -231 -146c-142 0 -249 96 -249 241s107 241 249 241c159 0 244 -116 244 -274zM148 275h259c0 52 -59 96 -129 101c-61 0 -117 -39 -130 -101zM194 528l94 146h155l-137 -146h-112z" />
    <glyph glyph-name="uni0090" horiz-adv-x="556" 
d="M522 198h-374c7 -78 69 -112 140 -112c72 0 101 44 106 50h115c-9 -46 -72 -146 -231 -146c-142 0 -249 96 -249 241s107 241 249 241c159 0 244 -116 244 -274zM148 275h259c0 52 -59 96 -129 101c-61 0 -117 -39 -130 -101zM215 674h125l115 -146h-114l-63 82l-64 -82
h-112z" />
    <glyph glyph-name="uni0091" horiz-adv-x="556" 
d="M522 198h-374c7 -78 69 -112 140 -112c72 0 101 44 106 50h115c-9 -46 -72 -146 -231 -146c-142 0 -249 96 -249 241s107 241 249 241c159 0 244 -116 244 -274zM148 275h259c0 52 -59 96 -129 101c-61 0 -117 -39 -130 -101zM244 539h-125v114h125v-114zM438 539h-125
v114h125v-114z" />
    <glyph glyph-name="uni008F" horiz-adv-x="556" 
d="M522 198h-374c7 -78 69 -112 140 -112c72 0 101 44 106 50h115c-9 -46 -72 -146 -231 -146c-142 0 -249 96 -249 241s107 241 249 241c159 0 244 -116 244 -274zM148 275h259c0 52 -59 96 -129 101c-61 0 -117 -39 -130 -101zM114 674h155l94 -146h-112z" />
    <glyph glyph-name="eight" unicode="8" horiz-adv-x="500" 
d="M250 94c52 0 93 33 93 105s-41 105 -93 105s-93 -33 -93 -105s41 -105 93 -105zM250 612c-50 0 -88 -33 -88 -101c0 -69 38 -102 88 -102s88 33 88 102c0 68 -38 101 -88 101zM250 722c142 0 208 -112 208 -196c0 -49 -17 -125 -89 -166v-2c64 -37 94 -93 94 -168
c0 -121 -88 -206 -213 -206s-213 85 -213 206c0 75 30 131 94 168v2c-72 41 -89 117 -89 166c0 84 66 196 208 196z" />
    <glyph glyph-name="Eacute" unicode="&#xc9;" horiz-adv-x="1000" 
d="M167 168c49 0 89 -39 89 -89s-40 -89 -89 -89s-89 39 -89 89s40 89 89 89zM500 168c49 0 89 -39 89 -89s-40 -89 -89 -89s-89 39 -89 89s40 89 89 89zM833 168c49 0 89 -39 89 -89s-40 -89 -89 -89s-89 39 -89 89s40 89 89 89z" />
    <glyph glyph-name="Ntilde" unicode="&#xd1;" horiz-adv-x="1000" 
d="M1000 212h-1000v90h1000v-90z" />
    <glyph glyph-name="Eth" unicode="&#xd0;" horiz-adv-x="500" 
d="M0 212v90h500v-90h-500z" />
    <glyph glyph-name="equal" unicode="=" horiz-adv-x="600" 
d="M530 381v-105h-460v105h460zM530 186v-105h-460v105h460z" />
    <glyph glyph-name="eth" unicode="&#xf0;" horiz-adv-x="556" 
d="M144 231c0 -49 30 -145 135 -145c103 0 133 96 133 145c0 72 -40 145 -134 145s-134 -73 -134 -145zM382 616l-95 -29l99 -99c113 -118 141 -172 141 -259c0 -142 -108 -239 -249 -239c-142 0 -249 101 -249 242c0 140 102 240 234 240l-80 84l-133 -40v68l88 25
l-112 113h136l81 -80l139 42v-68z" />
    <glyph glyph-name="exclam" unicode="!" 
d="M89 722h156c-18 -167 -26 -336 -24 -504h-108c2 168 -6 337 -24 504zM166 168c49 0 89 -39 89 -89s-40 -89 -89 -89s-89 39 -89 89s40 89 89 89z" />
    <glyph glyph-name="Aacute" unicode="&#xc1;" 
d="M167 524c49 0 89 -39 89 -89s-40 -89 -89 -89s-89 39 -89 89s40 89 89 89zM112 296h108c-2 -168 6 -337 24 -504h-156c18 167 26 336 24 504z" />
    <glyph glyph-name="f" unicode="f" 
d="M298 0h-263v95h70v272h-71v95h71v120c0 62 32 140 159 140h35v-96h-36c-34 0 -43 -23 -43 -57v-107h76v-95h-76v-272h78v-95z" />
    <glyph glyph-name="Thorn" unicode="&#xde;" horiz-adv-x="611" 
d="M587 0h-255v95h70v272h-72v95h187v-367h70v-95zM522 667v-124h-160v124h160zM287 0h-263v95h70v272h-71v95h71v120c0 62 32 140 159 140h35v-96h-36c-34 0 -43 -23 -43 -57v-107h76v-95h-76v-272h78v-95z" />
    <glyph glyph-name="five" unicode="5" horiz-adv-x="500" 
d="M97 706h308v-110h-188v-132c164 6 245 -78 247 -235c2 -85 -36 -245 -220 -245c-147 0 -207 110 -207 202v37h112c1 -70 9 -129 93 -129c73 0 102 74 102 137c0 101 -58 128 -154 128c-31 0 -62 -4 -93 -8v355z" />
    <glyph glyph-name="germandbls" unicode="&#xdf;" horiz-adv-x="611" 
d="M587 0h-255v95h70v532h-70v95h185v-627h70v-95zM287 0h-263v95h70v272h-71v95h71v120c0 62 32 140 159 140h35v-96h-36c-34 0 -43 -23 -43 -57v-107h76v-95h-76v-272h78v-95z" />
    <glyph glyph-name="Adieresis" unicode="&#xc4;" horiz-adv-x="500" 
d="M499 698l-23 -96c-19 11 -35 20 -57 20c-41 0 -66 -39 -74 -84l-19 -108h105v-95h-117l-41 -271c-17 -112 -53 -231 -185 -231c-30 0 -64 6 -88 23l16 99c19 -13 36 -22 58 -22c49 0 73 62 82 121l41 281h-107v95h122l17 110c15 95 59 182 168 182c37 0 69 -9 102 -24z
" />
    <glyph glyph-name="four" unicode="4" horiz-adv-x="500" 
d="M127 269h155v255h-3zM282 95v74h-251v109l255 428h108v-437h71v-100h-71v-74h71v-95h-269v95h86z" />
    <glyph glyph-name="Uacute" unicode="&#xda;" horiz-adv-x="167" 
d="M-166 -16l425 738h74l-423 -738h-76z" />
    <glyph glyph-name="g" unicode="g" horiz-adv-x="611" 
d="M407 462h172v-95h-68v-348c0 -169 -98 -227 -233 -227c-79 0 -151 18 -220 55v112c59 -45 124 -61 198 -62c98 -1 144 28 144 115v45c-42 -43 -82 -67 -150 -67c-114 0 -221 96 -221 241s107 241 221 241c68 0 117 -29 157 -70v60zM276 86c89 0 131 70 131 148
c0 74 -42 142 -131 142c-88 0 -132 -68 -132 -142c0 -78 44 -148 132 -148z" />
    <glyph glyph-name="section" unicode="&#xa7;" horiz-adv-x="611" 
d="M97 95v430c0 136 93 213 205 213c124 0 211 -78 211 -170c0 -72 -38 -123 -102 -153v-2c104 -18 156 -114 156 -214c0 -116 -63 -209 -186 -209c-22 0 -45 6 -67 13l19 92c6 -2 12 -5 19 -6c6 -2 12 -3 18 -3c67 0 82 71 82 125c0 103 -54 154 -156 151v89
c59 -4 102 39 102 99c0 69 -50 92 -92 92c-51 0 -94 -39 -94 -107v-440h54v-95h-231v95h62z" />
    <glyph glyph-name="grave" unicode="`" 
d="M2 674h155l94 -146h-112z" />
    <glyph glyph-name="greater" unicode="&#x3e;" horiz-adv-x="600" 
d="M46 78l363 153l-363 153v108l508 -216v-90l-508 -216v108z" />
    <glyph glyph-name="Ccedilla" unicode="&#xc7;" horiz-adv-x="556" 
d="M499 410l-124 -154l123 -152h-113l-124 150l124 156h114zM295 410l-124 -154l123 -152h-113l-124 150l124 156h114z" />
    <glyph glyph-name="Egrave" unicode="&#xc8;" horiz-adv-x="556" 
d="M58 104l123 152l-124 154h114l124 -156l-124 -150h-113zM262 104l123 152l-124 154h114l124 -156l-124 -150h-113z" />
    <glyph glyph-name="Udieresis" unicode="&#xdc;" 
d="M285 410l-124 -154l123 -152h-113l-124 150l124 156h114z" />
    <glyph glyph-name="Yacute" unicode="&#xdd;" 
d="M286 254l-124 -150h-113l123 152l-124 154h114z" />
    <glyph glyph-name="h" unicode="h" horiz-adv-x="611" 
d="M99 627h-67v95h182v-320c23 21 48 39 75 51s56 19 90 19c43 0 143 -31 143 -135v-242h67v-95h-248v95h66v213c0 41 -30 68 -72 68c-48 0 -91 -30 -121 -65v-216h73v-95h-255v95h67v532z" />
    <glyph glyph-name="yacute" unicode="&#xfd;" 
d="M89 528h-117l74 146h155zM279 528h-112l94 146h155z" />
    <glyph glyph-name="hyphen" unicode="-" 
d="M44 309h245v-104h-245v104z" />
    <glyph glyph-name="i" unicode="i" 
d="M39 367v95h185v-367h70v-95h-253v95h68v272h-70zM224 667v-124h-159v124h159z" />
    <glyph glyph-name="uni0092" 
d="M39 367v95h185v-367h70v-95h-253v95h68v272h-70zM68 528l94 146h155l-137 -146h-112z" />
    <glyph glyph-name="uni0094" 
d="M39 367v95h185v-367h70v-95h-253v95h68v272h-70zM89 674h125l115 -146h-114l-63 82l-64 -82h-112z" />
    <glyph glyph-name="uni0095" 
d="M39 367v95h185v-367h70v-95h-253v95h68v272h-70zM118 539h-125v114h125v-114zM312 539h-125v114h125v-114z" />
    <glyph glyph-name="uni0093" 
d="M39 367v95h185v-367h70v-95h-253v95h68v272h-70zM-12 674h155l94 -146h-112z" />
    <glyph glyph-name="j" unicode="j" horiz-adv-x="278" 
d="M36 367v95h180v-502c0 -120 -70 -155 -189 -168v99c51 7 74 43 74 93v383h-65zM57 543v124h159v-124h-159z" />
    <glyph glyph-name="k" unicode="k" horiz-adv-x="556" 
d="M479 95h44v-95h-227v95h40l-127 133v-133h49v-95h-221v95h57v532h-55v95h170v-471l131 116h-46v95h229v-95h-43l-140 -124v-2z" />
    <glyph glyph-name="l" unicode="l" 
d="M294 0h-255v95h70v532h-70v95h185v-627h70v-95z" />
    <glyph glyph-name="less" unicode="&#x3c;" horiz-adv-x="600" 
d="M554 78v-108l-508 216v90l508 216v-108l-363 -153z" />
    <glyph glyph-name="Acircumflex" unicode="&#xc2;" horiz-adv-x="600" 
d="M425 100v176h-355v105h460v-281h-105z" />
    <glyph glyph-name="lslash" unicode="&#x142;" 
d="M224 722v-286l99 45v-90l-99 -45v-251h70v-95h-255v95h70v205l-88 -41v90l88 41v237h-70v95h185z" />
    <glyph glyph-name="m" unicode="m" horiz-adv-x="889" 
d="M210 462v-60c40 46 90 70 153 70c51 0 110 -22 126 -78c48 51 98 78 161 78c98 0 148 -50 148 -178v-199h66v-95h-243v95h62v218c0 37 -27 63 -69 63c-52 0 -88 -40 -108 -71v-210h62v-95h-239v95h62v218c0 37 -27 63 -69 63c-52 0 -88 -40 -108 -71v-210h62v-95h-243v95
h66v272h-63v95h174z" />
    <glyph glyph-name="oslash" unicode="&#xf8;" 
d="M340 559h-347v74h347v-74z" />
    <glyph glyph-name="minus" unicode="&#x2212;" horiz-adv-x="600" 
d="M530 179h-460v105h460v-105z" />
    <glyph glyph-name="mu" unicode="&#x3bc;" horiz-adv-x="611" 
d="M324 462h186v-367h66v-95h-176v60c-42 -40 -103 -70 -162 -70c-10 0 -19 0 -28 2v-200h-180v95h64v480h-64v95h179v-283c0 -69 11 -93 69 -93c20 0 117 10 117 129v152h-71v95z" />
    <glyph glyph-name="multiply" unicode="&#xd7;" horiz-adv-x="600" 
d="M70 74l156 156l-156 158l73 74l157 -157l157 157l73 -74l-156 -158l156 -156l-73 -74l-157 155l-157 -155z" />
    <glyph glyph-name="n" unicode="n" horiz-adv-x="611" 
d="M211 462v-60c26 21 51 39 78 51s56 19 90 19c43 0 143 -31 143 -135v-242h67v-95h-248v95h66v213c0 41 -30 68 -72 68c-48 0 -91 -30 -121 -65v-216h73v-95h-255v95h67v272h-65v95h177z" />
    <glyph glyph-name="nine" unicode="9" horiz-adv-x="500" 
d="M250 612c-48 0 -93 -44 -93 -117s45 -117 93 -117c49 0 94 44 94 117s-45 117 -94 117zM464 507v-288c0 -164 -100 -235 -208 -235c-131 0 -205 93 -205 215h112c1 -58 27 -105 91 -105c51 0 90 40 90 137v83c-33 -29 -75 -46 -120 -46c-84 0 -187 65 -187 220
c0 139 78 234 222 234c98 0 205 -85 205 -215z" />
    <glyph glyph-name="uni0096" horiz-adv-x="611" 
d="M211 462v-60c26 21 51 39 78 51s56 19 90 19c43 0 143 -31 143 -135v-242h67v-95h-248v95h66v213c0 41 -30 68 -72 68c-48 0 -91 -30 -121 -65v-216h73v-95h-255v95h67v272h-65v95h177zM424 662h65c-14 -62 -39 -120 -111 -120c-27 0 -52 8 -77 17c-24 9 -47 17 -70 17
c-26 0 -39 -19 -46 -41h-62c9 64 44 122 115 122c27 0 53 -8 77 -18c25 -10 46 -19 62 -19c25 0 42 20 47 42z" />
    <glyph glyph-name="numbersign" unicode="#" horiz-adv-x="500" 
d="M461 290l-12 -90h-84l-26 -200h-90l27 200h-91l-27 -200h-89l26 200h-82l11 90h83l17 120h-84l12 90h83l26 206h90l-26 -206h90l27 206h89l-26 -206h83l-11 -90h-83l-16 -120h83zM304 410h-91l-16 -120h91z" />
    <glyph glyph-name="o" unicode="o" horiz-adv-x="556" 
d="M412 231c0 72 -40 145 -134 145s-134 -73 -134 -145s40 -145 134 -145s134 73 134 145zM527 231c0 -145 -107 -241 -249 -241s-249 96 -249 241s107 241 249 241s249 -96 249 -241z" />
    <glyph glyph-name="uni0097" horiz-adv-x="556" 
d="M412 231c0 72 -40 145 -134 145s-134 -73 -134 -145s40 -145 134 -145s134 73 134 145zM527 231c0 -145 -107 -241 -249 -241s-249 96 -249 241s107 241 249 241s249 -96 249 -241zM194 528l94 146h155l-137 -146h-112z" />
    <glyph glyph-name="uni0099" horiz-adv-x="556" 
d="M412 231c0 72 -40 145 -134 145s-134 -73 -134 -145s40 -145 134 -145s134 73 134 145zM527 231c0 -145 -107 -241 -249 -241s-249 96 -249 241s107 241 249 241s249 -96 249 -241zM215 674h125l115 -146h-114l-63 82l-64 -82h-112z" />
    <glyph glyph-name="uni009A" horiz-adv-x="556" 
d="M412 231c0 72 -40 145 -134 145s-134 -73 -134 -145s40 -145 134 -145s134 73 134 145zM527 231c0 -145 -107 -241 -249 -241s-249 96 -249 241s107 241 249 241s249 -96 249 -241zM244 539h-125v114h125v-114zM438 539h-125v114h125v-114z" />
    <glyph glyph-name="Idieresis" unicode="&#xcf;" horiz-adv-x="944" 
d="M538 275h256c-5 70 -64 101 -131 101c-61 0 -117 -40 -125 -101zM909 198h-368c1 -77 70 -112 140 -112c54 0 87 17 110 48h107c-31 -98 -127 -144 -226 -144c-85 0 -134 25 -193 84c-51 -69 -119 -84 -192 -84c-137 0 -253 89 -253 236c0 145 116 246 253 246
c73 0 148 -30 193 -88c52 68 112 88 195 88c151 0 241 -125 234 -274zM426 236c0 76 -57 140 -134 140c-92 0 -143 -64 -143 -150c0 -68 51 -140 143 -140c77 0 134 72 134 150z" />
    <glyph glyph-name="thorn" unicode="&#xfe;" 
d="M268 16v-12c-53 -20 -140 -58 -140 -125c-1 -31 23 -48 51 -48c32 0 70 24 96 41l20 -36c-45 -30 -95 -60 -151 -60c-57 0 -104 32 -104 92c0 105 149 135 228 148z" />
    <glyph glyph-name="uni0098" horiz-adv-x="556" 
d="M412 231c0 72 -40 145 -134 145s-134 -73 -134 -145s40 -145 134 -145s134 73 134 145zM527 231c0 -145 -107 -241 -249 -241s-249 96 -249 241s107 241 249 241s249 -96 249 -241zM114 674h155l94 -146h-112z" />
    <glyph glyph-name="one" unicode="1" horiz-adv-x="500" 
d="M398 0h-285v95h82v516h-82v95h202v-611h83v-95z" />
    <glyph glyph-name="onehalf" unicode="&#xbd;" horiz-adv-x="750" 
d="M245 290h-186v62h54v297h-54v62h132v-359h54v-62zM742 0h-276v63l128 142c27 29 63 66 63 107c0 31 -25 54 -60 54c-31 0 -53 -20 -53 -76v-37h-78v49c2 115 93 130 132 130c74 0 137 -44 137 -116c0 -52 -27 -82 -61 -121l-111 -129h101v56h78v-122zM135 -16l425 738h74
l-423 -738h-76z" />
    <glyph glyph-name="onequarter" unicode="&#xbc;" horiz-adv-x="750" 
d="M536 161h100v153h-2zM744 0h-175v57h56v44h-163v66l166 257h71v-263h45v-60h-45v-44h45v-57zM155 -16l425 738h74l-423 -738h-76zM245 290h-186v62h54v297h-54v62h132v-359h54v-62z" />
    <glyph glyph-name="onesuperior" unicode="&#xb9;" horiz-adv-x="300" 
d="M245 290h-186v62h54v297h-54v62h132v-359h54v-62z" />
    <glyph glyph-name="guillemotright" unicode="&#xbb;" horiz-adv-x="400" 
d="M178 508c51 0 77 38 77 82c0 52 -20 87 -81 87c-24 0 -77 -9 -77 -87c0 -32 18 -82 81 -82zM333 675v-165h46v-57h-108v40c-24 -27 -61 -46 -95 -46c-131 0 -157 107 -157 135c0 118 93 156 147 156c42 0 78 -19 104 -48v42h109v-57h-46z" />
    <glyph glyph-name="OE" unicode="&#x152;" horiz-adv-x="400" 
d="M284 592c0 43 -23 85 -84 85s-84 -42 -84 -85c0 -30 16 -84 84 -84c67 0 84 54 84 84zM199 738c92 0 163 -62 163 -146c0 -87 -71 -145 -162 -145c-93 0 -162 61 -162 145c0 87 69 146 161 146z" />
    <glyph glyph-name="questiondown" unicode="&#xbf;" horiz-adv-x="556" 
d="M387 321l-169 -222c16 -8 37 -13 60 -13c94 0 134 73 134 145c0 32 -8 65 -25 90zM556 543l-103 -135c46 -41 74 -103 74 -177c0 -145 -107 -241 -249 -241c-45 0 -87 10 -122 28l-79 -104h-81l107 140c-47 43 -74 103 -74 177c0 145 107 241 249 241
c44 0 85 -10 121 -28l76 99h81zM169 142l169 221c-17 9 -37 13 -60 13c-94 0 -134 -73 -134 -145c0 -32 8 -64 25 -89z" />
    <glyph glyph-name="uni009B" horiz-adv-x="556" 
d="M412 231c0 72 -40 145 -134 145s-134 -73 -134 -145s40 -145 134 -145s134 73 134 145zM527 231c0 -145 -107 -241 -249 -241s-249 96 -249 241s107 241 249 241s249 -96 249 -241zM397 662h65c-14 -62 -39 -120 -111 -120c-27 0 -52 8 -77 17c-24 9 -47 17 -70 17
c-26 0 -39 -19 -46 -41h-62c9 64 44 122 115 122c27 0 53 -8 77 -18c25 -10 46 -19 62 -19c25 0 42 20 47 42z" />
    <glyph glyph-name="p" unicode="p" horiz-adv-x="611" 
d="M206 462v-63c51 49 89 73 162 73c107 0 214 -96 214 -241s-107 -241 -214 -241c-73 0 -125 23 -152 59l1 1h-2v-163h69v-95h-252v95h68v480h-68v95h174zM334 86c89 0 133 70 133 148c0 74 -44 142 -133 142c-88 0 -132 -68 -132 -142c0 -78 44 -148 132 -148z" />
    <glyph glyph-name="Scaron" unicode="&#x160;" horiz-adv-x="620" 
d="M313 662v-742h61v742h-61zM484 662v-742h81v-60h-443v60h81v391c-101 0 -162 87 -162 198c0 123 67 213 209 213h315v-60h-81z" />
    <glyph glyph-name="parenleft" unicode="(" horiz-adv-x="278" 
d="M164 738h91c-71 -123 -114 -267 -114 -410c0 -151 42 -299 114 -432h-88c-74 125 -131 260 -131 407c0 163 47 296 128 435z" />
    <glyph glyph-name="parenright" unicode=")" horiz-adv-x="278" 
d="M114 -104h-91c71 123 114 267 114 410c0 151 -42 299 -114 432h88c74 -125 131 -260 131 -407c0 -163 -47 -296 -128 -435z" />
    <glyph glyph-name="percent" unicode="%" horiz-adv-x="833" 
d="M175 -28l417 752h73l-418 -752h-72zM628 -16c-89 0 -167 69 -167 162c0 94 73 162 167 162c93 0 167 -70 167 -162c0 -91 -79 -162 -167 -162zM628 218c-40 0 -77 -25 -77 -72s37 -72 77 -72s77 25 77 72s-37 72 -77 72zM206 398c-89 0 -167 69 -167 162
c0 94 73 162 167 162c93 0 167 -70 167 -162c0 -91 -79 -162 -167 -162zM206 632c-40 0 -77 -25 -77 -72s37 -72 77 -72s77 25 77 72s-37 72 -77 72z" />
    <glyph glyph-name="period" unicode="." horiz-adv-x="250" 
d="M125 168c49 0 89 -39 89 -89s-40 -89 -89 -89s-89 39 -89 89s40 89 89 89z" />
    <glyph glyph-name="aacute" unicode="&#xe1;" horiz-adv-x="250" 
d="M125 320c49 0 89 -39 89 -89s-40 -89 -89 -89s-89 39 -89 89s40 89 89 89z" />
    <glyph glyph-name="adieresis" unicode="&#xe4;" horiz-adv-x="1000" 
d="M75 -23l412 752h71l-414 -752h-69zM161 636c-35 0 -65 -29 -65 -65s29 -65 65 -65c35 0 65 29 65 65s-29 65 -65 65zM474 286c82 0 151 -68 151 -151s-68 -151 -151 -151c-84 0 -151 68 -151 151s68 151 151 151zM474 200c-35 0 -65 -29 -65 -65s29 -65 65 -65
c35 0 65 29 65 65s-29 65 -65 65zM839 286c82 0 151 -68 151 -151s-68 -151 -151 -151c-84 0 -151 68 -151 151s68 151 151 151zM839 200c-35 0 -65 -29 -65 -65s29 -65 65 -65c35 0 65 29 65 65s-29 65 -65 65zM161 722c82 0 151 -68 151 -151s-68 -151 -151 -151
c-84 0 -151 68 -151 151s68 151 151 151z" />
    <glyph glyph-name="plus" unicode="+" horiz-adv-x="600" 
d="M247 284v178h105v-178h178v-105h-178v-179h-105v179h-177v105h177z" />
    <glyph glyph-name="plusminus" unicode="&#xb1;" horiz-adv-x="600" 
d="M247 351v111h105v-111h178v-105h-178v-114h-105v114h-177v105h177zM70 0v105h460v-105h-460z" />
    <glyph glyph-name="q" unicode="q" horiz-adv-x="611" 
d="M512 367v-480h68v-95h-252v95h69v164h-2c-26 -37 -82 -61 -147 -61c-111 0 -218 96 -218 241s107 241 218 241c69 0 107 -23 158 -72v62h174v-95h-68zM277 86c89 0 133 70 133 148c0 74 -44 142 -133 142c-88 0 -132 -68 -132 -142c0 -78 44 -148 132 -148z" />
    <glyph glyph-name="question" unicode="?" horiz-adv-x="500" 
d="M142 506h-112c10 133 87 216 223 216c110 0 203 -84 203 -197c0 -109 -55 -179 -163 -200v-107h-115v196c19 -2 37 -1 55 0c60 3 108 36 108 100c0 66 -39 98 -105 98s-91 -47 -94 -106zM242 168c49 0 89 -39 89 -89s-40 -89 -89 -89s-89 39 -89 89s40 89 89 89z" />
    <glyph glyph-name="Agrave" unicode="&#xc0;" horiz-adv-x="500" 
d="M358 8h112c-10 -133 -87 -216 -223 -216c-110 0 -203 84 -203 197c0 109 55 179 163 200v107h115v-196c-19 2 -37 1 -55 0c-60 -3 -108 -36 -108 -100c0 -66 39 -98 105 -98c67 0 92 48 94 106zM259 524c49 0 89 -39 89 -89s-40 -89 -89 -89s-89 39 -89 89s40 89 89 89z
" />
    <glyph glyph-name="quotedbl" unicode="&#x22;" 
d="M123 657l-19 -204c-1 -8 -9 -31 -29 -31c-21 0 -29 23 -30 31l-19 204c-2 25 -6 81 49 81c54 0 50 -56 48 -81zM307 657l-19 -204c-1 -8 -9 -31 -30 -31c-20 0 -28 23 -29 31l-19 204c-2 25 -6 81 48 81c55 0 51 -56 49 -81z" />
    <glyph glyph-name="atilde" unicode="&#xe3;" horiz-adv-x="556" 
d="M294 -40l83 213h127l-83 -213h-127zM53 -40l83 213h127l-83 -213h-127z" />
    <glyph glyph-name="Ograve" unicode="&#xd2;" horiz-adv-x="556" 
d="M293 509l83 213h127l-83 -213h-127zM52 509l83 213h127l-83 -213h-127z" />
    <glyph glyph-name="Oacute" unicode="&#xd3;" horiz-adv-x="556" 
d="M53 509l83 213h127l-83 -213h-127zM294 509l83 213h127l-83 -213h-127z" />
    <glyph glyph-name="Ocircumflex" unicode="&#xd4;" horiz-adv-x="278" 
d="M244 722l-83 -213h-127l83 213h127z" />
    <glyph glyph-name="Otilde" unicode="&#xd5;" horiz-adv-x="278" 
d="M34 509l83 213h127l-83 -213h-127z" />
    <glyph glyph-name="acircumflex" unicode="&#xe2;" horiz-adv-x="278" 
d="M34 -40l83 213h127l-83 -213h-127z" />
    <glyph glyph-name="quotesingle" unicode="'" horiz-adv-x="222" 
d="M160 657l-19 -204c-1 -8 -9 -31 -30 -31c-20 0 -28 23 -29 31l-19 204c-2 25 -6 81 48 81c55 0 51 -56 49 -81z" />
    <glyph glyph-name="r" unicode="r" horiz-adv-x="389" 
d="M208 462v-63h6c1 34 32 73 85 73c42 0 86 -29 86 -83c0 -50 -40 -82 -86 -82c-44 0 -79 29 -85 66h-6v-278h65v-95h-236v95h56v272h-56v95h171z" />
    <glyph glyph-name="scaron" unicode="&#x161;" horiz-adv-x="800" 
d="M400 -16c-205 0 -354 162 -354 376c0 213 149 378 354 378s354 -165 354 -378c0 -214 -149 -376 -354 -376zM400 49c157 0 267 138 267 311c0 174 -110 313 -267 313s-267 -140 -267 -313s110 -311 267 -311zM229 549v22h209c63 0 112 -33 112 -106
c0 -45 -28 -92 -78 -107l58 -89c21 -31 42 -61 61 -86v-15h-96c-30 0 -63 108 -103 176h-24v-107c0 -31 0 -40 43 -42v-27h-182v27c44 2 44 11 44 42v271c0 31 0 39 -44 41zM368 544v-173h26c44 0 53 50 53 90c0 61 -17 83 -49 83h-30z" />
    <glyph glyph-name="ucircumflex" unicode="&#xfb;" 
d="M166 531c-59 0 -106 48 -106 107c0 58 47 106 106 106c58 0 107 -48 107 -106c0 -59 -49 -107 -107 -107zM111 638c0 -33 23 -56 55 -56s56 24 56 56c0 31 -25 55 -56 55c-32 0 -55 -24 -55 -55z" />
    <glyph glyph-name="s" unicode="s" horiz-adv-x="500" 
d="M334 437v25h92v-149h-97c-5 26 -17 45 -35 57c-17 12 -40 18 -65 18c-33 0 -75 -8 -75 -51c0 -86 301 5 303 -201c1 -108 -81 -146 -176 -146c-42 0 -96 10 -127 40v-30h-100v157h99c10 -27 24 -48 43 -62c20 -14 44 -21 73 -21c32 0 84 4 84 46c0 99 -303 7 -303 201
c0 103 78 151 173 151c40 0 79 -11 111 -35z" />
    <glyph glyph-name="scaron" unicode="&#x161;" horiz-adv-x="500" 
d="M334 437v25h92v-149h-97c-5 26 -17 45 -35 57c-17 12 -40 18 -65 18c-33 0 -75 -8 -75 -51c0 -86 301 5 303 -201c1 -108 -81 -146 -176 -146c-42 0 -96 10 -127 40v-30h-100v157h99c10 -27 24 -48 43 -62c20 -14 44 -21 73 -21c32 0 84 4 84 46c0 99 -303 7 -303 201
c0 103 78 151 173 151c40 0 79 -11 111 -35zM427 674l-115 -146h-125l-113 146h112l64 -83l63 83h114z" />
    <glyph glyph-name="Euro" unicode="&#x20ac;" horiz-adv-x="500" 
d="M153 343l115 -123c17 -18 30 -30 56 -30c22 0 43 20 43 44c0 10 -4 17 -17 31l-126 133c-12 13 -27 26 -46 24c-24 -3 -45 -18 -45 -47c0 -11 12 -24 20 -32zM421 722v-165h-100v75h-37c-42 0 -55 -16 -55 -44c0 -14 -1 -31 26 -59l152 -158c39 -40 65 -88 65 -141
c0 -69 -44 -111 -104 -134c23 -23 31 -52 31 -85c0 -104 -97 -127 -182 -127h-127v164h100v-74c29 0 99 0 99 44c0 19 -20 43 -39 63l-176 184c-39 41 -46 51 -46 115c0 63 56 116 114 128c-14 24 -23 53 -23 81c0 72 64 133 156 133h146z" />
    <glyph glyph-name="semicolon" unicode=";" horiz-adv-x="250" 
d="M4 -40l83 213h127l-83 -213h-127zM125 472c49 0 89 -39 89 -89s-40 -89 -89 -89s-89 39 -89 89s40 89 89 89z" />
    <glyph glyph-name="seven" unicode="7" horiz-adv-x="500" 
d="M159 475h-120v231h429v-110l-245 -596h-129l243 596h-178v-121z" />
    <glyph glyph-name="six" unicode="6" horiz-adv-x="500" 
d="M251 94c48 0 93 44 93 117s-45 117 -93 117c-49 0 -94 -44 -94 -117s45 -117 94 -117zM37 199v288c0 164 100 235 208 235c131 0 205 -93 205 -215h-112c-1 58 -27 105 -91 105c-51 0 -90 -40 -90 -137v-83c33 29 75 46 120 46c84 0 187 -65 187 -220
c0 -139 -78 -234 -222 -234c-98 0 -205 85 -205 215z" />
    <glyph glyph-name="slash" unicode="/" horiz-adv-x="278" 
d="M288 738l-216 -754h-82l216 754h82z" />
    <glyph glyph-name="space" unicode=" " horiz-adv-x="250" 
 />
    <glyph glyph-name="sterling" unicode="&#xa3;" horiz-adv-x="500" 
d="M19 -16v126c82 8 104 63 104 139c0 22 -7 43 -10 59h-92v95h74c-11 38 -19 86 -19 132c0 99 78 187 189 187c147 0 183 -116 183 -228h-120c0 57 -3 118 -68 118c-48 0 -68 -33 -68 -75c0 -45 17 -97 28 -134h109v-95h-98c1 -17 3 -37 3 -59c0 -45 -13 -93 -35 -132
c25 -14 51 -23 78 -23c69 0 81 32 80 99h113c10 -112 -44 -209 -166 -209c-53 0 -105 26 -143 61c-34 -44 -88 -62 -142 -61z" />
    <glyph glyph-name="t" unicode="t" 
d="M29 462h68v160h115v-160h81v-95h-81v-243c0 -34 16 -38 45 -36l29 2v-90c-17 -3 -64 -10 -82 -10c-86 0 -107 32 -107 112v265h-68v95z" />
    <glyph glyph-name="thorn" unicode="&#xfe;" horiz-adv-x="611" 
d="M217 722v-322h2c38 49 76 72 148 72c91 0 215 -69 215 -243c0 -154 -93 -239 -215 -239c-68 0 -124 23 -150 60h-2v-163h69v-95h-252v95h70v740h-68v95h183zM467 229c1 78 -50 147 -132 147s-133 -69 -133 -147c0 -71 51 -143 133 -143s132 72 132 143z" />
    <glyph glyph-name="three" unicode="3" horiz-adv-x="500" 
d="M226 317v89c69 1 104 30 104 101c0 57 -23 105 -87 105c-66 0 -85 -48 -85 -121v-50h-112v31c0 219 132 250 202 250c57 0 202 -35 202 -218c0 -78 -40 -125 -68 -142v-2c55 -33 78 -92 78 -156c0 -137 -87 -220 -209 -220c-155 0 -219 131 -212 263h112
c1 -79 13 -153 100 -153c63 0 89 57 89 112c0 77 -37 112 -114 111z" />
    <glyph glyph-name="threequarters" unicode="&#xbe;" horiz-adv-x="750" 
d="M525 161h100v153h-2zM744 0h-175v57h56v44h-163v66l166 257h71v-263h45v-60h-45v-44h45v-57zM158 -16l425 754h74l-423 -754h-76zM25 437h78c0 -47 8 -92 63 -92c41 0 58 34 58 67c0 47 -24 68 -74 67v53c44 1 67 18 67 61c0 34 -15 63 -56 63c-43 0 -54 -42 -54 -87v-16
h-78v19c0 131 89 150 135 150c37 0 131 -21 131 -131c0 -47 -26 -75 -44 -85v-1c36 -20 51 -55 51 -94c0 -82 -57 -132 -136 -132c-104 0 -146 79 -141 158z" />
    <glyph glyph-name="threesuperior" unicode="&#xb3;" horiz-adv-x="300" 
d="M8 437h78c0 -47 8 -92 63 -92c41 0 58 34 58 67c0 47 -24 68 -74 67v53c44 1 67 18 67 61c0 34 -15 63 -56 63c-43 0 -54 -42 -54 -87v-16h-78v19c0 131 89 150 135 150c37 0 131 -21 131 -131c0 -47 -26 -75 -44 -85v-1c36 -20 51 -55 51 -94c0 -82 -57 -132 -136 -132
c-104 0 -146 79 -141 158z" />
    <glyph glyph-name="divide" unicode="&#xf7;" 
d="M285 662h65c-14 -62 -39 -120 -111 -120c-27 0 -52 8 -77 17c-24 9 -47 17 -70 17c-26 0 -39 -19 -46 -41h-62c9 64 44 122 115 122c27 0 53 -8 77 -18c25 -10 46 -19 62 -19c25 0 42 20 47 42z" />
    <glyph glyph-name="ordfeminine" unicode="&#xaa;" horiz-adv-x="1000" 
d="M257 695v-308c0 -32 0 -39 51 -42v-27h-217v27c52 3 51 10 51 42v308h-43c-38 0 -56 -27 -63 -60h-26v87h379v-87h-26c-7 33 -24 60 -63 60h-43zM856 722h134v-25c-50 -2 -52 -12 -52 -42v-268c0 -32 0 -39 51 -42v-27h-216v27c51 3 50 10 50 42v211h-2l-141 -279h-16
l-131 279h-2v-180c0 -55 1 -71 52 -73v-27h-135v27c49 2 50 18 50 73v226c-15 33 -40 53 -71 53v25h157l130 -269h2z" />
    <glyph glyph-name="two" unicode="2" horiz-adv-x="500" 
d="M456 0h-417v110l194 234c41 49 96 109 96 177c0 73 -59 91 -86 91c-39 0 -94 -12 -94 -112v-76h-112v81c0 192 142 217 201 217c142 0 211 -105 211 -194c0 -86 -43 -135 -94 -201l-168 -217h157v95h112v-205z" />
    <glyph glyph-name="twosuperior" unicode="&#xb2;" horiz-adv-x="300" 
d="M290 290h-276v63l128 142c27 29 63 66 63 107c0 31 -25 54 -60 54c-31 0 -53 -20 -53 -76v-37h-78v49c2 115 93 130 132 130c74 0 137 -44 137 -116c0 -52 -27 -82 -61 -121l-111 -129h101v56h78v-122z" />
    <glyph glyph-name="u" unicode="u" horiz-adv-x="611" 
d="M400 0v60c-42 -40 -103 -70 -162 -70c-88 0 -144 34 -144 151v226h-64v95h179v-283c0 -69 11 -93 69 -93c20 0 117 10 117 129v152h-71v95h186v-367h66v-95h-176z" />
    <glyph glyph-name="uni009C" horiz-adv-x="611" 
d="M400 0v60c-42 -40 -103 -70 -162 -70c-88 0 -144 34 -144 151v226h-64v95h179v-283c0 -69 11 -93 69 -93c20 0 117 10 117 129v152h-71v95h186v-367h66v-95h-176zM203 528l94 146h155l-137 -146h-112z" />
    <glyph glyph-name="uni009E" horiz-adv-x="611" 
d="M400 0v60c-42 -40 -103 -70 -162 -70c-88 0 -144 34 -144 151v226h-64v95h179v-283c0 -69 11 -93 69 -93c20 0 117 10 117 129v152h-71v95h186v-367h66v-95h-176zM224 674h125l115 -146h-114l-63 82l-64 -82h-112z" />
    <glyph glyph-name="uni009F" horiz-adv-x="611" 
d="M400 0v60c-42 -40 -103 -70 -162 -70c-88 0 -144 34 -144 151v226h-64v95h179v-283c0 -69 11 -93 69 -93c20 0 117 10 117 129v152h-71v95h186v-367h66v-95h-176zM253 539h-125v114h125v-114zM447 539h-125v114h125v-114z" />
    <glyph glyph-name="uni009D" horiz-adv-x="611" 
d="M400 0v60c-42 -40 -103 -70 -162 -70c-88 0 -144 34 -144 151v226h-64v95h179v-283c0 -69 11 -93 69 -93c20 0 117 10 117 129v152h-71v95h186v-367h66v-95h-176zM123 674h155l94 -146h-112z" />
    <glyph glyph-name="underscore" unicode="_" horiz-adv-x="500" 
d="M500 -125h-500v60h500v-60z" />
    <glyph glyph-name="v" unicode="v" horiz-adv-x="556" 
d="M312 -6h-80l-155 373h-54v95h226v-95h-49l80 -212h2l84 212h-57v95h224v-95h-53z" />
    <glyph glyph-name="w" unicode="w" horiz-adv-x="833" 
d="M81 367h-50v95h211v-95h-49l78 -226h2l93 226h-55v95h220v-95h-59l88 -231h2l92 231h-60v95h208v-95h-44l-156 -373h-78l-109 253l-105 -253h-76z" />
    <glyph glyph-name="x" unicode="x" horiz-adv-x="556" 
d="M37 95h55l119 134v2l-114 136h-60v95h184v-73l61 -77h2l59 77v73h175v-95h-69l-114 -132v-2l116 -138h67v-95h-194v86l-56 73h-2l-51 -67v-92h-178v95z" />
    <glyph glyph-name="y" unicode="y" horiz-adv-x="556" 
d="M268 -113h76v-95h-271v95h80l57 122l-156 358h-41v95h220v-95h-62l98 -228h2l109 228h-63v95h226v-95h-51z" />
    <glyph glyph-name="yacute" unicode="&#xfd;" horiz-adv-x="556" 
d="M268 -113h76v-95h-271v95h80l57 122l-156 358h-41v95h220v-95h-62l98 -228h2l109 228h-63v95h226v-95h-51zM194 528l94 146h155l-137 -146h-112z" />
    <glyph glyph-name="Oslash" unicode="&#xd8;" horiz-adv-x="556" 
d="M268 -113h76v-95h-271v95h80l57 122l-156 358h-41v95h220v-95h-62l98 -228h2l109 228h-63v95h226v-95h-51zM244 539h-125v114h125v-114zM438 539h-125v114h125v-114z" />
    <glyph glyph-name="Zcaron" unicode="&#x17d;" horiz-adv-x="500" 
d="M527 611h-27l-134 -188h91v-68h-143l-2 -2v-44h145v-68h-145v-146h81v-95h-287v95h86v146h-143v68h143v44l-1 2h-142v68h91l-140 188h-27v95h212v-95h-54l132 -179l124 179h-50v95h190v-95z" />
    <glyph glyph-name="z" unicode="z" horiz-adv-x="444" 
d="M267 367h-128v-60h-104v155h375v-95l-238 -272h144v60h104v-155h-396v95z" />
    <glyph glyph-name="zcaron" unicode="&#x17e;" horiz-adv-x="444" 
d="M267 367h-128v-60h-104v155h375v-95l-238 -272h144v60h104v-155h-396v95zM399 674l-115 -146h-125l-113 146h112l64 -83l63 83h114z" />
    <glyph glyph-name="zero" unicode="0" horiz-adv-x="500" 
d="M36 217v272c0 145 94 233 214 233s214 -88 214 -233v-272c0 -145 -94 -233 -214 -233s-214 88 -214 233zM156 499v-292c0 -64 28 -113 94 -113s94 49 94 113v292c0 64 -28 113 -94 113s-94 -49 -94 -113z" />
  </font>
</defs>
</svg>
